<svg width="90" height="25" viewBox="0 0 90 25" fill="none" xmlns="http://www.w3.org/2000/svg">
<path d="M51.1661 0.500005C62.5519 0.500002 73.7554 3.35894 83.7491 8.81457L88.8922 11.6223C89.5866 12.0014 89.5866 12.9986 88.8922 13.3777L83.749 16.1854C73.7554 21.641 62.5519 24.5 51.1661 24.5L0.5 24.5L0.5 0.500017L51.1661 0.500005Z" fill="#232323"/>
<path d="M51.1661 0.500005C62.5519 0.500002 73.7554 3.35894 83.7491 8.81457L88.8922 11.6223C89.5866 12.0014 89.5866 12.9986 88.8922 13.3777L83.749 16.1854C73.7554 21.641 62.5519 24.5 51.1661 24.5L0.5 24.5L0.5 0.500017L51.1661 0.500005Z" fill="url(#paint0_linear_2758_62745)"/>
<defs>
<linearGradient id="paint0_linear_2758_62745" x1="90.5" y1="12.5" x2="0.5" y2="12.5" gradientUnits="userSpaceOnUse">
<stop stop-color="white" stop-opacity="0.4"/>
<stop offset="1" stop-color="white" stop-opacity="0"/>
</linearGradient>
</defs>
</svg>
