<svg width="16" height="10" viewBox="0 0 16 10" fill="none" xmlns="http://www.w3.org/2000/svg">
<path d="M0.802841 2.19439C0.509948 1.9015 0.509948 1.42663 0.802841 1.13373C1.09573 0.84084 1.57061 0.84084 1.8635 1.13373L0.802841 2.19439ZM7.99984 8.33073L8.53017 8.86106C8.38952 9.00171 8.19875 9.08073 7.99984 9.08073C7.80093 9.08073 7.61016 9.00171 7.46951 8.86106L7.99984 8.33073ZM14.1362 1.13373C14.4291 0.840839 14.9039 0.840839 15.1968 1.13373C15.4897 1.42663 15.4897 1.9015 15.1968 2.19439L14.1362 1.13373ZM1.8635 1.13373L8.53017 7.8004L7.46951 8.86106L0.802841 2.19439L1.8635 1.13373ZM7.46951 7.8004L14.1362 1.13373L15.1968 2.19439L8.53017 8.86106L7.46951 7.8004Z" fill="#5E6165"/>
</svg>
