<svg width="6" height="11" viewBox="0 0 6 11" fill="none" xmlns="http://www.w3.org/2000/svg">
<path d="M1.3953 0.771447C1.20004 0.576184 0.883457 0.576184 0.688195 0.771447C0.492932 0.966709 0.492932 1.28329 0.688195 1.47855L1.3953 0.771447ZM5.41675 5.5L5.7703 5.85355C5.96556 5.65829 5.96556 5.34171 5.7703 5.14645L5.41675 5.5ZM0.688195 9.52145C0.492932 9.71671 0.492932 10.0333 0.688195 10.2286C0.883457 10.4238 1.20004 10.4238 1.3953 10.2286L0.688195 9.52145ZM0.688195 1.47855L5.06319 5.85355L5.7703 5.14645L1.3953 0.771447L0.688195 1.47855ZM5.06319 5.14645L0.688195 9.52145L1.3953 10.2286L5.7703 5.85355L5.06319 5.14645Z" fill="#191818"/>
</svg>
