<svg width="26" height="22" viewBox="0 0 26 22" fill="none" xmlns="http://www.w3.org/2000/svg">
<path d="M25.5 11.5C25.7761 11.5 26 11.2761 26 11C26 10.7239 25.7761 10.5 25.5 10.5V11.5ZM0.5 10.5C0.223858 10.5 0 10.7239 0 11C0 11.2761 0.223858 11.5 0.5 11.5V10.5ZM25.5 10.5H0.5V11.5H25.5V10.5Z" fill="#8D8D8D"/>
<path d="M10.1464 21.3536C10.3417 21.5488 10.6583 21.5488 10.8536 21.3536C11.0488 21.1583 11.0488 20.8417 10.8536 20.6464L10.1464 21.3536ZM0.5 11L0.146447 10.6464C-0.0488155 10.8417 -0.0488155 11.1583 0.146447 11.3536L0.5 11ZM10.8536 1.35355C11.0488 1.15829 11.0488 0.841709 10.8536 0.646447C10.6583 0.451184 10.3417 0.451184 10.1464 0.646447L10.8536 1.35355ZM10.8536 20.6464L0.853553 10.6464L0.146447 11.3536L10.1464 21.3536L10.8536 20.6464ZM0.853553 11.3536L10.8536 1.35355L10.1464 0.646447L0.146447 10.6464L0.853553 11.3536Z" fill="#8D8D8D"/>
</svg>
