<svg width="54" height="54" viewBox="0 0 54 54" fill="none" xmlns="http://www.w3.org/2000/svg">
<path d="M23.5397 3.27443C25.5337 1.57519 28.4663 1.57519 30.4603 3.27443L33.8519 6.1647C34.7063 6.89286 35.7687 7.33291 36.8878 7.42221L41.3297 7.77668C43.9412 7.98508 46.0149 10.0588 46.2233 12.6703L46.5778 17.1122C46.6671 18.2313 47.1071 19.2937 47.8353 20.1481L50.7256 23.5397C52.4248 25.5337 52.4248 28.4663 50.7256 30.4603L47.8353 33.8519C47.1071 34.7063 46.6671 35.7687 46.5778 36.8878L46.2233 41.3297C46.0149 43.9412 43.9412 46.0149 41.3297 46.2233L36.8878 46.5778C35.7687 46.6671 34.7063 47.1071 33.8519 47.8353L30.4603 50.7256C28.4663 52.4248 25.5337 52.4248 23.5397 50.7256L20.1481 47.8353C19.2937 47.1071 18.2313 46.6671 17.1122 46.5778L12.6703 46.2233C10.0588 46.0149 7.98508 43.9412 7.77668 41.3297L7.42221 36.8878C7.33291 35.7687 6.89286 34.7063 6.1647 33.8519L3.27443 30.4603C1.57519 28.4663 1.57519 25.5337 3.27443 23.5397L6.1647 20.1481C6.89286 19.2937 7.33291 18.2313 7.42221 17.1122L7.77668 12.6703C7.98508 10.0588 10.0588 7.98508 12.6703 7.77668L17.1122 7.42221C18.2313 7.33291 19.2937 6.89286 20.1481 6.1647L23.5397 3.27443Z" stroke="#C6E0FF" stroke-width="3.5" stroke-linecap="round" stroke-linejoin="round"/>
<path d="M35 21L24.3333 33L19 27" stroke="#067AFF" stroke-width="3.5" stroke-linecap="round" stroke-linejoin="round"/>
</svg>
