<svg width="67" height="47" viewBox="0 0 67 47" fill="none" xmlns="http://www.w3.org/2000/svg">
<path d="M0.929609 23.519C1.0434 32.1768 4.00183 39.6828 9.91869 45.9601C11.0376 47.1503 12.3272 47.3039 13.2754 46.3633C14.2236 45.4418 14.1288 44.1556 12.9909 42.9654C9.57733 39.3564 7.16886 35.1715 6.04997 30.3147C3.83115 20.5819 6.01204 11.9241 12.5927 4.43736C12.8202 4.16861 13.0857 3.91905 13.3133 3.65029C14.1288 2.70965 14.1098 1.44266 13.2754 0.617193C12.422 -0.227467 11.0945 -0.208272 10.2221 0.69398C6.3534 4.64853 3.62254 9.29416 2.12436 14.6501C1.3089 17.5488 0.910645 20.5051 0.929609 23.519Z" fill="#C6E0FF"/>
<path d="M66.0684 24.6863C65.9362 14.7405 62.9346 7.15642 56.9125 0.83951C55.9497 -0.178107 54.666 -0.274107 53.7599 0.570707C52.8348 1.43472 52.8537 2.77874 53.8354 3.81556C57.6299 7.79003 60.1784 12.4365 61.1789 17.8702C62.8968 27.144 60.6692 35.3617 54.4772 42.4466C54.2318 42.7346 53.9486 43.0034 53.7032 43.2914C52.8537 44.2514 52.8726 45.5571 53.7221 46.3827C54.5716 47.2083 55.8931 47.1699 56.7615 46.2675C61.0468 41.8514 63.954 36.6289 65.2188 30.5616C65.7286 28.2384 65.8985 25.8767 66.0684 24.6863Z" fill="#C6E0FF"/>
<path d="M9.92445 23.4778C10.0238 29.8888 12.2882 35.4502 16.8767 40.104C17.9295 41.1661 19.2603 41.2626 20.2337 40.3743C21.1871 39.4861 21.1474 38.173 20.0946 37.1109C15.9431 32.8626 14.0362 27.8033 14.4732 21.9716C14.8109 17.3178 16.7178 13.2819 20.0549 9.92188C20.5713 9.4005 20.9686 8.82119 20.909 8.0874C20.8494 7.1605 20.3926 6.48464 19.4788 6.15636C18.5453 5.80878 17.7308 6.0405 17.0356 6.71637C14.6719 9.0143 12.8841 11.6791 11.6526 14.6915C10.5005 17.4916 9.90458 20.4267 9.92445 23.4778Z" fill="#8EC2FF"/>
<path d="M57.0716 23.4472C56.9723 16.9815 54.6473 11.4036 49.9974 6.75209C49.1628 5.92216 48.0897 5.76776 47.1558 6.32748C46.3013 6.8293 45.8641 7.83293 46.1821 8.75937C46.3212 9.16468 46.6192 9.56999 46.9372 9.8981C50.8916 13.9705 52.8191 18.7957 52.5807 24.3929C52.382 29.1216 50.5737 33.2133 47.2949 36.7067C47.1359 36.8805 46.9571 37.0542 46.7782 37.2279C45.8442 38.2122 45.8641 39.5439 46.7782 40.3932C47.6923 41.2231 49.0237 41.1652 49.9775 40.2388C52.6602 37.6139 54.6076 34.5451 55.7998 31.0516C56.6543 28.5812 57.0915 26.0528 57.0716 23.4472Z" fill="#8EC2FF"/>
<path d="M48.0779 22.3369C48.04 19.3486 46.6533 15.7938 43.88 12.825C42.9113 11.7898 41.6196 11.7312 40.7268 12.6101C39.8341 13.5086 39.8721 14.8172 40.8218 15.8719C44.8488 20.2861 44.8298 26.6729 40.8218 31.1262C39.8721 32.1809 39.8341 33.4895 40.7458 34.3684C41.6576 35.2669 42.9303 35.1692 43.899 34.1536C46.6153 31.3019 48.0969 27.4933 48.0779 22.3369Z" fill="#54A3FF"/>
<path d="M17.9209 23.4877C17.9848 27.609 19.5186 31.1639 22.6075 34.1327C23.6939 35.1679 25.1212 35.2656 26.1437 34.3867C27.1662 33.5077 27.1449 32.1795 26.1011 31.1443C21.5637 26.6715 21.5637 20.3235 26.1224 15.8312C27.1662 14.796 27.1875 13.4678 26.1437 12.5888C25.1425 11.7294 23.6939 11.8075 22.6501 12.8037C19.5186 15.7921 17.9848 19.3665 17.9209 23.4877Z" fill="#54A3FF"/>
</svg>
