<svg width="71" height="41" viewBox="0 0 71 41" fill="none" xmlns="http://www.w3.org/2000/svg">
<path d="M0.0272776 18.4453C0.622693 17.5872 1.2006 16.6941 1.84855 15.8885C2.32138 15.3106 2.98684 15.3281 3.42465 15.7659C3.87997 16.2213 3.82743 16.7641 3.31957 17.3595C2.91679 17.8324 2.4965 18.3052 2.19879 18.8306C1.56835 20.0214 0.920401 20.1265 0.00976562 19.1458C0.0272778 18.9006 0.0272776 18.673 0.0272776 18.4453Z" fill="#067AFF"/>
<path d="M70.9819 19.9694C70.6667 20.3721 70.3165 20.7574 69.7386 20.6173C69.1607 20.4947 69.0206 20.0219 68.8279 19.514C68.6178 18.9361 68.3201 18.3932 67.9874 17.8854C67.5846 17.255 67.5846 16.6771 68.0924 16.2918C68.5653 15.924 69.2132 15.9766 69.5985 16.5545C70.1238 17.36 70.5441 18.2532 70.9995 19.1113C70.9819 19.409 70.9819 19.6892 70.9819 19.9694Z" fill="#067AFF"/>
<path d="M0.0272776 21.7601C0.937913 20.7969 1.58587 20.937 2.21631 22.1278C2.4965 22.6532 2.89928 23.1085 3.28455 23.5463C3.77489 24.0892 3.87997 24.5971 3.47719 25.0699C3.0744 25.5602 2.39143 25.6303 1.90109 25.0874C1.21811 24.3169 0.640206 23.4238 0.00976562 22.6007C0.0272778 22.3205 0.0272776 22.0403 0.0272776 21.7601Z" fill="#067AFF"/>
<path d="M16.4702 19.839C16.19 19.0684 15.8923 18.3504 15.6647 17.5974C15.472 16.9319 15.8048 16.3891 16.4002 16.249C16.943 16.1089 17.4684 16.4241 17.6435 17.0545C17.9237 18.0352 18.344 18.9108 19.1496 19.5588C19.3247 19.6989 19.5349 19.874 19.745 19.8915C21.1285 19.9265 22.4944 19.909 23.8429 19.909C23.6853 18.9984 23.5276 18.1753 23.37 17.3522C23.335 17.1421 23.335 16.9319 23.3525 16.7393C23.4051 16.1089 23.8604 15.6536 24.4208 15.7061C25.0337 15.7586 25.4014 16.1264 25.419 16.7393C25.4365 17.7025 25.5415 18.6481 26.137 19.4362C26.3296 19.6814 26.6974 19.8915 27.0126 19.909C27.7481 19.9791 28.4836 19.9265 29.2191 19.944C30.7077 19.9966 32.0036 20.557 33.1068 21.5552C33.4746 21.8879 33.7898 22.2381 34.14 22.5709C34.9456 23.3414 35.7862 23.3414 36.5742 22.5884C36.8194 22.3432 37.0646 22.098 37.3098 21.8529C38.5881 20.557 40.1467 19.909 41.968 19.9265C42.4934 19.9265 43.0363 19.874 43.5616 19.944C44.1745 20.0141 44.5598 19.7514 44.7349 19.226C44.9626 18.4905 45.1903 17.7375 45.2778 16.967C45.3829 16.1789 45.7156 15.6886 46.3461 15.6886C46.9765 15.6886 47.4318 16.1789 47.3618 16.9845C47.2742 17.9301 47.0816 18.8758 46.924 19.9265C47.7996 19.9265 48.7452 19.9265 49.7084 19.9265C51.4947 19.9265 52.3703 19.2961 52.9307 17.5624C53.0007 17.3698 53.0357 17.1596 53.1058 16.967C53.3159 16.4066 53.8588 16.1264 54.3667 16.284C54.892 16.4416 55.2598 16.967 55.1022 17.5274C54.8745 18.3154 54.5418 19.0684 54.2616 19.8915C57.2912 19.8915 60.3383 19.8915 63.4205 19.8915C63.3854 19.7864 63.3679 19.7164 63.3329 19.6814C59.4627 15.8987 55.5225 12.2036 50.9343 9.2791C49.7785 8.54359 48.4826 8.00071 47.2217 7.44032C46.3811 7.07256 45.4705 7.16013 44.6824 7.63296C43.0363 8.59613 41.3901 9.57681 39.7965 10.6275C38.8683 11.2405 38.0453 11.976 37.1697 12.6765C35.8562 13.7272 34.858 13.6922 33.4921 12.6765C31.5482 11.223 29.5869 9.82198 27.608 8.42101C25.6291 7.02003 23.6327 7.02003 21.5137 8.22837C18.5367 9.90954 15.8573 11.976 13.3005 14.2C11.3391 15.9162 9.46533 17.7375 7.53899 19.5062C7.43391 19.5938 7.34635 19.6989 7.11869 19.944C7.97679 19.944 8.67728 19.944 9.36026 19.944C9.62294 19.944 9.86811 19.9265 10.1308 19.944C10.7437 19.9791 11.164 20.3819 11.1815 20.9247C11.199 21.5026 10.7963 21.958 10.1483 22.0105C9.58792 22.0455 9.01001 22.0105 8.43211 22.0105C8.36206 22.098 8.29201 22.1856 8.22196 22.2907C8.43211 22.4133 8.69479 22.5008 8.86991 22.6584C14.6139 28.2273 21.4262 31.6947 29.3242 32.9381C37.8176 34.2866 45.8732 32.8681 53.4385 28.8052C53.7362 28.6476 54.0339 28.455 54.3491 28.2974C54.9796 27.9646 55.575 28.1047 55.8727 28.6126C56.1879 29.1555 56.0128 29.8034 55.3649 30.1186C53.2108 31.1519 51.0744 32.2726 48.8503 33.1307C44.157 34.917 39.2711 35.67 34.2451 35.4949C23.6502 35.1096 14.5789 31.1694 6.99611 23.7442C6.26059 23.0262 5.49006 22.3257 4.71952 21.6427C4.03654 21.0123 4.01903 20.0491 4.75454 19.3311C6.45323 17.6675 8.15192 15.9863 9.90314 14.3927C13.0728 11.5207 16.3126 8.73623 20.0952 6.66978C21.0934 6.1269 22.1967 5.72412 23.2825 5.35637C24.4558 4.9711 25.6116 5.18124 26.7324 5.65407C29.2892 6.72232 31.4607 8.40349 33.6497 10.0847C34.0525 10.3999 34.4728 10.6976 34.823 11.0478C35.2083 11.4156 35.4885 11.3455 35.8913 11.0478C37.8702 9.57681 39.8665 8.1233 41.8804 6.70481C44.6299 4.77846 47.4143 4.831 50.3213 6.47715C53.7012 8.40349 56.7308 10.7676 59.6028 13.3419C61.7218 15.2333 63.7357 17.2297 65.7846 19.2085C66.8354 20.2067 66.7128 21.0823 65.557 21.9404C65.1367 22.2557 64.7864 22.676 64.4012 23.0262C62.9476 24.3396 61.5116 25.6705 60.0406 26.9664C59.3927 27.5444 58.7622 27.5268 58.3419 27.019C57.9041 26.4761 58.0442 25.9157 58.7622 25.3203C59.9531 24.3046 61.1439 23.2714 62.4923 22.098C62.0896 22.063 61.9144 22.028 61.7218 22.028C55.1547 22.028 48.6051 22.028 42.0381 22.028C40.7071 22.028 39.5688 22.4308 38.7107 23.429C36.6968 25.8106 34.0875 25.8982 31.986 23.429C31.1104 22.3958 29.9371 22.0105 28.5887 22.028C24.2982 22.0455 19.9902 22.028 15.6997 22.028C15.4895 22.028 15.2794 22.0455 15.0692 22.028C14.4213 21.9755 13.9835 21.5552 13.9835 20.9948C13.9835 20.3994 14.4213 19.9791 15.1218 19.9616C15.5421 19.944 15.9449 19.944 16.3651 19.9265C16.4352 19.874 16.4527 19.8565 16.4702 19.839Z" fill="#7EBAFF"/>
<path d="M51.9175 36.9393C51.5672 36.5541 51.1294 36.2914 51.0594 35.9586C50.9893 35.6084 51.182 35.013 51.4622 34.8554C52.3553 34.33 53.3009 33.9097 54.2816 33.577C54.5969 33.4719 55.2098 33.6996 55.3849 33.9623C55.5775 34.2249 55.56 34.9955 55.3674 35.1181C54.3167 35.766 53.1608 36.3089 51.9175 36.9393Z" fill="#067AFF"/>
<path d="M40.6034 4.20631C40.4983 4.36392 40.3407 4.71416 40.0605 4.9068C39.36 5.43216 38.6245 5.905 37.889 6.37783C37.3111 6.74559 36.6982 6.65802 36.3654 6.15017C36.0327 5.65983 36.1378 5.08192 36.6807 4.69665C37.4337 4.15377 38.1867 3.6284 38.9748 3.15557C39.7103 2.71777 40.5859 3.1906 40.6034 4.20631Z" fill="#067AFF"/>
<path d="M14.6153 7.01359C14.3877 6.80345 13.9674 6.61081 13.8798 6.3131C13.7747 5.98037 13.8448 5.40247 14.0724 5.20983C14.8955 4.54437 15.7886 3.96647 16.6993 3.42359C17.1721 3.1434 17.6624 3.33603 17.9601 3.79135C18.2754 4.26418 18.2228 4.77203 17.8025 5.10476C16.9795 5.7352 16.0863 6.27808 15.2107 6.83847C15.1057 6.90852 14.9305 6.92603 14.6153 7.01359Z" fill="#067AFF"/>
<path d="M54.2425 3.71875C54.5052 3.77129 54.6453 3.77129 54.7329 3.84134C55.661 4.47178 56.6242 5.06719 57.4998 5.76768C57.8851 6.0829 57.85 6.60826 57.5348 7.02856C57.2196 7.43134 56.7643 7.64148 56.309 7.34378C55.4158 6.78339 54.5227 6.18797 53.7172 5.52251C53.4895 5.32987 53.4019 4.75197 53.507 4.41924C53.5946 4.12153 54.0149 3.91138 54.2425 3.71875Z" fill="#067AFF"/>
<path d="M8.46926 28.7453C8.24161 29.0431 8.084 29.4458 7.8038 29.5509C7.48858 29.6735 6.96322 29.691 6.71805 29.4984C5.91248 28.8854 5.15946 28.185 4.45897 27.467C4.05619 27.0467 4.09122 26.5213 4.494 26.101C4.89678 25.6807 5.40463 25.6282 5.85995 25.9959C6.61297 26.6089 7.31346 27.2743 8.01395 27.9398C8.20658 28.1149 8.27663 28.3951 8.46926 28.7453Z" fill="#067AFF"/>
<path d="M48.7111 0.808594C49.937 1.36898 51.0578 1.80679 52.091 2.38469C52.3186 2.50728 52.3712 3.19025 52.2661 3.5405C52.126 4.03084 51.6357 4.24099 51.1453 4.06587C50.1822 3.73313 49.254 3.36538 48.3259 2.94508C47.853 2.73494 47.6079 2.27962 47.818 1.80679C47.9931 1.43903 48.3784 1.17635 48.7111 0.808594Z" fill="#067AFF"/>
<path d="M34.9479 37.9527C35.4383 37.9527 35.9111 37.9352 36.4014 37.9527C36.9969 37.9877 37.3296 38.3555 37.3646 38.9334C37.3821 39.5288 37.0494 39.9491 36.489 39.9841C35.4558 40.0367 34.4226 40.0016 33.3893 39.9491C32.829 39.9141 32.5312 39.4938 32.5312 38.9509C32.5312 38.373 32.864 37.9877 33.4594 37.9352C33.9672 37.8827 34.4751 37.9177 34.983 37.9177C34.9479 37.9177 34.9479 37.9352 34.9479 37.9527Z" fill="#067AFF"/>
<path d="M67.2245 26.015C67.0494 25.8574 66.6291 25.6823 66.5065 25.3846C66.3839 25.0869 66.4365 24.5615 66.6466 24.3163C67.2771 23.5633 67.9601 22.8453 68.7131 22.2324C68.9583 22.0222 69.5537 21.9872 69.8339 22.1448C70.1141 22.3024 70.3767 22.8103 70.3592 23.143C70.3417 23.9661 68.4504 25.8224 67.6273 25.98C67.5573 25.9625 67.4872 25.98 67.2245 26.015Z" fill="#067AFF"/>
<path d="M66.1016 27.3596C65.8739 27.7274 65.7688 28.0426 65.5412 28.2527C64.9107 28.8482 64.2278 29.4261 63.5623 29.9865C63.0194 30.4243 62.4065 30.3892 62.0212 29.9339C61.636 29.4786 61.706 28.8832 62.2139 28.4104C62.8618 27.8325 63.4923 27.202 64.2103 26.7117C64.4905 26.5015 64.9983 26.4315 65.331 26.5366C65.6463 26.6066 65.8389 27.0444 66.1016 27.3596Z" fill="#067AFF"/>
<path d="M34.5285 7.13435C33.793 7.15186 31.0786 5.29557 31.0261 4.78771C30.9911 4.43747 31.0962 3.96464 31.3413 3.75449C31.569 3.54434 32.1469 3.42176 32.3921 3.57937C33.3202 4.12225 34.2133 4.75269 35.0364 5.45318C35.2465 5.6283 35.3166 6.2062 35.194 6.50391C35.0714 6.80162 34.6686 7.01177 34.5285 7.13435Z" fill="#067AFF"/>
<path d="M13.1948 7.99254C12.9497 8.36029 12.8096 8.67551 12.5644 8.88566C11.9339 9.46356 11.2685 9.98893 10.603 10.5318C10.0777 10.9521 9.4297 10.9171 9.06194 10.4618C8.69419 10.0064 8.72921 9.42854 9.23706 8.99073C9.92004 8.37781 10.6205 7.74737 11.3736 7.23951C11.6538 7.04688 12.1791 7.02936 12.5118 7.15195C12.7745 7.23951 12.9321 7.6598 13.1948 7.99254Z" fill="#067AFF"/>
<path d="M49.7623 37.1501C49.6047 37.3077 49.3595 37.728 49.0093 37.8506C48.1337 38.1833 47.2055 38.4285 46.2949 38.6561C45.6644 38.8137 45.1566 38.481 45.0165 37.9031C44.8764 37.3427 45.1741 36.8349 45.8045 36.6422C46.6451 36.3795 47.4857 36.1344 48.3263 35.9242C49.1144 35.7141 49.7623 36.1869 49.7623 37.1501Z" fill="#067AFF"/>
<path d="M29.6405 39.6735C28.9576 39.5509 27.9944 39.4283 27.0487 39.2357C26.4708 39.1131 26.1556 38.5527 26.2782 38.0274C26.4008 37.4845 26.8911 37.1167 27.469 37.2043C28.3797 37.3269 29.2903 37.467 30.2009 37.6421C30.8489 37.7647 31.1641 38.255 31.0765 38.8329C30.989 39.3758 30.5512 39.691 29.6405 39.6735Z" fill="#067AFF"/>
<path d="M40.0644 39.7943C39.2938 39.7943 38.8735 39.444 38.821 38.8837C38.7509 38.2882 39.1187 37.8154 39.7491 37.7278C40.6423 37.5877 41.5354 37.4652 42.4285 37.3601C43.0414 37.29 43.5493 37.6578 43.6369 38.2357C43.7244 38.7611 43.3917 39.2514 42.7963 39.409C42.6036 39.4616 42.3935 39.4966 42.1833 39.5141C41.4303 39.6016 40.6773 39.7067 40.0644 39.7943Z" fill="#067AFF"/>
<path d="M5.06761 15.1545C4.83995 14.9618 4.41966 14.7867 4.29707 14.4715C4.17449 14.1738 4.20951 13.6309 4.41966 13.4032C5.12015 12.6327 5.89068 11.9322 6.67873 11.2668C7.09903 10.9165 7.60688 11.0216 7.99215 11.4244C8.34239 11.8096 8.42995 12.3175 8.07971 12.6852C7.32668 13.4908 6.4861 14.2088 5.66302 14.9443C5.55795 15.0494 5.36532 15.0494 5.06761 15.1545Z" fill="#067AFF"/>
<path d="M23.8836 1.92785C23.8836 2.38317 23.5684 2.69839 23.0605 2.87351C22.255 3.1362 21.4494 3.39888 20.6263 3.66156C19.9959 3.87171 19.488 3.66156 19.2429 3.11868C19.0152 2.5758 19.2079 1.9979 19.8208 1.75273C20.6964 1.40248 21.5895 1.10478 22.5001 0.859604C23.2882 0.649457 23.8661 1.10477 23.8836 1.92785Z" fill="#067AFF"/>
<path d="M59.3894 7.41797C59.7396 7.6106 60.0373 7.71568 60.265 7.8908C60.913 8.41617 61.5434 8.94153 62.1738 9.50192C62.7517 10.0098 62.8043 10.5877 62.384 11.078C61.9812 11.5333 61.3858 11.5509 60.8429 11.1131C60.1424 10.5351 59.4244 9.99227 58.8115 9.34431C58.5663 9.08163 58.4788 8.52124 58.5663 8.171C58.6364 7.87329 59.0917 7.66314 59.3894 7.41797Z" fill="#067AFF"/>
<path d="M46.3627 1.70548C46.3277 2.26587 46.0125 2.58109 45.4871 2.72119C44.6465 2.94885 43.8059 3.159 42.9478 3.38666C42.3699 3.54427 41.8446 3.28158 41.6694 2.75621C41.4768 2.19582 41.6519 1.67046 42.1948 1.49534C43.193 1.1626 44.2087 0.882409 45.2594 0.689775C45.9074 0.56719 46.3802 1.09255 46.3627 1.70548Z" fill="#067AFF"/>
<path d="M26.4728 0.6875C27.4886 1.09028 28.5393 1.45804 29.52 1.93087C30.0103 2.15853 30.0979 2.7014 29.8702 3.19175C29.6426 3.6996 29.1872 3.90975 28.6619 3.73463C27.7162 3.43692 26.7881 3.1217 25.8774 2.73643C25.3871 2.52628 25.1594 2.08848 25.317 1.5456C25.4922 1.02023 25.8774 0.775061 26.4728 0.6875Z" fill="#067AFF"/>
<path d="M67.3823 14.7671C67.1546 15.0298 66.9795 15.4326 66.6993 15.5377C66.3841 15.6602 65.8587 15.6427 65.6136 15.4501C64.843 14.8372 64.125 14.1367 63.442 13.4187C63.0393 12.9984 63.0568 12.4905 63.442 12.0352C63.8098 11.5974 64.4052 11.5274 64.8605 11.9302C65.6136 12.5781 66.314 13.2786 67.0145 13.9791C67.1721 14.1542 67.2247 14.4344 67.3823 14.7671Z" fill="#067AFF"/>
<path d="M15.2254 33.0156C15.6107 33.1382 15.8209 33.1732 15.996 33.2433C16.7665 33.5935 17.537 33.9613 18.3076 34.3465C18.938 34.6618 19.1657 35.2222 18.903 35.765C18.6403 36.3254 18.0974 36.5181 17.432 36.2204C16.5914 35.8526 15.7508 35.4498 14.9452 35.0295C14.4724 34.7844 14.2798 34.329 14.4724 33.8562C14.6125 33.506 14.9803 33.2608 15.2254 33.0156Z" fill="#067AFF"/>
<path d="M24.9282 37.2016C24.9632 38.0421 24.3853 38.6025 23.7549 38.4449C22.7567 38.1997 21.7585 37.902 20.7778 37.5343C20.2699 37.3416 20.0598 36.8863 20.2174 36.3435C20.3925 35.7656 20.8128 35.4854 21.3732 35.6255C22.3714 35.8706 23.3696 36.1858 24.3328 36.5536C24.6305 36.6412 24.8056 37.0439 24.9282 37.2016Z" fill="#067AFF"/>
<path d="M9.92179 29.7422C10.2195 29.8122 10.3421 29.8122 10.4472 29.8648C11.3578 30.4602 12.2859 31.0206 13.144 31.686C13.5818 32.0188 13.5643 32.5441 13.2491 32.9995C12.9164 33.4548 12.426 33.5774 11.9707 33.2972C11.0951 32.7718 10.237 32.2289 9.46648 31.581C9.22131 31.3708 9.09872 30.7754 9.20379 30.4252C9.23882 30.145 9.69413 29.9348 9.92179 29.7422Z" fill="#067AFF"/>
<path d="M61.0368 31.5428C60.9493 31.6829 60.7917 32.0332 60.529 32.2258C59.811 32.7512 59.0404 33.224 58.2699 33.6793C57.6745 34.0296 57.0616 33.872 56.7639 33.3641C56.4661 32.8563 56.6062 32.2959 57.1666 31.9281C57.9197 31.4378 58.6727 30.9299 59.4432 30.4746C60.1787 30.0543 61.0018 30.4921 61.0368 31.5428Z" fill="#067AFF"/>
</svg>
