<svg width="102" height="102" viewBox="0 0 102 102" fill="none" xmlns="http://www.w3.org/2000/svg">
<ellipse cx="51.0012" cy="50.7383" rx="7.17518" ry="7.17518" transform="rotate(135 51.0012 50.7383)" fill="#067AFF"/>
<circle cx="64.0469" cy="37.6875" r="5.12513" transform="rotate(135 64.0469 37.6875)" fill="#7EBAFF"/>
<circle cx="37.9551" cy="63.7773" r="5.12513" transform="rotate(135 37.9551 63.7773)" fill="#7EBAFF"/>
<circle cx="37.9551" cy="37.6875" r="5.12513" transform="rotate(135 37.9551 37.6875)" fill="#7EBAFF"/>
<circle cx="64.0469" cy="63.7773" r="5.12513" transform="rotate(135 64.0469 63.7773)" fill="#7EBAFF"/>
<ellipse cx="74.1961" cy="73.9258" rx="3.07508" ry="3.07508" transform="rotate(135 74.1961 73.9258)" fill="#C6E0FF"/>
<ellipse cx="27.8074" cy="27.5391" rx="3.07508" ry="3.07508" transform="rotate(135 27.8074 27.5391)" fill="#C6E0FF"/>
<ellipse cx="27.8086" cy="73.9324" rx="3.07508" ry="3.07508" transform="rotate(-135 27.8086 73.9324)" fill="#C6E0FF"/>
<ellipse cx="74.1953" cy="27.5457" rx="3.07508" ry="3.07508" transform="rotate(-135 74.1953 27.5457)" fill="#C6E0FF"/>
</svg>
