<svg width="77" height="32" viewBox="0 0 77 32" fill="none" xmlns="http://www.w3.org/2000/svg">
<path d="M54.6167 1.19864C54.5386 1.95366 54.096 2.31815 53.3931 2.34418C43.7341 2.94299 37.3555 8.35827 32.7213 16.351C31.7059 18.0954 30.7687 19.8657 29.7793 21.6101C29.6491 21.8704 29.4669 22.1048 29.2586 22.313C28.764 22.7817 28.1131 22.8858 27.7226 22.3651C27.4362 22.0267 27.28 21.2716 27.4882 20.9071C29.1284 17.9392 30.6905 14.8931 32.6432 12.1073C36.8869 6.04115 42.5104 1.87555 49.8784 0.313451C51.0499 0.0791358 52.2476 0.0531016 53.4452 0.00103153C54.1741 -0.0250035 54.5647 0.443624 54.6167 1.19864Z" fill="#7EBAFF"/>
<path d="M59.556 3.94907C60.4672 3.94907 61.3785 3.92304 62.2897 3.94907C63.2269 4.00114 63.7476 4.49581 63.7216 5.19875C63.6695 5.92773 63.1228 6.31825 62.1595 6.26618C59.0093 6.10997 55.8851 6.18808 52.7869 6.91706C48.6473 7.88035 45.1586 9.91108 42.2687 13.0353C40.2901 15.1701 38.2593 17.279 36.2546 19.4138C36.0984 19.5701 35.9422 19.7523 35.786 19.9085C35.2393 20.4032 34.6665 20.4552 34.1458 19.9606C33.6251 19.4659 33.6251 18.8411 34.1198 18.3204C34.9268 17.4352 35.76 16.576 36.5931 15.7169C38.3635 13.8684 40.0558 11.9418 41.9042 10.1714C46.3042 5.92773 51.7455 4.23546 57.7335 3.94907C58.3584 3.92304 58.9572 3.94907 59.582 3.94907C59.556 3.92304 59.556 3.94907 59.556 3.94907Z" fill="#7EBAFF"/>
<path d="M63.0735 7.72266C66.2758 8.24336 69.4521 8.76406 72.6544 9.28475C73.4615 9.41493 73.9822 9.85753 73.826 10.7688C73.6958 11.4717 73.0449 11.7841 72.1337 11.5498C67.5515 10.4563 62.9173 9.96166 58.231 10.7167C52.9459 11.5498 48.2856 13.6326 44.5626 17.5639C44.0159 18.1366 43.4692 18.371 42.7662 17.8763C42.1674 17.4337 42.1674 16.7047 42.7922 16.0018C45.8904 12.5912 49.7957 10.4563 54.1695 9.18062C57.0594 8.3475 60.0274 8.00904 63.0215 7.98301C63.0475 7.9049 63.0475 7.8268 63.0735 7.72266Z" fill="#C6E0FF"/>
<path d="M22.793 22.3131C23.2356 19.3191 24.1728 16.5594 25.4746 13.8778C27.7136 9.32163 30.9159 5.52051 34.9513 2.44838C34.9773 2.42235 35.0034 2.39631 35.0294 2.39631C35.6543 1.87561 36.3051 1.7194 36.9039 2.39631C37.4246 2.96908 37.1903 3.61996 36.4093 4.29687C35.0555 5.49448 33.6235 6.64002 32.3999 7.9678C28.5988 12.0813 26.0994 16.8978 25.1361 22.4433C25.0059 23.2504 24.6154 23.719 23.7563 23.6149C23.0273 23.5107 22.793 22.964 22.793 22.3131Z" fill="#7EBAFF"/>
<path d="M18.1833 24.8839C18.7821 17.2297 21.4897 10.2523 26.3583 4.13406C26.9831 3.35301 27.7381 3.1968 28.2588 3.7175C28.9097 4.34234 28.6754 4.96717 28.1807 5.61805C23.7808 11.2156 21.1773 17.5421 20.5785 24.6757C20.5524 24.8579 20.5264 25.0662 20.5004 25.2484C20.4223 26.0035 20.0057 26.4721 19.2247 26.394C18.4436 26.3159 18.1572 25.7431 18.1833 24.8839Z" fill="#7EBAFF"/>
<path d="M63.271 12.5039C67.697 12.556 71.6283 13.1808 75.3252 14.8471C75.7418 15.0293 76.2104 15.4719 76.3406 15.8624C76.627 16.8257 75.6637 17.3985 74.5702 17.06C72.7217 16.4612 70.8993 15.7843 68.9987 15.3938C64.5467 14.4826 60.0947 14.821 55.6948 15.8885C55.1741 16.0186 54.4712 15.9926 54.0806 15.7062C53.3256 15.1855 53.7161 13.9879 54.7575 13.7536C56.58 13.337 58.4285 12.9986 60.303 12.7122C61.3965 12.556 62.542 12.556 63.271 12.5039Z" fill="#C6E0FF"/>
<path d="M13.377 24.6839C13.4551 18.8521 14.8349 13.7753 17.2562 8.93276C17.6988 8.02154 18.3496 7.73515 19.0265 8.04757C19.7035 8.38603 19.8076 9.0369 19.365 9.97416C17.0479 14.7906 15.642 19.8414 15.7722 25.2307C15.7982 25.7774 15.8242 26.3241 15.9023 26.8709C15.9805 27.6519 15.7461 28.2767 14.9391 28.4069C14.1059 28.5371 13.6633 28.0424 13.6113 27.2353C13.4811 26.246 13.429 25.2567 13.377 24.6839Z" fill="#067AFF"/>
<path d="M8.70508 22.9735C8.91336 19.4067 9.56424 15.9961 10.866 12.7157C10.9441 12.5334 10.9962 12.3512 11.1003 12.169C11.4388 11.5181 11.9595 11.1536 12.6885 11.492C13.3914 11.8305 13.4695 12.3772 13.2612 13.1323C12.6103 15.4233 11.9074 17.7144 11.4908 20.0576C10.9701 23.0256 11.2826 25.9936 11.9334 28.9355C12.1678 29.9509 11.9074 30.5497 11.1524 30.7319C10.4234 30.9142 9.85062 30.4976 9.66838 29.4823C9.30389 27.3213 9.0175 25.1344 8.70508 22.9735Z" fill="#067AFF"/>
<path d="M7.56955 14.3539C7.36127 16.0461 7.12695 17.7644 6.97074 19.4567C6.60624 22.9194 6.89263 26.382 7.51748 29.7926C7.54352 29.8968 7.54352 29.9749 7.56955 30.079C7.7518 31.1985 7.46541 31.7973 6.71038 31.9535C5.92933 32.1097 5.46069 31.589 5.22637 30.4435C4.18496 25.1323 4.18496 19.8212 5.22637 14.5101C5.25241 14.3278 5.27844 14.1195 5.33051 13.9373C5.51276 13.2343 6.03347 12.8178 6.71038 13.0781C7.15299 13.2343 7.43937 13.7811 7.80387 14.1456C7.7518 14.2237 7.64766 14.2757 7.56955 14.3539Z" fill="#067AFF"/>
<path d="M2.09468 22.2655C2.51124 24.6867 2.90177 27.108 3.39643 29.5032C3.55264 30.2842 3.47454 30.9091 2.66745 31.1434C1.86037 31.4037 1.3657 30.9611 1.13139 30.2061C0.142055 27.0819 -0.144332 23.8536 0.0639479 20.5992C0.116018 19.8182 0.454474 19.2454 1.31363 19.3235C2.17279 19.3756 2.43313 20.0004 2.38106 20.7555C2.35503 21.2501 2.329 21.7188 2.30296 22.2134C2.25089 22.2394 2.17279 22.2655 2.09468 22.2655Z" fill="#067AFF"/>
</svg>
