<svg width="28" height="28" viewBox="0 0 28 28" fill="none" xmlns="http://www.w3.org/2000/svg">
<path d="M18 10.0469H16.5C16.5 10.8753 17.1716 11.5469 18 11.5469V10.0469ZM10 10.0469V11.5469C10.3978 11.5469 10.7794 11.3888 11.0607 11.1075C11.342 10.8262 11.5 10.4447 11.5 10.0469H10ZM10 3.38021L11.5 3.38021V3.38021H10ZM10 24.7135H8.5H10ZM10 18.0469H11.5C11.5 17.2184 10.8284 16.5469 10 16.5469V18.0469ZM18 18.0469V16.5469C17.1716 16.5469 16.5 17.2184 16.5 18.0469H18ZM24.6667 10.0469V11.5469V10.0469ZM3.33333 10.0469L3.33333 8.54687H3.33333V10.0469ZM3.33333 18.0469L3.33333 16.5469H3.33333V18.0469ZM16.6667 24.5469H11.3333V27.5469H16.6667V24.5469ZM11.3333 3.54688H16.6667V0.546875H11.3333V3.54688ZM16.5 3.38021V10.0469H19.5V3.38021H16.5ZM11.5 10.0469L11.5 3.38021L8.5 3.38021L8.5 10.0469H11.5ZM11.5 24.7135L11.5 18.0469H8.5L8.5 24.7135H11.5ZM16.5 18.0469V24.7135H19.5V18.0469H16.5ZM11.3333 0.546875C9.76853 0.546875 8.5 1.8154 8.5 3.38021H11.5C11.5 3.47226 11.4254 3.54688 11.3333 3.54688V0.546875ZM11.3333 24.5469C11.4254 24.5469 11.5 24.6215 11.5 24.7135H8.5C8.5 26.2783 9.76853 27.5469 11.3333 27.5469V24.5469ZM16.6667 27.5469C18.2315 27.5469 19.5 26.2783 19.5 24.7135H16.5C16.5 24.6215 16.5746 24.5469 16.6667 24.5469V27.5469ZM16.6667 3.54688C16.5746 3.54688 16.5 3.47226 16.5 3.38021H19.5C19.5 1.8154 18.2315 0.546875 16.6667 0.546875V3.54688ZM3.5 16.7135V11.3802H0.5V16.7135H3.5ZM24.5 11.3802V16.7135H27.5V11.3802H24.5ZM24.6667 16.5469H18V19.5469H24.6667V16.5469ZM18 11.5469L24.6667 11.5469V8.54688L18 8.54688V11.5469ZM3.33333 11.5469L10 11.5469V8.54688L3.33333 8.54687L3.33333 11.5469ZM10 16.5469L3.33333 16.5469L3.33333 19.5469H10V16.5469ZM27.5 11.3802C27.5 9.8154 26.2315 8.54688 24.6667 8.54688V11.5469C24.5746 11.5469 24.5 11.4723 24.5 11.3802H27.5ZM3.5 11.3802C3.5 11.4723 3.42538 11.5469 3.33333 11.5469V8.54687C1.76853 8.54687 0.5 9.8154 0.5 11.3802H3.5ZM0.5 16.7135C0.5 18.2783 1.76853 19.5469 3.33333 19.5469V16.5469C3.42538 16.5469 3.5 16.6215 3.5 16.7135H0.5ZM24.5 16.7135C24.5 16.6215 24.5746 16.5469 24.6667 16.5469V19.5469C26.2315 19.5469 27.5 18.2783 27.5 16.7135H24.5Z" fill="#191818"/>
</svg>
