<svg width="24" height="24" viewBox="0 0 24 24" fill="none" xmlns="http://www.w3.org/2000/svg">
<path d="M19 12.5C19.2761 12.5 19.5 12.2761 19.5 12C19.5 11.7239 19.2761 11.5 19 11.5V12.5ZM4 11.5C3.72386 11.5 3.5 11.7239 3.5 12C3.5 12.2761 3.72386 12.5 4 12.5V11.5ZM19 11.5H4V12.5H19V11.5Z" fill="#191818"/>
<path d="M9.64645 18.3536C9.84171 18.5488 10.1583 18.5488 10.3536 18.3536C10.5488 18.1583 10.5488 17.8417 10.3536 17.6464L9.64645 18.3536ZM4 12L3.64645 11.6464C3.45118 11.8417 3.45118 12.1583 3.64645 12.3536L4 12ZM10.3536 6.35355C10.5488 6.15829 10.5488 5.84171 10.3536 5.64645C10.1583 5.45118 9.84171 5.45118 9.64645 5.64645L10.3536 6.35355ZM10.3536 17.6464L4.35355 11.6464L3.64645 12.3536L9.64645 18.3536L10.3536 17.6464ZM4.35355 12.3536L10.3536 6.35355L9.64645 5.64645L3.64645 11.6464L4.35355 12.3536Z" fill="#191818"/>
</svg>
