<svg width="14" height="13" viewBox="0 0 14 13" fill="none" xmlns="http://www.w3.org/2000/svg">
<path d="M5.01867 4.26646L6.6292 0.848859C6.74286 0.607672 7.09308 0.607672 7.20674 0.84886L8.81727 4.26646C8.86359 4.36475 8.95877 4.43244 9.06859 4.44518L12.887 4.88832C13.1565 4.91959 13.2647 5.2456 13.0655 5.42594L10.2424 7.98126C10.1612 8.05476 10.1249 8.16427 10.1464 8.27045L10.8958 11.9619C10.9487 12.2224 10.6654 12.4239 10.4286 12.2942L7.0733 10.4559C6.97679 10.403 6.85915 10.403 6.76264 10.4559L3.40736 12.2942C3.17057 12.4239 2.88724 12.2224 2.94013 11.9619L3.68951 8.27045C3.71106 8.16427 3.67471 8.05476 3.59351 7.98126L0.770451 5.42594C0.571221 5.2456 0.679443 4.91959 0.948918 4.88832L4.76734 4.44518C4.87717 4.43244 4.97234 4.36475 5.01867 4.26646Z" fill="#191818"/>
</svg>
