<svg width="375" height="590" viewBox="0 0 375 590" fill="none" xmlns="http://www.w3.org/2000/svg">
<path d="M378.983 298.954C379.988 299.925 380.998 299.276 382.065 299.16C384.181 298.751 385.859 299.29 387.595 300.362C387.989 300.679 388.383 300.997 388.956 301.295C389.331 301.434 389.706 301.573 390.042 301.357C390.042 301.357 390.042 301.357 389.864 301.376C390.162 300.804 390.499 300.588 390.913 301.083C391.09 301.064 391.09 301.064 391.268 301.044C391.802 300.987 392.177 301.126 392.711 301.068C392.711 301.068 392.711 301.068 392.514 300.91C393.028 300.674 393.384 300.635 393.442 301.169C393.62 301.15 393.62 301.15 393.798 301.131C394.153 301.092 394.331 301.073 394.687 301.034L394.668 300.856C395.182 300.621 395.577 300.938 395.615 301.294C395.615 301.294 395.812 301.453 395.832 301.631C396.442 302.284 396.163 303.035 396.043 303.588C395.962 304.496 395.841 305.049 396.63 305.684C396.63 305.684 396.688 306.218 396.529 306.415C396.37 306.612 396.034 306.828 395.64 306.511C395.245 306.194 394.832 305.699 394.337 306.112C393.822 306.348 393.702 306.901 393.582 307.454C393.442 307.829 393.322 308.382 393.361 308.738C393.298 309.824 393 310.396 391.971 310.868C391.457 311.103 391.139 311.498 391.216 312.209C391.822 314.484 390.77 316.397 390.073 318.273C389.813 319.201 389.121 319.456 388.25 319.73C387.895 319.768 387.361 319.826 386.986 319.687C386.274 319.764 385.582 320.019 385.284 320.591C384.529 321.932 383.577 323.115 381.995 323.467C381.461 323.524 381.182 324.274 381.259 324.986C381.534 325.856 382.183 326.866 381.567 327.833C381.13 328.78 379.885 328.915 379.231 329.525C378.577 330.136 377.807 329.679 377.889 328.77C377.831 328.237 377.952 327.684 378.072 327.131C378.355 324.76 377.235 322.722 375.143 321.688C374.768 321.549 374.374 321.231 373.998 321.092C372.854 320.496 371.729 320.077 370.344 320.587C369.493 321.039 368.724 320.583 368.272 319.732C368.036 319.217 367.82 318.881 367.584 318.366C367.368 318.029 367.488 317.477 367.844 317.438C369.031 316.77 368.718 315.543 369.156 314.596C369.613 313.827 369.536 313.115 368.906 312.283C368.079 311.293 368.3 310.009 368.362 308.922C368.602 307.816 368.862 306.888 369.458 305.744C369.064 305.427 368.886 305.446 368.689 305.287C368.136 305.167 367.939 305.008 367.881 304.475C367.823 303.941 367.943 303.388 368.458 303.152C368.953 302.739 369.684 302.84 369.92 303.354C370.155 303.869 370.213 304.402 370.626 304.898C370.804 304.878 370.804 304.878 370.982 304.859C372.151 304.013 373.16 303.364 374.132 302.358L373.954 302.378C374.074 301.825 374.41 301.608 374.805 301.926C374.983 301.906 374.983 301.906 375.16 301.887C375.853 301.632 376.011 301.435 376.329 301.041C376.786 300.271 377.439 299.661 377.896 298.891C378.271 299.031 378.786 298.795 378.983 298.954Z" fill="#191818"/>
<path d="M340.162 271.113C340.104 270.579 340.441 270.363 340.638 270.522C340.816 270.502 340.797 270.325 340.975 270.305C341.47 269.892 341.787 269.497 342.263 268.906C342.263 268.906 342.263 268.906 342.441 268.887L342.263 268.906C342.72 268.137 343.629 268.218 344.105 267.627C344.441 267.41 344.403 267.055 344.028 266.915C343.831 266.756 343.653 266.776 343.475 266.795C342.33 266.199 342.253 265.487 343.225 264.482C343.542 264.088 343.878 263.871 344.451 264.169C345.023 264.468 345.239 264.804 345.297 265.338C345.355 265.872 344.879 266.463 345.273 266.78C345.687 267.276 346.379 267.021 346.932 267.141C347.11 267.122 347.466 267.083 347.663 267.242C348.038 267.381 348.235 267.54 347.918 267.934L348.115 268.093C348.331 268.429 348.528 268.588 348.923 268.905C348.923 268.905 348.923 268.905 348.904 268.727C349.596 268.473 349.913 268.078 350.447 268.02C350.625 268.001 350.822 268.16 350.822 268.16C350.841 268.338 350.861 268.516 350.88 268.694C350.562 269.088 350.067 269.501 349.553 269.737C349.572 269.915 349.572 269.915 349.591 270.093C349.668 270.805 349.904 271.319 349.962 271.853C349.918 273.117 350.39 274.146 351.731 274.901C352.698 275.516 352.775 276.228 352.16 277.195C351.684 277.786 351.227 278.556 350.732 278.969C349.76 279.974 348.337 280.128 346.976 279.195C346.207 278.739 345.26 278.301 344.63 277.469C344.216 276.974 343.841 276.835 343.288 276.715C342.182 276.474 341.115 276.59 340.067 276.883C339.374 277.138 339.158 276.802 338.903 276.109C338.355 274.369 338.715 272.71 340.162 271.113Z" fill="#191818"/>
<path d="M296.483 225.086C295.276 225.577 294.088 226.245 292.41 225.707C290.732 225.168 288.914 225.005 287.515 223.716C287.318 223.558 286.962 223.596 286.784 223.616C286.231 223.495 285.856 223.356 285.284 223.058C284.337 222.62 283.885 221.769 283.769 220.702C283.673 219.812 284.74 219.697 285.236 219.283C285.731 218.87 286.284 218.99 286.976 218.735C288.164 218.067 289.092 218.326 289.88 218.961C290.688 219.773 291.4 219.696 292.251 219.244C293.28 218.773 294.386 219.013 295.473 219.076C297.646 219.201 299.041 222.109 297.791 223.865C297.493 224.437 296.997 224.85 296.483 225.086Z" fill="#191818"/>
<path d="M374.24 339.965C374.596 339.926 374.832 340.441 374.692 340.816C374.038 341.426 373.779 342.354 373.678 343.085C373.438 344.191 372.803 344.98 371.99 345.788C371.178 346.596 370.072 346.355 369.163 346.274C368.254 346.192 368.158 345.302 367.903 344.61C367.648 343.918 367.591 343.384 367.908 342.99C368.384 342.398 368.682 341.826 368.98 341.254C369.893 339.715 370.744 339.263 372.442 339.979C372.976 339.921 373.529 340.042 374.24 339.965Z" fill="#191818"/>
<path d="M359.893 340.438C361.258 339.75 362.013 338.409 363.734 337.682C365.908 337.807 366.499 338.283 366.456 339.548C366.293 341.365 365.735 342.866 364.033 343.77C363.36 344.203 361.009 344.097 360.417 343.621C360.22 343.462 360.181 343.107 359.984 342.948C359.749 342.433 359.691 341.9 359.455 341.385C359.436 341.207 359.556 340.654 359.893 340.438Z" fill="#191818"/>
<path d="M309.713 247.593C309.93 247.929 309.968 248.285 310.343 248.424C311.074 248.525 311.786 248.448 312.238 249.299C312.709 250.328 313.738 249.857 314.33 250.333C315.316 251.126 315.469 252.549 314.282 253.218C313.431 253.67 312.541 253.766 312.085 254.536C310.681 254.868 311.378 252.992 310.469 252.911C310.113 252.949 309.877 252.435 309.502 252.295C308.752 252.016 308.18 251.718 308.44 250.79C308.579 250.415 308.185 250.098 307.829 250.136C307.276 250.016 306.742 250.074 306.151 249.598C305.954 249.439 305.934 249.261 305.934 249.261C305.8 248.016 307.026 247.703 307.896 247.429C308.531 246.641 309.261 246.742 309.713 247.593Z" fill="#191818"/>
<path d="M354.102 243.69C354.675 243.988 355.247 244.286 355.819 244.584C356.391 244.882 356.488 245.772 355.992 246.185C355.497 246.599 354.805 246.854 354.329 247.445C353.396 248.806 352.011 249.316 350.117 248.441C349.545 248.143 348.992 248.022 349.112 247.469C349.232 246.917 349.333 246.186 349.275 245.652C349.337 244.565 349.357 244.743 350.703 243.878C351.693 243.05 352.939 242.916 354.102 243.69Z" fill="#191818"/>
<path d="M343.815 309.96C343.795 309.782 343.757 309.427 343.738 309.249C343.68 308.715 343.483 308.556 342.949 308.614C340.992 308.826 340.992 308.826 341.155 307.008C341.275 306.455 341.218 305.921 340.982 305.407C340.708 304.537 341.737 304.065 341.641 303.176C342.155 302.94 342.828 302.507 343.559 302.608C343.4 302.805 343.42 302.983 343.242 303.003C342.747 303.416 342.232 303.652 342.684 304.503C342.901 304.839 342.939 305.195 343.155 305.532C343.627 306.561 344.098 307.59 345.541 307.614C345.896 307.575 346.31 308.07 346.546 308.585C347.296 308.864 347.772 308.272 348.127 308.234C349.156 307.762 349.354 307.921 350.003 308.931C350.022 309.109 350.219 309.267 350.061 309.464C349.902 309.662 349.724 309.681 349.724 309.681C348.099 311.297 347.921 311.316 346.464 309.494C346.464 309.494 346.464 309.494 346.445 309.316C346.445 309.316 346.445 309.316 346.286 309.513C345.969 309.907 345.81 310.104 345.671 310.479C345.373 311.052 345.074 311.624 344.344 311.523C344.305 311.167 343.892 310.672 343.815 309.96Z" fill="#191818"/>
<path d="M328.534 235.296C328.217 235.69 327.919 236.262 327.621 236.835C325.462 238.508 325.462 238.508 322.793 238.797C322.615 238.816 322.457 239.013 322.279 239.033C321.904 238.893 322.26 238.855 322.26 238.855C323.428 238.008 322.106 237.431 322.029 236.72C321.875 235.296 321.855 235.119 323.221 234.431C324.072 233.979 324.942 233.705 325.711 234.161C326.264 234.282 326.659 234.599 327.212 234.719C327.765 234.839 328.438 234.406 328.534 235.296Z" fill="#191818"/>
<path d="M360.968 248.885C360.651 249.279 360.314 249.495 359.761 249.375C358.458 248.976 358.088 247.216 358.9 246.408C359.218 246.014 359.554 245.798 360.088 245.74C360.978 245.644 362.006 245.172 362.915 245.254C363.627 245.177 363.964 244.961 364.084 244.408L364.242 244.211C364.738 243.797 365.271 243.739 365.685 244.235C365.92 244.749 365.959 245.105 365.642 245.499C365.305 245.715 364.574 245.615 364.632 246.148C364.57 247.235 364.132 248.182 364.801 249.37L364.978 249.351C365.195 249.687 365.233 250.043 365.43 250.202C365.647 250.538 365.883 251.053 365.368 251.288C365.051 251.683 364.479 251.385 364.103 251.245C363.512 250.769 363.098 250.274 363.733 249.485L363.536 249.327C362.69 248.158 361.959 248.057 360.968 248.885Z" fill="#191818"/>
<path d="M361.514 320.463C361.808 321.511 361.726 322.42 360.914 323.227C359.784 324.43 359.269 324.665 357.019 323.829C356.624 323.511 356.408 323.175 356.548 322.8C356.826 322.05 357.264 321.102 357.721 320.333C358.019 319.761 358.692 319.328 359.403 319.251C360.293 319.155 361.24 319.592 361.514 320.463Z" fill="#191818"/>
<path d="M365.523 362.507C365.032 361.301 366.027 358.853 367.215 358.185C367.729 357.949 368.244 357.713 368.638 358.031C369.388 358.309 369.643 359.002 369.542 359.733C369.321 361.017 368.922 362.32 367.754 363.166C368.283 364.729 368.341 365.262 367.768 364.964C367.018 364.685 367.297 363.935 367.061 363.421L366.864 363.262C366.172 363.517 365.778 363.2 365.523 362.507Z" fill="#191818"/>
<path d="M341.154 295.309C341.548 295.626 341.586 295.982 341.644 296.516C341.462 298.155 339.264 299.473 337.745 298.737C337.173 298.439 336.918 297.747 336.86 297.213C336.922 296.127 338.11 295.458 338.35 294.352C338.331 294.174 339.062 294.275 339.24 294.256C339.812 294.554 340.562 294.833 341.154 295.309Z" fill="#191818"/>
<path d="M265.238 307.298C265.161 306.587 265.618 305.817 266.132 305.582C266.825 305.327 267.397 305.625 267.652 306.317C267.868 306.654 267.907 307.01 267.965 307.543C268.022 308.077 268.219 308.236 268.239 308.414C268.532 309.462 268.215 309.856 267.364 310.308C266.849 310.544 266.138 310.621 265.565 310.323C265.609 309.058 265.334 308.188 265.238 307.298Z" fill="#191818"/>
<path d="M336.501 270.609C336.578 271.32 336.064 271.556 335.549 271.792C335.035 272.027 334.323 272.104 333.573 271.826C332.784 271.191 332.727 270.657 333.005 269.907C333.582 268.585 335.183 268.411 335.977 267.426C335.977 267.426 336.332 267.387 336.53 267.546C336.905 267.685 336.943 268.041 336.785 268.238C336.486 268.81 336.583 269.7 336.501 270.609Z" fill="#191818"/>
<path d="M358.61 215.487C357.38 217.42 357.202 217.439 355.899 217.04C355.149 216.761 354.894 216.069 354.658 215.554C354.187 214.525 354.326 214.15 355.374 213.857C357.254 212.934 358.004 213.212 358.61 215.487Z" fill="#191818"/>
<path d="M370.033 271.123C370.745 271.046 371.731 271.839 371.789 272.373C371.885 273.262 371.13 274.604 370.279 275.056C369.25 275.527 368.678 275.229 368.048 274.398C367.437 273.744 368.052 272.777 367.639 272.282C368.451 271.474 369.144 271.219 370.033 271.123Z" fill="#191818"/>
<path d="M360.385 368.279C361.015 369.111 361.447 369.784 360.813 370.573C360.356 371.342 359.899 372.112 358.832 372.227C358.476 372.266 358.12 372.304 357.904 371.968C357.63 371.097 357.336 370.049 357.774 369.102C358.408 368.313 359.279 368.039 360.385 368.279Z" fill="#191818"/>
<path d="M272.392 298.606C272.647 299.299 272.527 299.852 271.835 300.107C270.825 300.756 269.777 301.049 268.354 301.203C267.426 300.944 267.387 300.588 267.685 300.016C268.301 299.049 269.31 298.4 270.32 297.751C270.498 297.731 270.676 297.712 270.854 297.693C271.565 297.616 272.137 297.914 272.392 298.606Z" fill="#191818"/>
<path d="M336.866 200.733C335.779 200.671 334.832 200.233 334.322 198.849C334.245 198.137 334.76 197.901 335.096 197.685C336.106 197.036 336.996 196.94 337.784 197.574C338.376 198.05 338.275 198.781 338.352 199.493C338.27 200.401 337.775 200.815 336.866 200.733Z" fill="#191818"/>
<path d="M280.305 276.871C278.901 277.203 277.516 277.713 276.155 276.78C275.958 276.622 275.742 276.285 275.723 276.107C275.703 275.929 276.04 275.713 276.199 275.516C276.357 275.318 276.732 275.458 277.266 275.4C278.295 274.929 279.108 274.121 280.213 274.361C280.391 274.342 280.766 274.481 280.786 274.659C281.238 275.51 280.839 276.813 280.305 276.871Z" fill="#191818"/>
<path d="M369.198 260.054L369.218 260.232C368.703 260.467 368.347 260.506 367.833 260.741C367.833 260.741 367.833 260.741 368.011 260.722C367.516 261.136 367.179 261.352 366.943 260.838C366.765 260.857 366.765 260.857 366.587 260.876C366.587 260.876 366.587 260.876 366.568 260.698L366.39 260.717C366.097 259.669 365.01 259.607 364.419 259.131C364.024 258.814 363.808 258.477 363.928 257.924C364.048 257.371 364.169 256.818 364.683 256.582C365.197 256.347 365.611 256.842 366.005 257.159C366.4 257.477 366.318 258.385 366.89 258.684C367.405 258.448 368.097 258.193 368.612 257.957C368.967 257.919 369.145 257.9 369.362 258.236C369.992 259.068 370.247 259.76 369.198 260.054Z" fill="#191818"/>
<path d="M283.516 321.521C284.584 321.406 285.194 322.06 285.291 322.949C285.368 323.661 284.872 324.074 284.377 324.488C283.704 324.921 283.012 325.176 282.122 325.272C281.588 325.33 281.213 325.19 280.978 324.676C280.742 324.161 280.882 323.786 281.021 323.411C281.636 322.445 282.487 321.993 283.516 321.521Z" fill="#191818"/>
<path d="M248.514 230.994C247.11 231.326 245.985 230.907 245.73 230.215C245.495 229.7 246.11 228.734 246.98 228.46C247.495 228.224 248.187 227.969 248.74 228.089C249.827 228.152 250.298 229.181 249.841 229.95C249.702 230.325 249.207 230.739 248.514 230.994Z" fill="#191818"/>
<path d="M280.91 204.273C279.901 204.922 278.973 204.663 278.184 204.028C277.592 203.552 277.674 202.643 278.169 202.23C278.823 201.619 279.535 201.542 280.444 201.623C281.175 201.724 281.607 202.398 281.704 203.287C281.583 203.84 281.247 204.056 280.91 204.273Z" fill="#191818"/>
<path d="M313.591 280.107C313.731 279.732 314.226 279.318 314.562 279.102C315.413 278.65 316.678 278.693 316.933 279.385C317.404 280.414 316.731 280.847 315.88 281.299C315.346 281.357 315.01 281.573 314.654 281.612C313.587 281.727 313.134 280.876 313.591 280.107Z" fill="#191818"/>
<path d="M374.436 361.719C374.753 361.325 375.09 361.108 375.248 360.911C375.921 360.478 376.652 360.579 376.926 361.45C377.181 362.142 377.061 362.695 376.763 363.267C376.287 363.859 375.83 364.628 374.921 364.546C374.369 364.426 374.133 363.912 374.176 362.647C374.315 362.272 374.296 362.094 374.436 361.719Z" fill="#191818"/>
<path d="M358.584 281.721C358.464 282.274 358.483 282.452 358.324 282.649C357.709 283.616 356.68 284.087 355.555 283.669C354.982 283.371 354.905 282.659 355.501 281.515C355.78 280.765 356.631 280.312 357.381 280.591C357.757 280.731 358.151 281.048 358.545 281.365C358.742 281.524 358.742 281.524 358.584 281.721Z" fill="#191818"/>
<path d="M312.28 352.784C314.156 353.481 314.213 354.015 313.083 355.217C312.925 355.414 312.766 355.612 312.43 355.828C311.598 356.458 310.708 356.554 310.492 356.218C310.059 355.544 310.338 354.794 310.636 354.222C310.896 353.294 311.391 352.881 312.28 352.784Z" fill="#191818"/>
<path d="M355.903 386.761C355.547 386.8 355.172 386.66 354.619 386.54C353.811 385.728 353.893 384.819 354.171 384.069C354.469 383.497 354.984 383.261 355.715 383.362C356.268 383.482 356.662 383.799 356.561 384.53C356.619 385.064 356.677 385.598 356.734 386.131C356.576 386.329 356.258 386.723 355.903 386.761Z" fill="#191818"/>
<path d="M344.924 353.401C345.376 354.252 345.078 354.824 344.602 355.415C344.146 356.185 343.294 356.637 342.703 356.161C342.131 355.863 342.054 355.151 342.491 354.204C342.91 353.079 343.443 353.021 344.924 353.401Z" fill="#191818"/>
<path d="M324.301 267.613C324.892 268.089 325.483 268.564 326.392 268.646C327.301 268.728 327.378 269.439 326.921 270.209C326.604 270.603 326.267 270.82 325.734 270.877C324.608 270.459 324.118 269.252 322.853 269.209C322.498 269.248 322.44 268.714 322.579 268.339C322.68 267.608 323.531 267.156 324.301 267.613Z" fill="#191818"/>
<path d="M253.782 276.322C253.446 276.539 253.09 276.577 252.754 276.794C252.023 276.693 251.47 276.573 251.095 276.433C250.344 276.154 250.407 275.068 250.902 274.654C251.575 274.221 252.268 273.966 253.176 274.048C253.729 274.168 254.104 274.308 254.162 274.841C254.417 275.534 254.278 275.909 253.782 276.322Z" fill="#191818"/>
<path d="M331.277 473.485C331.614 473.268 331.969 473.23 332.344 473.369C332.72 473.508 333.133 474.004 332.994 474.379C333.032 474.735 332.912 475.288 332.595 475.682C332.138 476.451 331.662 477.043 331.047 478.009C330.691 478.048 330.513 478.067 330.513 478.067C330.219 477.019 330.282 475.932 330.541 475.004C330.464 474.292 330.782 473.898 331.277 473.485Z" fill="#191818"/>
<path d="M314.098 296.433C314.002 295.543 314.516 295.308 315.228 295.231C316.295 295.115 316.848 295.235 317.084 295.75C317.103 295.928 317.142 296.284 317.161 296.462C317.06 297.192 316.368 297.447 315.853 297.683C315.161 297.938 314.627 297.996 314.156 296.967C314.137 296.789 314.295 296.592 314.098 296.433Z" fill="#191818"/>
<path d="M326.326 283.053C325.912 282.557 326.032 282.005 326.705 281.572C327.378 281.139 327.874 280.725 328.35 280.134C328.33 279.956 328.33 279.956 328.311 279.778C328.806 279.365 329.302 278.951 329.816 278.715C329.816 278.715 329.816 278.715 329.638 278.735C329.956 278.34 330.114 278.143 330.489 278.282C330.667 278.263 330.667 278.263 330.845 278.244C331.715 277.97 332.288 278.268 332.701 278.763C332.918 279.1 333.134 279.436 333.192 279.97C333.129 281.057 332.495 281.845 331.071 281.999C330.716 282.038 330.163 281.918 329.61 281.797C328.561 282.091 328.836 282.961 328.36 283.553C327.845 283.788 326.936 283.707 326.326 283.053Z" fill="#191818"/>
<path d="M265.154 231.717C264.404 231.438 263.851 231.318 263.418 230.645C263.202 230.308 263.36 230.111 263.538 230.092C263.875 229.875 264.408 229.817 264.923 229.582C265.279 229.543 265.437 229.346 265.635 229.505C266.721 229.567 266.957 230.082 267.034 230.793C266.933 231.524 266.082 231.976 265.154 231.717Z" fill="#191818"/>
<path d="M323.336 220.56C323.73 220.877 323.591 221.252 323.432 221.449C323.293 221.824 322.976 222.218 322.283 222.473C321.73 222.353 321.355 222.214 320.961 221.896C320.369 221.421 319.937 220.747 320.254 220.353C320.73 219.762 321.283 219.882 321.994 219.805C322.369 219.944 322.942 220.242 323.336 220.56Z" fill="#191818"/>
<path d="M262.944 287.751C262.213 287.65 261.78 286.977 262.078 286.405C262.357 285.655 262.852 285.241 263.564 285.164C264.078 284.929 264.65 285.227 264.905 285.919C264.525 287.4 264.03 287.814 262.944 287.751Z" fill="#191818"/>
<path d="M358.843 309.054C357.776 309.17 357.362 308.674 357.622 307.746C357.761 307.371 358.079 306.977 358.396 306.583C359.05 305.972 359.425 306.111 360.214 306.746C361.002 307.381 360.507 307.794 360.031 308.386C359.536 308.799 359.199 309.016 358.843 309.054Z" fill="#191818"/>
<path d="M317.522 246.568C316.651 246.842 315.959 247.097 315.507 246.246C315.074 245.573 315.334 244.645 315.848 244.409C316.521 243.977 317.608 244.039 318.041 244.712C318.238 244.871 318.276 245.227 318.296 245.404C318.334 245.76 318.017 246.155 317.522 246.568Z" fill="#191818"/>
<path d="M314.166 288.682C314.402 289.197 314.281 289.75 313.964 290.144C313.152 290.952 312.44 291.029 311.079 290.096C311.319 288.99 311.973 288.379 312.844 288.105C313.199 288.067 313.95 288.346 314.166 288.682Z" fill="#191818"/>
<path d="M367.787 210.345C367.431 210.384 367.056 210.245 366.662 209.927C366.426 209.413 366.368 208.879 366.33 208.523C366.311 208.345 366.45 207.97 366.628 207.951C367.123 207.537 367.854 207.638 368.426 207.936C368.801 208.076 369.075 208.946 368.975 209.677C368.835 210.052 368.321 210.288 367.787 210.345Z" fill="#191818"/>
<path d="M333.111 252.617C333.722 253.271 333.03 253.526 332.337 253.781C331.486 254.233 331.544 254.767 331.443 255.498C331.03 255.002 330.457 254.704 330.044 254.209C329.827 253.872 329.611 253.536 329.75 253.161C330.505 251.819 331.909 251.487 333.111 252.617Z" fill="#191818"/>
<path d="M303.12 216.624C302.211 216.542 301.384 215.552 301.485 214.821C301.446 214.465 301.783 214.249 302.12 214.032C303.009 213.936 303.918 214.018 304.408 215.224C304.505 216.114 304.029 216.705 303.12 216.624Z" fill="#191818"/>
<path d="M362.243 430.358C363.094 429.906 363.527 430.579 363.979 431.43C363.917 432.516 363.422 432.93 362.729 433.185C362.215 433.421 361.84 433.281 361.604 432.767C361.152 431.916 361.57 430.79 362.243 430.358Z" fill="#191818"/>
<path d="M378.869 269.627C378.59 270.377 378.647 270.911 379.061 271.406C379.239 271.387 379.258 271.565 379.436 271.546C380.028 272.022 380.619 272.498 381.21 272.974C383.023 274.757 382.47 274.637 381.22 276.392C380.903 276.787 380.408 277.2 379.518 277.297C378.845 277.729 378.331 277.965 378.586 278.657C378.624 279.013 378.86 279.528 378.898 279.884C378.937 280.239 378.086 280.691 377.533 280.571C377.158 280.432 377.119 280.076 377.081 279.72C377.143 278.633 377.797 278.023 378.412 277.056L378.215 276.898C377.999 276.561 377.98 276.383 377.763 276.047C377.763 276.047 377.763 276.047 377.744 275.869L377.763 276.047C376.975 275.412 376.599 275.272 375.71 275.369C374.662 275.662 374.229 274.989 374.488 274.061C374.589 273.33 375.104 273.094 375.835 273.195C376.032 273.354 376.388 273.316 376.585 273.474C376.979 273.791 377.335 273.753 377.672 273.537C377.83 273.339 377.989 273.142 378.148 272.945C378.268 272.392 378.248 272.214 378.369 271.661C378.369 271.661 378.369 271.661 378.191 271.681C378.431 270.575 377.503 270.315 377.089 269.82C376.854 269.305 376.974 268.752 377.291 268.358C377.609 267.964 378.142 267.906 378.715 268.204C378.772 268.738 379.008 269.252 378.869 269.627Z" fill="#191818"/>
<path d="M339.478 238.25C338.728 237.971 338.137 237.495 337.545 237.019C337.367 237.038 337.329 236.682 337.488 236.485C337.608 235.932 337.925 235.538 338.439 235.302C338.973 235.244 339.526 235.365 339.603 236.076C339.642 236.432 339.68 236.788 339.738 237.322C339.796 237.855 339.675 238.408 339.478 238.25Z" fill="#191818"/>
<path d="M332.09 347.942C331.893 347.784 331.715 347.803 331.498 347.466L331.518 347.644C330.748 347.188 330.888 346.813 331.224 346.596C331.205 346.418 331.186 346.24 331.166 346.062C331.19 344.62 331.844 344.009 333.267 343.855C333.782 343.62 334.157 343.759 334.195 344.115L334.393 344.273C334.806 344.769 335.023 345.105 334.744 345.855C334.744 345.855 334.744 345.855 334.922 345.836C334.681 346.942 333.85 347.572 333.196 348.183C332.859 348.399 332.484 348.26 332.446 347.904C332.268 347.923 332.268 347.923 332.09 347.942Z" fill="#191818"/>
<path d="M335.828 422.416C335.414 421.92 335.515 421.19 336.01 420.776C336.328 420.382 336.842 420.146 337.395 420.266C337.967 420.564 338.025 421.098 338.083 421.632C338.102 421.81 337.943 422.007 337.785 422.204C337.289 422.618 336.953 422.834 336.419 422.892C336.222 422.733 335.847 422.594 335.828 422.416Z" fill="#191818"/>
<path d="M352.317 255.403C352.495 255.384 352.514 255.562 352.692 255.542C353.798 255.783 354.211 256.278 354.149 257.365C354.149 257.365 354.149 257.364 354.307 257.167C355.019 257.09 355.889 256.816 355.986 257.706C356.043 258.239 356.241 258.398 356.774 258.34C357.13 258.302 357.486 258.263 357.702 258.6C357.899 258.759 357.957 259.292 357.621 259.509C356.947 259.942 356.217 259.841 355.683 259.898C355.149 259.956 354.914 259.442 354.875 259.086C354.62 258.393 354.067 258.273 353.692 258.134C353.514 258.153 353.356 258.35 353.178 258.37C350.903 258.976 350.687 258.639 350.494 256.86C350.475 256.682 350.456 256.504 350.615 256.307L350.437 256.326C349.864 256.028 349.489 255.889 349.095 255.571C348.306 254.937 348.585 254.187 349.436 253.735C350.129 253.48 350.662 253.422 351.254 253.898C351.648 254.215 352.062 254.71 352.317 255.403Z" fill="#191818"/>
<path d="M293.616 305.132C293.674 305.666 293.338 305.882 293.001 306.099C292.328 306.532 292.15 306.551 290.948 305.421C291.068 304.868 291.385 304.474 291.525 304.099C291.842 303.704 292.179 303.488 292.751 303.786C293.323 304.084 293.559 304.599 293.616 305.132Z" fill="#191818"/>
<path d="M358.731 234.907C358.611 235.46 358.669 235.994 358.154 236.23C357.64 236.465 357.106 236.523 356.534 236.225C356.139 235.908 355.923 235.571 356.043 235.018C356.144 234.287 356.836 234.032 357.37 233.975C358.082 233.898 358.476 234.215 358.731 234.907Z" fill="#191818"/>
<path d="M369.05 366.802C369.425 366.942 369.622 367.1 369.839 367.437C370.074 367.952 370.132 368.485 369.637 368.899C369.161 369.49 368.666 369.904 367.68 369.111C367.406 368.24 367.704 367.668 368.021 367.274C368.338 366.879 368.675 366.663 369.05 366.802Z" fill="#191818"/>
<path d="M316.763 209.569C316.407 209.607 315.854 209.487 315.301 209.367C314.652 208.357 314.594 207.823 315.286 207.569C315.801 207.333 316.512 207.256 317.085 207.554C317.479 207.871 317.695 208.208 317.753 208.742C317.455 209.314 317.118 209.53 316.763 209.569Z" fill="#191818"/>
<path d="M374.891 387.591C375.05 387.394 375.406 387.356 375.603 387.514C375.978 387.654 376.017 388.01 376.055 388.365C376.151 389.255 375.695 390.024 375.002 390.279C374.291 390.356 373.738 390.236 373.622 389.169C373.882 388.241 374.396 388.005 374.891 387.591Z" fill="#191818"/>
<path d="M271.714 348.898C272.089 349.038 272.541 349.889 272.401 350.264C272.281 350.817 271.964 351.211 271.449 351.447C270.776 351.88 270.32 352.649 269.334 351.856C269.771 350.908 270.209 349.961 270.665 349.192C270.824 348.995 271.339 348.759 271.714 348.898Z" fill="#191818"/>
<path d="M368.256 289.67C368.059 289.512 367.506 289.392 367.468 289.036C367.944 288.444 368.42 287.853 369.487 287.737C369.487 287.737 369.468 287.559 369.29 287.579C368.804 284.751 368.944 284.376 371.338 283.217C371.516 283.198 371.675 283.001 372.03 282.962C373.708 283.501 374.18 284.53 373.959 285.814C373.839 286.367 373.363 286.958 372.867 287.372C372.372 287.785 371.838 287.843 370.93 287.761C370.93 287.761 370.93 287.761 370.949 287.939C370.651 288.511 370.334 288.906 370.194 289.281C369.757 290.228 369.401 290.267 368.256 289.67Z" fill="#191818"/>
<path d="M344.771 240.555C345.007 241.07 344.531 241.661 343.483 241.955C343.305 241.974 342.949 242.012 342.574 241.873C342.002 241.575 341.944 241.041 342.084 240.666C342.223 240.291 342.382 240.094 342.718 239.877C343.589 239.603 344.714 240.021 344.771 240.555Z" fill="#191818"/>
<path d="M334.347 380.46C334.684 380.244 335.02 380.027 335.198 380.008C335.554 379.969 335.929 380.109 336.165 380.623C336.3 381.869 335.646 382.479 334.578 382.595C334.223 382.633 333.847 382.494 333.809 382.138C333.751 381.604 333.871 381.051 334.347 380.46Z" fill="#191818"/>
<path d="M358.22 346.557C358.436 346.893 358.475 347.249 358.355 347.802C358.076 348.552 357.937 348.927 357.816 349.48C357.677 349.855 357.499 349.875 357.124 349.735C356.946 349.754 356.749 349.596 356.73 349.418C356.614 348.35 356.499 347.283 357.133 346.494C357.273 346.119 358.004 346.22 358.22 346.557Z" fill="#191818"/>
<path d="M356.065 241.854C355.748 242.249 355.195 242.128 354.82 241.989C354.445 241.85 354.051 241.532 353.815 241.018C354.075 240.09 354.767 239.835 355.479 239.758C355.657 239.739 356.032 239.878 356.051 240.056C356.484 240.729 356.402 241.638 356.065 241.854Z" fill="#191818"/>
<path d="M313.347 314.514C313.683 314.298 313.919 314.812 314.155 315.327C313.4 316.668 312.135 316.625 311.106 317.096C310.928 317.116 310.573 317.154 310.534 316.798C310.515 316.621 310.476 316.265 310.635 316.068C311.27 315.279 312.318 314.986 313.347 314.514Z" fill="#191818"/>
<path d="M322.401 253.418C322.459 253.952 322.161 254.524 321.627 254.582C321.093 254.639 320.42 255.072 320.007 254.577C319.988 254.399 319.79 254.24 319.771 254.062C319.733 253.707 320.031 253.134 320.545 252.899C320.901 252.86 321.257 252.822 321.435 252.803C321.968 252.745 322.343 252.884 322.401 253.418Z" fill="#191818"/>
<path d="M310.817 281.128C310.678 281.503 310.341 281.72 310.005 281.936C309.154 282.388 308.735 283.513 307.928 282.701C307.317 282.047 308.149 281.417 308.447 280.845C308.725 280.095 309.596 279.82 310.327 279.921C310.702 280.061 311.135 280.734 310.817 281.128Z" fill="#191818"/>
<path d="M375.907 263.826C376.321 264.321 375.825 264.735 375.508 265.129C375.191 265.524 374.854 265.74 374.301 265.62C373.748 265.5 373.532 265.163 373.455 264.451C373.594 264.076 373.734 263.701 374.07 263.485C374.743 263.052 375.671 263.312 375.907 263.826Z" fill="#191818"/>
<path d="M286.787 315.224C286.431 315.262 286.215 314.926 286.176 314.57C286.316 314.195 286.436 313.642 286.575 313.267C286.854 312.517 287.763 312.598 288.196 313.272C288.609 313.767 288.864 314.459 289.138 315.33C288.287 315.782 287.518 315.325 286.787 315.224Z" fill="#191818"/>
<path d="M251.04 304.154C250.545 304.567 250.189 304.606 249.478 304.683C248.905 304.385 248.511 304.067 248.828 303.673C249.304 303.081 250.175 302.807 250.925 303.086C251.281 303.048 251.358 303.759 251.04 304.154Z" fill="#191818"/>
<path d="M308.385 235.311C307.851 235.369 307.476 235.229 307.221 234.537C307.163 234.003 307.144 233.825 307.303 233.628C307.601 233.056 308.096 232.642 308.846 232.921C309.577 233.022 310.029 233.873 309.928 234.604C309.592 234.82 309.096 235.234 308.385 235.311Z" fill="#191818"/>
<path d="M259.442 267.072C258.908 267.13 258.355 267.01 257.961 266.692C257.942 266.514 257.745 266.356 257.903 266.158C258.379 265.567 258.874 265.153 259.586 265.076C260.12 265.019 260.336 265.355 260.75 265.851C260.668 266.759 260.154 266.995 259.442 267.072Z" fill="#191818"/>
<path d="M357.258 226.25C357.653 226.567 357.71 227.101 357.571 227.476C357.273 228.048 356.739 228.106 356.186 227.986C355.633 227.866 355.436 227.707 355.181 227.015C355.321 226.64 355.638 226.245 355.797 226.048C356.292 225.635 356.845 225.755 357.258 226.25Z" fill="#191818"/>
<path d="M329.123 320.551C328.964 320.748 328.805 320.945 328.647 321.142C328.329 321.536 327.618 321.613 327.204 321.118C326.81 320.801 326.574 320.286 327.05 319.695C327.367 319.301 327.704 319.084 328.199 318.671C329.363 319.445 329.579 319.781 329.123 320.551Z" fill="#191818"/>
<path d="M354.747 414.248C354.511 413.734 354.828 413.339 355.165 413.123C355.501 412.907 355.857 412.868 356.252 413.185C356.468 413.522 356.665 413.681 356.704 414.037C356.761 414.57 356.622 414.945 356.088 415.003C355.752 415.219 354.982 414.763 354.747 414.248Z" fill="#191818"/>
<path d="M295.451 272.175C295.768 271.781 296.283 271.545 296.855 271.843C297.427 272.141 297.504 272.853 297.206 273.425C297.047 273.622 296.889 273.82 296.73 274.017C296.235 274.43 295.682 274.31 295.446 273.796C295.23 273.459 295.369 273.084 295.311 272.55C295.311 272.55 295.292 272.372 295.451 272.175Z" fill="#191818"/>
<path d="M309.472 270.296C309.117 270.334 308.761 270.373 308.405 270.411C307.814 269.935 307.934 269.382 308.073 269.007C308.213 268.632 308.549 268.416 308.924 268.555C309.477 268.675 310.03 268.795 310.107 269.507C310.126 269.685 309.987 270.06 309.472 270.296Z" fill="#191818"/>
<path d="M331.011 339.599C331.741 339.7 331.977 340.215 331.66 340.609C331.362 341.181 330.886 341.773 330.588 342.345C330.429 342.542 330.073 342.58 329.876 342.422C329.698 342.441 329.66 342.085 329.66 342.085C329.602 341.551 329.703 340.821 329.823 340.268C329.943 339.715 330.299 339.676 331.011 339.599Z" fill="#191818"/>
<path d="M338.442 253.661C339.115 253.228 340.024 253.31 340.736 253.233L340.716 253.055C341.39 252.622 341.923 252.564 342 253.276C342.058 253.81 341.721 254.026 341.188 254.084C341.01 254.103 340.832 254.122 340.813 253.944C340.813 253.944 340.832 254.122 340.673 254.319C340.236 255.267 339.563 255.7 338.654 255.618C338.279 255.478 337.904 255.339 337.865 254.983C337.788 254.272 337.928 253.897 338.442 253.661Z" fill="#191818"/>
<path d="M313.698 242.843C314.328 243.675 314.011 244.07 313.515 244.483C313.02 244.897 312.309 244.974 311.895 244.478C311.501 244.161 311.462 243.805 311.76 243.233C312.236 242.642 312.77 242.584 313.698 242.843Z" fill="#191818"/>
<path d="M348.571 224.129C348.374 223.971 347.999 223.831 347.979 223.653C347.744 223.139 348.042 222.567 348.359 222.172C348.677 221.778 349.032 221.739 349.605 222.038C350.018 222.533 350.432 223.028 349.956 223.619C349.46 224.033 349.124 224.249 348.571 224.129Z" fill="#191818"/>
<path d="M339.54 218.806C339.68 218.431 339.66 218.253 339.838 218.234C340.689 217.782 341.242 217.902 341.675 218.575C341.911 219.09 341.81 219.821 341.117 220.076C340.781 220.292 340.425 220.33 340.05 220.191C339.656 219.874 339.617 219.518 339.54 218.806Z" fill="#191818"/>
<path d="M272.379 290.149C272.793 290.644 272.812 290.822 272.495 291.216C272.178 291.61 271.822 291.649 271.288 291.707C270.399 291.803 269.471 291.543 269.591 290.99C269.692 290.259 270.422 290.36 270.778 290.322C271.293 290.086 271.826 290.028 272.379 290.149Z" fill="#191818"/>
<path d="M364.912 238.738C364.023 238.835 363.47 238.714 363.552 237.806C363.653 237.075 364.167 236.839 364.898 236.94C365.076 236.921 365.451 237.06 365.489 237.416C365.725 237.93 365.408 238.325 364.912 238.738Z" fill="#191818"/>
<path d="M374.344 345.891C375.036 345.636 375.411 345.776 375.647 346.29C375.882 346.805 375.762 347.358 375.267 347.771C374.95 348.166 374.435 348.401 374.041 348.084C373.666 347.944 373.43 347.43 373.55 346.877C373.887 346.661 374.026 346.286 374.344 345.891Z" fill="#191818"/>
<path d="M337.703 436.43C338.376 435.997 338.79 436.492 338.886 437.382C338.588 437.954 338.271 438.348 337.756 438.584C337.578 438.603 337.203 438.464 337.184 438.286C336.77 437.791 337.03 436.863 337.703 436.43Z" fill="#191818"/>
<path d="M361.039 312.773C361.077 313.129 360.366 313.206 359.991 313.066C359.616 312.927 359.577 312.571 359.716 312.196C359.837 311.643 360.173 311.427 360.885 311.35C361.419 311.292 361.933 311.056 362.447 310.821C361.991 311.59 361.12 311.864 361.039 312.773Z" fill="#191818"/>
<path d="M306.655 325.857C306.241 325.362 306.006 324.848 305.948 324.314C305.89 323.78 306.188 323.208 306.741 323.328C307.275 323.27 307.866 323.746 307.746 324.299C307.823 325.011 307.722 325.742 306.655 325.857Z" fill="#191818"/>
<path d="M339.307 311.524L339.485 311.505C340.235 311.783 340.471 312.298 340.173 312.87C340.033 313.245 339.716 313.639 339.182 313.697C338.649 313.755 338.413 313.241 338.355 312.707L338.177 312.726C337.682 313.14 337.365 313.534 336.951 313.039C336.518 312.366 336.6 311.457 337.115 311.221C337.629 310.985 338.144 310.75 338.696 310.87C339.033 310.654 339.249 310.99 339.307 311.524Z" fill="#191818"/>
<path d="M313.972 305.267C313.419 305.147 313.005 304.652 313.303 304.08C313.443 303.705 313.779 303.488 313.938 303.291C314.789 302.839 315.539 303.118 315.655 304.185C315.674 304.363 315.534 304.738 315.198 304.955C314.683 305.19 314.347 305.407 313.972 305.267Z" fill="#191818"/>
<path d="M376.235 253.535C376.591 253.496 376.826 254.011 376.846 254.188C377.279 254.862 377.158 255.415 376.663 255.828C375.99 256.261 375.615 256.121 375.163 255.27C375.283 254.717 375.422 254.342 375.403 254.165C375.543 253.789 375.701 253.592 376.235 253.535Z" fill="#191818"/>
<path d="M280.777 317.857C280.244 317.915 279.869 317.776 279.652 317.439C279.436 317.103 279.575 316.728 279.734 316.53C280.051 316.136 280.566 315.9 281.297 316.001C281.609 317.227 281.47 317.602 280.777 317.857Z" fill="#191818"/>
<path d="M292.824 232.86C293.968 233.456 293.512 234.225 293.036 234.817C291.319 233.922 291.3 233.745 292.824 232.86Z" fill="#191818"/>
<path d="M372.665 292.075C373.079 292.57 372.959 293.123 372.463 293.537C372.305 293.734 372.127 293.753 371.771 293.792C371.396 293.652 371.04 293.691 370.843 293.532C370.429 293.037 370.727 292.465 371.045 292.07C371.54 291.657 372.252 291.58 372.665 292.075Z" fill="#191818"/>
<path d="M371.814 282.633L372.011 282.791C372.03 282.969 372.03 282.969 372.03 282.969C371.833 282.81 371.814 282.633 371.814 282.633Z" fill="#191818"/>
<path d="M371.013 280.196C371.172 279.999 371.527 279.961 371.705 279.941C372.258 280.062 372.475 280.398 372.354 280.951C372.215 281.326 372.056 281.523 371.917 281.898C371.758 282.096 371.778 282.273 371.797 282.451C371.383 281.956 370.989 281.639 370.773 281.302C370.378 280.985 370.518 280.61 371.013 280.196Z" fill="#191818"/>
<path d="M285.6 275.941C285.461 276.316 285.124 276.532 284.768 276.571C284.413 276.609 284.018 276.292 283.98 275.936C283.903 275.224 284.004 274.494 284.283 273.744C285.643 274.676 285.86 275.013 285.6 275.941Z" fill="#191818"/>
<path d="M349.091 350.424C348.539 350.304 348.5 349.948 348.442 349.415C348.76 349.02 348.899 348.645 349.236 348.429C349.413 348.41 349.769 348.371 349.966 348.53C350.361 348.847 350.399 349.203 350.279 349.756C350.159 350.309 349.644 350.545 349.091 350.424Z" fill="#191818"/>
<path d="M241.393 319.775C241.235 319.972 240.86 319.833 240.821 319.477C240.802 319.299 240.763 318.943 240.744 318.765C241.061 318.371 241.379 317.977 241.735 317.938C242.427 317.683 242.643 318.02 242.562 318.929C242.244 319.323 241.908 319.539 241.393 319.775Z" fill="#191818"/>
<path d="M308.636 374.059C309.049 374.554 309.088 374.91 308.593 375.324C308.256 375.54 307.9 375.579 307.684 375.242C307.29 374.925 307.232 374.391 307.549 373.997C307.867 373.602 308.222 373.564 308.636 374.059Z" fill="#191818"/>
<path d="M312.482 238.292C311.751 238.192 310.881 238.466 310.963 237.557C311.063 236.826 311.794 236.927 312.328 236.869C312.684 236.831 313.04 236.792 313.396 236.754C313.751 236.715 314.006 237.408 313.689 237.802C313.352 238.018 312.997 238.057 312.482 238.292Z" fill="#191818"/>
<path d="M254.076 249.107C253.86 248.771 253.841 248.593 253.841 248.593C254.1 247.665 254.437 247.448 254.99 247.569C255.562 247.867 255.798 248.381 255.519 249.131C255.043 249.723 254.668 249.583 254.076 249.107Z" fill="#191818"/>
<path d="M315.318 262.824C315.655 262.607 315.833 262.588 316.011 262.569C316.544 262.511 316.919 262.65 316.977 263.184C317.016 263.54 316.876 263.915 316.718 264.112C316.381 264.329 315.847 264.386 315.472 264.247C314.9 263.949 314.842 263.415 315.318 262.824Z" fill="#191818"/>
<path d="M326.727 260.152C326.174 260.032 326.097 259.32 326.217 258.767C326.357 258.392 326.693 258.176 327.049 258.137C327.583 258.079 327.799 258.416 327.876 259.128C327.775 259.859 327.458 260.253 326.727 260.152Z" fill="#191818"/>
<path d="M262.595 242.971C262.062 243.029 261.489 242.731 261.432 242.197C261.533 241.466 262.066 241.409 262.6 241.351C262.6 241.351 262.778 241.332 262.975 241.49C263.268 242.538 263.129 242.913 262.595 242.971Z" fill="#191818"/>
<path d="M371.856 194.787C371.304 194.667 371.227 193.956 371.347 193.403C371.467 192.85 371.823 192.811 372.967 193.407C373.006 193.763 373.203 193.922 373.044 194.119C372.905 194.494 372.409 194.908 371.856 194.787Z" fill="#191818"/>
<path d="M309.16 300.752C308.805 300.79 308.588 300.454 308.372 300.117C308.333 299.761 308.473 299.386 308.631 299.189C309.285 298.579 310.035 298.857 310.31 299.728C310.348 300.083 310.387 300.439 310.406 300.617C309.872 300.675 309.516 300.713 309.16 300.752Z" fill="#191818"/>
<path d="M286.057 306.662C285.72 306.878 285.345 306.739 285.129 306.402C284.912 306.066 284.874 305.71 285.21 305.494C285.509 304.921 286.023 304.686 286.576 304.806C287.129 304.926 287.326 305.085 287.225 305.816C286.73 306.229 286.393 306.446 286.057 306.662Z" fill="#191818"/>
<path d="M369.752 301.755C369.199 301.634 368.785 301.139 368.708 300.428C368.809 299.697 369.343 299.639 369.915 299.937C370.329 300.432 370.564 300.947 370.266 301.519C370.266 301.519 370.108 301.716 369.752 301.755Z" fill="#191818"/>
<path d="M312.292 284.749C312.489 284.907 312.667 284.888 312.667 284.888C312.864 285.047 313.258 285.364 313.119 285.739C312.98 286.114 312.84 286.489 312.681 286.686C312.364 287.081 311.633 286.98 311.22 286.485C310.806 285.989 310.946 285.614 311.58 284.826C311.58 284.826 311.936 284.787 312.292 284.749Z" fill="#191818"/>
<path d="M327.361 212.744C326.789 212.446 326.414 212.307 326.019 211.989C325.625 211.672 325.765 211.297 326.101 211.081C326.418 210.686 326.755 210.47 327.149 210.787C327.741 211.263 328.174 211.936 328.092 212.845C328.111 213.023 327.755 213.062 327.361 212.744Z" fill="#191818"/>
<path d="M335.372 305.114C334.978 304.796 335.098 304.243 335.415 303.849C335.713 303.277 336.406 303.022 337.137 303.123C337.589 303.974 337.113 304.565 336.617 304.979C336.3 305.373 335.766 305.431 335.372 305.114Z" fill="#191818"/>
<path d="M307.882 277.309C307.329 277.189 307.272 276.655 307.589 276.261C307.926 276.045 308.084 275.847 308.44 275.809C309.133 275.554 309.368 276.069 308.95 277.194C308.416 277.251 308.06 277.29 307.882 277.309Z" fill="#191818"/>
<path d="M295.881 296.065C295.665 295.729 295.626 295.373 295.766 294.998C296.102 294.781 296.261 294.584 296.636 294.724C296.992 294.685 297.367 294.825 297.425 295.358C297.482 295.892 297.343 296.267 296.828 296.503C296.453 296.363 296.098 296.402 295.881 296.065Z" fill="#191818"/>
<path d="M298 284.136C297.605 283.819 297.567 283.463 298.202 282.674C299.485 282.895 299.702 283.232 299.226 283.824C299.106 284.377 298.572 284.434 298 284.136Z" fill="#191818"/>
<path d="M265.959 215.787C265.464 216.201 264.733 216.1 264.319 215.605C263.886 214.932 264.401 214.696 265.093 214.441C265.646 214.561 265.843 214.72 266.06 215.056C266.098 215.412 266.118 215.59 265.959 215.787Z" fill="#191818"/>
<path d="M346.247 325.714C346.742 325.301 346.9 325.103 347.275 325.243C347.453 325.224 347.828 325.363 347.867 325.719C347.925 326.253 347.805 326.806 347.29 327.041C346.953 327.258 346.598 327.296 346.401 327.137C345.987 326.642 345.948 326.286 346.247 325.714Z" fill="#191818"/>
<path d="M353.206 310.204C353.225 310.382 353.244 310.56 353.086 310.757C351.504 311.109 351.032 310.08 350.58 309.229C350.58 309.229 350.58 309.229 350.758 309.209C352.696 308.82 352.696 308.82 353.206 310.204Z" fill="#191818"/>
<path d="M366.129 316.543C365.932 316.385 365.576 316.423 365.379 316.265C364.984 315.947 364.946 315.591 365.282 315.375C365.619 315.159 365.975 315.12 366.331 315.082C366.903 315.38 367.278 315.519 367.158 316.072C367.057 316.803 366.682 316.664 366.129 316.543Z" fill="#191818"/>
<path d="M341.318 198.633C340.943 198.494 340.549 198.177 340.472 197.465C340.77 196.893 341.106 196.676 341.659 196.796C342.212 196.917 342.606 197.234 342.505 197.965C342.385 198.518 341.89 198.931 341.318 198.633Z" fill="#191818"/>
<path d="M257.718 364.271C257.838 363.718 258.194 363.679 258.55 363.641C259.28 363.742 259.516 364.256 259.04 364.848C258.761 365.598 258.386 365.459 257.718 364.271Z" fill="#191818"/>
<path d="M321.218 212.509C320.843 212.37 320.608 211.855 320.747 211.48C321.026 210.73 321.579 210.85 321.973 211.168C321.973 211.168 322.17 211.326 322.367 211.485C322.584 211.821 322.603 211.999 322.444 212.196C322.286 212.394 321.771 212.629 321.218 212.509Z" fill="#191818"/>
<path d="M318.71 294.137C319.028 293.743 319.581 293.863 319.797 294.2C320.033 294.714 320.09 295.248 319.576 295.484C319.576 295.484 319.398 295.503 319.22 295.522C318.273 295.085 318.215 294.551 318.71 294.137Z" fill="#191818"/>
<path d="M366.442 221.297C366.937 220.884 367.49 221.004 367.726 221.518C367.962 222.033 367.822 222.408 367.308 222.644C366.793 222.879 366.577 222.543 366.341 222.028C366.341 222.028 366.322 221.85 366.303 221.672C366.283 221.495 366.442 221.297 366.442 221.297Z" fill="#191818"/>
<path d="M329.735 354.503C329.341 354.186 329.461 353.633 329.798 353.416C329.798 353.416 329.956 353.219 330.134 353.2C331.043 353.282 331.259 353.618 330.961 354.19C330.663 354.763 329.952 354.84 329.735 354.503Z" fill="#191818"/>
<path d="M343.168 385.44C343.682 385.204 344.255 385.503 344.312 386.036C344.351 386.392 344.212 386.767 343.697 387.003C343.322 386.863 342.966 386.902 342.947 386.724C342.711 386.209 342.654 385.676 343.168 385.44Z" fill="#191818"/>
<path d="M334.311 233.769C334.369 234.303 333.854 234.538 333.499 234.577C332.965 234.634 332.59 234.495 332.373 234.159C332.157 233.822 332.119 233.466 332.455 233.25C332.614 233.053 332.97 233.014 333.325 232.976C333.878 233.096 334.253 233.235 334.311 233.769Z" fill="#191818"/>
<path d="M363.36 377.499C364.053 377.244 364.528 376.652 365.457 376.912C364.981 377.503 364.683 378.075 364.187 378.489C363.87 378.883 363.355 379.119 363.12 378.605C362.726 378.287 362.865 377.912 363.36 377.499Z" fill="#191818"/>
<path d="M356.204 352.894C356.123 353.803 355.786 354.019 354.502 353.798C354.425 353.086 354.565 352.711 355.06 352.298C355.396 352.081 355.593 352.24 355.791 352.399C356.146 352.36 356.185 352.716 356.204 352.894Z" fill="#191818"/>
<path d="M327.58 251.417C327.382 251.259 327.185 251.1 327.166 250.922C327.108 250.388 327.267 250.191 327.94 249.758C328.849 249.84 329.243 250.157 328.964 250.907C328.666 251.48 328.152 251.715 327.58 251.417Z" fill="#191818"/>
<path d="M299.249 264.021C299.783 263.964 299.942 263.766 300.12 263.747C300.653 263.689 301.028 263.829 301.086 264.363C301.144 264.896 300.629 265.132 300.274 265.17C299.74 265.228 299.384 265.267 298.99 264.949C298.615 264.81 298.754 264.435 299.249 264.021Z" fill="#191818"/>
<path d="M361.893 259.047C361.951 259.581 361.634 259.975 360.903 259.874C360.33 259.576 359.955 259.436 360.076 258.883C360.374 258.311 360.907 258.254 361.46 258.374C361.677 258.71 361.874 258.869 361.893 259.047Z" fill="#191818"/>
<path d="M346.997 257.777C347.315 257.383 347.671 257.344 348.065 257.662C348.459 257.979 348.536 258.691 347.844 258.946C347.685 259.143 347.31 259.003 346.954 259.042C346.541 258.547 346.661 257.994 346.997 257.777Z" fill="#191818"/>
<path d="M340.448 300.425C340.823 300.565 341.198 300.704 341.059 301.079C340.919 301.454 340.563 301.493 340.208 301.531C339.852 301.57 339.477 301.43 339.28 301.272C338.688 300.796 338.828 300.42 339.52 300.166C340.073 300.286 340.27 300.444 340.448 300.425Z" fill="#191818"/>
<path d="M276.004 360.312C276.576 360.61 276.436 360.985 276.297 361.36C276.297 361.36 276.316 361.538 276.158 361.736C275.999 361.933 275.821 361.952 275.821 361.952C275.09 361.851 274.874 361.515 275.172 360.942C275.114 360.409 275.629 360.173 276.004 360.312Z" fill="#191818"/>
<path d="M362.944 255.511C363.002 256.044 362.329 256.477 361.757 256.179C361.184 255.881 361.146 255.525 361.622 254.934C362.314 254.679 362.867 254.799 362.944 255.511Z" fill="#191818"/>
<path d="M311.56 406.146C311.738 406.127 311.916 406.107 312.113 406.266C312.31 406.425 312.329 406.603 312.329 406.603C312.228 407.333 311.752 407.925 311.257 408.338C310.92 408.555 310.704 408.218 310.468 407.704C310.569 406.973 310.867 406.401 311.56 406.146Z" fill="#191818"/>
<path d="M354.024 286.172C353.688 286.389 353.332 286.427 353.154 286.446C352.976 286.466 352.601 286.326 352.582 286.148C352.385 285.99 352.524 285.615 352.683 285.417C352.841 285.22 353.178 285.004 353.515 284.787C353.851 284.571 354.226 284.71 354.443 285.047C354.659 285.384 354.52 285.759 354.024 286.172Z" fill="#191818"/>
<path d="M358.543 399.441C359.293 399.719 359.014 400.47 358.894 401.023C358.894 401.023 358.913 401.2 358.754 401.398C357.807 400.96 357.571 400.446 358.047 399.854C358.009 399.498 358.523 399.263 358.543 399.441Z" fill="#191818"/>
<path d="M305.595 222.836C305.97 222.976 306.008 223.331 305.691 223.726C305.215 224.317 304.84 224.178 304.191 223.168C304.469 222.418 305.022 222.538 305.595 222.836Z" fill="#191818"/>
<path d="M339.387 358.854C339.704 358.459 340.257 358.579 340.671 359.075C340.907 359.589 340.767 359.964 340.431 360.181C340.094 360.397 339.58 360.633 339.344 360.118C338.93 359.623 339.07 359.248 339.387 358.854Z" fill="#191818"/>
<path d="M349.826 282.308C349.947 281.755 350.283 281.539 350.836 281.659C351.567 281.76 351.625 282.293 351.149 282.885C350.081 283 349.706 282.861 349.826 282.308Z" fill="#191818"/>
<path d="M286.051 248.532C285.479 248.234 285.084 247.917 285.738 247.306C286.075 247.09 286.609 247.032 286.844 247.547C287.099 248.239 286.782 248.633 286.051 248.532Z" fill="#191818"/>
<path d="M311.025 402.781C311.164 402.406 311.698 402.348 311.895 402.507C312.487 402.983 312.347 403.358 311.674 403.791C310.785 403.887 310.727 403.353 311.025 402.781Z" fill="#191818"/>
<path d="M290.97 245.659C290.773 245.5 290.735 245.145 290.893 244.947C291.033 244.572 291.369 244.356 291.922 244.476C292.317 244.793 292.692 244.933 292.552 245.308C292.572 245.486 292.432 245.861 292.254 245.88C291.74 246.116 291.187 245.996 290.97 245.659Z" fill="#191818"/>
<path d="M363.195 242.882C362.998 242.724 362.8 242.565 362.762 242.209C362.723 241.853 362.863 241.478 363.396 241.42C363.574 241.401 363.752 241.382 364.127 241.521C364.522 241.839 364.541 242.017 364.402 242.392C363.906 242.805 363.57 243.022 363.195 242.882Z" fill="#191818"/>
<path d="M343.636 449.652C344.406 450.109 344.127 450.859 343.079 451.152C342.665 450.657 342.449 450.32 342.766 449.926C343.083 449.532 343.261 449.513 343.636 449.652Z" fill="#191818"/>
<path d="M319.075 239.378C318.72 239.417 318.344 239.277 318.128 238.941C317.912 238.604 318.051 238.229 318.368 237.835C318.724 237.796 319.08 237.758 319.258 237.738C319.633 237.878 319.849 238.214 319.71 238.589C319.59 239.142 319.45 239.518 319.075 239.378Z" fill="#191818"/>
<path d="M348.206 445.372C348.798 445.848 348.481 446.243 347.807 446.675C346.899 446.594 346.682 446.257 347.158 445.666C347.476 445.271 347.812 445.055 348.206 445.372Z" fill="#191818"/>
<path d="M363.191 276.003L363.21 276.181C362.715 276.594 362.201 276.83 361.609 276.354C361.412 276.195 361.196 275.859 360.82 275.719C360.623 275.561 360.287 275.777 360.128 275.974C359.969 276.171 359.989 276.349 360.008 276.527C360.085 277.239 361.013 277.498 361.465 278.349C360.653 279.157 360.234 280.283 360.388 281.706C360.427 282.062 360.09 282.278 359.537 282.158C359.162 282.018 358.965 281.86 358.551 281.365C358.258 280.316 357.984 279.446 358.244 278.518C358.681 277.571 357.339 276.816 357.777 275.869L357.58 275.71C357.166 275.215 356.753 274.72 356.536 274.383C355.925 273.729 356.026 272.998 356.483 272.229C356.622 271.854 356.959 271.637 357.493 271.58C357.474 271.402 357.474 271.402 357.454 271.224C357.594 270.849 357.594 270.849 357.93 270.632L357.752 270.652C358.248 270.238 358.526 269.488 359.079 269.608L359.238 269.411C359.575 269.195 359.753 269.175 359.95 269.334L359.93 269.156C360.724 268.17 362.166 268.194 362.782 267.228C362.94 267.03 363.315 267.17 363.512 267.329C363.907 267.646 364.162 268.338 364.537 268.478C365.287 268.756 365.349 267.67 366.08 267.771C366.436 267.732 366.95 267.497 367.148 267.655C367.917 268.112 368.431 267.876 369.085 267.266C369.244 267.068 369.6 267.03 369.816 267.366C370.033 267.703 369.874 267.9 369.715 268.097C369.437 268.847 368.311 268.429 368.032 269.179C367.754 269.929 367.061 270.184 366.369 270.439C366.013 270.478 365.874 270.853 365.537 271.069C365.556 271.247 365.556 271.247 365.753 271.406C365.811 271.94 365.85 272.295 365.73 272.848L365.907 272.829C365.984 273.541 365.864 274.094 365.172 274.349L365.191 274.526C365.191 274.526 365.191 274.526 365.21 274.704C365.21 274.704 365.21 274.704 365.23 274.882L365.408 274.863C364.831 276.185 364.831 276.185 363.191 276.003C363.369 275.984 363.191 276.003 363.191 276.003Z" fill="#191818"/>
<path d="M284.992 241.988C284.3 242.243 283.766 242.301 283.492 241.431C283.77 240.68 284.304 240.623 284.857 240.743C285.035 240.724 285.251 241.06 285.449 241.219C285.487 241.575 285.348 241.95 284.992 241.988Z" fill="#191818"/>
<path d="M354.441 235.191C354.124 235.585 353.374 235.306 353.138 234.792C352.883 234.1 353.397 233.864 354.109 233.787C354.878 234.244 354.917 234.599 354.441 235.191Z" fill="#191818"/>
<path d="M371.352 398.05C371.352 398.05 371.371 398.228 371.213 398.425C370.54 398.858 370.006 398.916 369.929 398.204C369.871 397.67 370.169 397.098 370.703 397.04C371.434 397.141 371.491 397.675 371.352 398.05Z" fill="#191818"/>
<path d="M373.336 333.223C373.316 333.045 373.653 332.829 373.812 332.632C373.97 332.434 374.326 332.396 374.523 332.555C374.72 332.713 374.937 333.05 374.956 333.228C375.014 333.761 374.677 333.978 374.163 334.213C373.413 333.935 373.196 333.598 373.336 333.223Z" fill="#191818"/>
<path d="M304.239 265.283C304.773 265.225 304.989 265.562 304.71 266.312C304.552 266.509 304.552 266.509 304.393 266.706C303.878 266.942 303.523 266.98 303.287 266.466C303.051 265.951 303.527 265.36 304.239 265.283Z" fill="#191818"/>
<path d="M315.443 335.525C316.155 335.448 316.371 335.784 316.251 336.337C316.131 336.89 315.439 337.145 315.045 336.828C314.434 336.174 314.751 335.779 315.443 335.525Z" fill="#191818"/>
<path d="M331.11 303.953C331.048 305.04 330.73 305.434 330.177 305.314C329.999 305.333 329.605 305.016 329.764 304.819C329.687 304.107 330.182 303.694 331.11 303.953Z" fill="#191818"/>
<path d="M363.401 201.463C362.906 201.877 362.512 201.559 362.079 200.886C362.199 200.333 362.555 200.295 362.911 200.256C363.088 200.237 363.464 200.376 363.483 200.554C363.877 200.872 363.738 201.247 363.401 201.463Z" fill="#191818"/>
<path d="M238.386 305.344C237.872 305.58 237.338 305.637 237.064 304.767C237.362 304.195 237.698 303.978 238.073 304.118C238.448 304.257 238.646 304.416 238.684 304.772C238.723 305.128 238.564 305.325 238.386 305.344Z" fill="#191818"/>
<path d="M273.41 226.499C273.232 226.518 272.838 226.201 272.818 226.023C272.78 225.667 272.919 225.292 273.275 225.254C273.987 225.177 274.362 225.316 274.102 226.244C273.944 226.441 273.785 226.638 273.41 226.499Z" fill="#191818"/>
<path d="M298.798 248.229C298.265 248.287 298.048 247.95 298.149 247.219C298.644 246.806 299 246.767 299.395 247.085C299.592 247.243 299.63 247.599 299.649 247.777C299.51 248.152 299.154 248.191 298.798 248.229Z" fill="#191818"/>
<path d="M291.254 261.65C292.163 261.731 292.379 262.068 291.903 262.66C291.586 263.054 291.052 263.112 290.817 262.597C290.245 262.299 290.562 261.905 291.254 261.65Z" fill="#191818"/>
<path d="M301.968 259.226C301.67 259.798 300.8 260.072 300.386 259.577C300.189 259.418 300.15 259.062 300.309 258.865C300.449 258.49 300.785 258.274 301.338 258.394C301.91 258.692 302.107 258.851 301.968 259.226Z" fill="#191818"/>
<path d="M300.431 293.234C300.291 293.609 299.955 293.826 299.58 293.686C298.849 293.586 298.632 293.249 299.267 292.46C299.979 292.383 300.532 292.503 300.431 293.234Z" fill="#191818"/>
<path d="M362.831 335.978C362.455 335.838 362.417 335.483 362.734 335.088C363.032 334.516 363.388 334.478 363.98 334.954C364.018 335.309 363.879 335.684 363.72 335.882C363.383 336.098 363.206 336.117 362.831 335.978Z" fill="#191818"/>
<path d="M229.462 321.066C228.929 321.124 228.395 321.182 228.515 320.629C228.477 320.273 228.991 320.037 229.188 320.196C229.722 320.138 229.938 320.475 229.462 321.066Z" fill="#191818"/>
<path d="M290.222 288.756C290.005 288.42 289.948 287.886 290.284 287.67C290.799 287.434 291.174 287.573 291.409 288.088C290.794 289.054 290.457 289.271 290.222 288.756Z" fill="#191818"/>
<path d="M319.284 341.051C319.246 340.695 319.207 340.34 319.741 340.282C320.433 340.027 320.491 340.561 320.727 341.075C320.727 341.075 320.746 341.253 320.587 341.45C319.736 341.902 319.342 341.585 319.284 341.051Z" fill="#191818"/>
<path d="M326.153 219.892C325.816 220.109 325.46 220.147 325.244 219.81C325.027 219.474 324.989 219.118 325.148 218.921C325.306 218.724 325.484 218.704 325.662 218.685C326.037 218.825 326.056 219.003 326.234 218.983C326.629 219.301 326.489 219.676 326.153 219.892Z" fill="#191818"/>
<path d="M305.085 269.692C305.282 269.85 305.479 270.009 305.517 270.365C305.378 270.74 305.219 270.937 304.864 270.975C304.686 270.995 304.489 270.836 304.291 270.677C304.253 270.322 304.234 270.144 304.392 269.947C304.532 269.571 304.69 269.374 305.085 269.692Z" fill="#191818"/>
<path d="M347.637 336.904C347.618 336.726 347.796 336.706 347.973 336.687C348.329 336.649 348.704 336.788 348.743 337.144C348.762 337.322 348.801 337.678 348.642 337.875C348.286 337.913 348.267 337.735 348.089 337.755C347.714 337.615 347.497 337.279 347.637 336.904Z" fill="#191818"/>
<path d="M333.884 329.567C334.023 329.192 334.36 328.976 334.735 329.115C334.932 329.274 335.129 329.433 335.168 329.788C335.225 330.322 334.711 330.558 334.177 330.615C333.23 330.178 333.547 329.784 333.884 329.567Z" fill="#191818"/>
<path d="M322.386 203.385C322.208 203.405 321.833 203.265 321.636 203.106C321.42 202.77 321.381 202.414 321.877 202.001C322.41 201.943 322.785 202.082 322.824 202.438C323.04 202.775 322.901 203.15 322.386 203.385Z" fill="#191818"/>
<path d="M329.697 204.389C329.124 204.091 328.908 203.754 329.225 203.36C329.543 202.966 330.096 203.086 330.312 203.422C330.726 203.918 330.389 204.134 329.697 204.389Z" fill="#191818"/>
<path d="M338.535 256.171C339.05 255.935 339.444 256.253 339.502 256.786C339.56 257.32 339.045 257.556 338.492 257.435C338.079 256.94 338.021 256.407 338.535 256.171Z" fill="#191818"/>
<path d="M316.145 326.99C316.126 326.812 316.463 326.595 316.621 326.398C316.958 326.182 317.333 326.321 317.549 326.658C317.766 326.994 317.804 327.35 317.665 327.725C317.309 327.764 316.953 327.802 316.756 327.644C316.4 327.682 316.006 327.365 316.145 326.99Z" fill="#191818"/>
<path d="M323.342 250.439C323.54 250.598 323.578 250.954 323.419 251.151C323.28 251.526 322.924 251.564 322.568 251.603C322.39 251.622 322.174 251.286 322.136 250.93C322.275 250.555 322.453 250.535 322.434 250.357C322.751 249.963 323.126 250.103 323.342 250.439Z" fill="#191818"/>
<path d="M306.032 413.221C306.407 413.36 306.624 413.697 306.484 414.072C306.186 414.644 305.811 414.505 305.398 414.01C305.321 413.298 305.657 413.082 306.032 413.221Z" fill="#191818"/>
<path d="M282.425 314.798C282.387 314.442 282.526 314.067 282.882 314.029C283.416 313.971 283.632 314.307 283.353 315.058C282.858 315.471 282.483 315.332 282.425 314.798Z" fill="#191818"/>
<path d="M339.685 324.983C339.843 324.786 340.021 324.767 340.377 324.729C340.594 325.065 340.613 325.243 340.473 325.618C340.334 325.993 339.978 326.032 339.603 325.892C339.387 325.556 339.526 325.181 339.685 324.983Z" fill="#191818"/>
<path d="M297.67 332.591C298.344 332.158 298.719 332.297 298.974 332.99C299.012 333.345 298.853 333.543 298.675 333.562C297.964 333.639 297.589 333.5 297.67 332.591Z" fill="#191818"/>
<path d="M357.542 423.484C357.777 423.999 357.479 424.571 356.946 424.629C356.234 424.706 356.354 424.153 356.474 423.6C356.772 423.028 357.287 422.792 357.542 423.484Z" fill="#191818"/>
<path d="M354.177 310.815C354.355 310.796 354.552 310.954 354.591 311.31C354.629 311.666 354.47 311.863 354.115 311.901C353.759 311.94 353.562 311.781 353.542 311.603C353.523 311.426 353.307 311.089 353.288 310.911C353.288 310.911 353.288 310.911 353.465 310.892C353.821 310.853 353.98 310.656 354.177 310.815Z" fill="#191818"/>
<path d="M327.49 338.72C327.726 339.234 327.409 339.629 326.856 339.508C326.322 339.566 326.106 339.23 326.384 338.479C327.077 338.225 327.433 338.186 327.49 338.72Z" fill="#191818"/>
<path d="M325.984 324.845C325.411 324.547 325.373 324.191 325.69 323.797C325.83 323.422 326.185 323.384 326.56 323.523C326.758 323.682 326.796 324.037 326.637 324.235C326.479 324.432 326.32 324.629 325.984 324.845Z" fill="#191818"/>
<path d="M349.993 330.343C349.44 330.223 349.382 329.689 349.858 329.098C350.57 329.021 350.945 329.16 350.825 329.713C350.863 330.069 350.368 330.482 349.993 330.343Z" fill="#191818"/>
<path d="M289.713 269.013C289.415 269.585 289.097 269.98 288.684 269.484C288.487 269.326 288.429 268.792 288.588 268.595C289.083 268.181 289.439 268.143 289.713 269.013Z" fill="#191818"/>
<path d="M319.266 300.915C319.978 300.838 320.353 300.977 320.233 301.53C320.112 302.083 319.776 302.3 319.204 302.002C318.631 301.704 318.771 301.329 319.266 300.915Z" fill="#191818"/>
<path d="M300.008 345.837C300.384 345.977 300.422 346.333 300.283 346.708C300.124 346.905 299.946 346.924 299.787 347.121C299.234 347.001 299.196 346.645 299.335 346.27C299.297 345.914 299.633 345.698 300.008 345.837Z" fill="#191818"/>
<path d="M295.614 248.755C296.148 248.698 296.523 248.837 296.384 249.212C296.244 249.587 295.908 249.804 295.533 249.664C295.158 249.525 295.119 249.169 295.614 248.755Z" fill="#191818"/>
<path d="M354.798 403.083C355.293 402.67 355.826 402.612 355.903 403.324C355.942 403.679 355.803 404.054 355.447 404.093C354.735 404.17 354.677 403.636 354.798 403.083Z" fill="#191818"/>
<path d="M353.321 324.589C353.657 324.373 354.013 324.334 354.21 324.493C354.624 324.988 354.287 325.204 353.595 325.459C352.864 325.358 352.826 325.003 353.321 324.589Z" fill="#191818"/>
<path d="M336.287 425.066C336.802 424.83 337.177 424.969 337.254 425.681C336.956 426.253 336.638 426.647 336.225 426.152C335.85 426.013 335.97 425.46 336.287 425.066Z" fill="#191818"/>
<path d="M260.695 228.778C260.497 228.619 260.459 228.264 260.618 228.066C261.113 227.653 261.488 227.792 261.743 228.485C261.483 229.413 261.089 229.095 260.695 228.778Z" fill="#191818"/>
<path d="M289.632 314.921C290.363 315.022 290.579 315.359 290.618 315.715C290.637 315.893 290.497 316.268 290.339 316.465C290.18 316.662 289.805 316.523 289.767 316.167C289.747 315.989 289.531 315.652 289.632 314.921C289.473 315.118 289.454 314.941 289.632 314.921Z" fill="#191818"/>
<path d="M275.758 289.783C275.383 289.644 275.325 289.11 275.662 288.894C275.821 288.696 276.176 288.658 276.532 288.619C276.749 288.956 276.787 289.312 276.628 289.509C276.47 289.706 276.133 289.922 275.758 289.783Z" fill="#191818"/>
<path d="M363.097 326.768C362.684 326.272 362.823 325.897 363.338 325.662C363.674 325.445 364.068 325.763 364.107 326.118C363.987 326.671 363.65 326.888 363.097 326.768Z" fill="#191818"/>
<path d="M319.991 281.038C319.496 281.451 318.962 281.509 318.905 280.975C318.866 280.619 319.183 280.225 319.539 280.187C320.054 279.951 320.27 280.288 319.991 281.038Z" fill="#191818"/>
<path d="M331.969 220.343C331.632 220.559 331.276 220.598 330.882 220.281C330.843 219.925 330.824 219.747 330.983 219.55C331.122 219.175 331.459 218.958 331.872 219.453C332.089 219.79 332.127 220.146 331.969 220.343Z" fill="#191818"/>
<path d="M319.925 207.248C319.353 206.95 318.959 206.633 319.454 206.219C319.771 205.825 320.324 205.945 320.541 206.281C320.776 206.796 320.637 207.171 319.925 207.248Z" fill="#191818"/>
<path d="M356.912 211.351C356.517 211.033 356.301 210.697 356.796 210.283C357.508 210.206 357.724 210.543 357.782 211.077C357.623 211.274 357.287 211.49 356.912 211.351Z" fill="#191818"/>
<path d="M321.464 277.995C321.858 278.312 321.719 278.687 321.382 278.904C321.223 279.101 320.868 279.139 320.651 278.803C320.613 278.447 320.771 278.25 320.771 278.25C321.089 277.856 321.267 277.836 321.464 277.995Z" fill="#191818"/>
<path d="M274.295 326.116C274.472 326.097 274.492 326.274 274.511 326.452C274.549 326.808 274.41 327.183 274.054 327.222C273.876 327.241 273.501 327.102 273.304 326.943C273.266 326.587 273.246 326.409 273.424 326.39C273.742 325.996 274.078 325.779 274.295 326.116Z" fill="#191818"/>
<path d="M316.606 213.187C316.942 212.97 317.101 212.773 317.515 213.268C317.553 213.624 317.394 213.821 317.236 214.018C317.077 214.216 316.721 214.254 316.524 214.095C316.308 213.759 316.288 213.581 316.606 213.187Z" fill="#191818"/>
<path d="M341.908 395.478C342.124 395.814 341.985 396.19 341.648 396.406C341.49 396.603 341.115 396.464 340.918 396.305C340.879 395.949 340.86 395.771 341.038 395.752C341.158 395.199 341.514 395.161 341.908 395.478Z" fill="#191818"/>
<path d="M332.587 314.23C332.904 313.836 333.26 313.797 333.476 314.134C333.712 314.649 333.236 315.24 332.683 315.12C332.327 315.158 332.289 314.802 332.587 314.23Z" fill="#191818"/>
<path d="M318.917 331.012C319.254 330.796 319.47 331.132 319.687 331.469C319.389 332.041 319.211 332.06 318.817 331.743C318.639 331.762 318.581 331.228 318.917 331.012Z" fill="#191818"/>
<path d="M266.732 224.704C267.049 224.31 267.405 224.271 267.621 224.608C267.838 224.945 267.679 225.142 267.165 225.377C267.165 225.377 266.987 225.397 266.79 225.238C266.592 225.079 266.573 224.901 266.732 224.704Z" fill="#191818"/>
<path d="M351.147 229.608C351.108 229.252 351.267 229.055 351.623 229.016C351.979 228.978 352.195 229.314 352.075 229.867C351.561 230.103 351.363 229.944 351.147 229.608Z" fill="#191818"/>
<path d="M342.262 322.185C342.479 322.522 342.517 322.878 342.181 323.094C341.844 323.31 341.628 322.974 341.411 322.637C341.709 322.065 342.065 322.026 342.262 322.185Z" fill="#191818"/>
<path d="M298.585 206.32C298.426 206.517 298.07 206.556 297.854 206.219C297.637 205.883 297.777 205.508 298.31 205.45C298.883 205.748 298.921 206.104 298.585 206.32Z" fill="#191818"/>
<path d="M324.322 246.19C324.144 246.21 323.946 246.051 323.927 245.873C324.067 245.498 324.067 245.498 324.225 245.301C324.562 245.084 324.937 245.224 324.975 245.58C325.033 246.113 324.677 246.152 324.322 246.19Z" fill="#191818"/>
<path d="M336.896 229.351C336.559 229.568 336.203 229.606 335.987 229.27C335.77 228.933 336.088 228.539 336.621 228.481C337.194 228.779 337.232 229.135 336.896 229.351Z" fill="#191818"/>
<path d="M287.007 242.306C287.166 242.109 287.502 241.893 287.719 242.229C288.113 242.546 287.973 242.921 287.637 243.138C287.084 243.018 286.868 242.681 287.007 242.306Z" fill="#191818"/>
<path d="M339.655 233.194C339.28 233.055 339.241 232.699 339.559 232.305C340.092 232.247 340.467 232.386 340.328 232.762C340.386 233.295 340.03 233.334 339.655 233.194Z" fill="#191818"/>
<path d="M350.685 251.978C350.151 252.036 349.776 251.896 349.915 251.521C350.055 251.146 350.233 251.127 350.608 251.266C350.964 251.228 350.983 251.406 350.685 251.978Z" fill="#191818"/>
<path d="M293.161 310.937C293.339 310.918 293.517 310.899 293.873 310.86C294.109 311.375 293.95 311.572 293.613 311.788C293.436 311.807 293.08 311.846 293.041 311.49C292.647 311.173 292.806 310.976 293.161 310.937Z" fill="#191818"/>
<path d="M252.76 305.051C252.207 304.931 251.99 304.594 252.308 304.2C252.485 304.18 252.644 303.983 252.663 304.161C253.394 304.262 253.255 304.637 252.76 305.051Z" fill="#191818"/>
<path d="M366.376 312.198C366.059 312.592 365.703 312.631 365.487 312.294C365.27 311.958 365.607 311.741 365.785 311.722C366.121 311.506 366.319 311.664 366.376 312.198Z" fill="#191818"/>
<path d="M339.064 292.652C339.223 292.455 339.579 292.416 339.795 292.753C340.012 293.09 339.872 293.465 339.714 293.662C339.555 293.859 339.377 293.878 339.199 293.897C338.766 293.224 338.728 292.868 339.064 292.652Z" fill="#191818"/>
<path d="M343.318 257.094C343.534 257.431 343.197 257.647 342.683 257.883C342.111 257.585 342.092 257.407 342.409 257.012C342.745 256.796 343.12 256.936 343.318 257.094Z" fill="#191818"/>
<path d="M336.957 223.224C336.938 223.046 336.918 222.868 337.096 222.849C337.414 222.455 337.611 222.614 337.846 223.128C337.37 223.719 337.173 223.561 336.957 223.224Z" fill="#191818"/>
<path d="M331.25 350.195C331.605 350.157 331.822 350.493 332.038 350.83C332.057 351.008 332.077 351.186 331.937 351.561C331.264 351.994 330.889 351.854 330.831 351.32C330.577 350.628 330.894 350.234 331.25 350.195Z" fill="#191818"/>
<path d="M342.94 203.677C342.743 203.518 342.883 203.143 343.061 203.124C343.575 202.888 343.772 203.046 343.849 203.758C343.513 203.975 343.157 204.013 342.94 203.677Z" fill="#191818"/>
<path d="M225.994 320.546C225.816 320.565 225.619 320.407 225.422 320.248C225.581 320.051 225.561 319.873 225.72 319.676C226.076 319.637 226.432 319.599 226.489 320.132C226.509 320.31 226.172 320.527 225.994 320.546Z" fill="#191818"/>
<path d="M283.685 261.566C283.704 261.744 283.545 261.941 283.565 262.119C283.247 262.514 282.911 262.73 282.416 263.144C280.04 264.481 280.04 264.481 279.713 261.456L279.535 261.475C279.141 261.158 278.944 260.999 278.747 260.841C278.371 260.701 277.996 260.562 278.136 260.187C278.078 259.653 278.593 259.418 278.929 259.201C279.463 259.143 279.679 259.48 279.896 259.817C279.934 260.172 280.131 260.331 280.348 260.668C280.526 260.648 280.526 260.648 280.684 260.451C281.377 260.196 281.732 260.158 282.425 259.903C282.92 259.489 283.136 259.826 283.156 260.004C283.156 260.004 283.334 259.984 283.353 260.162C283.353 260.162 283.353 260.162 283.55 260.321C283.55 260.321 283.55 260.321 283.531 260.143C284.122 260.619 284.18 261.153 283.685 261.566Z" fill="#191818"/>
<path d="M310.863 301.463C310.844 301.285 310.805 300.929 310.786 300.752C310.786 300.752 310.786 300.752 310.964 300.732C311.319 300.694 311.497 300.674 311.695 300.833C311.892 300.992 312.089 301.151 311.949 301.526C311.791 301.723 311.651 302.098 311.454 301.939C311.079 301.8 310.882 301.641 310.863 301.463Z" fill="#191818"/>
<path d="M351.962 345.254C352.159 345.412 352.198 345.768 351.861 345.985C351.525 346.201 351.327 346.042 351.092 345.528C351.39 344.956 351.746 344.917 351.962 345.254Z" fill="#191818"/>
<path d="M325.1 255.11C325.355 255.802 325.196 255.999 324.662 256.057C324.484 256.076 324.268 255.74 324.249 255.562C324.21 255.206 324.547 254.99 325.1 255.11Z" fill="#191818"/>
<path d="M322.003 351.196C321.983 351.018 322.123 350.643 322.301 350.624C322.834 350.566 323.031 350.725 322.931 351.456C322.416 351.691 322.06 351.73 322.003 351.196Z" fill="#191818"/>
<path d="M330.659 334.783C330.818 334.586 331.174 334.547 331.53 334.509C331.765 335.023 331.607 335.22 331.27 335.437C331.092 335.456 330.736 335.494 330.698 335.139C330.52 335.158 330.679 334.961 330.659 334.783Z" fill="#191818"/>
<path d="M355.974 330.778C355.974 330.778 356.19 331.115 356.012 331.134C355.854 331.331 355.676 331.35 355.281 331.033C355.599 330.639 355.777 330.619 355.974 330.778Z" fill="#191818"/>
<path d="M270.3 239.253C270.656 239.214 270.675 239.392 270.732 239.926C270.396 240.143 270.218 240.162 270.002 239.825C269.963 239.469 270.122 239.272 270.3 239.253Z" fill="#191818"/>
<path d="M311.089 341.761C311.089 341.761 311.286 341.919 311.306 342.097C311.344 342.453 311.166 342.472 310.811 342.511C310.397 342.016 310.734 341.799 311.089 341.761Z" fill="#191818"/>
<path d="M278.322 355.023C278.677 354.985 278.875 355.143 278.894 355.321C279.129 355.836 278.615 356.071 278.062 355.951C277.826 355.437 277.788 355.081 278.322 355.023Z" fill="#191818"/>
<path d="M265.178 300.104C265.318 299.729 265.476 299.532 265.673 299.691C265.673 299.691 265.89 300.027 265.712 300.046C265.572 300.421 265.395 300.441 265.178 300.104Z" fill="#191818"/>
<path d="M344.05 292.115C343.674 291.975 343.477 291.817 343.636 291.62C343.636 291.62 343.973 291.403 343.992 291.581C344.367 291.721 344.386 291.898 344.05 292.115Z" fill="#191818"/>
<path d="M347.085 291.965C347.085 291.965 347.422 291.748 347.441 291.926C347.638 292.085 347.657 292.263 347.34 292.657C346.946 292.34 346.926 292.162 347.085 291.965Z" fill="#191818"/>
<path d="M325.298 305.122C325.12 305.141 324.922 304.982 324.922 304.982C324.884 304.626 325.043 304.429 325.418 304.569C325.634 304.905 325.653 305.083 325.298 305.122Z" fill="#191818"/>
<path d="M362.829 296.023C363.007 296.004 363.026 296.182 363.223 296.34C365.056 298.302 364.974 299.211 363.546 300.985C363.07 301.577 362.575 301.99 361.527 302.284L361.705 302.264C361.031 302.697 360.536 303.111 360.123 302.616C359.945 302.635 359.767 302.654 359.57 302.495C358.502 302.611 357.93 302.313 358.012 301.404C357.838 299.803 358.218 298.322 359.329 296.942C359.391 295.855 359.117 294.985 358.665 294.134C358.487 294.153 358.29 293.994 358.112 294.013C357.559 293.893 357.184 293.754 356.65 293.812C356.314 294.028 356.333 294.206 356.174 294.403C356.016 294.6 356.016 294.6 355.838 294.62C355.818 294.442 355.799 294.264 355.799 294.264C355.761 293.908 355.741 293.73 355.881 293.355L355.684 293.196C355.607 292.485 355.905 291.912 355.847 291.379C355.89 290.114 356.308 288.989 357.458 287.965C357.458 287.965 357.458 287.965 357.28 287.984C357.953 287.551 358.41 286.782 359.16 287.061C359.338 287.041 359.515 287.022 359.693 287.003C360.621 287.262 361.372 287.541 361.963 288.017C362.554 288.493 362.771 288.83 362.67 289.561C362.531 289.936 362.569 290.291 362.608 290.647C362.983 290.787 363.16 290.767 363.338 290.748C364.603 290.791 364.8 290.95 364.541 291.878C364.56 292.056 364.579 292.234 364.42 292.431C364.262 292.628 364.103 292.825 363.767 293.042L363.944 293.022C363.468 293.614 362.776 293.869 362.363 293.374C362.185 293.393 362.007 293.412 361.81 293.253C361.276 293.311 360.92 293.35 360.406 293.585L360.583 293.566C360.858 294.436 361.113 295.129 361.189 295.84C361.367 295.821 361.367 295.821 361.545 295.802C361.901 295.763 362.079 295.744 362.435 295.706C362.435 295.706 362.613 295.686 362.829 296.023Z" fill="#191818"/>
<path d="M373.587 255.801C373.962 255.941 374.178 256.277 373.664 256.513C373.289 256.374 373.091 256.215 373.25 256.018C373.231 255.84 373.389 255.643 373.587 255.801Z" fill="#191818"/>
<path d="M330.464 314.644C330.108 314.682 330.089 314.505 330.05 314.149C330.387 313.932 330.565 313.913 330.781 314.25C330.801 314.428 330.642 314.625 330.464 314.644Z" fill="#191818"/>
<path d="M343.648 245.181C343.629 245.003 343.788 244.806 343.788 244.806C344.144 244.767 344.163 244.945 344.201 245.301C343.865 245.518 343.687 245.537 343.648 245.181Z" fill="#191818"/>
<path d="M362.965 466.996C363.34 467.135 363.537 467.294 363.379 467.491C363.379 467.491 363.042 467.707 363.023 467.529C362.667 467.568 362.629 467.212 362.965 466.996Z" fill="#191818"/>
<path d="M305.593 279.355C305.377 279.019 305.535 278.821 305.713 278.802C305.891 278.783 306.088 278.942 306.088 278.942C306.127 279.297 305.968 279.495 305.593 279.355Z" fill="#191818"/>
<path d="M349.85 237.667C349.634 237.331 349.614 237.153 349.97 237.114C350.148 237.095 350.345 237.254 350.365 237.431C350.365 237.431 350.206 237.629 349.85 237.667Z" fill="#191818"/>
<path d="M334.25 326.289C333.914 326.506 333.736 326.525 333.519 326.188C333.481 325.832 333.639 325.635 333.817 325.616C334.192 325.755 334.389 325.914 334.25 326.289Z" fill="#191818"/>
<path d="M283.492 273.11L283.848 273.071C284.045 273.23 284.065 273.408 284.262 273.566C284.262 273.566 284.084 273.586 283.906 273.605C283.55 273.643 283.353 273.485 283.492 273.11Z" fill="#191818"/>
<path d="M317.859 327.887C317.859 327.887 318.056 328.045 317.859 327.887C318.056 328.045 317.859 327.887 317.859 327.887C317.84 327.709 317.859 327.887 317.859 327.887Z" fill="#191818"/>
</svg>
