<svg width="14" height="15" viewBox="0 0 14 15" fill="none" xmlns="http://www.w3.org/2000/svg">
<path d="M13.9845 3.7102C13.9845 3.69434 13.9845 3.69434 13.9845 3.67849C13.9691 3.64678 13.9691 3.61507 13.9536 3.58336V3.5675C13.9382 3.53579 13.9073 3.50408 13.8918 3.48822L13.8764 3.47237C13.8609 3.45651 13.83 3.44066 13.8146 3.4248L13.7991 3.40894H13.7837L13.7682 3.39309L7.20088 0.0475667C7.07726 -0.0158556 6.92274 -0.0158556 6.78366 0.0475667L4.57395 1.17331L11.1722 4.64568L11.1876 4.66153C11.2031 4.66153 11.2031 4.67739 11.2185 4.67739C11.234 4.69324 11.234 4.7091 11.2494 4.72496C11.2494 4.74081 11.2494 4.74081 11.2494 4.75667V4.77252V8.45101C11.2494 8.51443 11.2185 8.562 11.1722 8.59371L9.84327 9.30721C9.766 9.35478 9.67329 9.32307 9.62693 9.24379C9.61148 9.22793 9.61148 9.19622 9.61148 9.16451V5.5653L2.93598 2.02951L2.92053 2.01366L0.247241 3.37723L0.231788 3.39309H0.216336L0.200883 3.40894C0.18543 3.4248 0.154525 3.44066 0.139073 3.45651L0.12362 3.47237C0.0927152 3.50408 0.0772627 3.53579 0.0463576 3.5675V3.58336C0.0309051 3.61507 0.0154525 3.64678 0.0154525 3.67849C0.0154525 3.69434 0.0154525 3.69434 0.0154525 3.7102C0.0154525 3.74191 0 3.75777 0 3.78948V3.80533V11.194C0 11.3684 0.0927152 11.5428 0.262693 11.6221L6.76821 14.9518C6.86093 14.9994 6.96909 15.0152 7.07726 14.9835L7.10817 14.9676C7.13907 14.9676 7.15453 14.9518 7.18543 14.9359L13.7373 11.6063C13.8918 11.527 14 11.3684 14 11.1782V3.80533V3.78948C13.9845 3.75777 13.9845 3.74191 13.9845 3.7102Z" fill="#191818"/>
</svg>
