<svg width="20" height="20" viewBox="0 0 20 20" fill="none" xmlns="http://www.w3.org/2000/svg">
<path d="M14.1667 17.4993C15.0871 17.4993 15.8333 16.7532 15.8333 15.8327C15.8333 14.9122 15.0871 14.166 14.1667 14.166C13.2462 14.166 12.5 14.9122 12.5 15.8327C12.5 16.7532 13.2462 17.4993 14.1667 17.4993Z" stroke="#191818" stroke-linecap="round" stroke-linejoin="round"/>
<path d="M6.66667 17.4993C7.58714 17.4993 8.33333 16.7532 8.33333 15.8327C8.33333 14.9122 7.58714 14.166 6.66667 14.166C5.74619 14.166 5 14.9122 5 15.8327C5 16.7532 5.74619 17.4993 6.66667 17.4993Z" stroke="#191818" stroke-linecap="round" stroke-linejoin="round"/>
<path d="M2.5 2.5H3.49299C3.88594 2.5 4.22549 2.7745 4.30782 3.15873L6.52551 13.5079C6.60785 13.8922 6.9474 14.1667 7.34035 14.1667H14.1667" stroke="#191818" stroke-linecap="round" stroke-linejoin="round"/>
<path d="M5 5H16.3923C16.9468 5 17.3467 5.5315 17.193 6.0643L15.7507 11.0643C15.6478 11.421 15.3213 11.6667 14.95 11.6667H6.44231" stroke="#191818" stroke-linecap="round" stroke-linejoin="round"/>
</svg>
