<svg width="27" height="27" viewBox="0 0 27 27" fill="none" xmlns="http://www.w3.org/2000/svg">
<path d="M22.5 5.625H4.5C3.87868 5.625 3.375 6.12868 3.375 6.75V21.2843C3.375 22.2276 4.46617 22.7521 5.20278 22.1628L8.69185 19.3715C8.89132 19.2119 9.13917 19.125 9.39463 19.125H22.5C23.1213 19.125 23.625 18.6213 23.625 18V6.75C23.625 6.12868 23.1213 5.625 22.5 5.625Z" stroke="#4BC8A2" stroke-width="2.5" stroke-linecap="round" stroke-linejoin="round"/>
<path d="M17.7589 11.0089C18.247 10.5207 18.247 9.72927 17.7589 9.24112C17.2707 8.75296 16.4793 8.75296 15.9911 9.24112L17.7589 11.0089ZM12.375 14.625L11.4911 15.5089C11.9793 15.997 12.7707 15.997 13.2589 15.5089L12.375 14.625ZM11.0089 11.4911C10.5207 11.003 9.72927 11.003 9.24112 11.4911C8.75296 11.9793 8.75296 12.7707 9.24112 13.2589L11.0089 11.4911ZM15.9911 9.24112L11.4911 13.7411L13.2589 15.5089L17.7589 11.0089L15.9911 9.24112ZM13.2589 13.7411L11.0089 11.4911L9.24112 13.2589L11.4911 15.5089L13.2589 13.7411Z" fill="#4BC8A2"/>
</svg>
