<svg width="16" height="17" viewBox="0 0 16 17" fill="none" xmlns="http://www.w3.org/2000/svg">
<path d="M3.16503 3.37115C5.67488 1.10083 9.43097 1.06612 11.9755 3.13856L9.95863 3.21494C9.69827 3.22535 9.49693 3.44058 9.50734 3.70094C9.51776 3.95435 9.72604 4.15222 9.97599 4.15222C9.98293 4.15222 9.9864 4.15222 9.99334 4.15222L13.0899 4.03766C13.3433 4.02725 13.5412 3.82244 13.5412 3.56902V3.53431C13.5412 3.52736 13.5412 3.52389 13.5412 3.51695V3.51348L13.4266 0.451673C13.4162 0.191315 13.1975 -0.0100279 12.9406 0.000386436C12.6802 0.0108007 12.4789 0.22603 12.4893 0.486387L12.5622 2.40609C11.3021 1.37507 9.75034 0.777988 8.091 0.694673C6.03591 0.59053 4.06066 1.29523 2.5367 2.67686C0.439953 4.57574 -0.448734 7.46397 0.217782 10.2133C0.269853 10.4286 0.460782 10.5709 0.67254 10.5709C0.710725 10.5709 0.74544 10.5674 0.783626 10.557C1.03357 10.4945 1.18978 10.2411 1.1273 9.99118C0.544097 7.57506 1.3217 5.03744 3.16503 3.37115Z" fill="#191818"/>
<path d="M15.3237 6.78714C15.2612 6.53719 15.0078 6.38098 14.7579 6.44347C14.5079 6.50595 14.3517 6.75937 14.4142 7.00931C15.0009 9.42543 14.2198 11.963 12.3765 13.6293C11.0816 14.7992 9.45698 15.3755 7.83929 15.3755C6.2945 15.3755 4.75319 14.8513 3.51041 13.8168L5.55162 13.6328C5.8085 13.6085 5.99943 13.3829 5.97513 13.1225C5.95083 12.8621 5.72519 12.6747 5.46483 12.699L2.37873 12.9767C2.12184 13.001 1.93091 13.2266 1.95521 13.487L2.23293 16.5731C2.25375 16.8161 2.45857 17.0001 2.6981 17.0001C2.71198 17.0001 2.72587 17.0001 2.73975 16.9966C2.99664 16.9723 3.18757 16.7467 3.16327 16.4863L2.99664 14.6083C4.25677 15.6289 5.80156 16.2225 7.45049 16.3058C7.58241 16.3127 7.71432 16.3162 7.84276 16.3162C9.75552 16.3162 11.5746 15.615 13.0048 14.3236C15.1015 12.4247 15.9902 9.53998 15.3237 6.78714Z" fill="#191818"/>
</svg>
