<svg width="198" height="13" viewBox="0 0 198 13" fill="none" xmlns="http://www.w3.org/2000/svg">
<path d="M101.321 11.9617H97.957V0.992188H101.321V11.9617Z" fill="#191818"/>
<path d="M107.464 11.9617H104.247V0.992188H107.099L111.304 6.29411V0.992188H114.485V11.9617H111.706L107.428 6.6232V11.9617H107.464Z" fill="#191818"/>
<path d="M121.286 3.88083V0.992188H130.939V3.88083H127.795V11.9617H124.431V3.88083H121.286Z" fill="#191818"/>
<path d="M136.643 11.9617H133.279V0.992188H136.643V4.72182H140.007V0.992188H143.371V11.9617H140.007V7.64701H136.643V11.9617Z" fill="#191818"/>
<path d="M154.89 11.9617H146.188V0.992188H154.78V3.88083H149.551V4.86807H153.647V7.53732H149.551V9.07304H154.89V11.9617Z" fill="#191818"/>
<path d="M162.275 7.39636V0.960938H165.639V7.39636C165.639 7.94484 165.786 8.38362 166.078 8.67614C166.371 8.96866 166.773 9.11492 167.285 9.11492C167.76 9.11492 168.162 8.96866 168.455 8.67614C168.747 8.38362 168.894 7.9814 168.894 7.39636V0.960938H172.258V7.39636C172.258 8.93209 171.782 10.1022 170.832 10.9066C169.917 11.7476 168.711 12.1498 167.248 12.1498C165.822 12.1498 164.616 11.7476 163.665 10.9066C162.751 10.1022 162.275 8.93209 162.275 7.39636Z" fill="#191818"/>
<path d="M179.315 12.1856C177.523 12.1856 175.987 11.7834 174.744 11.0155V7.72468C175.256 8.16346 175.951 8.52911 176.865 8.82162C177.816 9.11414 178.62 9.2604 179.351 9.2604C180.192 9.2604 180.631 9.07757 180.631 8.74849C180.631 8.60223 180.485 8.45597 180.156 8.30971C179.863 8.16345 179.242 7.98063 178.327 7.68811C177.121 7.32246 176.207 6.88368 175.622 6.3352C175.037 5.78673 174.708 5.05543 174.708 4.17788C174.708 3.08093 175.11 2.23994 175.951 1.6549C176.792 1.06986 177.925 0.777344 179.424 0.777344C180.814 0.777344 182.13 1.06986 183.373 1.6549V4.79948C182.825 4.4704 182.167 4.21444 181.362 4.03162C180.558 3.81223 179.827 3.70254 179.168 3.70254C178.51 3.70254 178.181 3.84879 178.181 4.10474C178.181 4.251 178.327 4.39727 178.62 4.54353C178.912 4.65322 179.607 4.87261 180.668 5.20169C181.801 5.53077 182.679 6.00612 183.227 6.5546C183.776 7.10307 184.068 7.79781 184.068 8.6388C184.068 9.73575 183.629 10.6133 182.752 11.2715C181.911 11.8565 180.741 12.1856 179.315 12.1856Z" fill="#191818"/>
<path d="M189.225 11.9645H185.751L190.248 0.921875H193.466L198 11.9645H194.38L193.612 9.91685H190.029L189.225 11.9645ZM191.821 4.76119L191.016 7.35731H192.625L191.821 4.76119Z" fill="#191818"/>
<path d="M88.5238 2.48885C87.3903 1.46503 85.8911 0.953125 84.136 0.953125H79.5288V5.85283C80.6989 5.88939 81.7958 5.88938 82.8928 5.92595V3.87832H83.9166C84.8307 3.87832 85.5255 4.09771 86.0374 4.53649C86.5127 4.97526 86.7687 5.63343 86.7687 6.47442C86.7687 7.31542 86.5127 7.93703 86.0374 8.41237C85.562 8.85115 84.8307 9.07054 83.9166 9.07054H82.8928V6.51099C81.7958 6.54755 80.6989 6.54756 79.5288 6.58412V11.9957H84.136C85.9277 11.9957 87.3903 11.4838 88.5238 10.46C89.6573 9.43619 90.2423 8.11985 90.2423 6.51099C90.2058 4.829 89.6573 3.51266 88.5238 2.48885Z" fill="#191818"/>
<path d="M69.253 5.71438C71.5931 5.75095 73.7505 5.75094 75.7981 5.7875V4.83681H71.7028V3.84957H76.9316V0.960938H68.3389V5.71438H69.253Z" fill="#191818"/>
<path d="M71.7029 7.50006H75.7981V6.58594C73.7505 6.6225 71.5932 6.65906 69.253 6.65906H68.3389V11.9244H77.0413V9.03579H71.7029V7.50006Z" fill="#191818"/>
<path d="M65.4517 5.67782H65.4883V0.960938H62.3071V5.67782H65.4517Z" fill="#191818"/>
<path d="M61.8322 5.67782L58.1025 0.960938H55.2505V5.64125L61.8322 5.67782Z" fill="#191818"/>
<path d="M65.4523 6.73047L58.5781 6.76704L62.7465 11.9593H65.4889V6.73047H65.4523Z" fill="#191818"/>
<path d="M55.2505 6.77344V11.9657H58.4682V6.77344H55.2505Z" fill="#191818"/>
<path d="M45.2674 5.6H45.5599C45.6331 5.38061 45.7428 5.16123 45.889 4.94184C46.2181 4.50306 46.6569 4.17397 47.2054 3.99115C47.7538 3.80832 48.3754 3.77176 49.1067 3.84489C49.838 3.91802 50.5693 4.1374 51.2641 4.50305V1.4316C50.935 1.28534 50.679 1.17565 50.3865 1.10252C50.2037 1.02939 49.9112 0.956258 49.4724 0.883128C49.1067 0.809998 48.6679 0.773438 48.156 0.773438C46.3644 0.773438 44.8652 1.32191 43.6951 2.38229C42.7079 3.25985 42.1594 4.3568 41.9766 5.63657L45.2674 5.6Z" fill="#191818"/>
<path d="M50.0209 6.80859H49.3627V8.92935C49.0702 9.14874 48.6314 9.25843 48.0463 9.25843C47.315 9.25843 46.6934 9.00248 46.1815 8.52714C45.7428 8.12492 45.4868 7.53988 45.4502 6.84515H45.2674H41.9766C42.0497 8.34431 42.6347 9.62409 43.7317 10.6113C44.9018 11.6717 46.3644 12.2202 48.0829 12.2202C49.0702 12.2202 49.9843 12.0739 50.8253 11.7449C51.6663 11.4158 52.3244 11.0135 52.7632 10.5382V6.84515L50.0209 6.80859Z" fill="#191818"/>
<path d="M39.4176 5.64125V0.960938H36.0171V5.64125H39.4176Z" fill="#191818"/>
<path d="M36.0171 6.77344V11.9657H39.4176V6.81L36.0171 6.77344Z" fill="#191818"/>
<path d="M24.7185 5.67455H27.4243H31.227H31.483C31.0807 5.49173 30.6785 5.30891 30.1666 5.16265C29.1062 4.83356 28.4115 4.61416 28.119 4.50447C27.8265 4.35821 27.6802 4.21196 27.6802 4.0657C27.6802 3.80974 28.0093 3.66348 28.6675 3.66348C29.3256 3.66348 30.0569 3.77317 30.8614 3.99256C31.6658 4.17539 32.324 4.46791 32.8724 4.76043V1.61584C31.6292 1.0308 30.3129 0.738281 28.9234 0.738281C27.4608 0.738281 26.2907 1.0308 25.4498 1.61584C24.6088 2.20088 24.2065 3.04187 24.2065 4.13882C24.2065 4.72386 24.3528 5.23577 24.6088 5.67455H24.7185Z" fill="#191818"/>
<path d="M31.227 6.77344H27.4243H25.6326C26.181 7.13909 26.9123 7.43161 27.7899 7.72413C28.704 7.98008 29.2891 8.19947 29.6182 8.34573C29.9472 8.49198 30.0935 8.63825 30.0935 8.78451C30.0935 9.11359 29.6547 9.29642 28.8137 9.29642C28.0824 9.29642 27.278 9.15015 26.3273 8.85763C25.4132 8.56511 24.6819 8.19946 24.2065 7.76068V11.0515C25.4497 11.8194 26.9489 12.2216 28.7772 12.2216C30.2032 12.2216 31.3733 11.8925 32.2874 11.2344C33.1649 10.5762 33.6037 9.69863 33.6037 8.60168C33.6037 7.90695 33.3843 7.32191 32.9821 6.81L31.227 6.77344Z" fill="#191818"/>
<path d="M13.5645 5.82407L14.442 5.7875L20.0365 5.75094H20.7678V4.83681H16.6359V3.88613H21.8647V0.960938H13.272V5.82407H13.5645Z" fill="#191818"/>
<path d="M16.6359 7.50006H20.7678V6.69563L14.442 6.6225L14.0764 6.58594H13.272V11.961H21.9744V9.03579H16.6359V7.50006Z" fill="#191818"/>
<path d="M7.23986 6.47442C7.23986 7.31542 6.9839 7.93703 6.50856 8.37581C6.03322 8.81459 5.30192 9.03397 4.38779 9.03397H3.36398V3.87832H4.38779C5.30192 3.87832 5.99665 4.09771 6.50856 4.53649C6.87421 4.86557 7.13016 5.34091 7.20329 5.92595L10.7135 5.85283C10.6038 4.49992 10.0188 3.36641 9.03154 2.48885C7.89803 1.46503 6.39887 0.953125 4.64375 0.953125H0V11.9226H4.60718C6.39887 11.9226 7.86146 11.4107 8.99498 10.3869C10.1285 9.39962 10.677 8.08328 10.7135 6.51099L7.23986 6.47442Z" fill="#191818"/>
</svg>
