<svg width="102" height="15" viewBox="0 0 102 15" fill="none" xmlns="http://www.w3.org/2000/svg">
<g clip-path="url(#clip0_2743_33651)">
<path d="M0.00390625 13.7109H12.2641L11.5595 14.6835H0.00390625V13.7109Z" fill="#D40511"/>
<path d="M101.116 14.6835H86.1074L86.8825 13.7109H101.186V14.6835H101.116Z" fill="#D40511"/>
<path d="M0.00390625 11.9062H13.6734L12.8983 12.8788H0.00390625V11.9062Z" fill="#D40511"/>
<path d="M0.00390625 10.0938H15.0826L14.3075 11.0663H0.00390625V10.0938Z" fill="#D40511"/>
<path d="M101.115 12.8788H87.5156L88.2907 11.9062H101.185V12.8788H101.115Z" fill="#D40511"/>
<path d="M89.6305 10.0938H101.116V11.0663H88.8555L89.6305 10.0938Z" fill="#D40511"/>
<path d="M13.25 14.6849L19.7324 6.14062C19.7324 6.14062 26.9195 6.14062 27.765 6.14062C28.681 6.14062 28.681 6.48795 28.1877 7.04368C27.765 7.59941 26.9899 8.6414 26.5671 9.19713C26.3558 9.54446 25.933 10.0307 27.2718 10.0307C28.7514 10.0307 38.0523 10.0307 38.0523 10.0307C37.2068 11.2811 34.2474 14.7544 29.0333 14.7544C24.8056 14.6849 13.25 14.6849 13.25 14.6849Z" fill="#D40511"/>
<path d="M50.3843 10.0938L46.8613 14.748H37.6309L41.1539 10.0938H50.3843Z" fill="#D40511"/>
<path d="M63.8415 10.0938L60.3184 14.748H51.0176L54.5406 10.0938H63.8415Z" fill="#D40511"/>
<path d="M66.8709 10.0938C66.8709 10.0938 66.1663 10.9968 65.8844 11.4136C64.6866 12.9419 65.7435 14.748 69.5484 14.748C73.917 14.748 84.4861 14.748 84.4861 14.748L88.0092 10.0938H66.8709Z" fill="#D40511"/>
<path d="M17.8311 0.858529L14.5898 5.09596C14.5898 5.09596 31.2891 5.09596 32.2051 5.09596C33.1211 5.09596 33.1211 5.44329 32.6279 5.99901C32.2051 6.55474 31.43 7.59673 31.0073 8.15246C30.7959 8.43033 30.3731 8.98605 31.7119 8.98605C33.1916 8.98605 38.8989 8.98605 38.8989 8.98605C38.8989 8.98605 40.0968 7.4578 41.0127 6.13795C42.3515 4.4013 41.1537 0.789062 36.4328 0.789062C32.2051 0.858529 17.8311 0.858529 17.8311 0.858529Z" fill="#D40511"/>
<path d="M64.6162 8.9869H41.9277L48.1283 0.859375H57.4292L53.9061 5.5136H58.0633L61.5864 0.859375H70.8872L64.6162 8.9869Z" fill="#D40511"/>
<path d="M83.7116 0.859375L77.511 8.9869H67.6465L73.8471 0.859375H83.7116Z" fill="#D40511"/>
</g>
<defs>
<clipPath id="clip0_2743_33651">
<rect width="101.112" height="13.8932" fill="white" transform="translate(0.00390625 0.859375)"/>
</clipPath>
</defs>
</svg>
