<svg width="94" height="94" viewBox="0 0 94 94" fill="none" xmlns="http://www.w3.org/2000/svg">
<path d="M28.58 75.1048C28.4464 74.8012 28.2885 74.4976 28.1914 74.1576C27.7541 72.7731 28.3371 71.34 29.6123 70.6478C30.851 69.9677 32.4298 70.2592 33.3406 71.34C34.2515 72.4209 34.2757 73.9754 33.4013 75.1413C32.5998 76.21 31.0089 76.5622 29.7458 75.9792C29.5758 75.9064 29.3937 75.8214 29.2236 75.7485C29.005 75.5299 28.7986 75.3234 28.58 75.1048Z" fill="#C6E0FF"/>
<path d="M29.2034 18.8259C29.3977 18.7287 29.5921 18.6558 29.7864 18.5587C31.098 17.9758 32.6768 18.3887 33.4419 19.5181C34.3041 20.769 34.1705 22.3599 33.1382 23.3922C32.106 24.4245 30.5029 24.5459 29.2642 23.6958C28.1469 22.9186 27.7218 21.3276 28.3169 20.0282C28.414 19.8339 28.4869 19.6395 28.5841 19.4452C28.7784 19.2509 28.997 19.0323 29.2034 18.8259Z" fill="#C6E0FF"/>
<path d="M19.4881 28.544C19.6581 28.4711 19.8403 28.3861 19.9982 28.3011C21.3219 27.6818 22.9371 28.0825 23.7265 29.2363C24.5766 30.475 24.4552 32.0781 23.4229 33.1103C22.3785 34.1548 20.7511 34.2762 19.4881 33.3775C18.3829 32.5881 17.9943 30.9851 18.6015 29.6977C18.6744 29.5277 18.7594 29.3456 18.8323 29.1755C19.063 28.9691 19.2816 28.7505 19.4881 28.544Z" fill="#C6E0FF"/>
<path d="M18.8494 65.3768C18.7765 65.2311 18.7158 65.0732 18.6308 64.9153C17.9872 63.6158 18.3636 61.9763 19.4931 61.1627C20.7439 60.2761 22.3835 60.3854 23.4279 61.4298C24.4845 62.4864 24.5938 64.1259 23.6951 65.3647C22.8814 66.4941 21.2419 66.8706 19.9546 66.2148C19.8088 66.1419 19.651 66.0812 19.4931 65.9962C19.2745 65.8019 19.0559 65.5833 18.8494 65.3768Z" fill="#C6E0FF"/>
<path d="M41.9785 42.9005C44.3588 45.3051 44.3588 49.2642 41.9542 51.6445C39.5375 54.037 35.6026 54.037 33.2102 51.6445C30.8056 49.2399 30.8056 45.2322 33.2345 42.8519C35.6512 40.4837 39.6103 40.508 41.9785 42.9005Z" fill="#067AFF"/>
<path d="M51.6271 61.4572C49.1496 63.8133 45.2148 63.7647 42.8709 61.3479C40.4906 58.8704 40.5513 54.8749 42.9923 52.5553C45.4577 50.2114 49.4168 50.2843 51.7364 52.701C54.1046 55.1664 54.0438 59.1376 51.6271 61.4572Z" fill="#067AFF"/>
<path d="M61.3953 51.6923C58.9785 54.0604 55.0194 54.0604 52.6513 51.668C50.2588 49.2512 50.2709 45.2314 52.6998 42.8754C55.1409 40.5072 59.0878 40.5436 61.4439 42.9482C63.8242 45.3771 63.7878 49.3241 61.3953 51.6923Z" fill="#067AFF"/>
<path d="M51.7459 33.2307C54.1141 35.6475 54.0655 39.6066 51.6487 41.9747C49.2198 44.3551 45.2486 44.3186 42.9047 41.9019C40.5122 39.4365 40.5487 35.4653 43.0019 33.1093C45.4308 30.7532 49.3656 30.8018 51.7459 33.2307Z" fill="#067AFF"/>
<path d="M59.3055 31.2607C57.7267 32.8395 55.1642 32.8517 53.5976 31.2607C52.0188 29.682 52.0309 27.1195 53.6097 25.5407C55.1763 23.9983 57.6902 23.9862 59.2812 25.5528C60.8721 27.1195 60.8842 29.682 59.3055 31.2607Z" fill="#54A3FF"/>
<path d="M63.3156 59.2764C61.7368 57.6976 61.749 55.1351 63.3399 53.5685C64.943 51.9897 67.469 52.014 69.06 53.6049C70.6023 55.1715 70.6023 57.6976 69.0478 59.2764C67.4448 60.8551 64.8944 60.8551 63.3156 59.2764Z" fill="#54A3FF"/>
<path d="M31.2833 59.2764C29.7045 60.8552 27.142 60.843 25.5754 59.2521C24.0088 57.6612 24.033 55.1108 25.624 53.5442C27.1906 52.0018 29.7288 52.014 31.2954 53.5806C32.8621 55.1472 32.8621 57.6976 31.2833 59.2764Z" fill="#54A3FF"/>
<path d="M35.3144 31.2725C33.7356 29.6937 33.7356 27.1433 35.3144 25.5646C36.9053 23.9979 39.4556 23.9979 41.0223 25.5888C42.5768 27.1676 42.5768 29.6694 41.0101 31.2603C39.4556 32.8391 36.8931 32.8512 35.3144 31.2725Z" fill="#54A3FF"/>
<path d="M31.2954 35.2915C32.8741 36.8702 32.862 39.4327 31.2711 40.9994C29.6923 42.5539 27.1662 42.5539 25.6117 40.9994C24.033 39.4206 24.0087 36.8702 25.5996 35.2793C27.1662 33.7127 29.7166 33.7127 31.2954 35.2915Z" fill="#54A3FF"/>
<path d="M63.3019 35.3038C64.8807 33.7007 67.4189 33.6886 69.0098 35.2795C70.6007 36.8461 70.6007 39.4208 69.0219 40.9995C67.4431 42.5783 64.8807 42.5662 63.314 40.9752C61.7474 39.4086 61.7474 36.8826 63.3019 35.3038Z" fill="#54A3FF"/>
<path d="M59.3177 63.3157C60.8965 64.8945 60.8722 67.4692 59.2691 69.0237C57.6539 70.5903 55.1278 70.566 53.5491 68.9629C52.0067 67.3963 52.031 64.8459 53.5855 63.2915C55.1886 61.7127 57.7268 61.7248 59.3177 63.3157Z" fill="#54A3FF"/>
<path d="M35.3402 63.2672C36.9068 61.7249 39.4329 61.7249 41.0116 63.2794C42.6026 64.846 42.6026 67.4207 41.0238 68.9994C39.445 70.5782 36.8825 70.5661 35.3037 68.9873C33.725 67.3842 33.7492 64.8582 35.3402 63.2672Z" fill="#54A3FF"/>
<path d="M72.5148 44.3813C74.1421 42.8268 76.6925 42.8754 78.2227 44.5028C79.7529 46.1301 79.7165 48.6197 78.1255 50.1621C76.5103 51.7287 73.9721 51.6923 72.4176 50.0892C70.851 48.474 70.8996 45.9237 72.5148 44.3813Z" fill="#C6E0FF"/>
<path d="M50.1704 78.1156C48.6038 79.7065 46.0535 79.7308 44.4625 78.1399C42.8716 76.5733 42.8716 74.0229 44.4625 72.432C46.0292 70.8654 48.5309 70.8411 50.1219 72.4077C51.7371 73.9743 51.7492 76.5125 50.1704 78.1156Z" fill="#C6E0FF"/>
<path d="M50.1705 22.1118C48.5917 23.7149 46.0535 23.727 44.4626 22.1361C42.8717 20.5452 42.8595 18.007 44.4626 16.4282C46.0293 14.8615 48.531 14.8615 50.122 16.4039C51.725 17.9584 51.7493 20.5087 50.1705 22.1118Z" fill="#C6E0FF"/>
<path d="M22.1547 50.1237C20.576 51.7268 18.0378 51.7146 16.4468 50.1237C14.868 48.5449 14.8802 45.9824 16.4711 44.4158C18.0499 42.8613 20.5395 42.8491 22.1304 44.4158C23.7335 45.9946 23.7457 48.5328 22.1547 50.1237Z" fill="#C6E0FF"/>
<path d="M71.1634 33.109C70.0218 31.9431 70.0339 30.0364 71.1876 28.8827C72.3414 27.7289 74.2602 27.7289 75.4139 28.8827C76.5798 30.0485 76.5676 32.0038 75.3896 33.1575C74.2238 34.2991 72.3171 34.287 71.1634 33.109Z" fill="#C6E0FF"/>
<path d="M65.6992 71.1523C66.8529 72.306 66.8529 74.2249 65.7113 75.3907C64.5455 76.5566 62.5781 76.5566 61.4365 75.3665C60.2949 74.2006 60.3192 72.2818 61.4851 71.1402C62.6388 69.9865 64.5455 69.9986 65.6992 71.1523Z" fill="#C6E0FF"/>
<path d="M65.6991 23.4186C64.5454 24.5723 62.6265 24.5723 61.4728 23.4186C60.3191 22.2649 60.3069 20.3582 61.4485 19.1923C62.6022 18.0143 64.5696 18.0143 65.7234 19.1923C66.8649 20.3582 66.8528 22.2649 65.6991 23.4186Z" fill="#C6E0FF"/>
<path d="M71.2259 61.4058C72.3918 60.2643 74.3228 60.3007 75.4644 61.4666C76.606 62.6324 76.5817 64.5513 75.4279 65.705C74.2499 66.8587 72.3068 66.8344 71.1531 65.6321C69.9994 64.4541 70.0358 62.5474 71.2259 61.4058Z" fill="#C6E0FF"/>
</svg>
