<svg width="50" height="50" viewBox="0 0 50 50" fill="none" xmlns="http://www.w3.org/2000/svg">
<mask id="mask0_2649_31432" style="mask-type:alpha" maskUnits="userSpaceOnUse" x="0" y="0" width="50" height="50">
<rect width="50" height="50" rx="10" fill="#F8F9FA"/>
</mask>
<g mask="url(#mask0_2649_31432)">
<path d="M25.3872 40.5C24.9989 40.2282 24.4853 38.1698 24.563 37.6909C24.7442 36.4612 24.3817 35.3997 23.6569 34.403C23.1779 33.7558 22.8025 33.0439 22.4013 32.3319C22.2977 32.1507 22.2459 31.9048 22.2459 31.6976C22.233 30.1443 22.2459 28.6039 22.233 27.0506C22.233 26.8047 22.1553 26.5328 22.0259 26.3387C21.1327 24.9795 20.2007 23.6333 19.3205 22.2612C19.1781 22.0412 19.1911 21.6917 19.2169 21.4069C19.2299 21.1868 19.3593 20.9797 19.4499 20.7726C19.6053 20.449 19.7088 20.1772 19.3205 19.9183C19.204 19.8406 19.1522 19.5688 19.1522 19.3876C19.1393 12.4235 19.1394 -0.505609 19.1524 -7.46968C19.1524 -7.62501 19.2041 -7.79329 19.2688 -7.92273C20.2656 -9.91616 21.2493 -11.9096 22.2719 -13.8771C22.4143 -14.149 22.712 -14.3431 23.0357 -14.6667C23.0357 -14.9515 23.0227 -15.4175 23.0357 -15.8965C23.0486 -16.466 23.3334 -16.7637 23.9029 -16.7637C24.8738 -16.7767 25.8446 -16.7767 26.8154 -16.7637C27.385 -16.7637 27.6827 -16.466 27.6827 -15.8965C27.6956 -15.4305 27.6827 -14.9645 27.6827 -14.4985C27.7215 -14.5244 27.7733 -14.5502 27.8121 -14.5891C28.0451 -14.3172 28.3299 -14.0713 28.4982 -13.7477C29.4949 -11.8319 30.4528 -9.89027 31.4236 -7.96156C31.5142 -7.78034 31.566 -7.56029 31.566 -7.36612C31.5789 -0.466777 31.5788 12.3976 31.5659 19.2969C31.5659 19.5299 31.4882 19.8665 31.3329 19.983C31.0351 20.2031 31.1128 20.3972 31.2164 20.6432C31.8248 22.1577 31.6953 21.8082 30.9445 22.9473C30.2067 24.0734 29.443 25.1737 28.7181 26.2998C28.5757 26.5328 28.4851 26.8306 28.4851 27.1024C28.4592 28.6298 28.4851 30.1702 28.4722 31.6976C28.4722 31.9306 28.3945 32.1766 28.2909 32.3708C27.6696 33.4322 27.0224 34.4677 26.4011 35.5292C26.2587 35.7751 26.181 36.0858 26.1551 36.3835C26.1163 36.8107 26.1163 37.2508 26.1551 37.6909C26.194 38.1698 25.7885 40.2282 25.3872 40.5C25.1542 40.5 25.5814 40.5 25.3872 40.5ZM26.88 18.6368C26.88 18.4426 26.88 18.2743 26.88 18.0931C26.88 16.5269 26.88 14.9606 26.88 13.3943C26.88 12.8118 27.1648 12.4753 27.6308 12.4623C28.1097 12.4494 28.4333 12.8118 28.4333 13.4073C28.4333 14.8441 28.4333 16.2809 28.4333 17.7177C28.4333 18.0155 28.4333 18.3261 28.4333 18.6238C28.977 18.6238 29.4689 18.6238 29.9478 18.6238C29.9478 13.705 29.9479 2.84698 29.9479 -2.0201C26.8413 -2.0201 23.7735 -2.0201 20.6927 -2.0201C20.6927 2.88581 20.6926 13.7438 20.6926 18.6238C21.2104 18.6238 21.7023 18.6238 22.22 18.6238C22.22 16.8634 22.22 15.1289 22.22 13.4073C22.22 12.8118 22.5307 12.4494 23.0096 12.4623C23.4756 12.4753 23.7604 12.8248 23.7604 13.3943C23.7604 14.6111 23.7604 15.8149 23.7604 17.0317C23.7604 17.5624 23.7604 18.0931 23.7604 18.6368C24.0452 18.6368 24.2652 18.6368 24.5371 18.6368C24.5371 18.4297 24.5371 18.2614 24.5371 18.0802C24.5371 15.2842 24.5371 12.4882 24.5371 9.70518C24.5371 9.56279 24.5241 9.40746 24.55 9.26507C24.6277 8.85085 24.8866 8.59196 25.3137 8.59196C25.7409 8.59196 25.9998 8.8379 26.0775 9.26507C26.1033 9.4204 26.0904 9.58867 26.0904 9.74401C26.0904 12.54 26.0904 15.336 26.0904 18.119C26.0904 18.2873 26.0904 18.4556 26.0904 18.6368C26.3881 18.6368 26.6082 18.6368 26.88 18.6368ZM29.4302 -8.27223C29.4302 -8.32401 29.4431 -8.36284 29.4302 -8.38873C28.7182 -9.81261 28.0192 -11.2494 27.2814 -12.6733C27.2167 -12.8028 26.9837 -12.8934 26.8284 -12.8934C25.8446 -12.9193 24.8608 -12.8934 23.8641 -12.9063C23.5793 -12.9063 23.4369 -12.8286 23.3075 -12.5698C22.6603 -11.2494 22.0001 -9.94205 21.3399 -8.62173C21.2882 -8.51817 21.2493 -8.40167 21.1976 -8.27223C23.9677 -8.27223 26.6989 -8.27223 29.4302 -8.27223ZM29.9738 -6.65418C26.8413 -6.65418 23.7735 -6.65418 20.6927 -6.65418C20.6927 -5.61863 20.6927 -4.62192 20.6927 -3.6252C23.7994 -3.6252 26.8672 -3.6252 29.9738 -3.6252C29.9738 -4.6478 29.9738 -5.64452 29.9738 -6.65418ZM21.3528 22.5589C22.0388 23.5815 22.6601 24.5394 23.3203 25.4844C23.385 25.5879 23.5921 25.6397 23.7345 25.6397C24.796 25.6526 25.8703 25.6526 26.9318 25.6397C27.1001 25.6397 27.3201 25.4973 27.4237 25.3679C27.9932 24.5653 28.5239 23.7369 29.0805 22.9214C29.1453 22.8178 29.197 22.7143 29.2618 22.5719C26.6211 22.5589 24.0322 22.5589 21.3528 22.5589ZM23.7734 27.206C23.7734 28.6687 23.7734 30.0796 23.7734 31.5035C23.7734 31.5553 23.7734 31.607 23.7992 31.6459C24.2911 32.4873 24.796 33.3157 25.3267 34.2089C25.8056 33.4192 26.2457 32.7203 26.647 32.0083C26.7765 31.7624 26.8671 31.4776 26.88 31.2058C26.9059 30.0278 26.8929 28.8499 26.8929 27.672C26.8929 27.5166 26.8929 27.3613 26.8929 27.206C25.8186 27.206 24.8348 27.206 23.7734 27.206ZM29.3653 20.216C26.8412 20.216 24.3688 20.216 21.8964 20.216C21.1845 20.216 21.1845 20.216 21.0809 20.9538C23.9157 20.9538 26.7506 20.9538 29.6372 20.9538C29.5336 20.682 29.4559 20.4619 29.3653 20.216ZM26.0905 -15.1975C25.5598 -15.1975 25.0809 -15.1975 24.589 -15.1975C24.589 -14.9386 24.589 -14.7185 24.589 -14.4726C25.1068 -14.4726 25.5986 -14.4726 26.0905 -14.4726C26.0905 -14.7315 26.0905 -14.9515 26.0905 -15.1975Z" fill="#191818"/>
<path d="M24.5526 29.8758C24.5526 29.5005 24.5397 29.138 24.5526 28.7626C24.5785 28.2966 24.8892 27.986 25.3034 27.973C25.7435 27.9601 26.0801 28.2837 26.093 28.7756C26.106 29.5393 26.106 30.2901 26.093 31.0538C26.0801 31.5198 25.7565 31.8304 25.3422 31.8434C24.9021 31.8563 24.5785 31.5327 24.5526 31.0408C24.5397 30.6525 24.5526 30.2642 24.5526 29.8758Z" fill="#191818"/>
</g>
</svg>
