<svg width="86" height="43" viewBox="0 0 86 43" fill="none" xmlns="http://www.w3.org/2000/svg">
<path d="M6.0113 37.585C5.62605 37.6695 5.2305 37.6149 4.85895 37.3935C4.11585 36.9507 3.86196 35.9768 4.30471 35.2337C4.33479 35.1867 4.99891 34.0721 6.43695 32.3436C6.99713 31.6757 7.9856 31.5802 8.6535 32.1403C9.3214 32.7005 9.41697 33.689 8.85679 34.3569C7.59685 35.8848 7.02297 36.8585 7.00371 36.8627C6.8016 37.2301 6.41582 37.4963 6.0113 37.585Z" fill="#54A3FF"/>
<path d="M12.7631 29.9629C12.2238 30.0811 11.6403 29.9062 11.2416 29.4687C10.6574 28.8296 10.7201 27.8267 11.3592 27.2424C13.064 25.7179 14.9206 24.2409 16.8838 22.8819C17.6017 22.3812 18.5915 22.568 19.0687 23.271C19.5693 23.9889 19.3825 24.9788 18.6795 25.4559C16.8235 26.7511 15.0656 28.1257 13.4444 29.5713C13.2663 29.7718 13.0135 29.908 12.7631 29.9629ZM23.968 22.1363C23.2938 22.2841 22.5803 21.9762 22.2398 21.3443C21.8313 20.5859 22.1036 19.6177 22.8812 19.205C24.9035 18.1156 27.024 17.1057 29.2083 16.2028C30.0028 15.8671 30.9343 16.2484 31.2742 17.0622C31.6099 17.8567 31.2286 18.7882 30.4149 19.1281C28.3226 19.9905 26.2943 20.9601 24.3791 21.9856C24.2527 22.0537 24.1221 22.1025 23.968 22.1363ZM36.605 16.8828C35.8153 17.0559 35.0059 16.5873 34.7557 15.8144C34.4929 14.9837 34.9638 14.0931 35.7987 13.8495C37.672 13.2774 39.6157 12.7503 41.5762 12.3003C41.9037 12.2285 42.2119 12.161 42.5351 12.0699L42.5544 12.0657C43.402 11.8799 44.224 12.4063 44.429 13.2496C44.6341 14.0929 44.0927 14.9384 43.2493 15.1435C42.9219 15.2153 42.6137 15.2829 42.2904 15.3739C40.4069 15.807 38.536 16.2979 36.7399 16.8532C36.7013 16.8616 36.6435 16.8743 36.605 16.8828ZM49.8997 13.524C49.0714 13.7056 48.2344 13.2027 48.0335 12.3786C47.8285 11.5353 48.3272 10.679 49.1705 10.4739C51.4266 9.89857 53.64 9.3124 55.7528 8.72808C56.5919 8.50375 57.4633 8.97894 57.6918 9.83732C57.9161 10.6764 57.4409 11.5478 56.5826 11.7763C54.4505 12.3649 52.1986 12.9595 49.9232 13.5391C49.919 13.5198 49.8997 13.524 49.8997 13.524ZM63.0926 9.88483C62.3028 10.058 61.4935 9.58936 61.239 8.79722C60.9762 7.96655 61.4472 7.07595 62.2821 6.83235C64.5514 6.13297 66.7394 5.43122 68.7456 4.72895C69.572 4.44683 70.4735 4.87506 70.7556 5.7015C71.0377 6.52795 70.6095 7.42937 69.783 7.71149C67.7383 8.42221 65.531 9.12818 63.2039 9.84022C63.1889 9.86371 63.1503 9.87216 63.0926 9.88483Z" fill="#067AFF"/>
<path d="M79.0854 7.36051C78.9313 7.39429 78.7923 7.40459 78.6297 7.39984C77.7658 7.32679 77.1177 6.58058 77.1673 5.70161C77.1852 5.41504 77.2073 5.14773 77.2145 4.90391C76.9382 5.02504 76.6234 5.15462 76.2893 5.28842C75.4755 5.62833 74.5633 5.24285 74.2234 4.42907C73.8835 3.6153 74.269 2.70306 75.0827 2.36315C77.0829 1.54108 78.0062 1.05603 78.0254 1.05181L80.0562 0.000958414L80.3106 2.26685C80.3233 2.32464 80.4648 3.70681 80.3045 5.92232C80.2597 6.63875 79.7596 7.2127 79.0854 7.36051Z" fill="#54A3FF"/>
<path d="M74.8073 20.7129C74.4413 20.7931 74.0265 20.7427 73.6784 20.5364C72.9353 20.0937 72.6622 19.1239 73.1049 18.3808C74.2527 16.4334 75.174 14.374 75.8431 12.2691C76.1064 11.4442 76.9954 10.9868 77.8203 11.2502C78.6452 11.5135 79.1025 12.4024 78.8392 13.2273C78.0968 15.5503 77.0828 17.8318 75.8147 19.9671C75.5976 20.3579 75.2311 20.62 74.8073 20.7129Z" fill="#54A3FF"/>
<path d="M68.3059 28.7734C67.7858 28.8874 67.2066 28.7318 66.8121 28.3135C66.2086 27.6787 66.2521 26.6799 66.8869 26.0764C67.674 25.3386 68.4334 24.5664 69.1308 23.7877C69.7145 23.1348 70.7114 23.0778 71.3643 23.6614C72.0171 24.2451 72.0742 25.242 71.4905 25.8949C70.7287 26.7483 69.9007 27.5759 69.0492 28.3884C68.8284 28.5781 68.5756 28.7143 68.3059 28.7734Z" fill="#C6E0FF"/>
</svg>
