<svg width="26" height="32" viewBox="0 0 26 32" fill="none" xmlns="http://www.w3.org/2000/svg">
<path d="M25.8223 12.1298C25.6871 11.8666 25.4803 11.6452 25.2249 11.4903C24.9694 11.3353 24.6752 11.2529 24.3748 11.252H16.2432V1.67595C16.2607 1.32592 16.1602 0.979983 15.9574 0.691535C15.7546 0.403088 15.4607 0.188167 15.121 0.0799469C14.7945 -0.02548 14.4423 -0.0266648 14.1151 0.0765626C13.7878 0.17979 13.5023 0.38212 13.2995 0.654508L0.288924 18.2105C0.125911 18.4417 0.0280268 18.7111 0.00517991 18.9914C-0.0176669 19.2716 0.0353342 19.5528 0.158818 19.8065C0.272534 20.0966 0.470078 20.3478 0.727203 20.5292C0.984328 20.7107 1.28984 20.8145 1.60625 20.828H9.73789V30.404C9.73814 30.7406 9.8468 31.0684 10.0483 31.3407C10.2499 31.613 10.534 31.8159 10.8601 31.9202C11.0235 31.9699 11.1932 31.9968 11.3642 32C11.6208 32.0007 11.874 31.9417 12.1029 31.828C12.3319 31.7142 12.5301 31.549 12.6815 31.3456L25.6922 13.7896C25.8674 13.5515 25.9723 13.2705 25.9952 12.9777C26.0182 12.6848 25.9583 12.3914 25.8223 12.1298ZM12.9905 25.4883V19.232C12.9905 18.8087 12.8192 18.4027 12.5142 18.1034C12.2092 17.8041 11.7955 17.636 11.3642 17.636H4.8589L12.9905 6.59164V12.848C12.9905 13.2713 13.1619 13.6772 13.4669 13.9765C13.7719 14.2758 14.1855 14.444 14.6169 14.444H21.1222L12.9905 25.4883Z" fill="#FF7223"/>
</svg>
