<svg width="12" height="12" viewBox="0 0 12 12" fill="none" xmlns="http://www.w3.org/2000/svg">
<path d="M4.7168 4.61523C5.09961 4.67773 5.95312 4.76367 7.27734 4.87305C8.26953 4.94727 9.0918 5.04688 9.74414 5.17188C10.4004 5.29688 10.8906 5.51953 11.2148 5.83984C11.5391 6.16016 11.7012 6.67188 11.7012 7.375C11.7012 7.82812 11.6016 8.21484 11.4023 8.53516C11.207 8.85156 10.9609 9.11523 10.6641 9.32617C10.3711 9.5332 10.0723 9.69531 9.76758 9.8125C8.9082 10.1094 7.98633 10.2617 7.00195 10.2695V11.6934H5.57812V10.2754C4.89062 10.2754 4.16406 10.1836 3.39844 10C2.63672 9.81641 1.98242 9.43164 1.43555 8.8457C1.26367 8.6582 1.12695 8.45703 1.02539 8.24219C0.927734 8.02734 0.878906 7.74805 0.878906 7.4043H4.55273C4.55273 7.68164 4.71289 7.86523 5.0332 7.95508C5.35742 8.04102 5.77344 8.08398 6.28125 8.08398C6.83203 8.08398 7.29492 8.05469 7.66992 7.99609C8.04883 7.93359 8.23828 7.79688 8.23828 7.58594C8.23828 7.46094 8.15234 7.375 7.98047 7.32812C7.71484 7.26172 6.80273 7.16797 5.24414 7.04688C3.93555 6.98047 2.93945 6.83594 2.25586 6.61328C1.4043 6.24219 0.978516 5.60547 0.978516 4.70312C0.978516 4.03516 1.20508 3.49805 1.6582 3.0918C2.49414 2.33398 3.80078 1.94531 5.57812 1.92578V0.501953H7.00195V1.94336C7.83398 1.99414 8.59766 2.14062 9.29297 2.38281C9.96484 2.64453 10.4707 2.98047 10.8105 3.39062C11.1543 3.79688 11.3379 4.1582 11.3613 4.47461H7.76953C7.76953 4.3418 7.59766 4.24805 7.25391 4.19336C6.91016 4.13867 6.52344 4.11133 6.09375 4.11133C5.60156 4.11133 5.18945 4.12305 4.85742 4.14648C4.5293 4.16992 4.36523 4.24609 4.36523 4.375C4.36523 4.48438 4.48242 4.56445 4.7168 4.61523Z" fill="#191818"/>
</svg>
