<svg width="14" height="10" viewBox="0 0 14 10" fill="none" xmlns="http://www.w3.org/2000/svg">
<path d="M5.60742 9.25195C5.0957 9.22852 4.60547 9.18359 4.13672 9.11719C3.66797 9.05078 3.23438 8.95312 2.83594 8.82422C2.44141 8.69531 2.0957 8.52734 1.79883 8.32031C1.50586 8.10938 1.2793 7.85156 1.11914 7.54688C0.958984 7.24219 0.878906 6.87891 0.878906 6.45703V6.44531C0.894531 5.82422 1.12695 5.36328 1.57617 5.0625C1.86523 4.86719 2.19336 4.73438 2.56055 4.66406L2.625 4.64648C2.37109 4.54102 2.12305 4.38477 1.88086 4.17773C1.5293 3.86914 1.33984 3.48242 1.3125 3.01758V2.95898C1.3125 2.58789 1.41016 2.26562 1.60547 1.99219C1.80078 1.71875 2.08398 1.49414 2.45508 1.31836C2.82617 1.13867 3.25781 1 3.75 0.902344C4.24609 0.800781 4.7832 0.730469 5.36133 0.691406C5.93945 0.652344 6.53516 0.632812 7.14844 0.632812C7.76562 0.632812 8.36328 0.652344 8.94141 0.691406C10.1914 0.773438 11.1602 0.980469 11.8477 1.3125C12.6055 1.68359 12.9844 2.23047 12.9844 2.95312V3.01758C12.9609 3.48242 12.7734 3.86914 12.4219 4.17773C12.1758 4.38867 11.9258 4.54492 11.6719 4.64648L11.7422 4.66406C12.1055 4.73438 12.4336 4.86719 12.7266 5.0625C13.1758 5.36328 13.4082 5.82422 13.4238 6.44531V6.45703C13.4238 7.61328 12.7695 8.40234 11.4609 8.82422C10.7305 9.05859 9.80859 9.19922 8.69531 9.24609C8.18359 9.26953 7.66797 9.28125 7.14844 9.28125C6.63281 9.28125 6.11914 9.27148 5.60742 9.25195ZM5.00977 6.06445C4.9082 6.1543 4.85742 6.2793 4.85742 6.43945C4.85742 6.5957 4.90625 6.7207 5.00391 6.81445C5.10547 6.9043 5.25391 6.97266 5.44922 7.01953C5.64453 7.06641 5.88477 7.09766 6.16992 7.11328C6.45508 7.125 6.7832 7.13086 7.1543 7.13086C7.52148 7.13086 7.84766 7.125 8.13281 7.11328C8.41797 7.09766 8.6582 7.06641 8.85352 7.01953C9.04883 6.97266 9.19531 6.9043 9.29297 6.81445C9.39453 6.7207 9.44531 6.5957 9.44531 6.43945C9.44531 6.2793 9.39453 6.1543 9.29297 6.06445C9.19531 5.97461 9.04883 5.9082 8.85352 5.86523C8.6582 5.82227 8.41797 5.79492 8.13281 5.7832C7.84766 5.77148 7.52148 5.76562 7.1543 5.76562C6.7832 5.76562 6.45508 5.77148 6.16992 5.7832C5.88477 5.79492 5.64453 5.82227 5.44922 5.86523C5.25391 5.9082 5.10742 5.97461 5.00977 6.06445ZM5.16211 3.42188C5.16211 3.55859 5.19922 3.66602 5.27344 3.74414C5.34766 3.81836 5.46289 3.87305 5.61914 3.9082C5.7793 3.94336 5.98438 3.96484 6.23438 3.97266C6.48828 3.98047 6.79492 3.98438 7.1543 3.98438C7.50977 3.98438 7.8125 3.98047 8.0625 3.97266C8.31641 3.96484 8.52148 3.94336 8.67773 3.9082C8.83789 3.87305 8.95312 3.81836 9.02344 3.74414C9.09766 3.66602 9.13477 3.55859 9.13477 3.42188C9.13477 3.24219 9.06836 3.10742 8.93555 3.01758C8.80664 2.92383 8.5957 2.86133 8.30273 2.83008C8.01367 2.79883 7.63086 2.7832 7.1543 2.7832C6.67773 2.7832 6.29297 2.79883 6 2.83008C5.70703 2.86133 5.49414 2.92383 5.36133 3.01758C5.22852 3.10742 5.16211 3.24219 5.16211 3.42188Z" fill="#191818"/>
</svg>
