<svg width="20" height="19" viewBox="0 0 20 19" fill="none" xmlns="http://www.w3.org/2000/svg">
<path d="M7.42692 6.37382L9.68166 1.58918C9.84079 1.25152 10.3311 1.25152 10.4902 1.58918L12.745 6.37382C12.8098 6.51144 12.9431 6.60619 13.0968 6.62404L18.4426 7.24443C18.8199 7.28821 18.9714 7.74462 18.6925 7.99709L14.7402 11.5746C14.6265 11.6774 14.5756 11.8308 14.6058 11.9794L15.6549 17.1475C15.729 17.5122 15.3323 17.7943 15.0008 17.6126L10.3034 15.039C10.1683 14.965 10.0036 14.965 9.86848 15.039L5.17109 17.6126C4.83958 17.7943 4.44292 17.5122 4.51696 17.1475L5.56609 11.9794C5.59627 11.8308 5.54537 11.6774 5.4317 11.5746L1.47941 7.99709C1.20049 7.74462 1.352 7.28821 1.72927 7.24443L7.07506 6.62404C7.22882 6.60619 7.36206 6.51144 7.42692 6.37382Z" stroke="#5E6165" stroke-linecap="round" stroke-linejoin="round"/>
</svg>
