<svg width="14" height="14" viewBox="0 0 14 14" fill="none" xmlns="http://www.w3.org/2000/svg">
<g clip-path="url(#clip0_3149_18353)">
<path d="M13.9985 6.63672C13.9985 3.04687 11.0884 0.136719 7.49854 0.136719C3.90868 0.136719 0.998535 3.04687 0.998535 6.63672C0.998535 9.88101 3.37548 12.5701 6.48291 13.0578V8.51562H4.83252V6.63672H6.48291V5.20469C6.48291 3.57563 7.45334 2.67578 8.93806 2.67578C9.64899 2.67578 10.3931 2.80273 10.3931 2.80273V4.40234H9.57346C8.76604 4.40234 8.51416 4.90343 8.51416 5.41797V6.63672H10.3169L10.0287 8.51562H8.51416V13.0578C11.6216 12.5701 13.9985 9.88101 13.9985 6.63672Z" fill="#3C4043"/>
</g>
<defs>
<clipPath id="clip0_3149_18353">
<rect width="13" height="13" fill="white" transform="translate(0.998535 0.136719)"/>
</clipPath>
</defs>
</svg>
