<svg width="20" height="20" viewBox="0 0 20 20" fill="none" xmlns="http://www.w3.org/2000/svg">
<path d="M10 16.6673L9.75671 17.1041C9.90797 17.1884 10.092 17.1884 10.2433 17.1041L10 16.6673ZM10 5.96916L9.53983 6.16471C9.61827 6.3493 9.79943 6.46916 10 6.46916C10.2006 6.46916 10.3817 6.3493 10.4602 6.16471L10 5.96916ZM2 7.4776C2 10.2168 4.03015 12.6437 5.91735 14.3255C6.87687 15.1805 7.83407 15.8733 8.55029 16.352C8.90889 16.5917 9.20831 16.7785 9.41901 16.9059C9.52439 16.9696 9.60767 17.0185 9.66516 17.0518C9.69391 17.0685 9.71622 17.0812 9.73163 17.09C9.73933 17.0944 9.74532 17.0977 9.74951 17.1001C9.75161 17.1013 9.75327 17.1022 9.75447 17.1029C9.75507 17.1032 9.75556 17.1035 9.75593 17.1037C9.75612 17.1038 9.75632 17.1039 9.75641 17.104C9.75658 17.1041 9.75671 17.1041 10 16.6673C10.2433 16.2305 10.2434 16.2305 10.2434 16.2306C10.2434 16.2306 10.2434 16.2306 10.2434 16.2305C10.2433 16.2305 10.2431 16.2304 10.2428 16.2302C10.2422 16.2299 10.2411 16.2293 10.2396 16.2284C10.2366 16.2267 10.2318 16.224 10.2253 16.2204C10.2124 16.213 10.1926 16.2017 10.1664 16.1865C10.114 16.1562 10.0362 16.1105 9.93646 16.0502C9.737 15.9296 9.45048 15.7509 9.10596 15.5206C8.41593 15.0594 7.49813 14.3947 6.58265 13.5789C4.71984 11.9189 3 9.75102 3 7.4776H2ZM10.4602 5.7736C9.53623 3.59945 7.44007 2.60556 5.55351 2.87809C4.60798 3.01468 3.71231 3.47033 3.05448 4.25431C2.39527 5.03992 2 6.12474 2 7.4776H3C3 6.32416 3.33389 5.47704 3.82052 4.8971C4.30852 4.31552 4.97535 3.97199 5.69649 3.86782C7.14326 3.65881 8.7971 4.417 9.53983 6.16471L10.4602 5.7736ZM17 7.4776C17 9.75102 15.2802 11.9189 13.4174 13.5789C12.5019 14.3947 11.5841 15.0594 10.894 15.5206C10.5495 15.7509 10.263 15.9296 10.0635 16.0502C9.96385 16.1105 9.88599 16.1562 9.83362 16.1865C9.80744 16.2017 9.78763 16.213 9.77466 16.2204C9.76817 16.224 9.7634 16.2267 9.76039 16.2284C9.75888 16.2293 9.75782 16.2299 9.7572 16.2302C9.7569 16.2304 9.7567 16.2305 9.75662 16.2305C9.75658 16.2306 9.7566 16.2306 9.75658 16.2306C9.75663 16.2305 9.75671 16.2305 10 16.6673C10.2433 17.1041 10.2434 17.1041 10.2436 17.104C10.2437 17.1039 10.2439 17.1038 10.2441 17.1037C10.2444 17.1035 10.2449 17.1032 10.2455 17.1029C10.2467 17.1022 10.2484 17.1013 10.2505 17.1001C10.2547 17.0977 10.2607 17.0944 10.2684 17.09C10.2838 17.0812 10.3061 17.0685 10.3348 17.0518C10.3923 17.0185 10.4756 16.9696 10.581 16.9059C10.7917 16.7785 11.0911 16.5917 11.4497 16.352C12.1659 15.8733 13.1231 15.1805 14.0826 14.3255C15.9698 12.6437 18 10.2168 18 7.4776H17ZM10.4602 6.16471C11.2029 4.417 12.8567 3.65881 14.3035 3.86782C15.0246 3.97199 15.6915 4.31552 16.1795 4.8971C16.6661 5.47704 17 6.32416 17 7.4776H18C18 6.12474 17.6047 5.03992 16.9455 4.25431C16.2877 3.47033 15.392 3.01468 14.4465 2.87809C12.5599 2.60556 10.4638 3.59945 9.53983 5.7736L10.4602 6.16471Z" fill="#191818"/>
</svg>
