<svg width="44" height="46" viewBox="0 0 44 46" fill="none" xmlns="http://www.w3.org/2000/svg">
<circle cx="37.1732" cy="8.91932" r="5.34119" fill="#FF351A"/>
<circle cx="5.34119" cy="8.91932" r="5.34119" fill="#FF351A"/>
<circle cx="21.7572" cy="5.34119" r="5.34119" fill="#FF351A"/>
<path d="M3.53906 33.0312C3.53906 32.0156 3.90365 31.1771 4.63281 30.5156C5.36719 29.849 6.29427 29.5156 7.41406 29.5156C8.48698 29.5156 9.38021 29.8177 10.0938 30.4219C10.8073 31.026 11.1641 31.776 11.1641 32.6719C11.1641 33.3021 10.9896 33.901 10.6406 34.4688C10.2917 35.0312 9.68229 35.7578 8.8125 36.6484L5.99219 39.4844V39.5234H11.3438V41H3.63281V39.8125L7.70312 35.6641C8.39062 34.9453 8.85156 34.3932 9.08594 34.0078C9.32031 33.6172 9.4375 33.2005 9.4375 32.7578C9.4375 32.2578 9.23698 31.8333 8.83594 31.4844C8.4349 31.1354 7.94271 30.9609 7.35938 30.9609C6.74479 30.9609 6.22917 31.1589 5.8125 31.5547C5.40104 31.9453 5.19531 32.4349 5.19531 33.0234V33.0469H3.53906V33.0312ZM16.9375 41.2109C15.8125 41.2109 14.8776 40.901 14.1328 40.2812C13.388 39.6562 12.9896 38.8516 12.9375 37.8672H14.6094C14.6719 38.4245 14.9193 38.8776 15.3516 39.2266C15.7891 39.5755 16.3229 39.75 16.9531 39.75C17.6615 39.75 18.2396 39.526 18.6875 39.0781C19.1354 38.6302 19.3594 38.0521 19.3594 37.3438C19.3594 36.6354 19.1354 36.0547 18.6875 35.6016C18.2448 35.1432 17.6719 34.9141 16.9688 34.9141C16.4792 34.9141 16.0339 35.0208 15.6328 35.2344C15.237 35.4427 14.9297 35.7318 14.7109 36.1016H13.1094L13.7031 29.7266H20.4141V31.2031H15.1094L14.7969 34.6641H14.8359C15.0859 34.3047 15.4297 34.026 15.8672 33.8281C16.3099 33.625 16.8047 33.5234 17.3516 33.5234C18.4349 33.5234 19.3255 33.8802 20.0234 34.5938C20.7214 35.3021 21.0703 36.2031 21.0703 37.2969C21.0703 38.4531 20.6849 39.3958 19.9141 40.125C19.1484 40.849 18.1562 41.2109 16.9375 41.2109Z" fill="#191818"/>
<path d="M26.3672 43.4062H24.8672L28.8672 29.7266H30.3672L26.3672 43.4062ZM36.9453 35.8984V34.5234H38.3047C38.9089 34.5234 39.401 34.3516 39.7812 34.0078C40.1667 33.6641 40.3594 33.2266 40.3594 32.6953C40.3594 32.1589 40.1797 31.7344 39.8203 31.4219C39.4661 31.1094 38.9609 30.9531 38.3047 30.9531C37.6953 30.9531 37.2005 31.1172 36.8203 31.4453C36.4401 31.7682 36.224 32.2083 36.1719 32.7656H34.5234C34.5911 31.776 34.9714 30.987 35.6641 30.3984C36.362 29.8099 37.2682 29.5156 38.3828 29.5156C39.4557 29.5156 40.3385 29.7917 41.0312 30.3438C41.724 30.8906 42.0703 31.5964 42.0703 32.4609C42.0703 33.1589 41.8594 33.7474 41.4375 34.2266C41.0156 34.7005 40.4531 35 39.75 35.125V35.1562C40.6042 35.2135 41.2812 35.487 41.7812 35.9766C42.2865 36.4661 42.5391 37.1042 42.5391 37.8906C42.5391 38.8646 42.1458 39.6615 41.3594 40.2812C40.5729 40.901 39.5859 41.2109 38.3984 41.2109C37.1953 41.2109 36.224 40.9115 35.4844 40.3125C34.75 39.7083 34.3542 38.9141 34.2969 37.9297H35.9766C36.0339 38.4766 36.276 38.9167 36.7031 39.25C37.1354 39.5833 37.7005 39.75 38.3984 39.75C39.0859 39.75 39.651 39.5755 40.0938 39.2266C40.5365 38.8724 40.7578 38.4193 40.7578 37.8672C40.7578 37.2578 40.5417 36.7786 40.1094 36.4297C39.6823 36.0755 39.0964 35.8984 38.3516 35.8984H36.9453Z" fill="#FF3519"/>
</svg>
