<svg width="14" height="10" viewBox="0 0 14 10" fill="none" xmlns="http://www.w3.org/2000/svg">
<path d="M10.3594 4.03125C10.7617 4.09766 11.1445 4.18945 11.5078 4.30664C11.875 4.41992 12.2031 4.56641 12.4922 4.74609C12.7812 4.92188 13.0098 5.13867 13.1777 5.39648C13.3457 5.6543 13.4297 5.95898 13.4297 6.31055C13.4297 6.57227 13.3672 6.83398 13.2422 7.0957C13.1211 7.35742 12.959 7.5918 12.7559 7.79883C12.4043 8.14648 11.9902 8.42188 11.5137 8.625C11.0371 8.82812 10.5352 8.97656 10.0078 9.07031C9.48047 9.16406 8.96484 9.22266 8.46094 9.24609C7.96094 9.26953 7.52148 9.28125 7.14258 9.28125C6.75977 9.28125 6.31836 9.26953 5.81836 9.24609C5.31836 9.22266 4.80469 9.16406 4.27734 9.07031C3.75 8.97656 3.24609 8.82812 2.76562 8.625C2.28906 8.42188 1.87695 8.14648 1.5293 7.79883C1.32617 7.58789 1.16602 7.35156 1.04883 7.08984C0.935547 6.82422 0.878906 6.59766 0.878906 6.41016H4.81641C4.84766 6.70703 5.05859 6.90234 5.44922 6.99609C5.84375 7.08984 6.4082 7.13477 7.14258 7.13086C7.91992 7.13086 8.5 7.07031 8.88281 6.94922C9.26953 6.82812 9.46289 6.61523 9.46289 6.31055C9.46289 6.00977 9.26953 5.79883 8.88281 5.67773C8.5 5.55664 7.91992 5.49609 7.14258 5.49609C6.66211 5.49609 6.20508 5.52734 5.77148 5.58984C5.3418 5.64844 5.06836 5.73828 4.95117 5.85938H1.1543L2.34375 0.908203H12.7324V3.28125H4.66992L4.4707 4.10742C5.2168 3.92383 6.10742 3.83203 7.14258 3.83203C7.39258 3.83203 7.69141 3.83594 8.03906 3.84375C8.39062 3.84766 8.76367 3.86523 9.1582 3.89648C9.55664 3.92383 9.95703 3.96875 10.3594 4.03125Z" fill="#191818"/>
</svg>
