<svg width="39" height="31" viewBox="0 0 39 31" fill="none" xmlns="http://www.w3.org/2000/svg">
<path d="M2.80762 22.1328V23.2094L8.55179 30.134H15L8.36229 22.1328H2.80762Z" fill="#191818"/>
<path d="M11.8619 20.754C13.9792 20.754 15.7026 17.1293 15.7026 12.6597C15.7026 8.19013 13.9834 4.56641 11.8619 4.56641H5.83614V5.20159C8.03387 6.22317 9.54984 8.3775 9.53396 10.8791L9.5149 13.8221C9.49267 17.2235 6.60683 19.9707 3.05721 19.9707H2.81055V20.7509L11.8619 20.754Z" fill="#191818"/>
<path d="M24.462 10.829V20.7526H29.9997V10.8957C29.9998 9.48264 29.7216 8.08345 29.1809 6.77798C28.6402 5.47252 27.8476 4.28636 26.8484 3.28725C25.8492 2.28815 24.663 1.49568 23.3574 0.955107C22.0519 0.414531 20.6527 0.136441 19.2397 0.136719H0V1.42402H15.057C17.5513 1.4243 19.9433 2.41527 21.707 4.17898C23.4707 5.94269 24.4617 8.33471 24.462 10.829Z" fill="#191818"/>
<path d="M24.4615 22.1406V23.7042C24.4615 25.08 23.915 26.3994 22.9422 27.3722C21.9694 28.345 20.65 28.8916 19.2742 28.8916H17.104V30.1397H25.3243C25.9384 30.1398 26.5464 30.019 27.1138 29.784C27.6811 29.5491 28.1966 29.2046 28.6307 28.7704C29.0649 28.3361 29.4092 27.8206 29.644 27.2532C29.8788 26.6858 29.9996 26.0777 29.9993 25.4637V22.1406H24.4615Z" fill="#191818"/>
<path d="M30.8525 3.88662C30.8525 3.84534 30.8525 3.80405 30.8525 3.76276C30.8621 3.76276 30.8589 3.75535 30.86 3.75006V3.6262C30.8651 3.58653 30.8675 3.54657 30.8674 3.50657C30.8666 3.50473 30.8662 3.50275 30.8662 3.50075C30.8662 3.49875 30.8666 3.49677 30.8674 3.49493C30.8747 3.48019 30.8769 3.46343 30.8737 3.44729C30.8745 3.4312 30.877 3.41523 30.8811 3.39965C30.8806 3.37969 30.8828 3.35976 30.8875 3.34037C30.8928 3.32555 30.8875 3.30649 30.8949 3.28955C30.9023 3.27261 30.8949 3.25462 30.9023 3.23768C30.9097 3.22074 30.9023 3.21121 30.9108 3.19745C30.9192 3.18369 30.9108 3.17099 30.9171 3.15616C30.9235 3.14134 30.9171 3.1297 30.9245 3.11699C30.9319 3.10429 30.933 3.07147 30.9383 3.04924C30.9436 3.02701 30.9489 3.00266 30.9542 2.97937C30.9595 2.95608 30.9711 2.91797 30.9764 2.88727C30.9866 2.85725 30.9944 2.82645 30.9997 2.79517C31.024 2.74224 31.0325 2.68295 31.0547 2.63002C31.077 2.57709 31.0801 2.55274 31.095 2.51463C31.1098 2.47652 31.1236 2.43946 31.1405 2.40241C31.1574 2.36536 31.1818 2.30396 31.2061 2.25632C31.2622 2.15046 31.312 2.03824 31.3797 1.93873C31.3964 1.90752 31.4152 1.87746 31.4358 1.84875C31.457 1.82122 31.4729 1.78946 31.4941 1.76088L31.5819 1.63702C31.6243 1.57773 31.6698 1.52057 31.7153 1.46446C31.746 1.42635 31.7799 1.3893 31.8127 1.35224C31.8635 1.29719 31.9186 1.24638 31.9673 1.19133C31.9969 1.16169 32.0287 1.13522 32.0594 1.10664C32.0901 1.07806 32.1144 1.05371 32.1441 1.03148C32.1737 1.00925 32.179 0.997599 32.1981 0.983837C32.2171 0.970074 32.2595 0.934081 32.2912 0.91185C32.3012 0.905864 32.3108 0.89914 32.3198 0.891736L32.3473 0.870563C32.3653 0.855742 32.3844 0.844097 32.4034 0.830334C32.4225 0.816572 32.4648 0.786931 32.4955 0.764699C32.5262 0.742468 32.5411 0.737175 32.5622 0.722354C32.6215 0.683185 32.6829 0.647191 32.7464 0.616491C32.792 0.591083 32.8385 0.565675 32.8862 0.542385C32.9518 0.509567 33.0164 0.475691 33.0831 0.448166C33.1019 0.438038 33.1213 0.429196 33.1413 0.4217C33.172 0.413231 33.1995 0.399469 33.2302 0.388883C33.2609 0.378296 33.2652 0.375121 33.2842 0.369828C33.3033 0.364535 33.3213 0.355006 33.3403 0.348654L33.4134 0.323247C33.4386 0.313891 33.4644 0.306112 33.4907 0.299957L33.5965 0.269256L33.6939 0.24279C33.7203 0.23502 33.7472 0.229357 33.7744 0.225853C33.7892 0.226971 33.8041 0.224426 33.8178 0.218442C33.8326 0.207855 33.8485 0.218443 33.8622 0.207856C33.876 0.19727 33.8898 0.207856 33.9057 0.199387C33.9215 0.190918 33.9342 0.199386 33.9491 0.191976C33.9639 0.184565 33.9787 0.191977 33.9935 0.184566C34.0083 0.177156 34.0253 0.184566 34.0422 0.178215L34.1004 0.170803C34.1216 0.170803 34.1417 0.170804 34.1629 0.164452C34.1841 0.1581 34.2116 0.164452 34.2359 0.155982C34.2603 0.147513 34.3016 0.155983 34.3355 0.149631C34.4 0.143279 34.4667 0.154923 34.5313 0.14222C34.5485 0.140093 34.566 0.140093 34.5832 0.14222C34.5991 0.14222 34.6139 0.148572 34.6298 0.149631C34.6933 0.147517 34.757 0.149638 34.8203 0.155982C34.8487 0.156758 34.877 0.159589 34.905 0.164452C34.9262 0.169745 34.9495 0.164452 34.9717 0.164452C34.9939 0.164452 35.0193 0.164451 35.0405 0.175037C35.0812 0.176153 35.1216 0.181475 35.1612 0.190918C35.1813 0.190918 35.2014 0.190917 35.2194 0.198327C35.2544 0.207855 35.2893 0.21209 35.3253 0.220559C35.3399 0.221998 35.3544 0.224474 35.3687 0.227969C35.4103 0.242199 35.4527 0.253866 35.4957 0.262904C35.5539 0.275608 35.6122 0.293606 35.6683 0.311602C35.7244 0.329599 35.7741 0.345479 35.8207 0.364534L35.988 0.426994C36.0462 0.450284 36.1023 0.477809 36.1584 0.505333C36.2145 0.532858 36.2558 0.551914 36.3035 0.57838C36.3511 0.604846 36.4093 0.635545 36.4559 0.666245C36.5025 0.696946 36.5268 0.710708 36.5618 0.73294C36.6126 0.766816 36.6676 0.798575 36.7132 0.838804C36.7587 0.879032 36.7978 0.90338 36.8391 0.936198C36.855 0.948902 36.8688 0.962664 36.8857 0.974309C36.911 0.991291 36.9347 1.01042 36.9566 1.03148C36.9625 1.03895 36.9693 1.0457 36.9768 1.05159C37.0128 1.07806 37.0456 1.10981 37.0826 1.13946C37.1197 1.1691 37.1144 1.17228 37.1313 1.18815C37.2118 1.27073 37.2954 1.34907 37.3685 1.43905C37.4023 1.4814 37.4394 1.52163 37.4743 1.56715C37.5093 1.61267 37.5241 1.63067 37.5484 1.66348C37.5728 1.6963 37.5929 1.72488 37.6141 1.75558C37.6352 1.78629 37.6755 1.84663 37.704 1.89321C37.721 1.91756 37.7358 1.94296 37.7506 1.96837C37.7624 1.99373 37.7755 2.01846 37.7898 2.04247C37.8102 2.07374 37.8286 2.10627 37.8448 2.13987C37.8748 2.19476 37.9017 2.25132 37.9253 2.30925C37.9401 2.34525 37.9634 2.37701 37.9751 2.41512C37.9956 2.46222 38.013 2.51068 38.0269 2.56015C38.0542 2.62623 38.0779 2.69373 38.0979 2.76235C38.1074 2.79093 38.1137 2.82163 38.1222 2.85128C38.1307 2.88092 38.1444 2.93808 38.1561 2.98149C38.1624 3.00584 38.1656 3.03124 38.173 3.05453C38.1804 3.07782 38.1889 3.13287 38.1984 3.17098C38.2046 3.19786 38.2092 3.22507 38.2122 3.2525C38.2122 3.27155 38.2196 3.29061 38.2207 3.31072C38.2217 3.33084 38.226 3.35201 38.2281 3.37318C38.2281 3.37318 38.2281 3.38483 38.2281 3.38695C38.2281 3.38906 38.2281 3.41659 38.2355 3.43141C38.2429 3.44623 38.2408 3.46317 38.2418 3.48011C38.2396 3.50226 38.2421 3.52465 38.2492 3.54574C38.2492 3.5857 38.2513 3.62564 38.2556 3.66537C38.2556 3.7363 38.2556 3.80617 38.2556 3.8771C38.2584 3.94776 38.256 4.01853 38.2482 4.08882C38.2489 4.11935 38.2464 4.14986 38.2408 4.17987C38.2392 4.19429 38.2392 4.20885 38.2408 4.22327C38.2408 4.23809 38.2355 4.25291 38.2334 4.26773C38.2332 4.29722 38.2303 4.32662 38.2249 4.3556C38.2249 4.3736 38.2249 4.39265 38.2175 4.40959C38.2069 4.4477 38.2048 4.48687 38.1963 4.52498C38.1936 4.53472 38.1915 4.54462 38.19 4.55462C38.1888 4.56572 38.1866 4.5767 38.1836 4.58744C38.1742 4.61108 38.1688 4.63613 38.1677 4.66155C38.1639 4.68845 38.1578 4.715 38.1497 4.74095C38.1434 4.77165 38.1296 4.80129 38.1233 4.83199C38.1134 4.87351 38.1014 4.9145 38.0873 4.95479C38.0799 4.98126 38.0735 5.00772 38.064 5.03207C38.0449 5.08183 38.0269 5.13052 38.0089 5.17922C37.9909 5.22792 37.9751 5.26391 37.9602 5.3052C37.9404 5.35288 37.9181 5.39952 37.8935 5.44494C37.8787 5.47458 37.8671 5.5074 37.8501 5.53598C37.8332 5.56456 37.8036 5.62491 37.7771 5.66831C37.7506 5.71171 37.7379 5.73818 37.7178 5.77417C37.6977 5.81017 37.6564 5.86734 37.6257 5.91392C37.595 5.9605 37.5611 6.00284 37.5294 6.04836C37.5124 6.07271 37.4923 6.09389 37.4764 6.11718C37.4606 6.14047 37.4277 6.17646 37.4055 6.2061C37.3833 6.23574 37.3536 6.2675 37.3282 6.2982C37.3028 6.3289 37.2764 6.35537 37.2499 6.38183C37.187 6.44951 37.1205 6.51382 37.0509 6.5745C37.0265 6.59356 37.0053 6.61685 36.9821 6.63591C36.9344 6.67719 36.8878 6.71742 36.8381 6.75553C36.8139 6.77746 36.7884 6.79796 36.7619 6.81693C36.7068 6.85081 36.656 6.89104 36.6031 6.9228C36.5501 6.95456 36.4972 6.98632 36.4496 7.01702C36.4019 7.04772 36.3543 7.07313 36.3056 7.09959C36.2569 7.12606 36.2272 7.14088 36.1881 7.15887C36.1108 7.19699 36.0325 7.23298 35.952 7.26474C35.8948 7.28697 35.8398 7.31132 35.7837 7.33037C35.7386 7.34827 35.6927 7.36381 35.6461 7.37695C35.5878 7.39177 35.5307 7.41083 35.4724 7.42459C35.4504 7.42824 35.4288 7.43391 35.4079 7.44153C35.3852 7.44899 35.3617 7.45396 35.338 7.45635C35.2946 7.46376 35.2522 7.47541 35.2088 7.4807C35.1927 7.47998 35.1766 7.48213 35.1612 7.48705C35.1464 7.49552 35.1316 7.48705 35.1199 7.4934C35.1061 7.49995 35.0907 7.50251 35.0754 7.50081C35.0702 7.50081 35.0606 7.50081 35.0575 7.50081C35.0543 7.50081 35.0384 7.50611 35.0278 7.50822C35.0172 7.51034 35.0077 7.50822 34.9982 7.51458C34.9733 7.51406 34.9485 7.51619 34.9241 7.52093C34.9018 7.52622 34.8785 7.52093 34.8542 7.52834C34.8341 7.53047 34.8139 7.53047 34.7938 7.52834C34.7727 7.52834 34.7515 7.53469 34.7303 7.53469C34.6615 7.53469 34.5927 7.53469 34.5239 7.53469C34.4532 7.53931 34.3823 7.53682 34.3122 7.52728C34.2635 7.53257 34.2158 7.51669 34.1661 7.51987C34.1661 7.51987 34.1576 7.51987 34.1555 7.51987C34.1497 7.51576 34.1431 7.51304 34.1361 7.51194C34.1291 7.51084 34.122 7.51138 34.1153 7.51352C34.1002 7.51229 34.0853 7.50945 34.0708 7.50505C34.0547 7.50502 34.0387 7.50289 34.0232 7.4987C34.0083 7.4934 33.9893 7.4987 33.9745 7.49023C33.9389 7.4875 33.9035 7.48255 33.8686 7.47541C33.8601 7.47541 33.8517 7.47011 33.8421 7.468C33.833 7.46904 33.8238 7.46904 33.8146 7.468C33.7886 7.45999 33.7621 7.45398 33.7352 7.45C33.7077 7.45 33.6812 7.43835 33.6548 7.43094L33.5351 7.39812C33.4896 7.38436 33.4441 7.37272 33.3986 7.35684C33.335 7.33461 33.2715 7.31449 33.2091 7.28803C33.1466 7.26156 33.1106 7.24992 33.063 7.22874C33.0153 7.20757 32.9666 7.18534 32.919 7.16205C32.8714 7.13876 32.8322 7.11653 32.7877 7.09324C32.7735 7.08761 32.7597 7.08088 32.7464 7.07313C32.7094 7.04666 32.667 7.0276 32.6289 7.00219C32.5908 6.97679 32.5739 6.97149 32.5474 6.95456C32.4998 6.9228 32.4532 6.88998 32.4066 6.8561C32.36 6.82223 32.3442 6.80847 32.3124 6.78518C32.2806 6.76189 32.2277 6.7206 32.1875 6.68672C32.1663 6.67084 32.1494 6.65073 32.1282 6.63591C32.0875 6.60351 32.0493 6.56813 32.0139 6.53004C31.9376 6.45382 31.8572 6.38077 31.7873 6.29714C31.764 6.26856 31.7365 6.24421 31.7143 6.21457C31.6987 6.19892 31.6845 6.18192 31.6719 6.16375C31.6624 6.14576 31.6455 6.13835 31.638 6.11929C31.629 6.10322 31.6176 6.08859 31.6042 6.07589C31.5916 6.0618 31.58 6.04695 31.5692 6.03142C31.5502 6.00496 31.5343 5.97532 31.5131 5.94991C31.4811 5.90941 31.4521 5.8666 31.4263 5.82181C31.3893 5.76902 31.3571 5.71304 31.33 5.65455C31.3044 5.6202 31.2831 5.58288 31.2665 5.54339C31.2188 5.45658 31.1786 5.3666 31.1394 5.27556C31.1267 5.2438 31.1119 5.21204 31.1003 5.18028C31.078 5.12206 31.0558 5.06277 31.0357 5.00349C31.0219 4.96326 31.0113 4.92197 30.9986 4.88174C30.9859 4.84152 30.9743 4.79917 30.9648 4.75788C30.9547 4.72307 30.9465 4.68773 30.9404 4.65202L30.933 4.62555C30.933 4.61708 30.933 4.60861 30.933 4.59909C30.9256 4.57417 30.9203 4.54867 30.9171 4.52286C30.916 4.5008 30.9132 4.47885 30.9086 4.45723C30.8981 4.42335 30.8991 4.38736 30.8885 4.35136C30.8885 4.33337 30.8885 4.3122 30.8822 4.29314C30.8758 4.27409 30.8822 4.25397 30.8748 4.23386C30.8674 4.21374 30.8748 4.18516 30.8674 4.16081C30.861 4.1047 30.861 4.04753 30.86 3.99037C30.86 3.96179 30.86 3.93426 30.86 3.90674C30.86 3.90674 30.8599 3.90039 30.8525 3.89721V3.88662ZM34.7695 6.78094C34.7913 6.78356 34.8133 6.78356 34.8351 6.78094C34.8574 6.77565 34.8807 6.78094 34.905 6.77459C34.9326 6.76915 34.9606 6.76631 34.9886 6.76612C34.9886 6.76612 34.9982 6.76612 34.9992 6.76612C35.0003 6.76612 35.0352 6.76612 35.049 6.75236C35.068 6.75765 35.085 6.74601 35.103 6.74495C35.1311 6.73787 35.1598 6.73291 35.1887 6.73012C35.2279 6.71001 35.2755 6.7153 35.3158 6.69413C35.3732 6.6836 35.4296 6.66765 35.4841 6.64649C35.5487 6.62426 35.6132 6.60097 35.6757 6.5745L35.8483 6.49934C35.8895 6.4824 35.9266 6.45806 35.9658 6.43794C36.0049 6.41783 36.0176 6.41148 36.042 6.39665C36.0875 6.37019 36.1309 6.34055 36.1743 6.31196C36.2177 6.28338 36.2802 6.24209 36.3299 6.2061C36.3797 6.17011 36.3987 6.15423 36.4358 6.1267C36.4762 6.09582 36.5147 6.06259 36.5512 6.02719C36.6179 5.95944 36.6888 5.89592 36.7502 5.82393C36.7809 5.78688 36.8137 5.75406 36.8434 5.71807C36.873 5.68207 36.89 5.66408 36.9122 5.63443C36.9344 5.60479 36.9715 5.55292 37.0001 5.51163C37.0221 5.48129 37.0426 5.44984 37.0615 5.41741L37.1229 5.31155C37.144 5.27344 37.1631 5.23321 37.1864 5.19616C37.2108 5.15191 37.2327 5.10631 37.252 5.05959C37.2576 5.05135 37.2622 5.04246 37.2658 5.03313C37.2785 4.99078 37.3018 4.95055 37.3155 4.90821C37.3293 4.86586 37.342 4.83622 37.3547 4.80235C37.3674 4.76847 37.3737 4.7473 37.3822 4.71977C37.3972 4.67723 37.4092 4.63373 37.4182 4.58956C37.4316 4.55166 37.4398 4.51214 37.4426 4.47205C37.4574 4.46146 37.4426 4.44347 37.4531 4.43288C37.4637 4.4223 37.4531 4.4043 37.4627 4.38948C37.4722 4.37466 37.4627 4.36301 37.4711 4.34925C37.4786 4.31537 37.4786 4.28044 37.486 4.24338C37.486 4.22962 37.486 4.21163 37.486 4.20104C37.4916 4.18805 37.4938 4.17383 37.4923 4.15975C37.4923 4.14599 37.4976 4.13223 37.4987 4.11952C37.4997 4.10013 37.4997 4.08069 37.4987 4.0613C37.5022 4.0431 37.5046 4.02473 37.5061 4.00625C37.5061 3.94908 37.5061 3.89192 37.5061 3.83581C37.5087 3.77856 37.5066 3.7212 37.4997 3.66431C37.4934 3.63467 37.4997 3.60291 37.4923 3.57221C37.4849 3.54151 37.4923 3.53198 37.486 3.50975C37.4806 3.48831 37.4784 3.46619 37.4796 3.44411C37.4796 3.40706 37.468 3.37107 37.4616 3.33825C37.4616 3.32237 37.4616 3.30543 37.4616 3.29061C37.4489 3.25144 37.4436 3.21015 37.433 3.17098C37.4224 3.13181 37.4129 3.08841 37.4013 3.04606C37.3896 3.00372 37.379 2.97619 37.3674 2.9402C37.3483 2.87668 37.3229 2.81528 37.2996 2.75282C37.2764 2.69036 37.2615 2.65966 37.2404 2.6152C37.2018 2.52982 37.1583 2.44675 37.1101 2.36642C37.0879 2.33042 37.0678 2.29231 37.0435 2.26055C37 2.19809 36.9566 2.13458 36.909 2.07318L36.8106 1.94826C36.7821 1.91275 36.7513 1.87915 36.7185 1.84769C36.6392 1.76278 36.5551 1.68254 36.4665 1.60738L36.3511 1.4941C36.3172 1.46764 36.2823 1.44329 36.2452 1.41894C36.2082 1.39459 36.1616 1.36389 36.1203 1.33636C36.079 1.30884 36.0208 1.27708 35.9711 1.24744C35.9213 1.2178 35.8758 1.20086 35.8292 1.17651C35.7826 1.15216 35.7307 1.13416 35.6831 1.11087C35.6693 1.10302 35.6548 1.09663 35.6397 1.09182C35.5847 1.07488 35.5338 1.05159 35.4777 1.03465C35.4534 1.02724 35.429 1.01771 35.4036 1.01136C35.3782 1.00501 35.3338 0.993366 35.2978 0.981721C35.2618 0.970075 35.2353 0.969017 35.2046 0.960548C35.1739 0.952079 35.1675 0.960547 35.1548 0.951019C35.1421 0.941491 35.1146 0.95102 35.1009 0.937258C35.086 0.937258 35.0712 0.929847 35.0575 0.937258C35.0437 0.944668 35.0257 0.927729 35.0098 0.927729C34.9944 0.928305 34.979 0.926155 34.9643 0.921377C34.9516 0.921377 34.9325 0.921377 34.9219 0.921377C34.9085 0.917283 34.8941 0.917283 34.8807 0.921377C34.8674 0.91798 34.854 0.915505 34.8404 0.913968C34.7896 0.913968 34.7409 0.90444 34.6901 0.905498H34.436C34.4091 0.902506 34.3819 0.904298 34.3556 0.910792C34.3377 0.913444 34.3195 0.913444 34.3016 0.910792C34.2844 0.913887 34.2671 0.916008 34.2497 0.917144C34.2207 0.922237 34.1913 0.924716 34.1618 0.924553C34.1513 0.938315 34.1375 0.929847 34.1258 0.931964C34.1137 0.935347 34.1013 0.937823 34.0888 0.939374C34.0666 0.939374 34.0475 0.952079 34.0253 0.945727C33.9946 0.95949 33.9607 0.957371 33.93 0.967958C33.8993 0.978544 33.8739 0.980662 33.8464 0.988072C33.8188 0.995483 33.7945 1.00395 33.7691 1.00924C33.7267 1.01771 33.6897 1.03677 33.6484 1.04418C33.6071 1.05159 33.5986 1.06324 33.5722 1.06959C33.545 1.07689 33.5184 1.08645 33.4928 1.09817C33.425 1.12887 33.3552 1.15216 33.2906 1.18921C33.2715 1.1998 33.2482 1.20192 33.2313 1.21356C33.206 1.23037 33.179 1.24456 33.1508 1.25591L33.1328 1.26543L33.0196 1.33531C32.9877 1.35197 32.9569 1.37072 32.9275 1.39141C32.8961 1.41088 32.8664 1.43282 32.8385 1.45705C32.7891 1.48833 32.7423 1.52375 32.6988 1.56291C32.667 1.58726 32.6353 1.61479 32.6046 1.64125C32.5739 1.66772 32.5368 1.70477 32.4987 1.73653C32.4606 1.76829 32.4193 1.8191 32.3791 1.86039C32.3551 1.88488 32.3325 1.91068 32.3113 1.93767C32.2976 1.95461 32.2806 1.96837 32.269 1.98531C32.2504 2.01325 32.2303 2.04011 32.2087 2.06576C32.1885 2.09011 32.1705 2.11764 32.1515 2.14305C32.1113 2.20021 32.0721 2.25738 32.0361 2.31666C32.0149 2.35371 31.9885 2.38865 31.9705 2.42782C31.9239 2.52522 31.8646 2.62049 31.8297 2.72106C31.8191 2.7507 31.8032 2.77823 31.7947 2.80787C31.781 2.85657 31.7598 2.90315 31.746 2.95079C31.7329 3.00206 31.717 3.0526 31.6984 3.10217C31.6965 3.12965 31.6908 3.15674 31.6815 3.18263C31.6815 3.21015 31.6698 3.23874 31.6635 3.2652C31.6571 3.29167 31.6497 3.34989 31.6402 3.39012C31.6393 3.4076 31.6368 3.42496 31.6328 3.44199C31.6295 3.45912 31.6273 3.47646 31.6264 3.49387C31.6201 3.51716 31.6264 3.54151 31.6179 3.56691C31.6138 3.59817 31.6114 3.62962 31.6105 3.66113C31.6105 3.72783 31.6105 3.79452 31.6105 3.86121C31.6068 3.92691 31.6089 3.9928 31.6169 4.05812C31.6175 4.0861 31.6196 4.11402 31.6232 4.14176C31.6296 4.16081 31.6232 4.17987 31.6296 4.20104C31.6343 4.22154 31.6367 4.24248 31.637 4.2635C31.637 4.29949 31.6486 4.33654 31.6539 4.36936C31.6543 4.38542 31.6565 4.40139 31.6603 4.417C31.6714 4.45176 31.6806 4.4871 31.6878 4.52286C31.7038 4.59687 31.7236 4.67001 31.7471 4.742C31.7603 4.78704 31.7762 4.83123 31.7947 4.87433C31.8064 4.89868 31.8148 4.92409 31.8244 4.9495C31.8392 4.9929 31.8593 5.03419 31.8762 5.07653C31.887 5.10115 31.899 5.12518 31.9122 5.14852C31.9429 5.20569 31.9715 5.26285 32.0043 5.3179C32.0266 5.35601 32.0509 5.39307 32.0721 5.43118C32.0917 5.46601 32.114 5.49928 32.1388 5.53069C32.1653 5.56245 32.1875 5.59844 32.2139 5.63126L32.2753 5.71066C32.3024 5.74745 32.3314 5.78278 32.3622 5.81652C32.4373 5.89168 32.5072 5.97002 32.5887 6.03883C32.6279 6.07165 32.6649 6.10553 32.7041 6.13941C32.7433 6.17328 32.7581 6.18387 32.7856 6.20504C32.8131 6.22621 32.8576 6.25691 32.8915 6.28126C32.9116 6.29291 32.9306 6.30879 32.9508 6.32255C32.9709 6.33631 33.0048 6.35007 33.0291 6.36913C33.0775 6.4006 33.1277 6.42923 33.1794 6.45488C33.2632 6.49965 33.3494 6.53959 33.4377 6.5745C33.4864 6.59462 33.5372 6.6105 33.5859 6.63061C33.6346 6.65073 33.6738 6.65814 33.7172 6.67296C33.7606 6.68778 33.7776 6.68566 33.8051 6.69731C33.8285 6.70563 33.8526 6.712 33.8771 6.71636C33.9055 6.72577 33.935 6.73111 33.9649 6.73224C33.9995 6.74277 34.0349 6.75021 34.0708 6.75447C34.092 6.76117 34.1143 6.76369 34.1364 6.76189C34.1481 6.77353 34.1629 6.76718 34.1777 6.76929L34.2179 6.7767C34.2389 6.77624 34.2599 6.77838 34.2804 6.78306C34.3008 6.78518 34.3214 6.78518 34.3418 6.78306C34.3614 6.78622 34.3812 6.78834 34.4011 6.78941C34.5225 6.79469 34.6441 6.79257 34.7653 6.78306" fill="#191818"/>
<path d="M33.6678 4.18823V4.84353C33.6678 5.13995 33.6678 5.4353 33.6678 5.73172C33.6678 5.88628 33.6191 5.96356 33.4476 5.96039C32.8347 5.95192 32.9469 6.00909 32.9448 5.46918C32.9384 4.28457 32.9448 3.10101 32.9448 1.91745C32.9448 1.64538 32.9501 1.63479 33.2052 1.63691C33.8806 1.6422 34.5581 1.64327 35.2325 1.67185C35.7068 1.6909 36.0921 1.89628 36.2403 2.37796C36.397 2.88293 36.3769 3.36673 35.9227 3.74042C35.8973 3.7616 35.8772 3.78806 35.8327 3.83359C36.216 4.08766 36.2213 4.47618 36.2223 4.87105C36.2223 5.15477 36.216 5.43954 36.4139 5.68832C36.5198 5.82488 36.4446 5.94557 36.2689 5.95721C36.1842 5.96251 36.0995 5.95721 36.0148 5.95721C35.6221 5.95721 35.5914 5.94133 35.5363 5.54117C35.5003 5.27439 35.5077 5.00338 35.494 4.73449C35.4749 4.36608 35.3352 4.20517 34.9647 4.19035C34.5518 4.17341 34.1379 4.19035 33.6646 4.19035L33.6678 4.18823ZM34.4343 2.30809C34.2321 2.30809 34.0278 2.2975 33.8266 2.31444C33.7913 2.32285 33.7587 2.34022 33.732 2.36488C33.7053 2.38954 33.6854 2.42066 33.6742 2.45524C33.6594 2.76754 33.6604 3.07983 33.6742 3.39319C33.6742 3.44506 33.7515 3.53928 33.7938 3.53928C34.2316 3.55167 34.6698 3.54071 35.1065 3.50647C35.4495 3.47047 35.6115 3.20052 35.5787 2.84588C35.5458 2.49123 35.3532 2.32291 34.9943 2.30915C34.808 2.30174 34.6227 2.30915 34.4364 2.30915" fill="#191818"/>
</svg>
