<svg width="31" height="118" viewBox="0 0 31 118" fill="none" xmlns="http://www.w3.org/2000/svg">
<path d="M31 117V117C26.5817 117 23 113.418 23 109L23 9C23 4.58172 26.5817 1 31 1V1" stroke="#191818" stroke-width="0.5"/>
<path fill-rule="evenodd" clip-rule="evenodd" d="M4.90237 53.6357L0.0732231 58.8181C-0.0244064 58.9157 -0.0244064 59.074 0.0732231 59.1717L4.90237 64.0012C5 64.0989 5.15829 64.0989 5.25592 64.0012C5.35355 63.9036 5.35355 63.7453 5.25592 63.6477L0.853554 59.2449L23.25 59.2449V58.7449L0.853554 58.7449L5.25592 53.9893C5.35355 53.8916 5.35355 53.7334 5.25592 53.6357C5.15829 53.5381 5 53.5381 4.90237 53.6357Z" fill="#191818"/>
</svg>
