<svg width="31" height="118" viewBox="0 0 31 118" fill="none" xmlns="http://www.w3.org/2000/svg">
<path d="M0 117V117C4.41828 117 8 113.418 8 109L8 9C8 4.58172 4.41828 1 5.07052e-06 1V1" stroke="#191818" stroke-width="0.5"/>
<path fill-rule="evenodd" clip-rule="evenodd" d="M26.0976 53.6357L30.9268 58.8181C31.0244 58.9157 31.0244 59.074 30.9268 59.1717L26.0976 64.0012C26 64.0989 25.8417 64.0989 25.7441 64.0012C25.6464 63.9036 25.6464 63.7453 25.7441 63.6477L30.1464 59.2449L7.75 59.2449L7.75 58.7449L30.1464 58.7449L25.7441 53.9893C25.6464 53.8916 25.6464 53.7334 25.7441 53.6357C25.8417 53.5381 26 53.5381 26.0976 53.6357Z" fill="#191818"/>
</svg>
