<svg width="29" height="12" viewBox="0 0 29 12" fill="none" xmlns="http://www.w3.org/2000/svg">
<path d="M15.0278 0.656958C14.9871 1.05109 14.756 1.24136 14.3891 1.25495C9.34692 1.56753 6.01721 4.39439 3.59807 8.56673C3.06803 9.4773 2.57877 10.4015 2.06232 11.312C1.99437 11.4479 1.89923 11.5703 1.79051 11.679C1.53229 11.9236 1.19252 11.978 0.98866 11.7062C0.839162 11.5295 0.757615 11.1354 0.86634 10.9451C1.72255 9.39576 2.538 7.80565 3.5573 6.35145C5.77258 3.18482 8.70816 1.01032 12.5543 0.194876C13.1659 0.0725601 13.7911 0.0589698 14.4162 0.0317885C14.7968 0.0181978 15.0006 0.262829 15.0278 0.656958Z" fill="#5E6165"/>
<path d="M17.6068 2.09979C18.0825 2.09979 18.5582 2.0862 19.0338 2.09979C19.5231 2.12697 19.7949 2.38519 19.7813 2.75214C19.7541 3.13268 19.4687 3.33654 18.9659 3.30936C17.3214 3.22781 15.6905 3.26859 14.0732 3.64912C11.9123 4.15198 10.0912 5.21205 8.58261 6.84293C7.54971 7.95736 6.48964 9.0582 5.44316 10.1726C5.36161 10.2542 5.28007 10.3493 5.19853 10.4309C4.91312 10.6891 4.61412 10.7163 4.34231 10.458C4.0705 10.1998 4.0705 9.87364 4.32872 9.60183C4.75003 9.13975 5.18493 8.69126 5.61983 8.24277C6.544 7.27783 7.4274 6.27212 8.39234 5.34795C10.6892 3.13268 13.5296 2.24929 16.6555 2.09979C16.9816 2.0862 17.2942 2.09979 17.6204 2.09979C17.6068 2.0862 17.6068 2.09979 17.6068 2.09979Z" fill="#5E6165"/>
<path d="M19.4429 4.0625C21.1145 4.33431 22.7726 4.60613 24.4442 4.87794C24.8655 4.94589 25.1374 5.17693 25.0558 5.65261C24.9879 6.01956 24.6481 6.18264 24.1724 6.06033C21.7805 5.48952 19.3613 5.2313 16.915 5.62542C14.1561 6.06033 11.7234 7.14758 9.7799 9.19976C9.49449 9.49876 9.20909 9.62108 8.84214 9.36285C8.52956 9.13181 8.52956 8.75127 8.85573 8.38433C10.473 6.60395 12.5116 5.48952 14.7949 4.82358C16.3034 4.38868 17.8528 4.212 19.4157 4.19841C19.4293 4.15763 19.4293 4.11686 19.4429 4.0625Z" fill="#5E6165"/>
<path d="M19.5535 6.55469C21.8639 6.58187 23.9161 6.90804 25.846 7.77785C26.0635 7.87298 26.3081 8.10403 26.376 8.30789C26.5255 8.81074 26.0227 9.10973 25.4519 8.93305C24.4869 8.62047 23.5356 8.26711 22.5435 8.06325C20.2195 7.58758 17.8955 7.76426 15.5986 8.32147C15.3268 8.38943 14.9599 8.37584 14.756 8.22634C14.3619 7.95453 14.5657 7.32936 15.1094 7.20704C16.0607 6.98959 17.0256 6.81291 18.0042 6.66342C18.575 6.58187 19.173 6.58187 19.5535 6.55469Z" fill="#5E6165"/>
<path d="M28.0589 9.15625C28.4531 9.15625 29.0103 9.64552 28.9967 9.99888C28.9831 10.3658 28.7792 10.5969 28.3987 10.6105C28.0182 10.6241 27.4745 10.1212 27.4609 9.76784C27.4609 9.41448 27.7192 9.15625 28.0589 9.15625Z" fill="#5E6165"/>
</svg>
