<svg width="257" height="84" viewBox="0 0 257 84" fill="none" xmlns="http://www.w3.org/2000/svg">
<path d="M14 35.5312V32.25H21.5469C26.6406 32.25 30.7969 30.9062 34.0156 28.2188C37.2344 25.5312 38.8438 22.0625 38.8438 17.8125C38.8438 13.75 37.2656 10.3906 34.1094 7.73438C30.9844 5.04688 26.9688 3.70312 22.0625 3.70312C17.4688 3.70312 13.5781 5.03125 10.3906 7.6875C7.23438 10.3125 5.51562 13.6406 5.23438 17.6719H1.625C1.90625 12.6406 3.96875 8.5 7.8125 5.25C11.6562 2 16.4531 0.375 22.2031 0.375C28.0156 0.375 32.8594 2 36.7344 5.25C40.6094 8.5 42.5469 12.5781 42.5469 17.4844C42.5469 21.6719 41.2656 25.2188 38.7031 28.125C36.1406 31 32.6406 32.8438 28.2031 33.6562V33.8438C33.4531 34.1875 37.6406 35.875 40.7656 38.9062C43.9219 41.9062 45.5 45.7969 45.5 50.5781C45.5 56.1719 43.3281 60.8125 38.9844 64.5C34.6719 68.1562 29.25 69.9844 22.7188 69.9844C16.2812 69.9844 10.9219 68.2812 6.64062 64.875C2.39062 61.4375 0.203125 57.1406 0.078125 51.9844H3.6875C3.84375 56.1719 5.71875 59.6719 9.3125 62.4844C12.9375 65.2656 17.4062 66.6562 22.7188 66.6562C28.1875 66.6562 32.7188 65.1562 36.3125 62.1562C39.9375 59.125 41.75 55.2969 41.75 50.6719C41.75 45.9531 39.9688 42.25 36.4062 39.5625C32.8438 36.875 27.9219 35.5312 21.6406 35.5312H14ZM78.13 69.9844C70.7238 69.9844 64.8644 66.8594 60.5519 60.6094C56.2706 54.3594 54.13 45.875 54.13 35.1562C54.13 24.5 56.2706 16.0469 60.5519 9.79688C64.8644 3.51562 70.7238 0.375 78.13 0.375C85.505 0.375 91.3331 3.5 95.6144 9.75C99.8956 16 102.036 24.4688 102.036 35.1562C102.036 45.875 99.8956 54.3594 95.6144 60.6094C91.3331 66.8594 85.505 69.9844 78.13 69.9844ZM63.3175 58.1719C66.9425 63.8281 71.88 66.6562 78.13 66.6562C84.38 66.6562 89.3019 63.8281 92.8956 58.1719C96.5206 52.5156 98.3331 44.8438 98.3331 35.1562C98.3331 25.5312 96.5206 17.8906 92.8956 12.2344C89.2706 6.54688 84.3488 3.70312 78.13 3.70312C71.88 3.70312 66.9425 6.54688 63.3175 12.2344C59.6925 17.8906 57.88 25.5312 57.88 35.1562C57.88 44.8438 59.6925 52.5156 63.3175 58.1719ZM202.087 69.9844C194.681 69.9844 188.822 66.8594 184.509 60.6094C180.228 54.3594 178.087 45.875 178.087 35.1562C178.087 24.5 180.228 16.0469 184.509 9.79688C188.822 3.51562 194.681 0.375 202.087 0.375C209.462 0.375 215.291 3.5 219.572 9.75C223.853 16 225.994 24.4688 225.994 35.1562C225.994 45.875 223.853 54.3594 219.572 60.6094C215.291 66.8594 209.462 69.9844 202.087 69.9844ZM187.275 58.1719C190.9 63.8281 195.837 66.6562 202.087 66.6562C208.337 66.6562 213.259 63.8281 216.853 58.1719C220.478 52.5156 222.291 44.8438 222.291 35.1562C222.291 25.5312 220.478 17.8906 216.853 12.2344C213.228 6.54688 208.306 3.70312 202.087 3.70312C195.837 3.70312 190.9 6.54688 187.275 12.2344C183.65 17.8906 181.837 25.5312 181.837 35.1562C181.837 44.8438 183.65 52.5156 187.275 58.1719ZM252.811 69V5.53125H252.717C251.467 6.28125 248.405 8.25 243.53 11.4375C238.686 14.5937 235.592 16.5938 234.249 17.4375V13.3125C235.124 12.75 237.983 10.8906 242.827 7.73438C247.671 4.57813 250.999 2.45312 252.811 1.35938H256.467V69H252.811Z" fill="#191818"/>
<path d="M129.749 83.1094H126.421L150.327 1.35938H153.656L129.749 83.1094Z" fill="#D0D0D0"/>
</svg>
