<svg width="13" height="14" viewBox="0 0 13 14" fill="none" xmlns="http://www.w3.org/2000/svg">
<path d="M12.9654 3.95905C12.935 3.26825 12.8233 2.79334 12.6632 2.38182C12.4982 1.945 12.2442 1.55392 11.9114 1.22881C11.5863 0.898645 11.1927 0.64209 10.7609 0.479585C10.347 0.319561 9.87457 0.207852 9.18378 0.177394C8.48783 0.144358 8.26689 0.136719 6.50176 0.136719C4.73664 0.136719 4.5157 0.144358 3.82233 0.174815C3.13153 0.205272 2.65662 0.317081 2.2452 0.477006C1.80828 0.64209 1.4172 0.896065 1.09209 1.22881C0.761926 1.55392 0.50547 1.94758 0.342867 2.37934C0.182842 2.79334 0.0711329 3.26567 0.0406757 3.95647C0.00763909 4.65242 0 4.87336 0 6.63849C0 8.40361 0.00763909 8.62455 0.0380963 9.31793C0.0685535 10.0087 0.180362 10.4836 0.340386 10.8952C0.50547 11.332 0.761926 11.7231 1.09209 12.0482C1.4172 12.3783 1.81086 12.6349 2.24262 12.7974C2.65662 12.9574 3.12895 13.0691 3.81985 13.0996C4.51312 13.1301 4.73416 13.1377 6.49928 13.1377C8.26441 13.1377 8.48535 13.1301 9.17872 13.0996C9.86952 13.0691 10.3444 12.9574 10.7558 12.7974C11.6296 12.4596 12.3204 11.7688 12.6582 10.8952C12.8181 10.4812 12.9299 10.0087 12.9604 9.31793C12.9908 8.62455 12.9985 8.40361 12.9985 6.63849C12.9985 4.87336 12.9959 4.65242 12.9654 3.95905ZM11.7947 9.26713C11.7667 9.90207 11.66 10.2449 11.5711 10.4735C11.3527 11.0399 10.9032 11.4894 10.3368 11.7079C10.1082 11.7968 9.76287 11.9034 9.13041 11.9313C8.44467 11.9618 8.23901 11.9694 6.50434 11.9694C4.76967 11.9694 4.56143 11.9618 3.87818 11.9313C3.24324 11.9034 2.90038 11.7968 2.6718 11.7079C2.38995 11.6037 2.13339 11.4386 1.92515 11.2227C1.70927 11.0119 1.54419 10.7579 1.44002 10.4761C1.35113 10.2475 1.24448 9.90207 1.2166 9.26971C1.18604 8.58398 1.1785 8.37822 1.1785 6.64355C1.1785 4.90887 1.18604 4.70063 1.2166 4.01748C1.24448 3.38254 1.35113 3.03968 1.44002 2.8111C1.54419 2.52915 1.70927 2.27269 1.92773 2.06435C2.13845 1.84847 2.39243 1.68339 2.67438 1.57932C2.90296 1.49043 3.2484 1.38378 3.88076 1.3558C4.56649 1.32534 4.77225 1.3177 6.50682 1.3177C8.24407 1.3177 8.44973 1.32534 9.13299 1.3558C9.76793 1.38378 10.1108 1.49043 10.3394 1.57932C10.6212 1.68339 10.8778 1.84847 11.086 2.06435C11.3019 2.27517 11.467 2.52915 11.5711 2.8111C11.66 3.03968 11.7667 3.38502 11.7947 4.01748C11.8251 4.70321 11.8328 4.90887 11.8328 6.64355C11.8328 8.37822 11.8251 8.5814 11.7947 9.26713Z" fill="#3C4043"/>
<rect x="0.998535" y="1.13672" width="11" height="11" rx="1" fill="#3C4043"/>
<path d="M6.50108 3.29688C4.65745 3.29688 3.16162 4.79261 3.16162 6.63633C3.16162 8.48006 4.65745 9.97579 6.50108 9.97579C8.3448 9.97579 9.84053 8.48006 9.84053 6.63633C9.84053 4.79261 8.3448 3.29688 6.50108 3.29688ZM6.50108 8.80255C5.30503 8.80255 4.33485 7.83248 4.33485 6.63633C4.33485 5.44018 5.30503 4.47011 6.50108 4.47011C7.69723 4.47011 8.6673 5.44018 8.6673 6.63633C8.6673 7.83248 7.69723 8.80255 6.50108 8.80255Z" fill="white"/>
<path d="M10.7536 3.16654C10.7536 3.59718 10.4044 3.94635 9.97367 3.94635C9.54302 3.94635 9.19385 3.59718 9.19385 3.16654C9.19385 2.7358 9.54302 2.38672 9.97367 2.38672C10.4044 2.38672 10.7536 2.7358 10.7536 3.16654Z" fill="white"/>
</svg>
