<svg width="34" height="34" viewBox="0 0 34 34" fill="none" xmlns="http://www.w3.org/2000/svg">
<path d="M26.9105 21.0171C26.7322 21.4211 26.679 21.8693 26.7578 22.3037C26.8366 22.7382 27.0437 23.1392 27.3525 23.4548L27.4328 23.5352C27.6819 23.784 27.8795 24.0794 28.0143 24.4046C28.1491 24.7298 28.2185 25.0784 28.2185 25.4304C28.2185 25.7825 28.1491 26.1311 28.0143 26.4563C27.8795 26.7815 27.6819 27.0769 27.4328 27.3257C27.1841 27.5747 26.8886 27.7723 26.5634 27.9071C26.2382 28.042 25.8896 28.1113 25.5376 28.1113C25.1856 28.1113 24.837 28.042 24.5118 27.9071C24.1866 27.7723 23.8911 27.5747 23.6424 27.3257L23.562 27.2453C23.2463 26.9365 22.8454 26.7294 22.4109 26.6506C21.9764 26.5718 21.5283 26.625 21.1243 26.8033C20.7281 26.9731 20.3903 27.255 20.1523 27.6144C19.9143 27.9737 19.7866 28.3948 19.7849 28.8258V29.0535C19.7849 29.764 19.5027 30.4453 19.0003 30.9477C18.4979 31.4501 17.8166 31.7323 17.1061 31.7323C16.3957 31.7323 15.7143 31.4501 15.2119 30.9477C14.7096 30.4453 14.4273 29.764 14.4273 29.0535V28.933C14.417 28.4896 14.2735 28.0597 14.0155 27.699C13.7575 27.3383 13.397 27.0635 12.9808 26.9105C12.5768 26.7322 12.1287 26.679 11.6942 26.7578C11.2597 26.8366 10.8587 27.0437 10.5431 27.3525L10.4627 27.4328C10.2139 27.6819 9.91849 27.8795 9.59329 28.0143C9.26809 28.1491 8.91951 28.2185 8.56747 28.2185C8.21544 28.2185 7.86686 28.1491 7.54166 28.0143C7.21646 27.8795 6.92102 27.6819 6.67223 27.4328C6.42317 27.1841 6.22558 26.8886 6.09077 26.5634C5.95597 26.2382 5.88658 25.8896 5.88658 25.5376C5.88658 25.1856 5.95597 24.837 6.09077 24.5118C6.22558 24.1866 6.42317 23.8911 6.67223 23.6424L6.75259 23.562C7.06137 23.2463 7.26851 22.8454 7.34729 22.4109C7.42607 21.9764 7.37289 21.5283 7.19459 21.1243C7.02481 20.7281 6.74289 20.3903 6.38355 20.1523C6.0242 19.9143 5.60311 19.7866 5.17211 19.7849H4.94441C4.23395 19.7849 3.55259 19.5027 3.05022 19.0003C2.54785 18.4979 2.26563 17.8166 2.26562 17.1061C2.26562 16.3957 2.54785 15.7143 3.05022 15.2119C3.55259 14.7096 4.23395 14.4273 4.94441 14.4273H5.06496C5.50829 14.417 5.93825 14.2735 6.29894 14.0155C6.65963 13.7575 6.93437 13.397 7.08744 12.9808C7.26574 12.5768 7.31892 12.1287 7.24014 11.6942C7.16136 11.2597 6.95422 10.8587 6.64544 10.5431L6.56508 10.4627C6.31602 10.2139 6.11843 9.91849 5.98362 9.59329C5.84881 9.26809 5.77943 8.91951 5.77943 8.56747C5.77943 8.21544 5.84881 7.86686 5.98362 7.54166C6.11843 7.21646 6.31602 6.92102 6.56508 6.67223C6.81387 6.42317 7.10931 6.22558 7.43451 6.09077C7.75971 5.95597 8.10829 5.88658 8.46032 5.88658C8.81236 5.88658 9.16094 5.95597 9.48614 6.09077C9.81134 6.22558 10.1068 6.42317 10.3556 6.67223L10.4359 6.75259C10.7516 7.06137 11.1525 7.26851 11.587 7.34729C12.0215 7.42607 12.4696 7.37289 12.8736 7.19459H12.9808C13.3769 7.02481 13.7148 6.74289 13.9528 6.38355C14.1907 6.0242 14.3185 5.60311 14.3202 5.17211V4.94441C14.3202 4.23395 14.6024 3.55259 15.1048 3.05022C15.6071 2.54785 16.2885 2.26563 16.999 2.26562C17.7094 2.26563 18.3908 2.54785 18.8931 3.05022C19.3955 3.55259 19.6777 4.23395 19.6777 4.94441V5.06496C19.6795 5.49596 19.8072 5.91705 20.0452 6.27639C20.2831 6.63574 20.621 6.91766 21.0171 7.08744C21.4211 7.26574 21.8693 7.31892 22.3037 7.24014C22.7382 7.16136 23.1392 6.95422 23.4548 6.64544L23.5352 6.56508C23.784 6.31602 24.0794 6.11843 24.4046 5.98362C24.7298 5.84881 25.0784 5.77943 25.4304 5.77943C25.7825 5.77943 26.1311 5.84881 26.4563 5.98362C26.7815 6.11843 27.0769 6.31602 27.3257 6.56508C27.5747 6.81387 27.7723 7.10931 27.9071 7.43451C28.042 7.75971 28.1113 8.10829 28.1113 8.46032C28.1113 8.81236 28.042 9.16094 27.9071 9.48614C27.7723 9.81134 27.5747 10.1068 27.3257 10.3556L27.2453 10.4359C26.9365 10.7516 26.7294 11.1525 26.6506 11.587C26.5718 12.0215 26.625 12.4696 26.8033 12.8736V12.9808C26.9731 13.3769 27.255 13.7148 27.6144 13.9528C27.9737 14.1907 28.3948 14.3185 28.8258 14.3202H29.0535C29.764 14.3202 30.4453 14.6024 30.9477 15.1048C31.4501 15.6071 31.7323 16.2885 31.7323 16.999C31.7323 17.7094 31.4501 18.3908 30.9477 18.8931C30.4453 19.3955 29.764 19.6777 29.0535 19.6777H28.933C28.502 19.6795 28.0809 19.8072 27.7215 20.0452C27.3622 20.2831 27.0803 20.621 26.9105 21.0171V21.0171Z" stroke="#067AFF" stroke-width="3" stroke-linecap="round" stroke-linejoin="round"/>
</svg>
