<svg width="50" height="50" viewBox="0 0 50 50" fill="none" xmlns="http://www.w3.org/2000/svg">
<mask id="mask0_2652_33430" style="mask-type:alpha" maskUnits="userSpaceOnUse" x="0" y="0" width="50" height="50">
<rect width="50" height="50" rx="10" fill="#F8F9FA"/>
</mask>
<g mask="url(#mask0_2652_33430)">
<path d="M25.3852 40.5C24.9969 40.2282 24.4833 38.1698 24.561 37.6909C24.7422 36.4612 24.3798 35.3997 23.6549 34.403C23.176 33.7558 22.8006 33.0439 22.3993 32.3319C22.2957 32.1507 22.244 31.9048 22.244 31.6976C22.231 30.1443 22.244 28.6039 22.231 27.0506C22.231 26.8047 22.1534 26.5328 22.0239 26.3387C21.1308 24.9795 20.1988 23.6333 19.3185 22.2612C19.1762 22.0412 19.1891 21.6917 19.215 21.4069C19.2279 21.1868 19.3574 20.9797 19.448 20.7726C19.6033 20.449 19.7069 20.1772 19.3185 19.9183C19.202 19.8406 19.1503 19.5688 19.1503 19.3876C19.1373 12.4235 19.1375 -0.505609 19.1504 -7.46968C19.1504 -7.62501 19.2022 -7.79329 19.2669 -7.92273C20.2636 -9.91616 21.2474 -11.9096 22.27 -13.8771C22.4124 -14.149 22.7101 -14.3431 23.0337 -14.6667C23.0337 -14.9515 23.0208 -15.4175 23.0337 -15.8965C23.0466 -16.466 23.3314 -16.7637 23.901 -16.7637C24.8718 -16.7767 25.8426 -16.7767 26.8135 -16.7637C27.383 -16.7637 27.6807 -16.466 27.6807 -15.8965C27.6937 -15.4305 27.6807 -14.9645 27.6807 -14.4985C27.7196 -14.5244 27.7713 -14.5502 27.8102 -14.5891C28.0432 -14.3172 28.3279 -14.0713 28.4962 -13.7477C29.4929 -11.8319 30.4508 -9.89027 31.4217 -7.96156C31.5123 -7.78034 31.564 -7.56029 31.564 -7.36612C31.577 -0.466777 31.5769 12.3976 31.5639 19.2969C31.5639 19.5299 31.4862 19.8665 31.3309 19.983C31.0332 20.2031 31.1109 20.3972 31.2144 20.6432C31.8228 22.1577 31.6934 21.8082 30.9426 22.9473C30.2048 24.0734 29.441 25.1737 28.7162 26.2998C28.5738 26.5328 28.4832 26.8306 28.4832 27.1024C28.4573 28.6298 28.4832 30.1702 28.4702 31.6976C28.4702 31.9306 28.3925 32.1766 28.289 32.3708C27.6677 33.4322 27.0204 34.4677 26.3991 35.5292C26.2567 35.7751 26.1791 36.0858 26.1532 36.3835C26.1143 36.8107 26.1143 37.2508 26.1532 37.6909C26.192 38.1698 25.7865 40.2282 25.3852 40.5C25.1522 40.5 25.5794 40.5 25.3852 40.5ZM26.8781 18.6368C26.8781 18.4426 26.8781 18.2743 26.8781 18.0931C26.8781 16.5269 26.8781 14.9606 26.8781 13.3943C26.8781 12.8118 27.1628 12.4753 27.6288 12.4623C28.1078 12.4494 28.4314 12.8118 28.4314 13.4073C28.4314 14.8441 28.4314 16.2809 28.4314 17.7177C28.4314 18.0155 28.4314 18.3261 28.4314 18.6238C28.975 18.6238 29.4669 18.6238 29.9459 18.6238C29.9459 13.705 29.946 2.84698 29.946 -2.0201C26.8393 -2.0201 23.7715 -2.0201 20.6908 -2.0201C20.6908 2.88581 20.6906 13.7438 20.6906 18.6238C21.2084 18.6238 21.7003 18.6238 22.2181 18.6238C22.2181 16.8634 22.2181 15.1289 22.2181 13.4073C22.2181 12.8118 22.5287 12.4494 23.0077 12.4623C23.4737 12.4753 23.7585 12.8248 23.7585 13.3943C23.7585 14.6111 23.7585 15.8149 23.7585 17.0317C23.7585 17.5624 23.7585 18.0931 23.7585 18.6368C24.0432 18.6368 24.2633 18.6368 24.5351 18.6368C24.5351 18.4297 24.5351 18.2614 24.5351 18.0802C24.5351 15.2842 24.5351 12.4882 24.5351 9.70518C24.5351 9.56279 24.5222 9.40746 24.5481 9.26507C24.6257 8.85085 24.8846 8.59196 25.3118 8.59196C25.7389 8.59196 25.9978 8.8379 26.0755 9.26507C26.1014 9.4204 26.0884 9.58867 26.0884 9.74401C26.0884 12.54 26.0884 15.336 26.0884 18.119C26.0884 18.2873 26.0884 18.4556 26.0884 18.6368C26.3862 18.6368 26.6062 18.6368 26.8781 18.6368ZM29.4282 -8.27223C29.4282 -8.32401 29.4412 -8.36284 29.4282 -8.38873C28.7163 -9.81261 28.0173 -11.2494 27.2795 -12.6733C27.2147 -12.8028 26.9817 -12.8934 26.8264 -12.8934C25.8426 -12.9193 24.8589 -12.8934 23.8621 -12.9063C23.5774 -12.9063 23.435 -12.8286 23.3055 -12.5698C22.6583 -11.2494 21.9982 -9.94205 21.338 -8.62173C21.2862 -8.51817 21.2474 -8.40167 21.1956 -8.27223C23.9657 -8.27223 26.697 -8.27223 29.4282 -8.27223ZM29.9719 -6.65418C26.8393 -6.65418 23.7715 -6.65418 20.6908 -6.65418C20.6908 -5.61863 20.6908 -4.62192 20.6908 -3.6252C23.7974 -3.6252 26.8652 -3.6252 29.9719 -3.6252C29.9719 -4.6478 29.9719 -5.64452 29.9719 -6.65418ZM21.3508 22.5589C22.0369 23.5815 22.6582 24.5394 23.3184 25.4844C23.3831 25.5879 23.5902 25.6397 23.7326 25.6397C24.794 25.6526 25.8684 25.6526 26.9298 25.6397C27.0981 25.6397 27.3182 25.4973 27.4217 25.3679C27.9913 24.5653 28.522 23.7369 29.0786 22.9214C29.1433 22.8178 29.1951 22.7143 29.2598 22.5719C26.6192 22.5589 24.0303 22.5589 21.3508 22.5589ZM23.7714 27.206C23.7714 28.6687 23.7714 30.0796 23.7714 31.5035C23.7714 31.5553 23.7714 31.607 23.7973 31.6459C24.2892 32.4873 24.794 33.3157 25.3247 34.2089C25.8037 33.4192 26.2438 32.7203 26.6451 32.0083C26.7745 31.7624 26.8651 31.4776 26.8781 31.2058C26.9039 30.0278 26.891 28.8499 26.891 27.672C26.891 27.5166 26.891 27.3613 26.891 27.206C25.8166 27.206 24.8328 27.206 23.7714 27.206ZM29.3634 20.216C26.8392 20.216 24.3668 20.216 21.8945 20.216C21.1825 20.216 21.1825 20.216 21.079 20.9538C23.9138 20.9538 26.7486 20.9538 29.6352 20.9538C29.5316 20.682 29.454 20.4619 29.3634 20.216ZM26.0886 -15.1975C25.5579 -15.1975 25.0789 -15.1975 24.587 -15.1975C24.587 -14.9386 24.587 -14.7185 24.587 -14.4726C25.1048 -14.4726 25.5967 -14.4726 26.0886 -14.4726C26.0886 -14.7315 26.0886 -14.9515 26.0886 -15.1975Z" fill="#191818"/>
<path d="M24.5487 29.8758C24.5487 29.5005 24.5358 29.138 24.5487 28.7626C24.5746 28.2966 24.8853 27.986 25.2995 27.973C25.7396 27.9601 26.0762 28.2837 26.0891 28.7756C26.102 29.5393 26.102 30.2901 26.0891 31.0538C26.0762 31.5198 25.7525 31.8304 25.3383 31.8434C24.8982 31.8563 24.5746 31.5327 24.5487 31.0408C24.5358 30.6525 24.5487 30.2642 24.5487 29.8758Z" fill="#191818"/>
</g>
</svg>
