<svg width="12" height="12" viewBox="0 0 12 12" fill="none" xmlns="http://www.w3.org/2000/svg">
<path d="M11.6646 2.80895L10.8363 1.98645L11.6646 1.16395C11.7744 1.05411 11.8361 0.905125 11.8361 0.749783C11.8361 0.59444 11.7744 0.44546 11.6646 0.335616C11.5547 0.225772 11.4058 0.164062 11.2504 0.164062C11.0951 0.164063 10.9461 0.225772 10.8363 0.335616L4.68792 6.48395C4.08478 6.08602 3.3554 5.92615 2.6411 6.0353C1.92681 6.14446 1.27847 6.51488 0.821698 7.07478C0.364929 7.63468 0.132257 8.3442 0.168767 9.06587C0.205277 9.78753 0.508369 10.4699 1.01931 10.9809C1.53026 11.4918 2.21268 11.7949 2.93434 11.8314C3.656 11.8679 4.36552 11.6353 4.92543 11.1785C5.48533 10.7217 5.85575 10.0734 5.9649 9.3591C6.07406 8.64481 5.91419 7.91543 5.51626 7.31228L8.36292 4.45978L9.18542 5.28812C9.23993 5.34218 9.30457 5.38495 9.37564 5.41398C9.44672 5.44301 9.52282 5.45773 9.59959 5.45728C9.67636 5.45773 9.75246 5.44301 9.82354 5.41398C9.89461 5.38495 9.95925 5.34218 10.0138 5.28812C10.0684 5.23389 10.1118 5.16937 10.1414 5.09829C10.1711 5.0272 10.1863 4.95096 10.1863 4.87395C10.1863 4.79694 10.1711 4.7207 10.1414 4.64961C10.1118 4.57853 10.0684 4.51401 10.0138 4.45978L9.18542 3.66645L10.0138 2.83812L10.8363 3.66645C10.8908 3.72051 10.9554 3.76329 11.0265 3.79232C11.0975 3.82135 11.1737 3.83606 11.2504 3.83562C11.3272 3.83606 11.4033 3.82135 11.4744 3.79232C11.5454 3.76329 11.6101 3.72051 11.6646 3.66645C11.7238 3.61182 11.7711 3.54553 11.8034 3.47174C11.8357 3.39795 11.8524 3.31826 11.8524 3.2377C11.8524 3.15714 11.8357 3.07745 11.8034 3.00366C11.7711 2.92987 11.7238 2.86357 11.6646 2.80895ZM3.08376 10.6664C2.73764 10.6664 2.39929 10.5638 2.11151 10.3715C1.82372 10.1792 1.59942 9.90592 1.46697 9.58615C1.33451 9.26637 1.29986 8.91451 1.36738 8.57504C1.43491 8.23557 1.60158 7.92375 1.84632 7.67901C2.09106 7.43427 2.40288 7.2676 2.74235 7.20008C3.08181 7.13255 3.43368 7.16721 3.75345 7.29966C4.07322 7.43211 4.34654 7.65642 4.53883 7.9442C4.73112 8.23199 4.83376 8.57033 4.83376 8.91645C4.83376 9.38058 4.64938 9.8257 4.32119 10.1539C3.993 10.4821 3.54788 10.6664 3.08376 10.6664Z" fill="black"/>
</svg>
