<svg width="16" height="25" viewBox="0 0 16 25" fill="none" xmlns="http://www.w3.org/2000/svg">
<path d="M7.5 15H4.14039C2.72779 15 2.02148 15 1.72673 14.5372C1.43197 14.0743 1.73066 13.4343 2.32803 12.1542L7.04691 2.04234C7.42116 1.24036 7.60829 0.839375 7.80415 0.882825C8 0.926275 8 1.36878 8 2.25378V9.5C8 9.7357 8 9.85355 8.07322 9.92678C8.14645 10 8.2643 10 8.5 10H11.8596C13.2722 10 13.9785 10 14.2733 10.4628C14.568 10.9256 14.2693 11.5657 13.672 12.8458L8.95309 22.9577C8.57884 23.7596 8.39171 24.1606 8.19585 24.1172C8 24.0737 8 23.6312 8 22.7462V15.5C8 15.2643 8 15.1464 7.92678 15.0732C7.85355 15 7.7357 15 7.5 15Z" stroke="#191818" stroke-width="1.5"/>
</svg>
