<svg width="14" height="20" viewBox="0 0 14 20" fill="none" xmlns="http://www.w3.org/2000/svg">
<path fill-rule="evenodd" clip-rule="evenodd" d="M6.77273 0C10.5102 0 13.5401 3.02984 13.5401 6.76734C13.6754 9.79331 11.2488 13.8247 7.55581 18.9292C7.37399 19.1804 7.08277 19.329 6.77273 19.329C6.46269 19.329 6.17147 19.1804 5.98965 18.9292C2.29662 13.815 -0.12996 9.78364 0.00538692 6.76734C0.00538697 3.02984 3.03523 0 6.77273 0ZM3.87256 6.75966C3.87256 8.36145 5.17106 9.65995 6.77285 9.65995C7.54205 9.65995 8.27975 9.35439 8.82366 8.81048C9.36757 8.26657 9.67314 7.52887 9.67314 6.75966C9.67314 5.15788 8.37463 3.85938 6.77285 3.85938C5.17106 3.85938 3.87256 5.15788 3.87256 6.75966Z" fill="#191818"/>
</svg>
