<svg width="15" height="16" viewBox="0 0 15 16" fill="none" xmlns="http://www.w3.org/2000/svg">
<path d="M12.75 7.00718H3.75V5.5092C3.75293 3.68812 5.06722 2.13313 6.86437 1.82445C8.66152 1.51578 10.4205 2.54292 11.0325 4.25838C11.0986 4.44823 11.2383 4.60357 11.4203 4.6895C11.6022 4.77542 11.8111 4.7847 12 4.71527C12.3882 4.57752 12.5925 4.15279 12.4575 3.76405C11.6133 1.34509 9.14239 -0.110487 6.61406 0.321774C4.08574 0.754035 2.24038 2.94756 2.25 5.5092V7.00718C1.00736 7.00718 0 8.01319 0 9.25416V12.9991C0 14.2401 1.00736 15.2461 2.25 15.2461H12.75C13.9926 15.2461 15 14.2401 15 12.9991V9.25416C15 8.01319 13.9926 7.00718 12.75 7.00718Z" fill="#191818"/>
</svg>
