<svg width="100" height="11" viewBox="0 0 100 11" fill="none" xmlns="http://www.w3.org/2000/svg">
<path d="M92.1811 7.37755H92.227L92.3265 7.3589L92.6427 7.30365C92.8323 7.26945 93.0107 7.19103 93.1628 7.07503C93.349 6.93173 93.5006 6.74995 93.6067 6.54269C93.7128 6.33542 93.7709 6.10777 93.7768 5.87601L93.7422 3.51457C93.6997 3.23938 93.5863 2.97933 93.4126 2.75896C93.2715 2.59767 93.0962 2.46835 92.8989 2.37998C92.7016 2.2916 92.487 2.24628 92.2701 2.24716C91.1226 2.24716 90.0041 2.23128 88.8862 2.22852H83.0063C82.9977 2.22852 82.9894 2.23186 82.9833 2.23782C82.9772 2.24378 82.9738 2.25186 82.9738 2.26029L82.9526 10.0408C82.9526 10.0492 82.9561 10.0573 82.9622 10.0633C82.9682 10.0692 82.9765 10.0726 82.9851 10.0726H85.7119C85.7161 10.0726 85.7202 10.0718 85.724 10.0702C85.7278 10.0685 85.7312 10.0661 85.734 10.0631C85.7368 10.0601 85.7389 10.0566 85.7402 10.0528C85.7415 10.0489 85.742 10.0449 85.7416 10.0408V7.65037C85.7416 7.64268 85.7447 7.6353 85.7503 7.62986C85.7558 7.62442 85.7634 7.62136 85.7712 7.62136H88.7719C88.7796 7.61856 88.7881 7.61856 88.7959 7.62136L90.6731 10.0305C90.6809 10.0328 90.6892 10.0328 90.697 10.0305H94.0216C94.0273 10.03 94.0328 10.0281 94.0374 10.0249C94.0421 10.0217 94.0459 10.0174 94.0483 10.0124C94.0507 10.0073 94.0517 10.0018 94.0513 9.9962C94.0508 9.99065 94.0489 9.98531 94.0456 9.98073L91.9786 7.41968L92.1811 7.37755ZM85.7465 5.68469V4.1493C85.7465 4.14088 85.7499 4.13279 85.756 4.12684C85.7621 4.12088 85.7704 4.11753 85.779 4.11753L90.4225 4.13065C90.4962 4.13052 90.5695 4.14123 90.6399 4.16243C90.739 4.17681 90.8284 4.22863 90.889 4.30678C90.9592 4.40218 90.9959 4.51731 90.9935 4.63485V5.68469C90.9935 5.69311 90.99 5.7012 90.9839 5.70715C90.9778 5.71311 90.9696 5.71646 90.961 5.71646H85.7698C85.762 5.71646 85.7544 5.7134 85.7489 5.70796C85.7433 5.70252 85.7402 5.69514 85.7402 5.68745L85.7465 5.68469Z" fill="#191818"/>
<path d="M97.0186 7.51438L96.9728 7.45913H97.0186L97.4286 7.39006C97.6388 7.35503 97.8374 7.27145 98.008 7.14625C98.2045 6.99894 98.3655 6.81129 98.4799 6.5965C98.5943 6.38171 98.6591 6.145 98.67 5.90302V5.63435L98.6509 4.40908V3.59062C98.6035 3.29699 98.4776 3.02084 98.2861 2.79012C98.1308 2.61968 97.9404 2.48341 97.7274 2.3903C97.5144 2.2972 97.2837 2.24938 97.0504 2.25001H94.519L94.5324 2.26589C94.7331 2.2766 94.9292 2.32894 95.1077 2.41943C95.2862 2.50993 95.443 2.63652 95.5677 2.79081C95.7555 3.02227 95.8709 3.30195 95.9001 3.59615C95.9191 3.80335 95.9001 4.41737 95.9001 4.41737L95.9163 5.64264V5.90509C95.9104 6.14159 95.8541 6.37427 95.7512 6.58832C95.6483 6.80236 95.501 6.99308 95.3186 7.14832C95.1682 7.27171 94.9883 7.35562 94.7956 7.39213L94.423 7.46535H94.3828L94.423 7.51784L96.3242 10.0734C96.3275 10.0772 96.3316 10.0804 96.3362 10.0827C96.3408 10.0849 96.3459 10.0862 96.351 10.0865H99.0616C99.0673 10.086 99.0728 10.0841 99.0774 10.0809C99.0821 10.0778 99.0858 10.0734 99.0883 10.0684C99.0907 10.0634 99.0918 10.0578 99.0913 10.0522C99.0908 10.0467 99.0889 10.0413 99.0856 10.0368L97.0186 7.51438Z" fill="#191818"/>
<path d="M10.8545 3.23569C9.78513 2.45222 8.49006 2.01973 7.15445 2.00006C5.88347 1.92892 4.60474 1.92409 3.36552 1.9082H1.98234C1.803 1.9106 1.62394 1.92282 1.446 1.94481L1.19195 1.96829L0.930839 1.9897L0.909668 9.82549C0.909668 9.83392 0.913088 9.842 0.919176 9.84796C0.925264 9.85391 0.933521 9.85726 0.94213 9.85726H6.30195C7.51401 9.84118 8.71271 9.60706 9.83824 9.16658C10.4416 8.95142 10.9756 8.58305 11.3854 8.09925C11.7953 7.61545 12.0663 7.03365 12.1706 6.41352C12.2601 5.81722 12.1854 5.20833 11.954 4.64978C11.7226 4.09123 11.343 3.60329 10.8545 3.23638V3.23569ZM9.03938 7.0303C8.43365 7.41322 7.72805 7.61728 7.00695 7.61807C6.122 7.64432 5.2561 7.63672 4.33939 7.61807H3.39234C3.38819 7.61809 3.38409 7.61726 3.3803 7.61563C3.37651 7.614 3.37311 7.61162 3.37031 7.60862C3.36752 7.60563 3.3654 7.6021 3.36409 7.59825C3.36278 7.59441 3.3623 7.59033 3.3627 7.5863V4.11839C3.3627 4.10996 3.36612 4.10188 3.3722 4.09592C3.37829 4.08996 3.38655 4.08661 3.39516 4.08661H3.97666C5.29299 4.0091 6.61405 4.09731 7.90743 4.34907C8.27794 4.43178 8.63264 4.57167 8.95823 4.76348C9.13905 4.86512 9.29433 5.00509 9.41266 5.17313C9.53099 5.34118 9.60937 5.53302 9.64205 5.73458C9.67214 5.98322 9.63176 6.23516 9.52534 6.46284C9.41892 6.69052 9.25056 6.88516 9.03868 7.02547L9.03938 7.0303Z" fill="#191818"/>
<path d="M69.6403 3.39297C68.555 2.60095 67.2404 2.16725 65.8866 2.15458C64.6453 2.08551 63.4012 2.0786 62.2001 2.07031H60.8592C60.6771 2.07031 60.4894 2.08344 60.2664 2.10208L59.7626 2.12557C59.7544 2.12626 59.7469 2.12991 59.7414 2.1358C59.7359 2.14168 59.7329 2.14937 59.7329 2.15734V9.98967C59.7329 9.9981 59.7363 10.0062 59.7424 10.0121C59.7485 10.0181 59.7568 10.0214 59.7654 10.0214H64.8916C66.1766 10.0118 67.4488 9.77166 68.6452 9.3128C69.25 9.09756 69.7853 8.72865 70.1961 8.24398C70.607 7.7593 70.8787 7.17632 70.9832 6.55491C71.0671 5.95879 70.9871 5.35156 70.7514 4.79577C70.5158 4.23999 70.1329 3.75576 69.6424 3.39297H69.6403ZM67.8358 7.17929C67.2539 7.53205 66.5912 7.73672 65.9078 7.77465C65.5112 7.82162 64.8591 7.85616 64.4597 7.85616H62.1697C62.1611 7.85616 62.1528 7.85281 62.1467 7.84685C62.1407 7.84089 62.1372 7.83281 62.1372 7.82438L62.1478 4.26875H62.392C63.8118 4.16176 65.2399 4.23933 66.6389 4.49944C67.1557 4.61613 67.6384 4.84668 68.0503 5.17355C68.1861 5.28827 68.2931 5.43189 68.3634 5.5934C68.4336 5.75491 68.4651 5.93001 68.4554 6.10528C68.4422 6.31849 68.3795 6.52596 68.2722 6.71193C68.1648 6.8979 68.0156 7.0575 67.8358 7.1786V7.17929Z" fill="#191818"/>
<path d="M55.7462 7.26403L54.2981 6.1541C54.2913 6.15155 54.2838 6.15155 54.2769 6.1541H53.7829L50.6489 6.18035C50.6426 6.18086 50.6366 6.18317 50.6316 6.18699C50.6266 6.19081 50.6229 6.19597 50.6208 6.20185C50.6188 6.20772 50.6186 6.21405 50.6202 6.22004C50.6218 6.22604 50.6252 6.23145 50.6299 6.2356L55.164 9.69937L55.2282 9.75462C55.3401 9.87029 55.49 9.94366 55.6516 9.96183C55.9897 9.96183 56.3517 9.97495 56.821 9.97495H58.1618C58.166 9.97497 58.1701 9.97414 58.1739 9.97251C58.1777 9.97089 58.1811 9.9685 58.1839 9.9655C58.1867 9.96251 58.1888 9.95898 58.1901 9.95513C58.1914 9.95129 58.1919 9.94722 58.1915 9.94318V6.1099C58.1915 6.10193 58.1885 6.09424 58.183 6.08835C58.1775 6.08247 58.17 6.07882 58.1618 6.07812L55.8238 6.12026C55.8197 6.12024 55.8156 6.12107 55.8118 6.1227C55.808 6.12432 55.8046 6.12671 55.8018 6.12971C55.799 6.1327 55.7969 6.13623 55.7956 6.14008C55.7943 6.14392 55.7938 6.14799 55.7942 6.15203V7.23847C55.7949 7.24421 55.7939 7.25003 55.7913 7.25519C55.7886 7.26035 55.7844 7.26462 55.7793 7.26744C55.7741 7.27026 55.7682 7.27151 55.7623 7.27102C55.7564 7.27054 55.7508 7.26834 55.7462 7.26472V7.26403Z" fill="#191818"/>
<path d="M46.2893 6.2432V9.90381C46.2893 9.91224 46.2927 9.92032 46.2988 9.92628C46.3049 9.93224 46.3132 9.93559 46.3218 9.93559H48.657C48.6611 9.93597 48.6652 9.93551 48.6692 9.93422C48.6731 9.93294 48.6767 9.93086 48.6798 9.92813C48.6828 9.9254 48.6853 9.92207 48.6869 9.91835C48.6886 9.91464 48.6894 9.91063 48.6894 9.90658V6.23008C48.6887 6.22214 48.685 6.21475 48.679 6.20938C48.6729 6.204 48.6651 6.20104 48.657 6.20107H46.3281C46.3223 6.1968 46.315 6.19479 46.3078 6.19543C46.3005 6.19606 46.2937 6.1993 46.2887 6.20452C46.2838 6.20973 46.2809 6.21656 46.2808 6.2237C46.2806 6.23084 46.2831 6.23778 46.2879 6.2432H46.2893Z" fill="#191818"/>
<path d="M58.1783 2.12891H55.8389C55.8347 2.12889 55.8306 2.12972 55.8268 2.13135C55.823 2.13298 55.8196 2.13536 55.8168 2.13836C55.814 2.14135 55.8119 2.14488 55.8106 2.14873C55.8093 2.15257 55.8088 2.15664 55.8092 2.16068V5.94424C55.8092 5.95193 55.8123 5.95931 55.8179 5.96475C55.8235 5.97019 55.831 5.97324 55.8389 5.97324L58.1769 6.0285C58.1853 6.02801 58.1933 6.0245 58.1992 6.01865C58.2052 6.01279 58.2088 6.00499 58.2093 5.99673V2.16551C58.21 2.16096 58.2097 2.1563 58.2084 2.15187C58.2071 2.14744 58.2048 2.14334 58.2017 2.13985C58.1987 2.13637 58.1948 2.13359 58.1905 2.1317C58.1862 2.12981 58.1816 2.12885 58.1769 2.12891H58.1783Z" fill="#191818"/>
<path d="M49.4401 2.43308C49.4094 2.41177 49.3799 2.38871 49.3519 2.36401C49.2193 2.22154 49.0402 2.12873 48.8452 2.10156C48.2743 2.08084 47.6893 2.08084 47.172 2.08291H46.3435C46.3356 2.08328 46.3281 2.08629 46.3221 2.09145C46.3162 2.0966 46.3123 2.10358 46.311 2.11123V5.78427C46.311 5.79197 46.3142 5.79934 46.3197 5.80478C46.3253 5.81022 46.3328 5.81328 46.3407 5.81328L48.6758 5.83676C48.6845 5.83676 48.6927 5.83342 48.6988 5.82746C48.7049 5.8215 48.7083 5.81342 48.7083 5.80499V4.82422C48.7088 4.81867 48.7107 4.81334 48.714 4.80876C48.7172 4.80419 48.7217 4.80052 48.7268 4.79815C48.732 4.79577 48.7376 4.79475 48.7433 4.79521C48.749 4.79567 48.7544 4.79757 48.7591 4.80074L50.1479 5.8637H50.167L53.8 5.91619H53.9983L49.4401 2.43308Z" fill="#191818"/>
<path d="M71.9623 10.0002L81.8669 10.0264C81.871 10.0268 81.8752 10.0264 81.8791 10.0251C81.883 10.0238 81.8866 10.0217 81.8897 10.019C81.8928 10.0162 81.8952 10.0129 81.8968 10.0092C81.8985 10.0055 81.8994 10.0015 81.8993 9.99742V7.87979C81.8993 7.87136 81.8959 7.86328 81.8898 7.85732C81.8838 7.85137 81.8755 7.84802 81.8669 7.84802L74.4055 7.83351C74.3975 7.8324 74.3902 7.82863 74.3848 7.82283C74.3794 7.81703 74.3762 7.80958 74.3758 7.80174V7.09034C74.3765 7.0824 74.3803 7.07501 74.3863 7.06964C74.3923 7.06427 74.4002 7.0613 74.4083 7.06133L80.8408 7.07376C80.8489 7.07379 80.8568 7.07083 80.8628 7.06545C80.8688 7.06008 80.8725 7.05269 80.8732 7.04475V5.24829C80.8736 5.24426 80.8732 5.24018 80.8719 5.23634C80.8706 5.23249 80.8684 5.22896 80.8656 5.22597C80.8628 5.22297 80.8594 5.22059 80.8556 5.21896C80.8519 5.21733 80.8478 5.2165 80.8436 5.21652L74.4217 5.19787C74.4176 5.19826 74.4134 5.19779 74.4095 5.19651C74.4056 5.19523 74.4019 5.19315 74.3989 5.19042C74.3958 5.18768 74.3934 5.18435 74.3917 5.18064C74.3901 5.17693 74.3892 5.17292 74.3892 5.16886V4.34004C74.3897 4.33178 74.3933 4.32398 74.3993 4.31813C74.4053 4.31227 74.4132 4.30877 74.4217 4.30827L81.8782 4.32899C81.8868 4.32899 81.895 4.32565 81.9011 4.31969C81.9072 4.31373 81.9106 4.30565 81.9106 4.29722V2.21965C81.9106 2.21122 81.9072 2.20314 81.9011 2.19719C81.895 2.19123 81.8868 2.18788 81.8782 2.18788L71.9814 2.16992C71.9728 2.16992 71.9645 2.17327 71.9584 2.17923C71.9523 2.18519 71.9489 2.19327 71.9489 2.20169L71.9277 9.97946C71.9297 9.98657 71.9344 9.99267 71.9409 9.99651C71.9473 10.0004 71.9549 10.0017 71.9623 10.0002Z" fill="#191818"/>
<path d="M44.0957 5.77663V5.16192C44.0957 5.15395 44.0927 5.14627 44.0872 5.14038C44.0817 5.1345 44.0742 5.13085 44.0661 5.13015L37.6315 5.11427C37.6228 5.11427 37.6146 5.11092 37.6085 5.10496C37.6024 5.099 37.599 5.09092 37.599 5.0825V4.27163C37.599 4.26321 37.6024 4.25513 37.6085 4.24917C37.6146 4.24321 37.6228 4.23986 37.6315 4.23986L45.0773 4.26058C45.0859 4.26058 45.0942 4.25724 45.1003 4.25128C45.1064 4.24532 45.1098 4.23724 45.1098 4.22881V2.13052C45.1098 2.12635 45.109 2.12222 45.1073 2.11836C45.1057 2.11451 45.1033 2.11101 45.1003 2.10805C45.0973 2.1051 45.0937 2.10276 45.0898 2.10117C45.0858 2.09957 45.0816 2.09875 45.0773 2.09875L35.1805 2.06836C35.1763 2.06836 35.1721 2.06918 35.1681 2.07078C35.1642 2.07237 35.1606 2.07471 35.1576 2.07766C35.1546 2.08062 35.1522 2.08412 35.1506 2.08797C35.1489 2.09183 35.1481 2.09596 35.1481 2.10013V5.71861C35.1477 5.72265 35.1482 5.72672 35.1495 5.73056C35.1508 5.73441 35.1529 5.73794 35.1557 5.74094C35.1585 5.74393 35.1619 5.74632 35.1657 5.74794C35.1695 5.74957 35.1736 5.7504 35.1777 5.75038H35.9822L44.0767 5.81047C44.0832 5.80767 44.0886 5.80283 44.092 5.79671C44.0955 5.7906 44.0968 5.78354 44.0957 5.77663Z" fill="#191818"/>
<path d="M35.1597 9.89882L45.0452 9.92507C45.0538 9.92507 45.0621 9.92172 45.0682 9.91576C45.0742 9.9098 45.0777 9.90172 45.0777 9.8933V7.77567C45.0777 7.77161 45.0768 7.7676 45.0752 7.76389C45.0735 7.76017 45.0711 7.75684 45.068 7.75411C45.0649 7.75138 45.0613 7.7493 45.0574 7.74802C45.0535 7.74674 45.0493 7.74627 45.0452 7.74666L37.6155 7.72594C37.6116 7.72594 37.6078 7.72519 37.6042 7.72373C37.6006 7.72227 37.5973 7.72013 37.5946 7.71744C37.5918 7.71475 37.5896 7.71155 37.5882 7.70803C37.5867 7.70451 37.5859 7.70074 37.5859 7.69693V6.99105C37.5859 6.987 37.5867 6.98299 37.5884 6.97927C37.5901 6.97556 37.5925 6.97223 37.5956 6.9695C37.5986 6.96676 37.6022 6.96469 37.6061 6.9634C37.6101 6.96212 37.6142 6.96166 37.6184 6.96204L44.053 6.97793C44.0571 6.97795 44.0612 6.97712 44.065 6.97549C44.0688 6.97386 44.0722 6.97147 44.075 6.96848C44.0778 6.96549 44.0799 6.96195 44.0812 6.95811C44.0825 6.95426 44.083 6.95019 44.0826 6.94616V6.24857C44.0826 6.24014 44.0792 6.23206 44.0731 6.2261C44.067 6.22014 44.0588 6.2168 44.0502 6.2168L35.9586 6.23545H35.154C35.1499 6.23506 35.1458 6.23552 35.1418 6.23681C35.1379 6.23809 35.1343 6.24017 35.1312 6.2429C35.1282 6.24563 35.1257 6.24896 35.1241 6.25268C35.1224 6.25639 35.1216 6.2604 35.1216 6.26445V9.87258C35.1223 9.87671 35.1238 9.88067 35.126 9.88422C35.1283 9.88778 35.1312 9.89087 35.1347 9.89331C35.1382 9.89575 35.1421 9.89749 35.1463 9.89844C35.1505 9.89938 35.1548 9.89951 35.159 9.89882H35.1597Z" fill="#191818"/>
<path d="M13.2029 9.84271L23.0989 9.86896C23.1068 9.86896 23.1144 9.8659 23.1199 9.86046C23.1255 9.85502 23.1286 9.84764 23.1286 9.83995V7.71748C23.1279 7.70954 23.1242 7.70216 23.1181 7.69678C23.1121 7.69141 23.1043 7.68844 23.0961 7.68847L15.6368 7.68088C15.6329 7.68088 15.6291 7.68013 15.6255 7.67867C15.6219 7.67721 15.6186 7.67507 15.6159 7.67238C15.6131 7.66969 15.6109 7.66649 15.6095 7.66297C15.608 7.65945 15.6072 7.65568 15.6072 7.65187V6.94875C15.6079 6.94082 15.6116 6.93343 15.6176 6.92805C15.6237 6.92268 15.6315 6.91972 15.6397 6.91975L22.0743 6.93563C22.0784 6.93602 22.0825 6.93555 22.0865 6.93427C22.0904 6.93299 22.094 6.93091 22.0971 6.92818C22.1001 6.92544 22.1026 6.92211 22.1042 6.9184C22.1059 6.91469 22.1067 6.91068 22.1067 6.90662V6.14687C22.1067 6.13845 22.1033 6.13037 22.0972 6.12441C22.0911 6.11845 22.0829 6.1151 22.0743 6.1151C19.1251 6.07573 16.1753 6.026 13.2261 5.94727C13.2175 5.94727 13.2093 5.95061 13.2032 5.95657C13.1971 5.96253 13.1937 5.97061 13.1937 5.97904V9.81025C13.1916 9.81592 13.1913 9.8221 13.193 9.82792C13.1946 9.83374 13.1981 9.83891 13.2029 9.84271Z" fill="#191818"/>
<path d="M22.0914 5.05853H15.6568C15.6527 5.05892 15.6485 5.05845 15.6446 5.05717C15.6407 5.05589 15.6371 5.05381 15.634 5.05108C15.6309 5.04834 15.6285 5.04501 15.6268 5.0413C15.6252 5.03759 15.6243 5.03358 15.6243 5.02952V4.2159C15.6243 4.20747 15.6278 4.19939 15.6339 4.19343C15.6399 4.18748 15.6482 4.18413 15.6568 4.18413L23.121 4.20485C23.1297 4.20485 23.1379 4.2015 23.144 4.19554C23.1501 4.18958 23.1535 4.1815 23.1535 4.17308V2.07479C23.1535 2.06709 23.1504 2.05971 23.1448 2.05427C23.1393 2.04883 23.1317 2.04578 23.1239 2.04578L13.225 2.01953C13.2211 2.01953 13.2172 2.02028 13.2136 2.02174C13.21 2.0232 13.2067 2.02533 13.204 2.02803C13.2012 2.03072 13.1991 2.03392 13.1976 2.03744C13.1961 2.04096 13.1953 2.04473 13.1953 2.04854V5.88252C13.1953 5.88657 13.1961 5.89058 13.1978 5.89429C13.1995 5.89801 13.2019 5.90134 13.205 5.90407C13.208 5.9068 13.2116 5.90888 13.2156 5.91016C13.2195 5.91145 13.2237 5.91191 13.2278 5.91152C16.1769 5.85143 19.1268 5.8169 22.0893 5.79342C22.0934 5.79344 22.0975 5.7926 22.1013 5.79098C22.1051 5.78935 22.1085 5.78696 22.1113 5.78397C22.1141 5.78098 22.1162 5.77744 22.1176 5.7736C22.1189 5.76975 22.1193 5.76568 22.1189 5.76165V5.09997C22.1206 5.09548 22.1211 5.09068 22.1206 5.08594C22.1201 5.0812 22.1185 5.07664 22.1159 5.0726C22.1133 5.06855 22.1098 5.06512 22.1057 5.06257C22.1016 5.06001 22.097 5.0584 22.0921 5.05784L22.0914 5.05853Z" fill="#191818"/>
<path d="M26.6497 9.8719C26.6583 9.8719 26.6666 9.86856 26.6727 9.8626C26.6788 9.85664 26.6822 9.84856 26.6822 9.84013V7.09053C26.6786 7.04455 26.6786 6.99837 26.6822 6.95239C26.7285 6.94245 26.7759 6.93805 26.8233 6.93927C28.2524 6.95515 29.6948 6.95792 30.9686 6.95999H33.1725C33.1767 6.96037 33.1808 6.95991 33.1847 6.95863C33.1887 6.95734 33.1923 6.95527 33.1953 6.95253C33.1984 6.9498 33.2008 6.94647 33.2025 6.94276C33.2042 6.93905 33.205 6.93503 33.205 6.93098V6.2403C33.205 6.23187 33.2016 6.22379 33.1955 6.21783C33.1894 6.21187 33.1811 6.20853 33.1725 6.20853L24.3075 6.14844C24.3036 6.14844 24.2997 6.14919 24.2961 6.15065C24.2925 6.1521 24.2893 6.15424 24.2865 6.15693C24.2838 6.15963 24.2816 6.16283 24.2801 6.16634C24.2786 6.16986 24.2778 6.17364 24.2778 6.17745V9.83806C24.2782 9.8459 24.2814 9.85335 24.2868 9.85915C24.2922 9.86494 24.2995 9.86872 24.3075 9.86983L26.6497 9.8719Z" fill="#191818"/>
<path d="M33.2 5.10095L26.7654 5.08507C26.7568 5.08507 26.7485 5.08172 26.7424 5.07576C26.7363 5.0698 26.7329 5.06172 26.7329 5.05329V4.22448C26.7329 4.21605 26.7363 4.20797 26.7424 4.20201C26.7485 4.19605 26.7568 4.1927 26.7654 4.1927L34.2113 4.21343C34.2154 4.21344 34.2195 4.21261 34.2233 4.21099C34.2271 4.20936 34.2305 4.20697 34.2333 4.20398C34.2361 4.20098 34.2382 4.19745 34.2395 4.19361C34.2408 4.18976 34.2413 4.18569 34.2409 4.18165V2.10408C34.2409 2.09639 34.2378 2.08901 34.2322 2.08357C34.2267 2.07813 34.2191 2.07507 34.2113 2.07507L24.3441 2.04883C24.3362 2.04883 24.3287 2.05188 24.3231 2.05732C24.3176 2.06276 24.3145 2.07014 24.3145 2.07784V5.75088C24.3145 5.75931 24.3179 5.76739 24.324 5.77335C24.33 5.77931 24.3383 5.78265 24.3469 5.78265L33.2134 5.76193C33.2212 5.76193 33.2288 5.75888 33.2343 5.75344C33.2399 5.748 33.243 5.74062 33.243 5.73293V5.12927C33.2432 5.12437 33.2422 5.11951 33.2401 5.11506C33.238 5.11061 33.2349 5.1067 33.231 5.10362C33.2271 5.10054 33.2225 5.09839 33.2176 5.09733C33.2127 5.09627 33.2077 5.09632 33.2028 5.0975L33.2 5.10095Z" fill="#191818"/>
</svg>
