<svg width="232" height="48" viewBox="0 0 232 48" fill="none" xmlns="http://www.w3.org/2000/svg">
<path d="M158.169 24L157 24L157 9L158.169 9L222.206 15.5051C223.405 15.6269 223.405 17.3731 222.206 17.4949L158.169 24Z" fill="#D9D9D9"/>
<path d="M156.646 36.6464C156.451 36.8417 156.451 37.1583 156.646 37.3536L159.828 40.5355C160.024 40.7308 160.34 40.7308 160.536 40.5355C160.731 40.3403 160.731 40.0237 160.536 39.8284L157.707 37L160.536 34.1716C160.731 33.9763 160.731 33.6597 160.536 33.4645C160.34 33.2692 160.024 33.2692 159.828 33.4645L156.646 36.6464ZM224.354 37.3536C224.549 37.1583 224.549 36.8417 224.354 36.6465L221.172 33.4645C220.976 33.2692 220.66 33.2692 220.464 33.4645C220.269 33.6597 220.269 33.9763 220.464 34.1716L223.293 37L220.464 39.8284C220.269 40.0237 220.269 40.3403 220.464 40.5355C220.66 40.7308 220.976 40.7308 221.172 40.5355L224.354 37.3536ZM157 37.5L224 37.5L224 36.5L157 36.5L157 37.5Z" fill="#191818"/>
<path d="M47.6464 47.3536C47.8417 47.5488 48.1583 47.5488 48.3536 47.3536L51.5355 44.1716C51.7308 43.9763 51.7308 43.6597 51.5355 43.4645C51.3403 43.2692 51.0237 43.2692 50.8284 43.4645L48 46.2929L45.1716 43.4645C44.9763 43.2692 44.6597 43.2692 44.4645 43.4645C44.2692 43.6597 44.2692 43.9763 44.4645 44.1716L47.6464 47.3536ZM48.5 47L48.5 31L47.5 31L47.5 47L48.5 47Z" fill="#191818"/>
<path d="M54.5 17C54.5 21.0859 53.7261 24.7606 52.4967 27.3952C51.2483 30.0703 49.6233 31.5 48 31.5C46.3767 31.5 44.7517 30.0703 43.5033 27.3952C42.2739 24.7606 41.5 21.0859 41.5 17C41.5 12.9141 42.2739 9.23937 43.5033 6.60484C44.7517 3.92972 46.3767 2.5 48 2.5C49.6233 2.5 51.2483 3.92972 52.4967 6.60484C53.7261 9.23937 54.5 12.9141 54.5 17Z" stroke="#191818"/>
<rect x="35" y="9" width="10" height="15" fill="white"/>
<path d="M158.169 24L14 24L14 9L158.169 8.99999L222.206 15.5051C223.405 15.6269 223.405 17.3731 222.206 17.4949L158.169 24Z" stroke="#191818"/>
<rect width="28" height="32" fill="url(#paint0_linear_3282_39563)"/>
<defs>
<linearGradient id="paint0_linear_3282_39563" x1="14" y1="32" x2="28" y2="32" gradientUnits="userSpaceOnUse">
<stop stop-color="white"/>
<stop offset="1" stop-color="white" stop-opacity="0"/>
</linearGradient>
</defs>
</svg>
