<svg width="24" height="55" viewBox="0 0 24 55" fill="none" xmlns="http://www.w3.org/2000/svg">
<path d="M8.47105e-06 30.7008C3.49688e-06 19.5802 4.09514 8.84895 11.5037 0.555526C11.7683 0.259369 12.2317 0.259369 12.4962 0.555526C19.9048 8.84895 24 19.5802 24 30.7008L24 55L1.93399e-05 55L8.47105e-06 30.7008Z" fill="#232323"/>
<path d="M8.47105e-06 30.7008C3.49688e-06 19.5802 4.09514 8.84895 11.5037 0.555526C11.7683 0.259369 12.2317 0.259369 12.4962 0.555526C19.9048 8.84895 24 19.5802 24 30.7008L24 55L1.93399e-05 55L8.47105e-06 30.7008Z" fill="url(#paint0_linear_2742_32612)"/>
<defs>
<linearGradient id="paint0_linear_2742_32612" x1="12" y1="-6.67635e-07" x2="12" y2="55" gradientUnits="userSpaceOnUse">
<stop stop-color="white" stop-opacity="0.4"/>
<stop offset="1" stop-color="white" stop-opacity="0"/>
</linearGradient>
</defs>
</svg>
