<svg width="25" height="164" viewBox="0 0 25 164" fill="none" xmlns="http://www.w3.org/2000/svg">
<path d="M1.16691e-05 105.868C6.7101e-06 85.8669 1.63498 65.8998 4.88859 46.1655L12.5 -6.95453e-07L20.1114 46.1656C23.365 65.8998 25 85.8669 25 105.868L25 164L2.60826e-05 164L1.16691e-05 105.868Z" fill="#232323"/>
<path d="M1.16691e-05 105.868C6.7101e-06 85.8669 1.63498 65.8998 4.88859 46.1655L12.5 -6.95453e-07L20.1114 46.1656C23.365 65.8998 25 85.8669 25 105.868L25 164L2.60826e-05 164L1.16691e-05 105.868Z" fill="url(#paint0_linear_2742_32615)"/>
<defs>
<linearGradient id="paint0_linear_2742_32615" x1="12.5" y1="-6.95453e-07" x2="12.5" y2="164" gradientUnits="userSpaceOnUse">
<stop stop-color="white" stop-opacity="0.4"/>
<stop offset="1" stop-color="white" stop-opacity="0"/>
</linearGradient>
</defs>
</svg>
