<svg width="47" height="51" viewBox="0 0 47 51" fill="none" xmlns="http://www.w3.org/2000/svg">
<path d="M46 0V0C46 4.41828 42.4183 8 38 8H9C4.58172 8 1 4.41828 1 0V0" stroke="#191818" stroke-width="0.5"/>
<path fill-rule="evenodd" clip-rule="evenodd" d="M28.9268 45.3476L23.7444 50.1768C23.6468 50.2744 23.4885 50.2744 23.3908 50.1768L18.5613 45.3476C18.4636 45.25 18.4636 45.0917 18.5613 44.9941C18.6589 44.8964 18.8172 44.8964 18.9148 44.9941L23.3176 49.3964L23.3176 8L23.8176 8L23.8176 49.3964L28.5732 44.9941C28.6709 44.8964 28.8291 44.8964 28.9268 44.9941C29.0244 45.0917 29.0244 45.25 28.9268 45.3476Z" fill="#191818"/>
</svg>
