<svg width="25" height="126" viewBox="0 0 25 126" fill="none" xmlns="http://www.w3.org/2000/svg">
<path d="M1.51525e-05 97.1842C7.23358e-06 71.3002 2.73834 45.4887 8.16928 20.1808L12.5 -6.95453e-07L16.8307 20.1809C22.2617 45.4888 25 71.3001 25 97.1841L25 126L2.39684e-05 126L1.51525e-05 97.1842Z" fill="#232323"/>
<path d="M1.51525e-05 97.1842C7.23358e-06 71.3002 2.73834 45.4887 8.16928 20.1808L12.5 -6.95453e-07L16.8307 20.1809C22.2617 45.4888 25 71.3001 25 97.1841L25 126L2.39684e-05 126L1.51525e-05 97.1842Z" fill="url(#paint0_linear_2742_32614)"/>
<defs>
<linearGradient id="paint0_linear_2742_32614" x1="12.5" y1="-6.95453e-07" x2="12.5" y2="126" gradientUnits="userSpaceOnUse">
<stop stop-color="white" stop-opacity="0.4"/>
<stop offset="1" stop-color="white" stop-opacity="0"/>
</linearGradient>
</defs>
</svg>
