<svg width="310" height="31" viewBox="0 0 310 31" fill="none" xmlns="http://www.w3.org/2000/svg">
<path d="M1 31V31C1 26.5817 4.58172 23 9 23H301C305.418 23 309 26.5817 309 31V31" stroke="#191818" stroke-width="0.5"/>
<path fill-rule="evenodd" clip-rule="evenodd" d="M77.3604 4.90237L72.178 0.0732229C72.0803 -0.0244067 71.9221 -0.0244067 71.8244 0.0732229L66.9949 4.90237C66.8972 5 66.8972 5.15829 66.9949 5.25592C67.0925 5.35355 67.2508 5.35355 67.3484 5.25592L71.7512 0.853554L71.7512 23.25L72.2512 23.25L72.2512 0.853554L77.0068 5.25592C77.1044 5.35355 77.2627 5.35355 77.3604 5.25592C77.458 5.15829 77.458 5 77.3604 4.90237Z" fill="#191818"/>
</svg>
