<svg width="16" height="13" viewBox="0 0 16 13" fill="none" xmlns="http://www.w3.org/2000/svg">
<path fill-rule="evenodd" clip-rule="evenodd" d="M8.80372 6.64232L15.1803 0.267571C14.9178 0.0991279 14.6062 0 14.2715 0H1.73009C1.3946 0 1.08372 0.0991279 0.821289 0.267571L7.19784 6.64232C7.64068 7.08504 8.36087 7.08504 8.80372 6.64232Z" fill="#8D8D8D"/>
<path fill-rule="evenodd" clip-rule="evenodd" d="M15.8637 1.23438L10.667 6.13502L15.9113 11.0805C15.9681 10.9191 16.0003 10.7476 16.0003 10.5681V1.86984C16.0003 1.64403 15.9512 1.42979 15.8637 1.23438Z" fill="#8D8D8D"/>
<path fill-rule="evenodd" clip-rule="evenodd" d="M0.135866 1.23438C0.0483592 1.42979 0 1.64403 0 1.86984V10.5681C0 10.7476 0.0314719 10.9191 0.0882748 11.0805L5.33333 6.13502L0.135866 1.23438Z" fill="#8D8D8D"/>
<path fill-rule="evenodd" clip-rule="evenodd" d="M9.48534 7.51731C9.08911 7.90431 8.5613 8.11643 8.00041 8.11643C7.44025 8.11643 6.91244 7.90431 6.51621 7.51731L5.95753 6.97266L0.821289 11.9799C1.09916 12.1834 1.4432 12.306 1.81737 12.306H14.1842C14.5584 12.306 14.9024 12.1834 15.1803 11.9799L10.044 6.97266L9.48534 7.51731Z" fill="#8D8D8D"/>
</svg>
