<svg width="21" height="18" viewBox="0 0 21 18" fill="none" xmlns="http://www.w3.org/2000/svg">
<path fill-rule="evenodd" clip-rule="evenodd" d="M11.5541 9.64187L19.9233 1.27501C19.5789 1.05393 19.1698 0.923828 18.7305 0.923828H2.26996C1.82962 0.923828 1.42158 1.05393 1.07715 1.27501L9.44637 9.64187C10.0276 10.2229 10.9728 10.2229 11.5541 9.64187Z" fill="white"/>
<path fill-rule="evenodd" clip-rule="evenodd" d="M20.8207 2.53906L14 8.97115L20.8831 15.4621C20.9577 15.2503 21 15.0252 21 14.7896V3.37312C21 3.07673 20.9355 2.79555 20.8207 2.53906Z" fill="white"/>
<path fill-rule="evenodd" clip-rule="evenodd" d="M0.178325 2.53906C0.0634715 2.79555 0 3.07673 0 3.37312V14.7896C0 15.0252 0.0413069 15.2503 0.115861 15.4621L7 8.97115L0.178325 2.53906Z" fill="white"/>
<path fill-rule="evenodd" clip-rule="evenodd" d="M12.4487 10.793C11.9287 11.3009 11.2359 11.5793 10.4997 11.5793C9.76454 11.5793 9.07178 11.3009 8.55174 10.793L7.81846 10.0781L1.07715 16.6501C1.44186 16.9173 1.8934 17.0781 2.3845 17.0781H18.6159C19.107 17.0781 19.5586 16.9173 19.9233 16.6501L13.182 10.0781L12.4487 10.793Z" fill="white"/>
</svg>
