<svg width="14" height="10" viewBox="0 0 14 10" fill="none" xmlns="http://www.w3.org/2000/svg">
<path d="M4.85742 9.17578C4.43555 9.125 4.01758 9.04102 3.60352 8.92383C3.18945 8.80273 2.80859 8.63867 2.46094 8.43164C2.11719 8.21289 1.84375 7.98633 1.64062 7.75195C1.4375 7.51367 1.28516 7.28125 1.18359 7.05469C1.08594 6.82812 1.02539 6.625 1.00195 6.44531H4.91602C4.98242 6.64453 5.14258 6.79492 5.39648 6.89648C5.6543 6.99414 5.93945 7.05859 6.25195 7.08984C6.56445 7.11719 6.82617 7.13086 7.03711 7.13086C7.93945 7.13086 8.60547 6.97852 9.03516 6.67383C9.36719 6.44727 9.5625 6.10156 9.62109 5.63672C9.24609 5.8125 8.83984 5.9375 8.40234 6.01172C7.96875 6.08594 7.41992 6.12305 6.75586 6.12305H6.49805C6.18164 6.12305 5.83203 6.11719 5.44922 6.10547C4.24609 6.06641 3.25391 5.89258 2.47266 5.58398C1.46875 5.18945 0.9375 4.52734 0.878906 3.59766V3.48047C0.878906 2.51172 1.36328 1.79883 2.33203 1.3418C3.13672 0.962891 4.19531 0.740234 5.50781 0.673828C6.07031 0.646484 6.58008 0.632812 7.03711 0.632812C7.30664 0.632812 7.62891 0.638672 8.00391 0.650391C8.37891 0.658203 8.77344 0.689453 9.1875 0.744141C9.60547 0.794922 10.0195 0.878906 10.4297 0.996094C10.8398 1.11328 11.2188 1.27734 11.5664 1.48828C11.9844 1.75 12.3262 2.05664 12.5918 2.4082C12.8574 2.75977 13.0527 3.15039 13.1777 3.58008C13.3027 4.00977 13.3652 4.46875 13.3652 4.95703C13.3652 5.96875 13.1074 6.81836 12.5918 7.50586C12.3262 7.85742 11.9844 8.16602 11.5664 8.43164C10.6992 8.95117 9.51172 9.22852 8.00391 9.26367C7.62891 9.27539 7.30664 9.28125 7.03711 9.28125C6.76367 9.28125 6.4375 9.27539 6.05859 9.26367C5.67969 9.25586 5.2793 9.22656 4.85742 9.17578ZM9.12891 3.95508C9.30078 3.84961 9.38672 3.70117 9.38672 3.50977C9.38672 3.25977 9.23633 3.08398 8.93555 2.98242C8.61914 2.89648 8.28516 2.84375 7.93359 2.82422C7.58203 2.80078 7.25391 2.78906 6.94922 2.78906C6.46094 2.78906 6.05273 2.80859 5.72461 2.84766C5.37695 2.88281 5.11719 2.95312 4.94531 3.05859C4.77344 3.16016 4.6875 3.31055 4.6875 3.50977C4.6875 3.71289 4.77344 3.86719 4.94531 3.97266C5.11719 4.07422 5.37109 4.14453 5.70703 4.18359C6.04688 4.21875 6.46094 4.23633 6.94922 4.23633H7.11914C7.60742 4.23633 8.01562 4.2168 8.34375 4.17773C8.69141 4.13477 8.95312 4.06055 9.12891 3.95508Z" fill="#191818"/>
</svg>
