<svg width="24" height="24" viewBox="0 0 24 24" fill="none" xmlns="http://www.w3.org/2000/svg">
<path d="M18.7453 12.9287C18.5469 12.9287 18.3394 12.8653 18.141 12.82C17.7392 12.731 17.3444 12.613 16.9595 12.4667C16.5412 12.3138 16.0812 12.3217 15.6683 12.489C15.2554 12.6562 14.9187 12.9709 14.7229 13.3725L14.5245 13.7802C13.646 13.2894 12.8388 12.6798 12.1254 11.9684C11.4172 11.2519 10.8103 10.4411 10.3217 9.55881L10.7005 9.30517C11.1003 9.10852 11.4137 8.77028 11.5802 8.35553C11.7467 7.94079 11.7546 7.47885 11.6023 7.0586C11.4591 6.67127 11.3416 6.27484 11.2506 5.87191C11.2055 5.67261 11.1694 5.46426 11.1424 5.25591C11.0329 4.61783 10.7001 4.04 10.2041 3.62646C9.70804 3.21293 9.0813 2.99087 8.43672 3.00029H5.73106C5.34238 2.99662 4.95747 3.07712 4.60254 3.2363C4.24761 3.39547 3.931 3.62959 3.67425 3.92272C3.4175 4.21585 3.22665 4.5611 3.11468 4.93497C3.00271 5.30885 2.97226 5.70256 3.0254 6.08932C3.50587 9.88437 5.23144 13.4105 7.92955 16.1107C10.6277 18.8109 14.1445 20.5312 17.9246 21H18.2673C18.9323 21.001 19.5745 20.7559 20.0711 20.3115C20.3564 20.0552 20.5843 19.741 20.7398 19.3896C20.8952 19.0383 20.9747 18.6578 20.9729 18.2733V15.5557C20.9619 14.9265 20.7338 14.3206 20.3275 13.8415C19.9212 13.3624 19.362 13.0397 18.7453 12.9287ZM19.1962 18.3639C19.1961 18.4925 19.1686 18.6196 19.1158 18.7368C19.0629 18.8539 18.9858 18.9584 18.8896 19.0433C18.7888 19.1307 18.671 19.196 18.5436 19.235C18.4163 19.274 18.2822 19.2858 18.15 19.2698C14.7724 18.8348 11.635 17.2827 9.23283 14.8584C6.83064 12.4341 5.30033 9.27558 4.88329 5.88097C4.86894 5.74827 4.88152 5.61403 4.92027 5.48636C4.95902 5.35869 5.02314 5.24023 5.10876 5.13815C5.19328 5.04152 5.29731 4.96408 5.41394 4.91097C5.53057 4.85787 5.65712 4.83032 5.78518 4.83015H8.49083C8.70057 4.82546 8.90536 4.89436 9.06998 5.02498C9.23459 5.1556 9.34872 5.33977 9.39272 5.54579C9.4288 5.7934 9.47389 6.03798 9.528 6.27955C9.63219 6.75708 9.77085 7.22635 9.94287 7.68365L8.68023 8.27247C8.57227 8.32222 8.47516 8.3929 8.39448 8.48046C8.31379 8.56801 8.25111 8.67071 8.21005 8.78266C8.16899 8.8946 8.15035 9.0136 8.1552 9.1328C8.16005 9.252 8.18829 9.36907 8.23831 9.47728C9.5363 12.2699 11.7712 14.5147 14.5515 15.8184C14.7711 15.909 15.0174 15.909 15.2369 15.8184C15.3494 15.778 15.4528 15.7155 15.541 15.6347C15.6293 15.5538 15.7007 15.4561 15.751 15.3473L16.3102 14.0791C16.7764 14.2466 17.2523 14.3857 17.7352 14.4958C17.9757 14.5502 18.2192 14.5955 18.4657 14.6317C18.6708 14.6759 18.8542 14.7905 18.9842 14.9559C19.1143 15.1212 19.1829 15.3269 19.1782 15.5376L19.1962 18.3639ZM20.9278 3.58005C20.8363 3.3587 20.6612 3.1828 20.4408 3.09087C20.3324 3.04446 20.216 3.01984 20.0981 3.0184H16.4906C16.2514 3.0184 16.022 3.11384 15.8528 3.28373C15.6837 3.45361 15.5887 3.68403 15.5887 3.92428C15.5887 4.16453 15.6837 4.39494 15.8528 4.56483C16.022 4.73471 16.2514 4.83015 16.4906 4.83015H17.9155L14.9483 7.81954C14.7804 7.98926 14.6861 8.21886 14.6861 8.45818C14.6861 8.69749 14.7804 8.92709 14.9483 9.09682C15.1173 9.26554 15.3459 9.36024 15.5842 9.36024C15.8224 9.36024 16.051 9.26554 16.22 9.09682L19.1962 6.11649V7.54777C19.1962 7.78803 19.2912 8.01844 19.4604 8.18832C19.6295 8.35821 19.8589 8.45365 20.0981 8.45365C20.3373 8.45365 20.5667 8.35821 20.7358 8.18832C20.905 8.01844 21 7.78803 21 7.54777V3.92428C20.9986 3.8059 20.9741 3.68895 20.9278 3.58005Z" fill="#3C4043"/>
</svg>
