<svg width="42" height="41" viewBox="0 0 42 41" fill="none" xmlns="http://www.w3.org/2000/svg">
<path d="M12.8702 32.8189C12.812 32.6866 12.7431 32.5543 12.7008 32.4061C12.5103 31.8027 12.7643 31.1781 13.3201 30.8764C13.8599 30.58 14.548 30.707 14.945 31.1781C15.342 31.6492 15.3525 32.3267 14.9715 32.8348C14.6221 33.3006 13.9288 33.454 13.3783 33.2C13.3042 33.1682 13.2248 33.1312 13.1507 33.0994C13.0554 33.0042 12.9654 32.9142 12.8702 32.8189Z" fill="#BCBCBC"/>
<path d="M13.1424 8.28725C13.2271 8.24491 13.3118 8.21315 13.3965 8.1708C13.9681 7.91675 14.6562 8.0967 14.9897 8.58894C15.3655 9.13411 15.3072 9.82748 14.8573 10.2774C14.4074 10.7273 13.7088 10.7802 13.1689 10.4097C12.682 10.071 12.4967 9.37758 12.7561 8.81124C12.7984 8.72656 12.8302 8.64187 12.8725 8.55719C12.9572 8.4725 13.0525 8.37723 13.1424 8.28725Z" fill="#BCBCBC"/>
<path d="M8.9099 12.5187C8.984 12.4869 9.06339 12.4498 9.1322 12.4128C9.70912 12.1429 10.4131 12.3175 10.7571 12.8204C11.1276 13.3602 11.0747 14.0589 10.6248 14.5088C10.1696 14.964 9.46036 15.0169 8.9099 14.6252C8.42824 14.2812 8.25887 13.5825 8.52352 13.0215C8.55527 12.9474 8.59232 12.868 8.62408 12.7939C8.72465 12.7039 8.81992 12.6086 8.9099 12.5187Z" fill="#BCBCBC"/>
<path d="M8.63 28.5761C8.59824 28.5126 8.57177 28.4438 8.53472 28.3749C8.2542 27.8086 8.41828 27.0941 8.91052 26.7394C9.45569 26.3531 10.1702 26.4007 10.6254 26.8559C11.0859 27.3164 11.1335 28.0309 10.7419 28.5708C10.3872 29.063 9.67269 29.2271 9.11165 28.9413C9.04813 28.9095 8.97933 28.8831 8.91052 28.846C8.81525 28.7613 8.71997 28.6661 8.63 28.5761Z" fill="#BCBCBC"/>
<path d="M18.7091 18.7755C19.7465 19.8235 19.7465 21.549 18.6985 22.5864C17.6452 23.6291 15.9303 23.6291 14.8876 22.5864C13.8396 21.5384 13.8396 19.7918 14.8982 18.7544C15.9515 17.7222 17.677 17.7328 18.7091 18.7755Z" fill="#3C4045"/>
<path d="M22.9132 26.8715C21.8335 27.8984 20.1186 27.8772 19.097 26.8239C18.0596 25.7442 18.0861 24.0028 19.15 22.9919C20.2244 21.9703 21.9499 22.0021 22.9608 23.0554C23.993 24.1298 23.9665 25.8606 22.9132 26.8715Z" fill="#3C4045"/>
<path d="M27.1737 22.6153C26.1204 23.6474 24.3949 23.6474 23.3628 22.6047C22.3201 21.5515 22.3254 19.7995 23.384 18.7727C24.4479 17.7406 26.1681 17.7564 27.1949 18.8044C28.2323 19.863 28.2164 21.5832 27.1737 22.6153Z" fill="#3C4045"/>
<path d="M22.9673 14.5652C23.9995 15.6185 23.9783 17.344 22.925 18.3761C21.8664 19.4135 20.1357 19.3976 19.1141 18.3443C18.0714 17.2699 18.0873 15.5391 19.1565 14.5123C20.215 13.4854 21.9299 13.5066 22.9673 14.5652Z" fill="#3C4045"/>
<path d="M26.2608 13.7028C25.5727 14.3909 24.4559 14.3962 23.7731 13.7028C23.0851 13.0147 23.0904 11.8979 23.7784 11.2098C24.4612 10.5376 25.5568 10.5324 26.2502 11.2151C26.9436 11.8979 26.9489 13.0147 26.2608 13.7028Z" fill="#828282"/>
<path d="M28.0087 25.9137C27.3207 25.2257 27.3259 24.1089 28.0193 23.4261C28.718 22.738 29.8189 22.7486 30.5123 23.442C31.1845 24.1247 31.1845 25.2257 30.507 25.9137C29.8083 26.6018 28.6968 26.6018 28.0087 25.9137Z" fill="#828282"/>
<path d="M14.0511 25.9215C13.363 26.6096 12.2462 26.6043 11.5634 25.911C10.8806 25.2176 10.8912 24.1061 11.5846 23.4233C12.2674 22.7511 13.3736 22.7564 14.0564 23.4392C14.7392 24.122 14.7392 25.2335 14.0511 25.9215Z" fill="#828282"/>
<path d="M15.8044 13.7106C15.1163 13.0225 15.1163 11.911 15.8044 11.2229C16.4978 10.5402 17.6093 10.5402 18.2921 11.2335C18.9695 11.9216 18.9695 13.0119 18.2868 13.7053C17.6093 14.3934 16.4925 14.3987 15.8044 13.7106Z" fill="#828282"/>
<path d="M14.0563 15.4626C14.7444 16.1507 14.7391 17.2675 14.0457 17.9502C13.3577 18.6277 12.2567 18.6277 11.5793 17.9502C10.8912 17.2622 10.8806 16.1507 11.574 15.4573C12.2567 14.7745 13.3683 14.7745 14.0563 15.4626Z" fill="#828282"/>
<path d="M28.0048 15.4679C28.6929 14.7693 29.7991 14.764 30.4924 15.4574C31.1858 16.1401 31.1858 17.2622 30.4977 17.9503C29.8097 18.6384 28.6929 18.6331 28.0101 17.9397C27.3273 17.2569 27.3273 16.156 28.0048 15.4679Z" fill="#828282"/>
<path d="M26.2661 27.6763C26.9542 28.3644 26.9436 29.4865 26.245 30.1639C25.541 30.8467 24.4401 30.8361 23.752 30.1375C23.0798 29.4547 23.0904 28.3432 23.7679 27.6657C24.4666 26.9776 25.5728 26.9829 26.2661 27.6763Z" fill="#828282"/>
<path d="M15.8175 27.6552C16.5003 26.983 17.6012 26.983 18.2893 27.6604C18.9826 28.3432 18.9826 29.4653 18.2946 30.1534C17.6065 30.8415 16.4897 30.8362 15.8016 30.1481C15.1135 29.4494 15.1241 28.3485 15.8175 27.6552Z" fill="#828282"/>
<path d="M32.0207 19.4214C32.7299 18.7439 33.8414 18.7651 34.5083 19.4744C35.1752 20.1836 35.1593 21.2686 34.466 21.9408C33.762 22.6236 32.6558 22.6077 31.9783 21.9091C31.2955 21.2051 31.3167 20.0936 32.0207 19.4214Z" fill="#BCBCBC"/>
<path d="M22.2802 34.1298C21.5974 34.8232 20.4859 34.8338 19.7926 34.1404C19.0992 33.4576 19.0992 32.3461 19.7926 31.6527C20.4753 30.97 21.5657 30.9594 22.2591 31.6422C22.963 32.3249 22.9683 33.4312 22.2802 34.1298Z" fill="#BCBCBC"/>
<path d="M22.2803 9.72361C21.5922 10.4223 20.486 10.4276 19.7926 9.73419C19.0992 9.04083 19.0939 7.93461 19.7926 7.24654C20.4754 6.56375 21.5657 6.56375 22.2591 7.23595C22.9578 7.91344 22.9683 9.02495 22.2803 9.72361Z" fill="#BCBCBC"/>
<path d="M10.072 21.9319C9.38388 22.6306 8.27766 22.6253 7.5843 21.9319C6.89622 21.2438 6.90151 20.127 7.59488 19.4443C8.28296 18.7668 9.368 18.7615 10.0614 19.4443C10.76 20.1323 10.7653 21.2385 10.072 21.9319Z" fill="#BCBCBC"/>
<path d="M31.4278 14.5129C30.9303 14.0048 30.9356 13.1738 31.4384 12.671C31.9412 12.1681 32.7775 12.1681 33.2803 12.671C33.7885 13.1791 33.7832 14.0312 33.2698 14.5341C32.7616 15.0316 31.9307 15.0263 31.4278 14.5129Z" fill="#BCBCBC"/>
<path d="M29.046 31.0929C29.5488 31.5957 29.5488 32.432 29.0513 32.9401C28.5432 33.4482 27.6857 33.4482 27.1882 32.9295C26.6907 32.4214 26.7013 31.5851 27.2094 31.0876C27.7122 30.5848 28.5432 30.5901 29.046 31.0929Z" fill="#BCBCBC"/>
<path d="M29.046 10.2892C28.5431 10.792 27.7069 10.792 27.204 10.2892C26.7012 9.78637 26.6959 8.95539 27.1935 8.44727C27.6963 7.93386 28.5537 7.93386 29.0565 8.44727C29.5541 8.95539 29.5488 9.78637 29.046 10.2892Z" fill="#BCBCBC"/>
<path d="M31.457 26.8481C31.9651 26.3506 32.8066 26.3665 33.3042 26.8746C33.8017 27.3827 33.7911 28.219 33.2883 28.7218C32.7749 29.2246 31.928 29.2141 31.4252 28.6901C30.9224 28.1766 30.9383 27.3457 31.457 26.8481Z" fill="#BCBCBC"/>
</svg>
