<svg width="32" height="21" viewBox="0 0 32 21" fill="none" xmlns="http://www.w3.org/2000/svg">
<circle cx="12.1219" cy="11.743" r="2.00866" fill="#828282"/>
<circle cx="19.9501" cy="11.743" r="2.00866" fill="#828282"/>
<circle cx="27.7743" cy="11.743" r="2.00866" fill="#828282"/>
<circle cx="4.29381" cy="11.743" r="2.00866" fill="#828282"/>
<ellipse cx="2.391" cy="17.6332" rx="1.52381" ry="1.52381" fill="#383838"/>
<circle cx="9.24665" cy="17.7388" r="2.28571" fill="#383838"/>
<circle cx="16.106" cy="17.7388" r="2.28571" fill="#383838"/>
<circle cx="22.856" cy="17.7388" r="2.28571" fill="#383838"/>
<circle cx="29.7154" cy="17.7388" r="2.28571" fill="#383838"/>
<circle cx="2.28571" cy="17.7388" r="2.28571" fill="#383838"/>
<ellipse cx="22.9613" cy="17.6332" rx="1.52381" ry="1.52381" fill="#383838"/>
<ellipse cx="29.8168" cy="17.6332" rx="1.52381" ry="1.52381" fill="#383838"/>
<circle cx="6.05041" cy="6.46057" r="1.47619" fill="#BCBCBC"/>
<circle cx="11.2184" cy="6.46057" r="1.47619" fill="#BCBCBC"/>
<circle cx="16.3824" cy="6.46057" r="1.47619" fill="#BCBCBC"/>
<circle cx="21.5504" cy="6.46057" r="1.47619" fill="#BCBCBC"/>
<circle cx="26.7184" cy="6.46057" r="1.47619" fill="#BCBCBC"/>
<circle cx="7.82907" cy="1.94626" r="0.969697" fill="#BCBCBC"/>
<circle cx="12.1924" cy="1.94626" r="0.969697" fill="#BCBCBC"/>
<circle cx="16.5556" cy="1.94626" r="0.969697" fill="#BCBCBC"/>
<circle cx="20.7783" cy="1.94626" r="0.969697" fill="#BCBCBC"/>
<circle cx="25.1416" cy="1.94626" r="0.969697" fill="#BCBCBC"/>
</svg>
