<svg width="72" height="71" viewBox="0 0 72 71" fill="none" xmlns="http://www.w3.org/2000/svg">
<mask id="mask0_2647_32853" style="mask-type:alpha" maskUnits="userSpaceOnUse" x="0" y="0" width="72" height="71">
<path d="M1.633 43.2811C1.19668 43.2811 0.803985 42.9756 0.716721 42.5284C-0.0904783 38.5251 -0.210465 34.4673 0.367664 30.4531C0.923976 26.5808 2.11296 22.8502 3.90189 19.3487C4.14186 18.8905 4.69818 18.7051 5.15632 18.9451C5.61446 19.1851 5.79989 19.7414 5.55991 20.1995C3.85825 23.5156 2.73472 27.0498 2.21113 30.7149C1.66573 34.511 1.77481 38.3615 2.53837 42.1466C2.63655 42.6484 2.3093 43.1393 1.80753 43.2483C1.75299 43.2702 1.69845 43.2811 1.633 43.2811Z" fill="#067AFF"/>
<path d="M7.61074 16.0621C7.41439 16.0621 7.22896 16.0075 7.06534 15.8875C6.65083 15.5821 6.55265 15.004 6.85808 14.5786C12.094 7.40104 19.7842 2.47057 28.5107 0.71437C36.2445 -0.845489 44.0765 0.158057 51.145 3.63774C51.6031 3.86681 51.7995 4.42312 51.5704 4.89217C51.3413 5.35031 50.785 5.54666 50.316 5.31759C43.6293 2.02334 36.2118 1.06343 28.8815 2.54693C20.6132 4.21587 13.3375 8.87363 8.37431 15.6803C8.18887 15.9312 7.90526 16.0621 7.61074 16.0621Z" fill="#067AFF"/>
<path d="M69.3982 29.6123C68.9619 29.6123 68.5692 29.3069 68.4819 28.8597C66.7693 20.3732 61.9261 12.9557 54.8359 7.98158C54.4104 7.68706 54.3123 7.09802 54.6068 6.68352C54.9013 6.2581 55.4903 6.15993 55.9049 6.45445C63.3878 11.7012 68.5037 19.5333 70.3036 28.4888C70.4017 28.9906 70.0745 29.4814 69.5727 29.5905C69.5291 29.6123 69.4636 29.6123 69.3982 29.6123Z" fill="#067AFF"/>
<path d="M70.1092 37.1367C70.0983 37.1367 70.0983 37.1367 70.0874 37.1367C69.5747 37.1257 69.1602 36.7003 69.1711 36.1876C69.2147 33.7442 68.9965 31.2681 68.5057 28.8574C68.4075 28.3556 68.7348 27.8648 69.2365 27.7557C69.7383 27.6575 70.2292 27.9848 70.3382 28.4865C70.8509 31.0281 71.0909 33.6351 71.0364 36.2204C71.0255 36.733 70.611 37.1367 70.1092 37.1367Z" fill="#067AFF"/>
<path d="M1.99139 44.7545C1.57688 44.7545 1.1951 44.4709 1.08602 44.0455C0.955122 43.5328 0.84604 43.0201 0.747867 42.5293C0.649694 42.0275 0.976935 41.5366 1.47871 41.4276C1.98048 41.3294 2.47135 41.6566 2.58043 42.1584C2.6786 42.6274 2.78768 43.1074 2.90767 43.5983C3.02766 44.1 2.72223 44.6018 2.22046 44.7327C2.14411 44.7436 2.06775 44.7545 1.99139 44.7545Z" fill="#067AFF"/>
<path d="M26.5947 69.8435C26.3765 69.8435 26.1583 69.7671 25.9838 69.6144C25.602 69.2763 25.5584 68.6872 25.8965 68.2945C29.6816 63.9858 32.485 58.8045 34.0012 53.3068C35.5938 47.5364 35.8011 41.6133 34.6121 35.7011C34.5139 35.1994 34.8412 34.7085 35.3429 34.5994C35.8447 34.5013 36.3356 34.8285 36.4447 35.3303C37.6991 41.537 37.4809 47.7437 35.8011 53.7977C34.2085 59.5681 31.2633 65.0112 27.2928 69.5272C27.1182 69.7344 26.8564 69.8435 26.5947 69.8435Z" fill="#067AFF"/>
<path d="M22.1388 68.3179C21.8988 68.3179 21.6698 68.2306 21.4843 68.0561C21.1135 67.6961 21.1025 67.1071 21.4625 66.7362C24.6477 63.4747 27.102 59.6678 28.76 55.4136C28.9455 54.9336 29.4909 54.6937 29.9708 54.8791C30.4508 55.0645 30.6908 55.6099 30.5053 56.0899C28.76 60.5731 26.1639 64.5873 22.8042 68.0343C22.6188 68.2197 22.3788 68.3179 22.1388 68.3179Z" fill="#067AFF"/>
<path d="M31.437 70.7713C31.2406 70.7713 31.0334 70.7058 30.8588 70.5749C30.4552 70.2586 30.3789 69.6696 30.6952 69.266C38.32 59.5141 41.287 46.9589 38.8436 34.84L38.7781 34.5237C38.549 33.7601 38.0691 33.1056 37.4037 32.6693C36.6401 32.1675 35.7348 31.9821 34.8403 32.1675C33.1495 32.5057 32.0042 34.0546 32.1133 35.7236L32.2005 36.1817C33.1713 41.0031 33.1495 45.8572 32.1242 50.6349C32.0151 51.1367 31.5242 51.4639 31.0115 51.3549C30.5098 51.2458 30.1825 50.7549 30.2916 50.2422C31.197 46.0208 31.2733 41.723 30.5316 37.4579H30.5098L30.3243 36.5635C29.7462 33.7165 31.6006 30.924 34.4585 30.3459C35.8438 30.0622 37.251 30.3459 38.4181 31.1203C39.5962 31.9057 40.3925 33.0947 40.6761 34.4691L40.8397 35.2872L40.8179 35.2981C43.0759 47.7006 39.9453 60.4522 32.1569 70.4222C31.9824 70.6513 31.7097 70.7713 31.437 70.7713Z" fill="#067AFF"/>
<path d="M18.0453 66.2613C17.7944 66.2613 17.5435 66.1631 17.3581 65.9668C17.009 65.585 17.0308 64.9959 17.4017 64.6469C24.3393 58.1565 27.7317 48.6774 26.4555 39.2855C26.39 38.7728 26.7391 38.3038 27.2517 38.2383C27.7644 38.1729 28.2335 38.522 28.2989 39.0346C29.6515 49.0156 26.0519 59.1055 18.6671 66.0104C18.5034 66.174 18.2744 66.2613 18.0453 66.2613Z" fill="#067AFF"/>
<path d="M44.9538 44.0561C44.4412 44.0561 44.0266 43.6415 44.0157 43.1289C44.0048 40.0855 43.6994 37.0203 43.0886 33.9988L43.0122 33.6388C42.5431 31.7735 41.4087 30.1591 39.7943 29.0901C38.0708 27.9448 36.0092 27.5412 33.9912 27.9557C30.9588 28.5666 28.5808 30.9227 27.9481 33.9552C27.839 34.4569 27.3482 34.7842 26.8464 34.6751C26.3446 34.566 26.0174 34.0751 26.1265 33.5734C26.9118 29.8101 29.857 26.8867 33.6203 26.1231C36.1292 25.6214 38.6926 26.1231 40.8306 27.5412C42.9686 28.9592 44.4193 31.1191 44.9211 33.6388L45.0738 34.3915L45.0629 34.4024C45.5974 37.293 45.8701 40.2382 45.881 43.1507C45.881 43.6306 45.4665 44.0451 44.9538 44.0561Z" fill="#067AFF"/>
<path d="M36.6363 71.0009C36.4509 71.0009 36.2763 70.9463 36.1127 70.8372C35.6873 70.5427 35.5782 69.9646 35.8727 69.5392C40.1596 63.267 42.8757 55.9913 43.7375 48.4975C43.792 47.9848 44.2611 47.6139 44.7738 47.6794C45.2864 47.7339 45.6573 48.203 45.5919 48.7156C44.6974 56.5149 41.8722 64.0851 37.4108 70.5973C37.2253 70.8591 36.9308 71.0009 36.6363 71.0009Z" fill="#067AFF"/>
<path d="M14.3546 63.7789C14.0928 63.7789 13.831 63.6699 13.6455 63.4517C13.3074 63.059 13.351 62.47 13.7437 62.1318C17.0379 59.2739 19.5468 55.5979 20.9867 51.4855C22.372 47.5368 22.7429 43.2935 22.0666 39.1485H22.0557L21.8811 38.2649C21.1503 34.6216 21.8702 30.9128 23.9319 27.8149C25.9935 24.717 29.1241 22.6118 32.7674 21.8809C34.0328 21.6301 35.3199 21.5428 36.6071 21.641C37.1198 21.6846 37.5015 22.1318 37.4688 22.6445C37.4252 23.1572 36.978 23.539 36.4653 23.5062C35.3636 23.419 34.24 23.4844 33.1383 23.7135C29.9859 24.3462 27.2697 26.1787 25.4917 28.8512C23.8555 31.3164 23.1901 34.2289 23.5937 37.1414L23.7464 37.894C24.7063 42.65 24.3682 47.5586 22.7647 52.1182C21.2048 56.536 18.5214 60.4847 14.9763 63.5499C14.7909 63.7026 14.5727 63.7789 14.3546 63.7789Z" fill="#067AFF"/>
<path d="M42.1445 70.3661C41.9809 70.3661 41.8173 70.3225 41.6754 70.2352C41.2282 69.9734 41.0864 69.4062 41.3373 68.9589C47.6749 58.149 49.802 45.4193 47.3259 33.1258L47.2495 32.7222C46.475 29.4389 44.3479 26.6355 41.3918 24.9775C40.9446 24.7266 40.781 24.1594 41.0319 23.7121C41.2828 23.2649 41.85 23.1013 42.2972 23.3522C45.8533 25.3375 48.3621 28.7626 49.1693 32.755L49.333 33.5513H49.3221C51.6455 46.0519 49.3984 58.9235 42.9626 69.897C42.7772 70.2025 42.4608 70.3661 42.1445 70.3661Z" fill="#067AFF"/>
<path d="M11.0775 60.8783C10.8048 60.8783 10.543 60.7583 10.3576 60.5401C10.0303 60.1365 10.0848 59.5584 10.4884 59.2312C13.2482 56.9623 15.3971 54.0062 16.6952 50.6792C16.8806 50.1993 17.426 49.9593 17.906 50.1447C18.3859 50.3302 18.6259 50.8756 18.4405 51.3555C17.0333 54.9879 14.6881 58.2167 11.6774 60.6819C11.5029 60.8019 11.2847 60.8783 11.0775 60.8783Z" fill="#067AFF"/>
<path d="M52.8542 53.25C52.7996 53.25 52.756 53.25 52.7015 53.239C52.1888 53.1518 51.8506 52.6718 51.927 52.1701C53.0069 45.5816 52.8869 38.8949 51.5561 32.2846L51.5016 32.0337C50.5962 27.8559 48.1419 24.2562 44.5749 21.8892C40.9316 19.4676 36.5684 18.6167 32.2924 19.4785C28.0055 20.3402 24.3186 22.8273 21.897 26.4597C19.639 29.863 18.7445 33.899 19.3445 37.9132L19.5081 38.7422C19.9662 41.022 20.0753 43.3236 19.8244 45.6034C19.7699 46.1161 19.3118 46.4869 18.7991 46.4324C18.2864 46.3779 17.9155 45.9197 17.9701 45.407C18.1664 43.6181 18.1119 41.8183 17.8392 40.0293L17.6537 39.1131C16.6938 34.3353 17.6428 29.4812 20.3371 25.4234C23.0314 21.3656 27.1438 18.6058 31.9215 17.6459C36.6884 16.686 41.5534 17.635 45.6112 20.3293C49.669 23.0236 52.4287 27.136 53.3887 31.9137L53.4759 32.35C54.774 39.0367 54.8722 45.7997 53.7704 52.4755C53.705 52.9227 53.3014 53.25 52.8542 53.25Z" fill="#067AFF"/>
<path d="M47.925 68.7114C47.7832 68.7114 47.6523 68.6787 47.5214 68.6132C47.0633 68.3842 46.8669 67.8278 47.096 67.3697C48.6449 64.1955 49.8885 60.8576 50.8047 57.4543C50.9356 56.9525 51.4483 56.658 51.9501 56.7889C52.4519 56.9198 52.7464 57.4324 52.6155 57.9342C51.6774 61.4466 50.3902 64.8936 48.7867 68.1769C48.6013 68.526 48.2741 68.7114 47.925 68.7114Z" fill="#067AFF"/>
<path d="M53.9364 65.7021C53.8273 65.7021 53.7182 65.6803 53.5982 65.6366C53.1183 65.4512 52.8783 64.9167 53.0637 64.4368C57.0561 53.9977 58.016 42.6642 55.8453 31.6579L55.8016 31.4179C55.2017 28.4727 54.0127 25.7457 52.2565 23.335C51.9511 22.9205 52.0493 22.3315 52.4638 22.0261C52.8783 21.7206 53.4673 21.8188 53.7727 22.2333C55.6162 24.764 56.8816 27.5892 57.5579 30.6653L57.6342 31.0471C59.9358 42.4787 58.965 54.2486 54.8199 65.0912C54.6672 65.473 54.3181 65.7021 53.9364 65.7021Z" fill="#067AFF"/>
<path d="M49.2257 19.7299C49.0184 19.7299 48.8112 19.6644 48.6367 19.5226C43.8153 15.5739 37.5431 14.014 31.4346 15.2466C29.8638 15.563 28.3367 16.0647 26.8859 16.7192C26.4169 16.9374 25.8606 16.7301 25.6533 16.2611C25.4351 15.792 25.6424 15.2357 26.1114 15.0285C27.6822 14.3085 29.3511 13.7631 31.0637 13.425C37.7177 12.0833 44.557 13.7849 49.8147 18.0936C50.2183 18.4209 50.2729 19.0099 49.9456 19.4026C49.7602 19.6208 49.4875 19.7299 49.2257 19.7299Z" fill="#067AFF"/>
<path d="M8.22075 57.6464C7.94805 57.6464 7.67534 57.5264 7.4899 57.2974C7.16266 56.8938 7.22811 56.3047 7.63171 55.9884C12.2349 52.2906 14.4711 46.4874 13.5766 40.7062L13.4348 39.9753C11.7768 31.7288 14.7983 23.3077 21.3323 18.0064C21.7359 17.6792 22.3249 17.7446 22.6413 18.1373C22.9685 18.5409 22.9031 19.1299 22.5104 19.4463C16.7291 24.1368 13.9475 31.4779 15.1147 38.7754L15.2783 39.5935C16.6309 46.302 14.1548 53.1414 8.80979 57.4283C8.63526 57.581 8.428 57.6464 8.22075 57.6464Z" fill="#067AFF"/>
<path d="M5.77573 54.055C5.51393 54.055 5.25214 53.9459 5.0667 53.7278C4.72855 53.3351 4.78309 52.746 5.17578 52.4079C8.38276 49.6918 9.94262 45.5031 9.30995 41.3689L9.20087 40.8126C8.91726 39.4163 8.74273 37.9983 8.68819 36.5693C8.66637 36.0566 9.06997 35.6203 9.58265 35.5985C10.0953 35.5767 10.5317 35.9803 10.5535 36.493C10.5971 37.5401 10.7062 38.5982 10.8807 39.6345L11.0443 40.4417C12.0479 45.4158 10.259 50.5426 6.38658 53.8259C6.20114 53.9787 5.99389 54.055 5.77573 54.055Z" fill="#067AFF"/>
<path d="M61.5387 34.6779C61.0805 34.6779 60.6878 34.3397 60.6115 33.8816C60.4697 32.9217 60.306 31.9618 60.1206 31.0237L60.0224 30.5764C58.7026 24.0316 54.9174 18.3921 49.3543 14.6943C43.7912 10.9964 37.1263 9.68743 30.5815 11.0073C25.5419 12.0218 21.0151 14.5088 17.4808 18.2067C14.023 21.8172 11.7432 26.3223 10.8923 31.2309C10.8051 31.7436 10.3251 32.0818 9.81243 31.9945C9.29975 31.9072 8.9616 31.4273 9.04887 30.9146C9.96515 25.646 12.4086 20.8028 16.1282 16.9195C19.9352 12.949 24.8002 10.2656 30.2106 9.17475C37.2463 7.7567 44.4129 9.16384 50.3906 13.1344C56.1719 16.974 60.1751 22.7772 61.7132 29.5293H61.7241L61.8659 30.2056C62.095 31.3182 62.2913 32.4635 62.4659 33.6089C62.5422 34.1216 62.1931 34.5906 61.6805 34.667C61.6259 34.6779 61.5823 34.6779 61.5387 34.6779Z" fill="#067AFF"/>
<path d="M60.0653 60.799C59.989 60.799 59.9017 60.7881 59.8254 60.7662C59.3236 60.6353 59.0291 60.1227 59.16 59.6209C60.938 52.9778 61.6143 46.1167 61.178 39.2445C61.1452 38.7319 61.5379 38.2846 62.0506 38.2519C62.5633 38.2192 63.0105 38.6119 63.0433 39.1246C63.4905 46.193 62.7924 53.2506 60.9598 60.1008C60.8507 60.5154 60.4689 60.799 60.0653 60.799Z" fill="#067AFF"/>
<path d="M3.73553 50.0271C3.50646 50.0271 3.27739 49.9398 3.10287 49.7762C2.72108 49.4271 2.69927 48.8381 3.04832 48.4563C4.66272 46.711 5.39356 44.3112 5.02269 41.9878L4.95724 41.6715C3.31012 33.5122 4.94633 25.1893 9.54955 18.2518C14.1637 11.3142 21.1885 6.59101 29.3587 4.94389C32.7838 4.25668 36.2635 4.13669 39.6995 4.60574C40.2122 4.67119 40.5722 5.14024 40.4958 5.65292C40.4304 6.1656 39.9504 6.52556 39.4487 6.44921C36.2199 6.01288 32.9474 6.12196 29.7295 6.77645C22.0502 8.3254 15.4399 12.765 11.1094 19.288C6.87707 25.6584 5.31721 33.2722 6.69163 40.777L6.80071 41.3006C7.41156 44.3222 6.5171 47.4746 4.42274 49.7326C4.2373 49.9289 3.98642 50.0271 3.73553 50.0271Z" fill="#067AFF"/>
<path d="M66.0315 52.7001C65.9879 52.7001 65.9552 52.7001 65.9115 52.6892C65.3989 52.6237 65.0389 52.1547 65.1043 51.6529C65.9879 44.5627 65.7479 37.396 64.3844 30.3276L64.2535 29.7276C62.1591 19.3213 54.5671 10.8348 44.4444 7.59512C43.9535 7.44241 43.6808 6.90791 43.8444 6.41704C43.9972 5.92618 44.5317 5.65348 45.0225 5.8171C55.5052 9.17679 63.4354 17.816 65.9006 28.4841H65.9115L66.097 29.3568C67.6023 36.8179 67.8968 44.3881 66.9587 51.882C66.9042 52.351 66.5006 52.7001 66.0315 52.7001Z" fill="#067AFF"/>
</mask>
<g mask="url(#mask0_2647_32853)">
<rect x="-3.14844" y="-5.25781" width="83.2181" height="81.1114" fill="#CFD8E5"/>
<rect x="-3.14844" y="-5.25781" width="83.2181" height="81.1114" fill="url(#paint0_linear_2647_32853)"/>
</g>
<defs>
<linearGradient id="paint0_linear_2647_32853" x1="38.4606" y1="-1.57093" x2="38.4606" y2="75.8535" gradientUnits="userSpaceOnUse">
<stop stop-color="#067AFF"/>
<stop offset="1" stop-color="white" stop-opacity="0"/>
</linearGradient>
</defs>
</svg>
