<svg width="42" height="42" viewBox="0 0 42 42" fill="none" xmlns="http://www.w3.org/2000/svg">
<path d="M40.25 22.75V19.25" stroke="#FF7223" stroke-width="3.5" stroke-linecap="round" stroke-linejoin="round"/>
<path d="M8.75 31.5H5.25C4.32174 31.5 3.4315 31.1313 2.77513 30.4749C2.11875 29.8185 1.75 28.9283 1.75 28V14C1.75 13.0717 2.11875 12.1815 2.77513 11.5251C3.4315 10.8687 4.32174 10.5 5.25 10.5H10.8325M26.25 10.5H29.75C30.6783 10.5 31.5685 10.8687 32.2249 11.5251C32.8813 12.1815 33.25 13.0717 33.25 14V28C33.25 28.9283 32.8813 29.8185 32.2249 30.4749C31.5685 31.1313 30.6783 31.5 29.75 31.5H24.1675" stroke="#FF7223" stroke-width="3.5" stroke-linecap="round" stroke-linejoin="round"/>
<path d="M19.25 10.5L12.25 21H22.75L15.75 31.5" stroke="#FF7223" stroke-width="3.5" stroke-linecap="round" stroke-linejoin="round"/>
</svg>
