<svg width="129" height="119" viewBox="0 0 129 119" fill="none" xmlns="http://www.w3.org/2000/svg">
<path d="M44.846 28.3653C43.6823 29.529 42.5493 30.7079 41.355 31.8409C40.957 32.2237 40.934 32.4917 41.378 32.7979C41.9522 33.1883 41.7302 33.4869 41.3321 33.885C38.7215 36.4649 36.1493 39.0678 33.5387 41.6477C33.11 42.0764 32.8268 42.4056 33.4851 42.8496C33.9445 43.1558 33.776 43.4161 33.4545 43.7377C31.9464 45.2152 30.4612 46.7157 28.9684 48.2085C23.219 53.9731 22.8516 63.0526 28.1186 69.2843C33.2019 75.3015 42.2507 76.4345 48.7962 71.8489C49.5618 71.313 50.2814 70.7005 50.9398 70.0268C55.5331 65.4182 60.1341 60.8019 64.7504 56.2162C69.0299 51.9674 75.4759 51.2937 80.5821 54.532C87.2501 58.7502 88.4061 68.2967 82.8481 73.9312C75.0318 81.8394 44.1375 112.672 36.2753 120.535C36.0686 120.741 35.8313 120.933 35.6705 121.17C35.2341 121.805 35.2418 122.456 35.793 123.007C36.3442 123.559 36.9949 123.566 37.6303 123.13C37.8523 122.984 38.0207 122.77 38.2045 122.586C45.9978 114.793 76.8156 83.9906 84.6013 76.1896C90.3736 70.4173 90.7487 61.3301 85.497 55.1138C80.406 49.0736 71.4261 47.9329 64.8117 52.4956C64.0385 53.0239 63.3265 53.644 62.6604 54.31C58.0671 58.9186 53.4661 63.5349 48.8498 68.1206C43.7053 73.2345 35.5981 73.0891 30.5913 67.8374C26.0822 63.0833 26.0899 55.2363 30.6526 50.5205C32.222 48.8899 33.8449 47.3281 35.4296 45.7128C35.7512 45.3913 36.0115 45.2228 36.3177 45.6822C36.7617 46.3406 37.0909 46.0573 37.5196 45.6286C40.0766 43.041 42.6641 40.4841 45.2211 37.8965C45.6575 37.4601 45.9943 37.1998 46.4307 37.8505C46.7446 38.3175 47.0048 38.1185 47.3187 37.8046C48.4671 36.6257 49.6307 35.4773 50.802 34.3213C48.8116 32.3309 46.8288 30.3481 44.846 28.3653Z" fill="#A4B6CF"/>
<path d="M66.723 24.3427C67.4043 23.6919 68.078 23.0489 68.7517 22.3905C71.4082 19.734 74.0646 17.0775 76.7211 14.4211C77.8694 12.89 77.7776 11.512 76.4608 10.1952C73.9575 7.69184 71.4464 5.18082 68.9431 2.67745C67.5651 1.29946 65.9191 1.2918 64.5411 2.6698C61.2875 5.92341 58.0569 9.18468 54.8033 12.4383C58.7842 16.4039 62.7574 20.3771 66.723 24.3427Z" fill="#5D9BEB"/>
<path d="M66.7208 24.3458C62.7552 20.3802 58.782 16.407 54.8164 12.4414C52.9561 14.6539 51.0882 16.8587 49.2279 19.0711C47.781 20.7936 46.3723 22.5544 44.9178 24.2692C43.7541 25.6319 43.7082 26.9181 44.8412 28.3726C46.824 30.3554 48.8068 32.3382 50.7896 34.321C52.2441 35.454 53.5073 35.4004 54.893 34.2444C58.6365 31.1133 62.3877 28.0051 66.1466 24.8893C66.3533 24.7132 66.5294 24.5219 66.7208 24.3458Z" fill="#067AFF"/>
<path d="M95.7167 33.4589C93.4354 31.6216 91.1693 29.7843 88.888 27.9469C88.1148 27.3268 87.3262 26.7067 86.5683 26.0713C86.0325 25.612 85.5502 25.4359 85.0832 26.1479C85.0066 26.2704 84.8688 26.3469 84.7616 26.4388C83.4832 27.8244 82.1511 29.1565 80.7731 30.4273C79.7855 31.5221 79.8161 31.4914 80.7425 32.6321C82.9396 35.3345 85.0985 38.0752 87.2727 40.7853C87.4334 40.992 87.6172 41.1757 87.8009 41.3748C90.4344 38.7413 93.0756 36.1001 95.7167 33.4589Z" fill="#067AFF"/>
<path d="M76.7188 14.4219C74.0623 17.0783 71.4058 19.7348 68.7493 22.3913C70.0278 23.6698 71.3063 24.9483 72.5848 26.2114C73.8556 27.4823 75.3408 27.5282 76.6958 26.3416C78.0202 25.0172 79.3523 23.6851 80.6767 22.3607C81.8633 21.0057 81.8174 19.5205 80.5465 18.2497C79.2757 16.9788 77.9972 15.7004 76.7188 14.4219Z" fill="#CFD8E5"/>
<path d="M107.572 57.228C107.963 57.6184 108.399 57.9782 108.751 58.4069C111.561 61.829 115.327 63.9725 119.086 66.1237C120.104 66.7132 121.115 67.3257 122.271 67.7773C121.406 66.3151 120.533 64.8453 119.66 63.3754C119.132 62.495 118.543 61.6605 118.091 60.7342C116.889 58.2768 114.853 56.5313 112.985 54.6481C112.51 54.1734 112.035 53.6835 111.561 53.2088C110.236 54.5639 108.904 55.8959 107.572 57.228Z" fill="#A4B6CF"/>
<path d="M101.685 39.4346C100.827 38.5618 99.9545 37.6891 99.1047 36.8087C98.8214 36.5101 98.6224 36.4948 98.3162 36.801C95.9276 39.2049 93.5238 41.6087 91.1199 43.9972C90.8214 44.2958 90.8367 44.4949 91.1276 44.7858C92.0157 45.6279 92.8807 46.5083 93.7535 47.3657C96.4023 44.7169 99.0435 42.0757 101.685 39.4346Z" fill="#067AFF"/>
<path d="M107.649 45.4072C106.792 44.5345 105.919 43.6617 105.07 42.7813C104.786 42.4828 104.587 42.4675 104.281 42.7737C101.892 45.1775 99.4886 47.5814 97.0848 49.9699C96.7862 50.2685 96.8015 50.4675 97.0924 50.7584C97.9805 51.6006 98.8456 52.481 99.7183 53.3384C102.367 50.6896 105.008 48.0484 107.649 45.4072Z" fill="#067AFF"/>
<path d="M95.7151 33.4568C93.0739 36.098 90.4327 38.7391 87.7916 41.3803C88.5878 42.1918 89.4069 42.9956 90.1878 43.8224C90.5246 44.1746 90.739 44.2052 91.1064 43.8377C93.449 41.4645 95.8069 39.1066 98.1802 36.764C98.54 36.4042 98.5093 36.1745 98.1648 35.8453C97.3304 35.0721 96.5266 34.253 95.7151 33.4568Z" fill="#5D9BEB"/>
<path d="M101.688 39.4334C99.0466 42.0745 96.4054 44.7157 93.7642 47.3569C94.5604 48.1684 95.3795 48.9722 96.1604 49.799C96.4973 50.1511 96.7116 50.1818 97.0791 49.8143C99.4217 47.4411 101.78 45.0832 104.153 42.7406C104.513 42.3808 104.482 42.1511 104.138 41.8219C103.303 41.0487 102.507 40.2372 101.688 39.4334Z" fill="#5D9BEB"/>
<path d="M107.656 45.4023C105.015 48.0435 102.374 50.6847 99.7327 53.3259C100.69 54.2828 101.654 55.2321 102.611 56.189C105.245 53.5555 107.878 50.922 110.519 48.2808C109.562 47.3239 108.613 46.3593 107.656 45.4023Z" fill="#5D9BEB"/>
<path d="M110.52 48.2812C107.886 50.9148 105.253 53.5483 102.611 56.1894C103.775 56.7866 104.939 57.3837 106.102 57.9808C106.944 58.4095 107.052 57.4296 107.572 57.2306C108.904 55.8985 110.236 54.5664 111.568 53.2344C111.767 53.02 111.951 52.7903 112.173 52.599C112.464 52.354 112.51 52.109 112.319 51.7645C111.706 50.6162 111.117 49.4449 110.52 48.2812Z" fill="#067AFF"/>
<path d="M80.6797 22.3633C79.3553 23.6877 78.0232 25.0198 76.6988 26.3442C78.0232 27.6686 79.3553 29.0006 80.6797 30.325C82.0041 29.0006 83.3362 27.6686 84.6606 26.3442C83.3362 25.0198 82.0041 23.6877 80.6797 22.3633Z" fill="#A4B6CF"/>
<path d="M84.6646 26.3472C83.3402 27.6716 82.0081 29.0036 80.6837 30.328C80.7066 30.3663 80.7373 30.3969 80.7679 30.4276C82.1535 29.1491 83.4856 27.817 84.7564 26.439C84.7335 26.4007 84.6952 26.3778 84.6646 26.3472Z" fill="#E5E8EC"/>
</svg>
