<svg width="57" height="66" viewBox="0 0 57 66" fill="none" xmlns="http://www.w3.org/2000/svg">
<path fill-rule="evenodd" clip-rule="evenodd" d="M0.594434 37.627C0.794838 52.9707 13.316 65.3672 28.7085 65.3672C44.101 65.3672 56.6221 52.9707 56.8242 37.627L56.8242 1.0016L41.1404 1.0016L41.1404 37.627C41.0414 40.879 39.6726 43.9629 37.3271 46.2178C34.9817 48.4727 31.8464 49.7191 28.593 49.6901C25.3396 49.661 22.227 48.3587 19.9222 46.0623C17.6175 43.7658 16.304 40.658 16.2631 37.4047L16.2631 1.0016L0.589389 1.0016L0.589387 37.627L0.594434 37.627Z" fill="#DCE6F5"/>
<path fill-rule="evenodd" clip-rule="evenodd" d="M0.594434 37.627C0.794838 52.9707 13.316 65.3672 28.7085 65.3672C44.101 65.3672 56.6221 52.9707 56.8242 37.627L56.8242 1.0016L41.1404 1.0016L41.1404 37.627C41.0414 40.879 39.6726 43.9629 37.3271 46.2178C34.9817 48.4727 31.8464 49.7191 28.593 49.6901C25.3396 49.661 22.227 48.3587 19.9222 46.0623C17.6175 43.7658 16.304 40.658 16.2631 37.4047L16.2631 1.0016L0.589389 1.0016L0.589387 37.627L0.594434 37.627Z" fill="url(#paint0_linear_2639_34940)"/>
<mask id="mask0_2639_34940" style="mask-type:alpha" maskUnits="userSpaceOnUse" x="0" y="0" width="57" height="66">
<path fill-rule="evenodd" clip-rule="evenodd" d="M0.590528 37.6231C0.790932 52.9668 13.3121 65.3633 28.7046 65.3633C44.0971 65.3633 56.6182 52.9668 56.8203 37.6231L56.8203 0.997696L41.1365 0.997695L41.1365 37.6231C41.0375 40.8751 39.6686 43.959 37.3232 46.2139C34.9778 48.4688 31.8425 49.7152 28.5891 49.6862C25.3357 49.6571 22.2231 48.3548 19.9183 46.0584C17.6136 43.7619 16.3 40.6541 16.2592 37.4008L16.2592 0.997694L0.585483 0.997693L0.585481 37.6231L0.590528 37.6231Z" fill="#CFD8E5"/>
</mask>
<g mask="url(#mask0_2639_34940)">
<path d="M62.8047 -0.561062L62.8047 16.0625L37.5132 16.0625L37.5132 -0.561063L62.8047 -0.561062Z" fill="#067AFF"/>
<path d="M22.7852 -0.561062L22.7852 16.0625L-2.50637 16.0625L-2.50637 -0.561063L22.7852 -0.561062Z" fill="#FF6B62"/>
</g>
<path fill-rule="evenodd" clip-rule="evenodd" d="M9.255 9.14953L13.0273 9.14953L13.0273 7.43177L9.255 7.43177L9.255 3.65774L7.53556 3.65774L7.53556 7.43177L3.76322 7.43177L3.76322 9.14953L7.53556 9.14953L7.53556 12.9219L9.255 12.9219L9.255 9.14953Z" fill="white"/>
<path d="M53.5508 7.43067L53.5508 9.14844L44.2867 9.14844L44.2867 7.43067L53.5508 7.43067Z" fill="white"/>
<defs>
<linearGradient id="paint0_linear_2639_34940" x1="0.589386" y1="1" x2="0.589386" y2="65" gradientUnits="userSpaceOnUse">
<stop stop-color="#98BAE7"/>
<stop offset="0.75253" stop-color="#CFD8E5" stop-opacity="0"/>
</linearGradient>
</defs>
</svg>
