<svg width="55" height="56" viewBox="0 0 55 56" fill="none" xmlns="http://www.w3.org/2000/svg">
<path d="M48.7789 37.8686C51.4807 35.5792 53.5619 32.6458 54.8303 29.3395C54.5878 34.8259 52.6982 40.112 49.4078 44.5088C46.1173 48.9057 41.5786 52.2093 36.3833 53.9891C31.1879 55.7689 25.5769 55.9423 20.2815 54.4868C14.9862 53.0313 10.2521 50.0143 6.69637 45.8291C3.14062 41.6439 0.928123 36.4846 0.347252 31.0236C-0.233619 25.5627 0.844077 20.0534 3.43988 15.2139C6.03568 10.3743 10.0292 6.429 14.8999 3.89213C19.7706 1.35526 25.2925 0.344527 30.746 0.991638C27.5859 1.64866 24.6177 3.01914 22.0681 4.99847C19.5185 6.9778 17.455 9.51363 16.035 12.4123C14.6151 15.3109 13.8764 18.4957 13.8753 21.7234C13.8742 24.9511 14.6107 28.1364 16.0286 31.036C17.4466 33.9356 19.5083 36.4728 22.0566 38.4539C24.6048 40.435 27.5721 41.8075 30.7318 42.4667C33.8914 43.1259 37.16 43.0543 40.2878 42.2574C43.4155 41.4605 46.3199 39.9593 48.7789 37.8686Z" fill="#FFDC7B"/>
</svg>
