<svg width="59" height="66" viewBox="0 0 59 66" fill="none" xmlns="http://www.w3.org/2000/svg">
<path d="M29.5005 16.3398C25.6208 16.3395 21.8281 17.4903 18.602 19.6469C15.376 21.8034 12.8615 24.8688 11.3765 28.4553C9.89156 32.0419 9.50284 35.9885 10.2595 39.7961C11.0162 43.6037 12.8843 47.1013 15.6275 49.8465C18.3708 52.5918 21.866 54.4613 25.6712 55.2188C29.4763 55.9763 33.4205 55.5878 37.0049 54.1022C40.5894 52.6166 43.6531 50.1009 45.8086 46.873C47.9641 43.6451 49.1146 39.8501 49.1146 35.968H29.5005V16.3398Z" fill="#067AFF"/>
<path d="M53.2046 12.4628C53.3439 12.2964 53.4115 12.0815 53.3926 11.8653C53.3737 11.6491 53.2697 11.4492 53.1036 11.3096L49.6682 8.42661C49.5863 8.3573 49.4915 8.30486 49.3892 8.27232C49.2869 8.23978 49.1792 8.22777 49.0723 8.23698C48.9654 8.24619 48.8614 8.27645 48.7662 8.32601C48.671 8.37557 48.5865 8.44346 48.5176 8.52577L46.0181 11.5061C43.6303 9.8873 41.0171 8.62939 38.2628 7.77289V2.87366C38.2628 2.2493 38.0149 1.65052 37.5737 1.20904C37.1325 0.767555 36.5341 0.519531 35.9101 0.519531H23.0898C22.4659 0.519531 21.8674 0.767555 21.4262 1.20904C20.985 1.65052 20.7372 2.2493 20.7372 2.87366V7.77289C17.9828 8.62939 15.3697 9.8873 12.9818 11.5061L10.4824 8.53312C10.4135 8.4508 10.329 8.38291 10.2338 8.33335C10.1386 8.28379 10.0346 8.25354 9.92764 8.24432C9.82073 8.23511 9.71305 8.24712 9.61078 8.27966C9.50852 8.31221 9.41369 8.36464 9.33173 8.43396L5.89634 11.3169C5.73023 11.4565 5.62629 11.6564 5.60737 11.8726C5.58844 12.0889 5.65608 12.3038 5.79541 12.4701L8.29855 15.4523C4.27049 19.6183 1.55742 24.8788 0.49775 30.5777C-0.561918 36.2765 0.0787249 42.1615 2.33976 47.4984C4.6008 52.8353 8.38216 57.3879 13.2121 60.5884C18.0421 63.7889 23.7069 65.4957 29.5 65.4957C35.293 65.4957 40.9578 63.7889 45.7878 60.5884C50.6178 57.3879 54.3992 52.8353 56.6602 47.4984C58.9212 42.1615 59.5619 36.2765 58.5022 30.5777C57.4426 24.8788 54.7295 19.6183 50.7014 15.4523L53.2046 12.4628ZM29.5 59.4095C24.866 59.4095 20.3361 58.0345 16.4832 55.4583C12.6302 52.8822 9.62721 49.2206 7.85395 44.9367C6.0807 40.6528 5.61683 35.9389 6.521 31.3911C7.42517 26.8434 9.65678 22.6661 12.9336 19.3875C16.2104 16.1089 20.3853 13.8762 24.9303 12.9718C29.4752 12.0674 34.1862 12.5319 38.4673 14.3066C42.7484 16.0813 46.4074 19.0865 48.9816 22.9421C51.5559 26.7977 52.9297 31.3305 52.9293 35.9673C52.9288 42.1848 50.4602 48.1474 46.0664 52.5435C41.6726 56.9397 35.7135 59.4095 29.5 59.4095Z" fill="#CFD8E5"/>
</svg>
