<svg width="18" height="15" viewBox="0 0 18 15" fill="none" xmlns="http://www.w3.org/2000/svg">
<path d="M8.99997 0C13.9706 0 18 4.04088 18 9.0257C18 11.1978 17.2345 13.1908 15.9597 14.7481C15.763 13.1689 14.1901 11.8332 11.9846 11.2006C11.1788 11.9535 10.138 12.4103 9.00003 12.4103C7.8888 12.4103 6.86839 11.9765 6.07084 11.2552C3.84624 11.943 2.30716 13.3568 2.25655 15C0.853487 13.4082 0 11.3175 0 9.0257C0 4.04088 4.02939 0 8.99997 0ZM8.99997 11.3415C9.57451 11.3415 10.1159 11.1832 10.5966 10.909C11.755 10.2479 12.5526 8.89516 12.5526 7.33333C12.5526 5.12324 10.959 3.32512 8.99997 3.32512C7.0408 3.32512 5.4473 5.12324 5.4473 7.33333C5.4473 8.91915 6.26988 10.2886 7.45714 10.9382C7.92485 11.194 8.44675 11.3415 8.99997 11.3415Z" fill="#191818"/>
</svg>
