<svg width="32" height="32" viewBox="0 0 32 32" fill="none" xmlns="http://www.w3.org/2000/svg">
<path d="M23.5 7C23.5 7.52595 23.4098 8.03083 23.2439 8.5L28 8.5C28.8284 8.5 29.5 9.17157 29.5 10V14.7561C29.0308 14.5902 28.526 14.5 28 14.5C25.5147 14.5 23.5 16.5147 23.5 19C23.5 21.4853 25.5147 23.5 28 23.5C28.526 23.5 29.0308 23.4098 29.5 23.2439V28C29.5 28.8284 28.8284 29.5 28 29.5H10C9.17157 29.5 8.5 28.8284 8.5 28V23.2439C8.03083 23.4098 7.52595 23.5 7 23.5C4.51472 23.5 2.5 21.4853 2.5 19C2.5 16.5147 4.51472 14.5 7 14.5C7.52595 14.5 8.03083 14.5902 8.5 14.7561V10C8.5 9.17157 9.17158 8.5 10 8.5L14.7561 8.5C14.5902 8.03083 14.5 7.52595 14.5 7C14.5 4.51472 16.5147 2.5 19 2.5C21.4853 2.5 23.5 4.51472 23.5 7Z" stroke="#067AFF" stroke-width="3.5" stroke-linecap="round" stroke-linejoin="round"/>
</svg>
