<svg width="24" height="24" viewBox="0 0 24 24" fill="none" xmlns="http://www.w3.org/2000/svg">
<path d="M0 23.4376V23.0619C0.136246 22.8846 0.255618 22.6911 0.411239 22.5333C1.21205 21.7225 2.0187 20.9176 2.83118 20.1185C2.88965 20.064 2.93537 19.9972 2.96508 19.923C2.9948 19.8487 3.00776 19.7688 3.00305 19.6889C2.99805 17.5634 3.00305 15.4379 2.99867 13.3124C2.99617 11.8152 3.52366 10.5387 4.58113 9.48287C6.29525 7.77112 8.00792 6.05937 9.71912 4.34761C9.78162 4.28499 9.83974 4.22236 9.90662 4.16913C10.0437 4.04499 10.2219 3.97626 10.4066 3.97626C10.5914 3.97626 10.7695 4.04499 10.9066 4.16913C10.9691 4.22299 11.0316 4.28061 11.1322 4.37517C11.1322 4.07081 11.1366 3.81718 11.1322 3.56104C11.1241 3.22663 11.2697 2.98865 11.5409 2.79451C13.1895 1.61168 15.0613 0.778005 17.0422 0.3444C19.023 -0.0892055 21.0713 -0.113637 23.0619 0.272599C23.4431 0.347123 23.6519 0.555038 23.7206 0.935172C23.7738 1.22701 23.8231 1.51946 23.8631 1.81192C23.9144 2.18767 23.955 2.56906 24 2.94732V4.58747C23.9544 4.98075 23.9163 5.37592 23.8613 5.76795C23.4894 8.42263 22.5282 10.8406 20.8276 12.9185C20.0089 13.9205 19.062 14.8148 18.1733 15.7579C18.1039 15.8318 18.0052 15.8957 17.972 15.9834C17.7977 16.4543 17.402 16.5583 16.9764 16.5789C16.4852 16.6021 15.9921 16.5852 15.5002 16.5852H15.2765L15.2446 16.6422C15.439 16.8301 15.6433 17.0067 15.8258 17.2058C16.1708 17.5816 16.069 18.1333 15.6252 18.3819C15.5241 18.4384 15.4307 18.5077 15.3471 18.5879C15.0825 18.8426 14.8225 19.1019 14.5671 19.3657C13.4853 20.4786 12.1691 21.0097 10.6185 21.0021C8.51728 20.9909 6.41546 21.0021 4.31426 20.9959C4.23447 20.9912 4.15463 21.0043 4.08042 21.034C4.00621 21.0638 3.93946 21.1096 3.8849 21.1681C3.08992 21.976 2.28911 22.7773 1.48246 23.5723C1.31872 23.7332 1.1206 23.8585 0.938101 24H0.56311C0.436511 23.9487 0.321453 23.8725 0.224735 23.7759C0.128016 23.6793 0.0516 23.5643 0 23.4376ZM4.49988 18.3731L4.56863 18.4107C4.61853 18.3407 4.67237 18.2736 4.72988 18.2097C8.92143 14.0151 13.1138 9.82084 17.3071 5.62705C17.3816 5.54693 17.4609 5.47143 17.5445 5.40097C17.6473 5.32247 17.7686 5.27191 17.8966 5.25419C18.0246 5.23647 18.155 5.25218 18.2751 5.29981C18.3953 5.34744 18.5011 5.42537 18.5824 5.52604C18.6636 5.62672 18.7175 5.74672 18.7389 5.87442C18.7876 6.1819 18.647 6.41111 18.4358 6.62216C14.2184 10.8364 10.0031 15.0523 5.78985 19.2699C5.72735 19.3326 5.66485 19.4002 5.57298 19.4998H5.87485C7.42918 19.4998 8.98477 19.4703 10.5385 19.5085C12.0347 19.5449 13.1322 18.8579 14.0384 17.7331C13.6009 17.2947 13.1634 16.8564 12.7222 16.4142C12.4553 16.1456 12.3853 15.8412 12.5134 15.5375C12.6415 15.2337 13.0084 14.9945 13.3259 14.9964C14.4115 15.0039 15.4971 15.0139 16.5827 15.0095C16.7099 15.0046 16.8312 14.9547 16.9252 14.8686C17.4995 14.3175 18.062 13.7508 18.6245 13.1853C19.5599 12.2511 20.3484 11.1801 20.9632 10.0089C22.3075 7.43566 22.7625 4.70959 22.3613 1.83635C22.3432 1.70358 22.2925 1.64847 22.1588 1.63469C21.9176 1.61403 21.6788 1.57207 21.4376 1.54952C18.3689 1.29902 15.5356 1.99917 12.9378 3.64997C12.7159 3.79088 12.6253 3.94118 12.6322 4.20984C12.6528 4.85801 12.6378 5.50681 12.6353 6.1556C12.6353 6.4919 12.4928 6.74866 12.1784 6.8808C11.8641 7.01294 11.5822 6.93967 11.3397 6.70482C11.211 6.57957 11.0816 6.45432 10.9547 6.32907C10.7753 6.14871 10.5985 5.96522 10.4172 5.7811C10.3447 5.84999 10.2985 5.89195 10.2547 5.93579C8.71311 7.4772 7.17148 9.01861 5.62985 10.56C4.87175 11.3165 4.49988 12.2259 4.50488 13.2961C4.50926 14.9137 4.50488 16.5313 4.50488 18.1489L4.49988 18.3731Z" fill="#191818"/>
</svg>
