<svg width="50" height="50" viewBox="0 0 50 50" fill="none" xmlns="http://www.w3.org/2000/svg">
<rect width="50" height="50" rx="10" fill="#F8F9FA"/>
<ellipse cx="19.4105" cy="38.5" rx="2" ry="2" transform="rotate(-45 19.4105 38.5)" fill="#828282"/>
<circle cx="25.8711" cy="32.2344" r="3" transform="rotate(-45 25.8711 32.2344)" fill="#3C4045"/>
<circle cx="32.2348" cy="25.875" r="3" transform="rotate(-45 32.2348 25.875)" fill="#3C4045"/>
<ellipse cx="38.5023" cy="19.4141" rx="2" ry="2" transform="rotate(-45 38.5023 19.4141)" fill="#828282"/>
<circle cx="18.0931" cy="30.1172" r="2" transform="rotate(-45 18.0931 30.1172)" fill="#828282"/>
<circle cx="24.4568" cy="23.75" r="2" transform="rotate(-45 24.4568 23.75)" fill="#828282"/>
<circle cx="30.8206" cy="17.3906" r="2" transform="rotate(-45 30.8206 17.3906)" fill="#828282"/>
<circle cx="17.1632" cy="22.5625" r="1.27273" transform="rotate(-45 17.1632 22.5625)" fill="#BCBCBC"/>
<circle cx="22.7999" cy="16.7969" r="1.27273" transform="rotate(-45 22.7999 16.7969)" fill="#BCBCBC"/>
<circle cx="12.7999" cy="36.7969" r="1.27273" transform="rotate(-45 12.7999 36.7969)" fill="#BCBCBC"/>
<circle cx="37.7999" cy="12.7969" r="1.27273" transform="rotate(-45 37.7999 12.7969)" fill="#BCBCBC"/>
</svg>
