<svg width="16" height="16" viewBox="0 0 16 16" fill="none" xmlns="http://www.w3.org/2000/svg">
<path d="M6.66666 11.168C6.9428 11.168 7.16666 10.9441 7.16666 10.668C7.16666 10.3918 6.9428 10.168 6.66666 10.168V11.168ZM3.33333 10.668V10.168C3.05719 10.168 2.83333 10.3918 2.83333 10.668H3.33333ZM2.83333 14.0013C2.83333 14.2774 3.05719 14.5013 3.33333 14.5013C3.60947 14.5013 3.83333 14.2774 3.83333 14.0013H2.83333ZM6.66666 10.168H3.33333V11.168H6.66666V10.168ZM2.83333 10.668V14.0013H3.83333V10.668H2.83333Z" fill="#191818"/>
<path d="M12.9451 9.99609C12.5713 10.9213 11.9455 11.723 11.1387 12.3102C10.332 12.8974 9.37668 13.2465 8.38141 13.3179C7.38614 13.3892 6.39082 13.1799 5.50858 12.7138C4.62633 12.2476 3.89255 11.5434 3.39062 10.681" stroke="#191818" stroke-linecap="round" stroke-linejoin="round"/>
<path d="M9.33333 4.83333C9.05719 4.83333 8.83333 5.05719 8.83333 5.33333C8.83333 5.60948 9.05719 5.83333 9.33333 5.83333V4.83333ZM12.6667 5.33333V5.83333C12.9428 5.83333 13.1667 5.60948 13.1667 5.33333H12.6667ZM13.1667 2C13.1667 1.72386 12.9428 1.5 12.6667 1.5C12.3905 1.5 12.1667 1.72386 12.1667 2H13.1667ZM9.33333 5.83333H12.6667V4.83333H9.33333V5.83333ZM13.1667 5.33333V2H12.1667V5.33333H13.1667Z" fill="#191818"/>
<path d="M3.05502 6.0034C3.42881 5.07824 4.05464 4.27649 4.86139 3.68928C5.66813 3.10208 6.62342 2.75296 7.61868 2.68162C8.61395 2.61028 9.60927 2.81957 10.4915 3.28571C11.3738 3.75185 12.1075 4.45614 12.6095 5.31853" stroke="#191818" stroke-linecap="round" stroke-linejoin="round"/>
</svg>
