<svg width="36" height="33" viewBox="0 0 36 33" fill="none" xmlns="http://www.w3.org/2000/svg">
<path d="M17.7173 19.7591C12.1319 19.7591 6.54657 19.7591 0.961191 19.7591C0.813373 19.7591 0.665556 19.7696 0.528297 19.7485C0.200988 19.7063 -0.0101798 19.4318 0.000378522 19.115C0.0214953 18.7877 0.19043 18.5765 0.517739 18.5132C0.633882 18.4921 0.750023 18.5026 0.876723 18.5026C12.1003 18.5026 23.3238 18.5026 34.5368 18.5026C34.6529 18.5026 34.7796 18.4921 34.8958 18.5132C35.2125 18.5871 35.4026 18.7983 35.4026 19.1256C35.4026 19.4529 35.2125 19.6641 34.8958 19.738C34.7585 19.7696 34.6107 19.7591 34.4629 19.7591C28.8881 19.7591 23.3027 19.7591 17.7173 19.7591Z" fill="#5E6165"/>
<path d="M17.7173 17.7591C12.1319 17.7591 6.54657 17.7591 0.961191 17.7591C0.813373 17.7591 0.665556 17.7696 0.528297 17.7485C0.200988 17.7063 -0.0101798 17.4318 0.000378522 17.115C0.0214953 16.7877 0.19043 16.5765 0.517739 16.5132C0.633882 16.4921 0.750023 16.5026 0.876723 16.5026C12.1003 16.5026 23.3238 16.5026 34.5368 16.5026C34.6529 16.5026 34.7796 16.4921 34.8958 16.5132C35.2125 16.5871 35.4026 16.7983 35.4026 17.1256C35.4026 17.4529 35.2125 17.6641 34.8958 17.738C34.7585 17.7696 34.6107 17.7591 34.4629 17.7591C28.8881 17.7591 23.3027 17.7591 17.7173 17.7591Z" fill="#5E6165"/>
<path d="M2.51297 22.0898C3.90667 22.0898 5.04697 23.2196 5.04697 24.6133C5.04697 26.007 3.90667 27.1473 2.51297 27.1367C1.14038 27.1367 7.34092e-05 26.007 7.34092e-05 24.6239C-0.010485 23.2407 1.11926 22.1004 2.51297 22.0898ZM3.79053 24.6027C3.77997 23.9164 3.20982 23.3568 2.52352 23.3568C1.83723 23.3568 1.26708 23.927 1.26708 24.6133C1.26708 25.3207 1.85835 25.8909 2.5552 25.8803C3.24149 25.8697 3.80109 25.289 3.79053 24.6027Z" fill="#5E6165"/>
<path d="M12.6407 22.0898C14.0344 22.0898 15.1747 23.2196 15.1747 24.6239C15.1747 26.0176 14.0344 27.1579 12.6302 27.1473C11.2576 27.1473 10.1173 26.0176 10.1173 24.6344C10.1067 23.2407 11.247 22.1004 12.6407 22.0898ZM13.9077 24.6027C13.8972 23.9164 13.327 23.3568 12.6407 23.3568C11.9544 23.3568 11.3843 23.927 11.3843 24.6133C11.3843 25.3207 11.9755 25.8909 12.6724 25.8803C13.3587 25.8697 13.9183 25.289 13.9077 24.6027Z" fill="#5E6165"/>
<path d="M22.7434 22.0899C24.1371 22.0794 25.2879 23.2197 25.2879 24.6134C25.2879 26.0071 24.1476 27.1474 22.7539 27.1474C21.3813 27.1474 20.241 26.0176 20.2305 24.645C20.2305 23.2513 21.3602 22.1005 22.7434 22.0899ZM24.0315 24.6239C24.0315 23.9376 23.4613 23.3675 22.775 23.3569C22.0887 23.3464 21.508 23.9165 21.4975 24.6028C21.4869 25.3102 22.0676 25.8909 22.7645 25.8909C23.4613 25.8804 24.0315 25.3102 24.0315 24.6239Z" fill="#5E6165"/>
<path d="M35.413 24.6133C35.413 26.007 34.2727 27.1473 32.879 27.1473C31.4853 27.1473 30.345 26.007 30.3555 24.6027C30.3555 23.2301 31.4853 22.0898 32.8684 22.0898C34.2621 22.0898 35.413 23.2196 35.413 24.6133ZM34.146 24.6239C34.146 23.9376 33.5864 23.3674 32.9001 23.3568C32.2138 23.3463 31.6331 23.9059 31.6225 24.5922C31.612 25.2996 32.1927 25.8803 32.8895 25.8803C33.5758 25.8803 34.146 25.3101 34.146 24.6239Z" fill="#5E6165"/>
<path d="M10.1161 30.3114C10.1161 31.7051 8.97582 32.8454 7.57156 32.8348C6.17785 32.8242 5.04811 31.6839 5.05867 30.2797C5.06923 28.9071 6.19897 27.7773 7.58212 27.7773C8.97582 27.7773 10.1161 28.9176 10.1161 30.3114ZM8.84912 30.3219C8.85968 29.6356 8.30009 29.0549 7.61379 29.0443C6.9275 29.0338 6.34679 29.5828 6.32567 30.2691C6.30455 30.9765 6.88526 31.5678 7.58212 31.5678C8.26841 31.5784 8.83856 31.0082 8.84912 30.3219Z" fill="#5E6165"/>
<path d="M17.6848 27.7774C19.0785 27.7669 20.2294 28.9072 20.2294 30.3009C20.2294 31.6946 19.0891 32.8349 17.6954 32.8349C16.3228 32.8349 15.1825 31.7051 15.1719 30.3325C15.1614 28.9388 16.2911 27.788 17.6848 27.7774ZM18.973 30.322C18.973 29.6357 18.4134 29.055 17.7271 29.055C17.0408 29.0444 16.4601 29.604 16.4495 30.2903C16.439 30.9977 17.0091 31.5784 17.7165 31.5784C18.3923 31.5679 18.9624 31.0083 18.973 30.322Z" fill="#5E6165"/>
<path d="M27.8098 27.7773C29.2035 27.7773 30.3439 28.9071 30.3439 30.3008C30.3439 31.6945 29.2035 32.8348 27.8098 32.8242C26.4373 32.8242 25.2969 31.6945 25.2969 30.3114C25.2864 28.9282 26.4161 27.7879 27.8098 27.7773ZM26.564 30.3114C26.564 30.9976 27.1341 31.5678 27.8204 31.5678C28.5067 31.5678 29.0768 31.0082 29.0874 30.3219C29.098 29.6145 28.5173 29.0338 27.8098 29.0443C27.1235 29.0549 26.5534 29.6251 26.564 30.3114Z" fill="#5E6165"/>
<path d="M8.53019 23.3856C8.50907 23.903 8.06562 24.3253 7.5377 24.3042C7.02034 24.2831 6.60857 23.8185 6.62968 23.3117C6.66136 22.8049 7.09425 22.4037 7.60105 22.4143C8.12897 22.4248 8.55131 22.8683 8.53019 23.3856Z" fill="#5E6165"/>
<path d="M18.6478 23.3439C18.6583 23.8613 18.2254 24.3048 17.7081 24.3048C17.1907 24.3048 16.7578 23.8719 16.7578 23.3545C16.7578 22.8477 17.1801 22.4254 17.6764 22.4148C18.2043 22.3937 18.6478 22.8266 18.6478 23.3439Z" fill="#5E6165"/>
<path d="M28.773 23.3539C28.773 23.8713 28.3401 24.3042 27.8227 24.3042C27.3053 24.2936 26.8724 23.8607 26.883 23.3434C26.8936 22.8366 27.3159 22.4248 27.8227 22.4143C28.3401 22.4037 28.773 22.8366 28.773 23.3539Z" fill="#5E6165"/>
<path d="M2.54675 28.7307C3.06411 28.7412 3.48644 29.1847 3.47589 29.702C3.46533 30.2194 3.01132 30.6417 2.49396 30.6206C1.98716 30.5995 1.58594 30.1666 1.58594 29.6704C1.58594 29.153 2.02939 28.7201 2.54675 28.7307Z" fill="#5E6165"/>
<path d="M12.6186 30.6299C12.1012 30.6088 11.6789 30.1548 11.7 29.6375C11.7211 29.1201 12.1751 28.7083 12.6925 28.74C13.1993 28.7717 13.6005 29.2046 13.5899 29.7008C13.5794 30.2182 13.1359 30.6405 12.6186 30.6299Z" fill="#5E6165"/>
<path d="M22.7641 28.7305C23.2815 28.7305 23.7144 29.1634 23.7144 29.6807C23.7144 30.1981 23.2709 30.631 22.7536 30.6204C22.2467 30.6099 21.835 30.1875 21.8244 29.6913C21.8139 29.1739 22.2362 28.741 22.7641 28.7305Z" fill="#5E6165"/>
<path d="M31.9431 29.6282C31.9748 29.1108 32.4394 28.699 32.9567 28.7413C33.4635 28.7729 33.8542 29.2164 33.8331 29.7232C33.8119 30.2406 33.3579 30.6629 32.8406 30.6312C32.3232 30.5995 31.9114 30.1455 31.9431 29.6282Z" fill="#5E6165"/>
<path d="M13 8.68328C13.0094 8.16698 13.1878 7.45354 13.5445 6.77766C14.6804 4.65612 15.8068 2.52519 16.9333 0.403654C17.0554 0.168971 17.2149 0 17.4966 0C17.7782 0 17.9378 0.178359 18.0598 0.413042C19.1957 2.55335 20.3503 4.67489 21.4674 6.82459C23.0914 9.95996 20.8009 13.6022 17.3088 13.4896C14.9338 13.4051 12.9906 11.3493 13 8.68328ZM17.5341 1.80237C17.4778 1.83992 17.4496 1.8493 17.4402 1.85869C16.4358 3.74555 15.3938 5.61363 14.4363 7.52864C13.7416 8.92735 14.2016 10.664 15.4032 11.6121C16.6517 12.5884 18.3227 12.5978 19.5618 11.6309C20.7915 10.6734 21.2515 8.92735 20.5474 7.51925C19.5899 5.60424 18.5479 3.72677 17.5341 1.80237Z" fill="#5E6165"/>
<path d="M15.2503 9.04506C15.2409 8.6414 15.4287 8.40672 15.7666 8.38794C16.114 8.36917 16.3299 8.5663 16.3674 8.96057C16.4331 9.64585 16.8086 10.0307 17.4751 10.0964C17.86 10.134 18.0759 10.3687 18.0478 10.7066C18.0196 11.0352 17.7849 11.2229 17.4094 11.2135C16.2829 11.2135 15.2785 10.1997 15.2503 9.04506Z" fill="#5E6165"/>
</svg>
