<svg width="34" height="16" viewBox="0 0 34 16" fill="none" xmlns="http://www.w3.org/2000/svg">
<path d="M24.3797 1.47472C24.3452 1.80819 24.1497 1.96918 23.8392 1.98068C19.5731 2.24515 16.7558 4.63694 14.709 8.16712C14.2606 8.93755 13.8466 9.71948 13.4096 10.4899C13.3521 10.6049 13.2716 10.7084 13.1797 10.8004C12.9612 11.0074 12.6737 11.0534 12.5012 10.8234C12.3747 10.6739 12.3057 10.3404 12.3977 10.1794C13.1222 8.86856 13.8121 7.52318 14.6745 6.29279C16.5488 3.61353 19.0326 1.77369 22.2868 1.08376C22.8043 0.980265 23.3332 0.968766 23.8622 0.945768C24.1842 0.934269 24.3567 1.14125 24.3797 1.47472Z" fill="#5E6165"/>
<path d="M26.561 2.6887C26.9635 2.6887 27.3659 2.67721 27.7684 2.6887C28.1824 2.7117 28.4124 2.93018 28.4009 3.24065C28.3779 3.56262 28.1364 3.73511 27.7109 3.71211C26.3195 3.64312 24.9397 3.67761 23.5713 3.99958C21.7429 4.42504 20.2021 5.32196 18.9257 6.70184C18.0518 7.64475 17.1549 8.57616 16.2694 9.51908C16.2004 9.58807 16.1314 9.66856 16.0625 9.73756C15.821 9.95604 15.568 9.97904 15.338 9.76056C15.108 9.54208 15.108 9.2661 15.3265 9.03612C15.683 8.64516 16.0509 8.2657 16.4189 7.88623C17.2008 7.0698 17.9483 6.21888 18.7647 5.43695C20.708 3.56262 23.1113 2.81519 25.7561 2.6887C26.0321 2.67721 26.2965 2.6887 26.5725 2.6887C26.561 2.67721 26.561 2.6887 26.561 2.6887Z" fill="#5E6165"/>
<path d="M28.1154 4.35547C29.5297 4.58545 30.9326 4.81543 32.347 5.04541C32.7034 5.1029 32.9334 5.29838 32.8644 5.70085C32.8069 6.01132 32.5195 6.14931 32.117 6.04582C30.0932 5.56286 28.0464 5.34438 25.9765 5.67785C23.6423 6.04581 21.5839 6.96573 19.9396 8.70207C19.6981 8.95505 19.4566 9.05854 19.1462 8.84006C18.8817 8.64458 18.8817 8.3226 19.1577 8.01213C20.526 6.50577 22.2509 5.56286 24.1827 4.99941C25.4591 4.63144 26.77 4.48196 28.0924 4.47046C28.1039 4.43596 28.1039 4.40146 28.1154 4.35547Z" fill="#5E6165"/>
<path d="M10.3242 10.8006C10.5197 9.47821 10.9337 8.25932 11.5086 7.07493C12.4975 5.06261 13.9119 3.38376 15.6942 2.02688C15.7057 2.01538 15.7172 2.00388 15.7287 2.00388C16.0047 1.7739 16.2922 1.70491 16.5567 2.00388C16.7866 2.25686 16.6831 2.54433 16.3382 2.84331C15.7402 3.37226 15.1078 3.87821 14.5673 4.46466C12.8885 6.2815 11.7846 8.40881 11.3591 10.8581C11.3016 11.2146 11.1291 11.4215 10.7497 11.3755C10.4277 11.3295 10.3242 11.0881 10.3242 10.8006Z" fill="#5E6165"/>
<path d="M8.28978 11.9358C8.55425 8.5551 9.75014 5.47338 11.9005 2.77113C12.1764 2.42616 12.5099 2.35716 12.7399 2.58714C13.0274 2.86312 12.9239 3.13909 12.7054 3.42657C10.7621 5.89884 9.61216 8.69309 9.34768 11.8438C9.33618 11.9243 9.32468 12.0163 9.31318 12.0968C9.27869 12.4303 9.0947 12.6372 8.74973 12.6027C8.40477 12.5682 8.27828 12.3153 8.28978 11.9358Z" fill="#5E6165"/>
<path d="M28.2015 6.46875C30.1564 6.49175 31.8927 6.76772 33.5256 7.50366C33.7095 7.58415 33.9165 7.77963 33.974 7.95212C34.1005 8.37758 33.675 8.63056 33.1921 8.48107C32.3757 8.21659 31.5707 7.91762 30.7313 7.74514C28.765 7.34267 26.7987 7.49216 24.8553 7.96362C24.6253 8.02111 24.3149 8.00961 24.1424 7.88312C23.8089 7.65315 23.9814 7.12419 24.4414 7.0207C25.2463 6.83672 26.0627 6.68723 26.8906 6.56074C27.3736 6.49175 27.8796 6.49175 28.2015 6.46875Z" fill="#5E6165"/>
<path d="M6.16797 11.8469C6.20247 9.27117 6.81191 7.02887 7.88131 4.89007C8.0768 4.48761 8.36427 4.36112 8.66324 4.49911C8.96222 4.64859 9.00821 4.93606 8.81273 5.35003C7.78932 7.47733 7.16838 9.70813 7.22587 12.0884C7.23737 12.3299 7.24887 12.5714 7.28337 12.8128C7.31786 13.1578 7.21437 13.4338 6.85791 13.4913C6.48994 13.5488 6.29446 13.3303 6.27146 12.9738C6.21396 12.5369 6.19097 12.0999 6.16797 11.8469Z" fill="#5E6165"/>
<path d="M4.10156 11.0928C4.19355 9.5174 4.48103 8.01104 5.05598 6.56217C5.09048 6.48167 5.11348 6.40118 5.15947 6.32069C5.30896 6.03321 5.53894 5.87223 5.86091 6.02171C6.17138 6.1712 6.20588 6.41268 6.11389 6.74615C5.82641 7.75806 5.51594 8.76997 5.33196 9.80488C5.10198 11.1158 5.23997 12.4266 5.52744 13.726C5.63093 14.1745 5.51594 14.439 5.18247 14.5195C4.8605 14.6 4.60752 14.416 4.52703 13.9675C4.36604 13.0131 4.23955 12.0472 4.10156 11.0928Z" fill="#5E6165"/>
<path d="M3.60255 7.28546C3.51056 8.03289 3.40706 8.79183 3.33807 9.53926C3.17708 11.0686 3.30357 12.598 3.57955 14.1043C3.59105 14.1503 3.59105 14.1848 3.60255 14.2308C3.68304 14.7253 3.55655 14.9898 3.22308 15.0588C2.8781 15.1278 2.67112 14.8978 2.56763 14.3918C2.10767 12.046 2.10767 9.70024 2.56763 7.35445C2.57913 7.27396 2.59063 7.18197 2.61363 7.10148C2.69412 6.791 2.9241 6.60702 3.22308 6.72201C3.41856 6.79101 3.54505 7.03248 3.70604 7.19347C3.68304 7.22797 3.63705 7.25096 3.60255 7.28546Z" fill="#5E6165"/>
<path d="M1.18298 10.7791C1.36696 11.8485 1.53945 12.9179 1.75793 13.9758C1.82692 14.3208 1.79242 14.5967 1.43595 14.7002C1.07949 14.8152 0.861006 14.6197 0.757515 14.2863C0.320554 12.9064 0.194065 11.4805 0.286057 10.0432C0.309055 9.69819 0.458542 9.44521 0.838008 9.47971C1.21747 9.50271 1.33246 9.77868 1.30946 10.1122C1.29797 10.3306 1.28647 10.5376 1.27497 10.7561C1.25197 10.7676 1.21747 10.7791 1.18298 10.7791Z" fill="#5E6165"/>
</svg>
