<svg width="35" height="15" viewBox="0 0 35 15" fill="none" xmlns="http://www.w3.org/2000/svg">
<path d="M24.528 0.538346C24.4929 0.877446 24.2941 1.04115 23.9784 1.05284C19.6403 1.32179 16.7754 3.75396 14.6941 7.34374C14.238 8.12718 13.8171 8.92231 13.3727 9.70575C13.3143 9.82268 13.2324 9.92792 13.1389 10.0215C12.9167 10.2319 12.6244 10.2787 12.449 10.0449C12.3204 9.89285 12.2502 9.55374 12.3437 9.39004C13.0804 8.05702 13.782 6.68893 14.659 5.43776C16.565 2.71327 19.0907 0.842368 22.3998 0.14078C22.926 0.0355423 23.4639 0.0238495 24.0018 0.000463292C24.3292 -0.0112298 24.5046 0.199245 24.528 0.538346Z" fill="#3C4043"/>
<path d="M26.7456 1.77473C27.1549 1.77473 27.5642 1.76304 27.9734 1.77473C28.3944 1.79811 28.6282 2.02028 28.6165 2.336C28.5932 2.6634 28.3476 2.8388 27.915 2.81541C26.5001 2.74526 25.0969 2.78033 23.7054 3.10774C21.8462 3.54039 20.2793 4.45245 18.9814 5.85562C18.0927 6.81446 17.1807 7.7616 16.2803 8.72043C16.2101 8.79059 16.14 8.87244 16.0698 8.9426C15.8243 9.16477 15.567 9.18816 15.3331 8.96599C15.0993 8.74382 15.0993 8.46319 15.3214 8.22932C15.6839 7.83176 16.0581 7.44589 16.4323 7.06001C17.2274 6.2298 17.9875 5.36451 18.8177 4.56938C20.7938 2.6634 23.2377 1.90335 25.9271 1.77473C26.2078 1.76304 26.4767 1.77473 26.7573 1.77473C26.7456 1.76304 26.7456 1.77473 26.7456 1.77473Z" fill="#3C4043"/>
<path d="M28.3287 3.46875C29.767 3.70261 31.1935 3.93647 32.6318 4.17034C32.9943 4.2288 33.2281 4.42759 33.158 4.83684C33.0995 5.15256 32.8072 5.29288 32.3979 5.18764C30.3399 4.69653 28.2586 4.47436 26.1538 4.81346C23.7801 5.18764 21.687 6.12308 20.0149 7.88874C19.7693 8.14599 19.5238 8.25123 19.2081 8.02906C18.9391 7.83028 18.9391 7.50287 19.2198 7.18716C20.6113 5.65536 22.3652 4.69653 24.3297 4.12356C25.6276 3.74939 26.9606 3.59737 28.3053 3.58568C28.317 3.5506 28.317 3.51552 28.3287 3.46875Z" fill="#3C4043"/>
<path d="M10.2344 10.0228C10.4332 8.67809 10.8541 7.43862 11.4388 6.23423C12.4444 4.18793 13.8826 2.48073 15.6951 1.10094C15.7068 1.08925 15.7184 1.07756 15.7301 1.07756C16.0108 0.843695 16.3031 0.773536 16.572 1.07756C16.8059 1.33481 16.7007 1.62713 16.3499 1.93116C15.7418 2.46904 15.0987 2.98354 14.5491 3.57989C12.8419 5.4274 11.7194 7.59063 11.2868 10.0813C11.2283 10.4438 11.0529 10.6542 10.667 10.6075C10.3396 10.5607 10.2344 10.3151 10.2344 10.0228Z" fill="#D0D0D0"/>
<path d="M8.16869 11.1779C8.43764 7.74016 9.65372 4.60641 11.8403 1.85853C12.121 1.50773 12.4601 1.43758 12.6939 1.67144C12.9863 1.95207 12.881 2.23271 12.6589 2.52503C10.6827 5.03905 9.5134 7.88048 9.24446 11.0844C9.23277 11.1662 9.22107 11.2598 9.20938 11.3416C9.1743 11.6807 8.98721 11.8912 8.63642 11.8561C8.28563 11.8211 8.157 11.5638 8.16869 11.1779Z" fill="#D0D0D0"/>
<path d="M28.4175 5.61328C30.4054 5.63667 32.171 5.9173 33.8314 6.66566C34.0185 6.74751 34.229 6.9463 34.2875 7.1217C34.4161 7.55434 33.9835 7.81159 33.4923 7.65958C32.6621 7.39064 31.8436 7.08662 30.99 6.91122C28.9905 6.50196 26.991 6.65397 25.0148 7.13339C24.781 7.19185 24.4652 7.18016 24.2898 7.05154C23.9507 6.81768 24.1261 6.27979 24.5939 6.17455C25.4124 5.98746 26.2426 5.83545 27.0845 5.70683C27.5756 5.63667 28.0901 5.63667 28.4175 5.61328Z" fill="#3C4043"/>
<path d="M6.00781 11.0852C6.04289 8.46593 6.66263 6.18578 7.75009 4.01086C7.94887 3.6016 8.2412 3.47298 8.54522 3.61329C8.84924 3.76531 8.89601 4.05763 8.69723 4.47858C7.65654 6.64181 7.02511 8.91027 7.08358 11.3307C7.09527 11.5763 7.10697 11.8219 7.14204 12.0674C7.17712 12.4182 7.07189 12.6988 6.7094 12.7573C6.33522 12.8158 6.13644 12.5936 6.11305 12.2311C6.05458 11.7868 6.0312 11.3424 6.00781 11.0852Z" fill="#D0D0D0"/>
<path d="M3.91016 10.3161C4.0037 8.71411 4.29603 7.18231 4.88069 5.70897C4.91577 5.62712 4.93915 5.54527 4.98593 5.46342C5.13794 5.17109 5.3718 5.00738 5.69921 5.15939C6.01493 5.3114 6.05001 5.55696 5.95646 5.89606C5.66413 6.92506 5.34842 7.95405 5.16133 9.00643C4.92746 10.3395 5.06778 11.6725 5.36011 12.9938C5.46535 13.4498 5.34842 13.7188 5.00932 13.8006C4.68191 13.8825 4.42466 13.6954 4.3428 13.2394C4.1791 12.2688 4.05047 11.2866 3.91016 10.3161Z" fill="#D0D0D0"/>
<path d="M3.39929 6.4479C3.30574 7.20795 3.2005 7.9797 3.13034 8.73975C2.96663 10.2949 3.09526 11.8501 3.3759 13.3819C3.38759 13.4287 3.38759 13.4638 3.39929 13.5105C3.48114 14.0133 3.35251 14.2823 3.01341 14.3524C2.66261 14.4226 2.45213 14.1887 2.34689 13.6742C1.87916 11.2889 1.87916 8.90346 2.34689 6.51806C2.35858 6.43621 2.37028 6.34266 2.39366 6.26081C2.47552 5.9451 2.70938 5.75801 3.01341 5.87494C3.21219 5.9451 3.34082 6.19065 3.50452 6.35436C3.48114 6.38944 3.43436 6.41282 3.39929 6.4479Z" fill="#D0D0D0"/>
<path d="M0.940786 9.99639C1.12788 11.0839 1.30327 12.1713 1.52544 13.2471C1.5956 13.5979 1.56052 13.8785 1.19803 13.9837C0.835547 14.1007 0.613378 13.9019 0.50814 13.5628C0.0638011 12.1596 -0.0648241 10.7097 0.028721 9.24804C0.0521072 8.89724 0.204118 8.64 0.589992 8.67508C0.975865 8.69846 1.0928 8.9791 1.06941 9.3182C1.05772 9.54036 1.04602 9.75084 1.03433 9.97301C1.01094 9.9847 0.975865 9.99639 0.940786 9.99639Z" fill="#D0D0D0"/>
</svg>
