<svg width="50" height="30" viewBox="0 0 50 30" fill="none" xmlns="http://www.w3.org/2000/svg">
<path d="M36.7682 27.5306L36.0898 28.3846L35.4115 27.5306C32.8991 24.3677 32.8681 20.8255 35.325 17.651L36.0898 16.6628L36.8547 17.651C39.3116 20.8255 39.2806 24.3677 36.7682 27.5306Z" stroke="#5E6165" stroke-width="1.3" stroke-linejoin="round"/>
<path d="M31.9518 12.0033L31.2734 12.8572L30.5951 12.0033C28.0827 8.84033 28.0517 5.29817 30.5086 2.12368L31.2734 1.1355L32.0383 2.12368C34.4952 5.29817 34.4642 8.84033 31.9518 12.0033Z" stroke="#5E6165" stroke-width="1.3" stroke-linejoin="round"/>
<path d="M25.9283 27.5306L25.25 28.3846L24.5717 27.5306C22.0592 24.3677 22.0282 20.8255 24.4852 17.651L25.25 16.6628L26.0148 17.651C28.4718 20.8255 28.4408 24.3677 25.9283 27.5306Z" stroke="#5E6165" stroke-width="1.3" stroke-linejoin="round"/>
<path d="M21.108 12.0033L20.4297 12.8572L19.7514 12.0033C17.2389 8.84033 17.2079 5.29817 19.6649 2.12368L20.4297 1.1355L21.1945 2.12368C23.6514 5.29817 23.6204 8.84033 21.108 12.0033Z" stroke="#5E6165" stroke-width="1.3" stroke-linejoin="round"/>
<path d="M15.0846 27.5306L14.4062 28.3846L13.7279 27.5306C11.2155 24.3677 11.1845 20.8255 13.6414 17.651L14.4062 16.6628L15.1711 17.651C17.628 20.8255 17.597 24.3677 15.0846 27.5306Z" stroke="#5E6165" stroke-width="1.3" stroke-linejoin="round"/>
</svg>
