<svg width="37" height="22" viewBox="0 0 37 22" fill="none" xmlns="http://www.w3.org/2000/svg">
<path d="M36.6649 10.9373C36.0909 11.8557 35.5648 12.8027 34.9334 13.6828C32.5801 16.9928 29.538 19.4131 25.6158 20.628C24.42 21.0011 23.1859 21.202 21.9327 21.3072C21.1866 21.3646 20.4595 21.269 19.742 21.0776C18.9002 20.848 18.0297 20.7715 17.1974 21.0298C15.6285 21.4986 14.0787 21.3359 12.529 20.9915C11.6011 20.7906 10.7018 20.4654 9.79302 20.1784C9.39123 20.054 9.2286 19.767 9.3434 19.4609C9.4582 19.1357 9.77389 19.0209 10.1757 19.1835C11.5819 19.7383 13.036 20.0732 14.5475 20.2167C15.2171 20.2836 15.8772 20.2549 16.5277 20.0732C17.6757 19.7479 18.8428 19.7097 19.9908 20.0445C21.2535 20.4176 22.4971 20.2358 23.7408 19.9966C28.3231 19.107 31.7191 16.4762 34.3212 12.7071C34.6273 12.267 34.8951 11.8174 35.23 11.3008C34.5795 11.3008 34.0055 11.3008 33.4411 11.3008C33.3071 11.3008 33.1732 11.3104 33.0488 11.3008C32.7427 11.2721 32.5227 11.0521 32.5227 10.7747C32.5227 10.4781 32.7427 10.2485 33.0775 10.239C33.6037 10.2294 34.1298 10.239 34.656 10.2294C34.7229 10.2294 34.7899 10.2198 34.9047 10.2198C34.8473 10.1337 34.8186 10.0859 34.7803 10.0381C32.4175 7.47428 29.978 4.97746 27.156 2.92069C26.3141 2.30845 25.3862 1.79186 24.4487 1.33268C22.8128 0.548237 20.1056 1.54314 19.1393 2.96853C18.8141 3.45641 18.4219 3.59991 17.9818 3.41814C17.7905 3.34161 17.6087 3.18855 17.4844 3.03549C16.0016 1.11265 13.4761 0.538671 11.3523 1.67707C10.8262 1.95449 10.3287 2.28931 9.83129 2.605C9.44863 2.84416 9.15207 2.82503 8.96075 2.52847C8.78855 2.25105 8.87465 1.95449 9.2286 1.71533C10.2618 1.00742 11.3141 0.270812 12.5768 0.0794848C14.7101 -0.245771 16.5469 0.433441 18.0488 2.00232C18.1253 2.08842 18.2018 2.17452 18.3071 2.29888C18.8045 1.65794 19.3976 1.15092 20.1056 0.787396C21.9997 -0.188372 23.8843 -0.322302 25.8071 0.758697C27.4621 1.68663 28.9449 2.84416 30.3511 4.09735C32.4844 5.99149 34.4647 8.04826 36.3588 10.1816C36.4736 10.3155 36.5788 10.459 36.6936 10.5929C36.6649 10.6981 36.6649 10.8129 36.6649 10.9373Z" fill="black"/>
<path d="M1.73658 10.2099C4.25253 10.2099 6.67282 10.2003 9.09311 10.2099C11.5899 10.229 13.8763 9.56891 15.9426 8.18179C16.3731 7.88524 16.8227 7.85654 17.2915 8.07656C17.9803 8.40182 18.6786 8.39225 19.3578 8.07656C19.8361 7.85654 20.2762 7.90437 20.7067 8.19136C22.7252 9.54022 24.9541 10.2099 27.384 10.2099C28.3789 10.2099 29.3642 10.2099 30.3591 10.2099C30.7992 10.2099 31.0575 10.4203 31.0479 10.7551C31.0383 11.0804 30.7896 11.2813 30.3687 11.2813C29.2781 11.2813 28.1971 11.2717 27.1066 11.2909C24.8393 11.31 22.7634 11.9605 20.8693 13.1946C19.0995 14.3521 17.5306 14.3425 15.7704 13.1946C13.8859 11.9605 11.8195 11.31 9.57143 11.2909C6.96938 11.2717 4.36733 11.2813 1.76528 11.2813C1.67918 11.2813 1.60265 11.2909 1.47828 11.2909C1.53568 11.4057 1.57395 11.5013 1.63135 11.5874C3.17153 14.1512 5.13263 16.3228 7.67729 17.9203C8.08864 18.1786 8.1843 18.5135 7.93558 18.8004C7.73468 19.0396 7.46683 19.0587 7.132 18.8483C5.68748 17.949 4.39602 16.8585 3.24806 15.5957C2.00443 14.2277 0.980835 12.7162 0.100729 11.09C-0.0618986 10.7934 -0.0236338 10.5542 0.186826 10.3055C2.30099 7.88523 4.51082 5.56061 6.94068 3.45601C7.25637 3.18815 7.58162 3.18815 7.79208 3.44645C8.01211 3.70474 7.95471 4.00129 7.62945 4.27872C5.62052 6.0198 3.77421 7.90437 1.99487 9.87504C1.93747 9.9707 1.87051 10.0568 1.73658 10.2099ZM23.5479 10.7647C23.4618 10.7169 23.4139 10.6882 23.3565 10.669C22.2277 10.3055 21.1754 9.77937 20.1805 9.13843C20.0657 9.07146 19.8648 9.0619 19.7309 9.10973C18.803 9.49238 17.875 9.51152 16.9567 9.10016C16.7558 9.01407 16.6123 9.0332 16.4401 9.148C15.4739 9.79851 14.4407 10.296 13.331 10.6595C13.2736 10.6786 13.2162 10.7169 13.1301 10.7647C14.4503 11.1761 15.6174 11.8074 16.7558 12.5249C17.7507 13.1563 18.8412 13.185 19.8457 12.5728C21.0032 11.8553 22.1895 11.1856 23.5479 10.7647Z" fill="black"/>
</svg>
