<svg width="27" height="36" viewBox="0 0 27 36" fill="none" xmlns="http://www.w3.org/2000/svg">
<path d="M19.6794 7.10475C20.5362 7.69197 21.4122 8.20218 22.1727 8.84716C25.5035 11.6581 27.1015 15.2681 26.9956 19.6289C26.9571 21.1499 26.4758 22.5747 25.9752 23.9898C25.8693 24.2786 25.879 24.5 26.0426 24.7888C27.1882 26.8585 25.6961 29.4192 23.3279 29.4384C22.914 29.4384 22.7118 29.5539 22.5097 29.9198C20.9309 32.7885 18.582 34.733 15.3956 35.5898C13.5858 36.0711 11.853 35.715 10.1973 34.8967C7.85799 33.7511 6.06745 32.028 4.893 29.708C4.72935 29.3903 4.50794 29.4481 4.26728 29.4481C2.41897 29.4288 0.974982 27.9559 1.10013 26.1365C1.12901 25.6359 1.38893 25.1546 1.5237 24.6636C1.57183 24.4904 1.61996 24.2978 1.57183 24.1342C1.27341 23.0079 0.84021 21.9104 0.657305 20.7745C0.156723 17.6362 0.86909 14.7097 2.53449 12.0239C3.79557 9.9831 5.5091 8.42359 7.62695 7.3069C7.70397 7.2684 7.77135 7.22027 7.83874 7.18176C7.72322 6.77744 7.56919 6.40201 7.50181 6.00732C7.22264 4.48632 7.68471 3.1771 8.72439 2.07004C11.2273 -0.596522 16.031 -0.663908 18.6301 1.90639C20.0838 3.34075 20.4592 5.1313 19.6987 7.02773C19.6891 7.07587 19.6698 7.124 19.6794 7.10475ZM2.58262 21.3232C2.50561 20.9285 2.43822 20.582 2.36121 20.2065C2.81366 20.1103 3.23723 20.0236 3.65117 19.9466C6.76056 19.3498 9.35011 17.8576 11.3909 15.4317C12.1226 14.5653 12.7194 13.6123 13.1911 12.5823C13.3066 12.332 13.4895 12.1202 13.7687 12.1876C13.9709 12.2357 14.1442 12.4379 14.3174 12.5823C14.3559 12.6208 14.3656 12.6882 14.3944 12.7459C16.3198 16.5773 19.381 18.9647 23.5686 19.8985C24.0884 20.014 24.6083 20.1199 25.157 20.2354C25.0703 20.6397 24.9933 20.9863 24.9163 21.3521C24.6083 21.2943 24.358 21.2462 24.0884 21.1981C24.0595 21.8431 24.021 22.4399 24.0018 23.0367C24.0018 23.1138 24.0788 23.2293 24.1558 23.2678C24.3868 23.3833 24.6371 23.4699 24.8874 23.5662C27.1112 18.5796 25.388 12.717 21.0464 9.42475C16.4257 5.9303 9.91808 6.2191 5.63425 10.1275C1.5622 13.8434 0.715064 19.446 2.65001 23.5566C2.93881 23.4411 3.21798 23.3159 3.52603 23.1908C3.49715 22.5362 3.45864 21.8816 3.42976 21.2077C3.13134 21.2269 2.87142 21.2655 2.58262 21.3232ZM18.2451 19.6578C15.2512 18.8877 12.267 18.8973 9.28273 19.6578C9.22497 19.4172 9.17684 19.215 9.11908 19.0128C9.06132 19.0417 9.01318 19.0513 8.97468 19.0706C7.67509 19.8889 6.28886 20.4953 4.79674 20.8611C4.55607 20.9189 4.57533 21.0633 4.58495 21.2366C4.64271 22.3918 4.69085 23.5373 4.7486 24.6925C4.95076 28.649 6.76056 31.6333 10.1876 33.6067C11.7664 34.5116 13.4414 34.9256 15.2705 34.4539C18.9478 33.5008 22.0957 29.9968 22.6059 26.1461C22.8273 24.5 22.8273 22.8153 22.9429 21.1499C22.9621 20.9093 22.8177 20.89 22.6541 20.8323C21.8743 20.5627 21.0753 20.322 20.3244 20.0044C19.6698 19.7252 19.0441 19.3594 18.4087 19.0225C18.3413 19.2054 18.3028 19.3883 18.2451 19.6578ZM18.582 6.71006C18.6494 6.55603 18.6975 6.45014 18.736 6.34425C19.227 5.04466 18.8419 3.56216 17.6867 2.60913C15.694 0.972612 13.4703 0.789707 11.1407 1.76199C9.95659 2.25295 9.06131 3.09046 8.6955 4.38042C8.46447 5.17943 8.55111 5.95918 8.95542 6.71006C12.1611 5.50673 15.3571 5.50673 18.582 6.71006ZM13.7495 14.007C12.7964 15.6724 11.6027 17.0586 10.1684 18.2427C12.5654 17.7903 14.9335 17.7999 17.3209 18.2331C15.8866 17.0586 14.7121 15.6628 13.7495 14.007ZM4.14213 28.2736C3.92072 27.0029 3.69931 25.7226 3.48752 24.4519C2.71739 24.6348 2.10129 25.6263 2.24569 26.5601C2.39009 27.5709 3.28536 28.341 4.14213 28.2736ZM23.3664 28.2736C24.2424 28.341 25.157 27.5227 25.2725 26.4734C25.3688 25.5589 24.7045 24.5385 24.0307 24.4615C23.8092 25.7418 23.5878 27.0125 23.3664 28.2736Z" fill="#5E6165"/>
<path d="M19.6119 20.8249C19.5541 21.2003 19.4964 21.5469 19.4194 21.9609C15.6554 21.2003 11.8914 21.1811 8.08888 21.9705C8.02149 21.5758 7.9541 21.2196 7.88672 20.8345C11.8047 20.0259 15.6939 20.0355 19.6119 20.8249Z" fill="#5E6165"/>
<path d="M6.95312 23.989C7.2708 23.7772 7.56923 23.5751 7.8869 23.3633C8.34898 24.0564 8.72442 24.8265 9.70633 24.8361C10.6882 24.8361 11.0733 24.0756 11.5354 23.3633C11.8627 23.5751 12.1611 23.7869 12.4692 23.989C11.8819 25.1057 11.1118 25.9528 9.77371 25.9817C8.38749 26.0106 7.57885 25.1635 6.95312 23.989Z" fill="#5E6165"/>
<path d="M15.0391 23.9911C15.3279 23.7889 15.6263 23.5964 15.9536 23.375C16.098 23.5868 16.2424 23.7986 16.3772 24.0007C17.1473 25.1463 18.4276 25.1367 19.1978 23.9911C19.3325 23.7889 19.4673 23.5964 19.6117 23.375C19.9294 23.5868 20.2278 23.7793 20.5166 23.9815C20.1123 25.1078 19.0437 25.9357 17.9367 25.9934C16.7141 26.0512 15.6744 25.3388 15.0391 23.9911Z" fill="#5E6165"/>
<path d="M15.1836 27.06C15.3954 26.7231 15.5783 26.4054 15.7804 26.0781C17.7635 27.1948 18.9957 28.8313 19.5059 31.0647C19.1209 31.1417 18.7647 31.2091 18.3796 31.2861C17.9464 29.3897 16.8779 27.9938 15.1836 27.06Z" fill="#5E6165"/>
<path d="M9.13022 31.2861C8.74515 31.2091 8.3986 31.1417 8.00391 31.0647C8.50449 28.841 9.73669 27.2141 11.7294 26.0781C11.9219 26.3958 12.1145 26.7039 12.3262 27.0504C11.5272 27.5125 10.8149 28.0708 10.2662 28.8025C9.70781 29.5341 9.342 30.3427 9.13022 31.2861Z" fill="#5E6165"/>
<path d="M11.4688 31.7399C11.4688 31.3548 11.4688 30.9986 11.4688 30.6328C12.9898 30.6328 14.5011 30.6328 16.0318 30.6328C16.0318 30.989 16.0318 31.3548 16.0318 31.7399C14.5204 31.7399 13.009 31.7399 11.4688 31.7399Z" fill="#5E6165"/>
<path d="M12.2266 28.6902C12.4769 28.4399 12.7368 28.1896 12.9871 27.9393C13.7476 28.4206 13.8149 28.4206 14.5177 27.9297C14.5658 27.9778 14.6236 28.0163 14.6717 28.0645C14.8835 28.257 15.0953 28.4495 15.2974 28.6421C14.6332 29.701 12.9678 29.7106 12.2266 28.6902Z" fill="#5E6165"/>
<path d="M14.8951 32.3633C14.8951 32.7483 14.8951 33.0949 14.8951 33.4703C14.1442 33.4703 13.4029 33.4703 12.6328 33.4703C12.6328 33.1142 12.6328 32.7483 12.6328 32.3633C13.3644 32.3633 14.1153 32.3633 14.8951 32.3633Z" fill="#5E6165"/>
</svg>
