<svg width="29" height="12" viewBox="0 0 29 12" fill="none" xmlns="http://www.w3.org/2000/svg">
<path d="M15.0278 0.653052C14.9871 1.04718 14.756 1.23745 14.3891 1.25104C9.34692 1.56363 6.01721 4.39049 3.59807 8.56282C3.06803 9.4734 2.57877 10.3976 2.06232 11.3081C1.99437 11.444 1.89923 11.5664 1.79051 11.6751C1.53229 11.9197 1.19252 11.9741 0.98866 11.7023C0.839162 11.5256 0.757615 11.1315 0.86634 10.9412C1.72255 9.39185 2.538 7.80174 3.5573 6.34754C5.77258 3.18092 8.70816 1.00641 12.5543 0.19097C13.1659 0.0686538 13.7911 0.0550636 14.4162 0.0278822C14.7968 0.0142916 15.0006 0.258922 15.0278 0.653052Z" fill="#5E6165"/>
<path d="M17.6068 2.09198C18.0825 2.09198 18.5582 2.07839 19.0338 2.09198C19.5231 2.11916 19.7949 2.37738 19.7813 2.74433C19.7541 3.12487 19.4687 3.32873 18.9659 3.30154C17.3214 3.22 15.6905 3.26077 14.0732 3.64131C11.9123 4.14416 10.0912 5.20424 8.58261 6.83511C7.54971 7.94955 6.48964 9.05039 5.44316 10.1648C5.36161 10.2464 5.28007 10.3415 5.19853 10.423C4.91312 10.6813 4.61412 10.7084 4.34231 10.4502C4.0705 10.192 4.0705 9.86583 4.32872 9.59402C4.75003 9.13194 5.18493 8.68344 5.61983 8.23495C6.544 7.27002 7.4274 6.26431 8.39234 5.34014C10.6892 3.12487 13.5296 2.24147 16.6555 2.09198C16.9816 2.07839 17.2942 2.09198 17.6204 2.09198C17.6068 2.07839 17.6068 2.09198 17.6068 2.09198Z" fill="#5E6165"/>
<path d="M19.4429 4.0625C21.1145 4.33431 22.7726 4.60613 24.4442 4.87794C24.8655 4.94589 25.1374 5.17693 25.0558 5.65261C24.9879 6.01956 24.6481 6.18264 24.1724 6.06033C21.7805 5.48952 19.3613 5.2313 16.915 5.62542C14.1561 6.06033 11.7234 7.14758 9.7799 9.19976C9.49449 9.49876 9.20909 9.62108 8.84214 9.36285C8.52956 9.13181 8.52956 8.75127 8.85573 8.38433C10.473 6.60395 12.5116 5.48952 14.7949 4.82358C16.3034 4.38868 17.8528 4.212 19.4157 4.19841C19.4293 4.15763 19.4293 4.11686 19.4429 4.0625Z" fill="#5E6165"/>
<path d="M19.5535 6.55078C21.8639 6.57796 23.9161 6.90414 25.846 7.77394C26.0635 7.86908 26.3081 8.10012 26.376 8.30398C26.5255 8.80684 26.0227 9.10583 25.4519 8.92915C24.4869 8.61656 23.5356 8.26321 22.5435 8.05935C20.2195 7.58367 17.8955 7.76035 15.5986 8.31757C15.3268 8.38552 14.9599 8.37193 14.756 8.22244C14.3619 7.95062 14.5657 7.32545 15.1094 7.20314C16.0607 6.98569 17.0256 6.80901 18.0042 6.65951C18.575 6.57797 19.173 6.57796 19.5535 6.55078Z" fill="#5E6165"/>
<path d="M28.0589 9.15625C28.4531 9.15625 29.0103 9.64552 28.9967 9.99888C28.9831 10.3658 28.7792 10.5969 28.3987 10.6105C28.0182 10.6241 27.4745 10.1212 27.4609 9.76784C27.4609 9.41448 27.7192 9.15625 28.0589 9.15625Z" fill="#5E6165"/>
</svg>
