<svg width="36" height="21" viewBox="0 0 36 21" fill="none" xmlns="http://www.w3.org/2000/svg">
<path d="M17.7173 7.06377C12.1319 7.06377 6.54657 7.06377 0.961191 7.06377C0.813373 7.06377 0.665556 7.07433 0.528297 7.05322C0.200988 7.01098 -0.0101798 6.73646 0.000378522 6.41971C0.0214953 6.0924 0.19043 5.88124 0.517739 5.81789C0.633882 5.79677 0.750023 5.80733 0.876723 5.80733C12.1003 5.80733 23.3238 5.80733 34.5368 5.80733C34.6529 5.80733 34.7796 5.79677 34.8958 5.81789C35.2125 5.89179 35.4026 6.10296 35.4026 6.43027C35.4026 6.75758 35.2125 6.96875 34.8958 7.04266C34.7585 7.07433 34.6107 7.06377 34.4629 7.06377C28.8881 7.06377 23.3027 7.06377 17.7173 7.06377Z" fill="#5E6165"/>
<path d="M17.7173 4.25909C12.1319 4.25909 6.54657 4.25909 0.961191 4.25909C0.813373 4.25909 0.665556 4.26965 0.528297 4.24853C0.200988 4.20629 -0.0101798 3.93178 0.000378522 3.61503C0.0214953 3.28772 0.19043 3.07655 0.517739 3.0132C0.633882 2.99208 0.750023 3.00264 0.876723 3.00264C12.1003 3.00264 23.3238 3.00264 34.5368 3.00264C34.6529 3.00264 34.7796 2.99208 34.8958 3.0132C35.2125 3.08711 35.4026 3.29828 35.4026 3.62559C35.4026 3.95289 35.2125 4.16406 34.8958 4.23797C34.7585 4.26964 34.6107 4.25909 34.4629 4.25909C28.8881 4.25909 23.3027 4.25909 17.7173 4.25909Z" fill="#5E6165"/>
<path d="M17.7173 1.25909C12.1319 1.25909 6.54657 1.25909 0.961191 1.25909C0.813373 1.25909 0.665556 1.26965 0.528297 1.24853C0.200988 1.20629 -0.0101798 0.931777 0.000378522 0.615026C0.0214953 0.287717 0.19043 0.0765485 0.517739 0.0131983C0.633882 -0.00791845 0.750023 0.00263927 0.876723 0.00263927C12.1003 0.00263927 23.3238 0.00263927 34.5368 0.00263927C34.6529 0.00263927 34.7796 -0.00791845 34.8958 0.0131983C35.2125 0.0871068 35.4026 0.298276 35.4026 0.625585C35.4026 0.952895 35.2125 1.16406 34.8958 1.23797C34.7585 1.26964 34.6107 1.25909 34.4629 1.25909C28.8881 1.25909 23.3027 1.25909 17.7173 1.25909Z" fill="#5E6165"/>
<path d="M2.51297 9.58594C3.90667 9.58594 5.04697 10.7157 5.04697 12.1094C5.04697 13.5031 3.90667 14.6434 2.51297 14.6328C1.14038 14.6328 7.34092e-05 13.5031 7.34092e-05 12.1199C-0.010485 10.7368 1.11926 9.5965 2.51297 9.58594ZM3.79053 12.0988C3.77997 11.4125 3.20982 10.8529 2.52352 10.8529C1.83723 10.8529 1.26708 11.4231 1.26708 12.1094C1.26708 12.8168 1.85835 13.3869 2.5552 13.3764C3.24149 13.3658 3.80109 12.7851 3.79053 12.0988Z" fill="#5E6165"/>
<path d="M12.6407 9.58594C14.0344 9.58594 15.1747 10.7157 15.1747 12.1199C15.1747 13.5137 14.0344 14.654 12.6302 14.6434C11.2576 14.6434 10.1173 13.5137 10.1173 12.1305C10.1067 10.7368 11.247 9.5965 12.6407 9.58594ZM13.9077 12.0988C13.8972 11.4125 13.327 10.8529 12.6407 10.8529C11.9544 10.8529 11.3843 11.4231 11.3843 12.1094C11.3843 12.8168 11.9755 13.3869 12.6724 13.3764C13.3587 13.3658 13.9183 12.7851 13.9077 12.0988Z" fill="#5E6165"/>
<path d="M22.7434 9.58601C24.1371 9.57545 25.2879 10.7158 25.2879 12.1095C25.2879 13.5032 24.1476 14.6435 22.7539 14.6435C21.3813 14.6435 20.241 13.5137 20.2305 12.1411C20.2305 10.7474 21.3602 9.59657 22.7434 9.58601ZM24.0315 12.12C24.0315 11.4337 23.4613 10.8636 22.775 10.853C22.0887 10.8425 21.508 11.4126 21.4975 12.0989C21.4869 12.8063 22.0676 13.387 22.7645 13.387C23.4613 13.3765 24.0315 12.8063 24.0315 12.12Z" fill="#5E6165"/>
<path d="M35.413 12.1094C35.413 13.5031 34.2727 14.6434 32.879 14.6434C31.4853 14.6434 30.345 13.5031 30.3555 12.0988C30.3555 10.7262 31.4853 9.58594 32.8684 9.58594C34.2621 9.58594 35.413 10.7157 35.413 12.1094ZM34.146 12.1199C34.146 11.4337 33.5864 10.8635 32.9001 10.8529C32.2138 10.8424 31.6331 11.402 31.6225 12.0883C31.612 12.7957 32.1927 13.3764 32.8895 13.3764C33.5758 13.3764 34.146 12.8062 34.146 12.1199Z" fill="#5E6165"/>
<path d="M10.1161 17.8114C10.1161 19.2051 8.97582 20.3454 7.57156 20.3348C6.17785 20.3242 5.04811 19.1839 5.05867 17.7797C5.06923 16.4071 6.19897 15.2773 7.58212 15.2773C8.97582 15.2773 10.1161 16.4176 10.1161 17.8114ZM8.84912 17.8219C8.85968 17.1356 8.30009 16.5549 7.61379 16.5443C6.9275 16.5338 6.34679 17.0828 6.32567 17.7691C6.30455 18.4765 6.88526 19.0678 7.58212 19.0678C8.26841 19.0784 8.83856 18.5082 8.84912 17.8219Z" fill="#5E6165"/>
<path d="M17.6848 15.2774C19.0785 15.2669 20.2294 16.4072 20.2294 17.8009C20.2294 19.1946 19.0891 20.3349 17.6954 20.3349C16.3228 20.3349 15.1825 19.2051 15.1719 17.8325C15.1614 16.4388 16.2911 15.288 17.6848 15.2774ZM18.973 17.822C18.973 17.1357 18.4134 16.555 17.7271 16.555C17.0408 16.5444 16.4601 17.104 16.4495 17.7903C16.439 18.4977 17.0091 19.0784 17.7165 19.0784C18.3923 19.0679 18.9624 18.5083 18.973 17.822Z" fill="#5E6165"/>
<path d="M27.8098 15.2773C29.2035 15.2773 30.3439 16.4071 30.3439 17.8008C30.3439 19.1945 29.2035 20.3348 27.8098 20.3242C26.4373 20.3242 25.2969 19.1945 25.2969 17.8114C25.2864 16.4282 26.4161 15.2879 27.8098 15.2773ZM26.564 17.8114C26.564 18.4976 27.1341 19.0678 27.8204 19.0678C28.5067 19.0678 29.0768 18.5082 29.0874 17.8219C29.098 17.1145 28.5173 16.5338 27.8098 16.5443C27.1235 16.5549 26.5534 17.1251 26.564 17.8114Z" fill="#5E6165"/>
<path d="M8.53019 10.8856C8.50907 11.403 8.06562 11.8253 7.5377 11.8042C7.02034 11.7831 6.60857 11.3185 6.62968 10.8117C6.66136 10.3049 7.09425 9.90371 7.60105 9.91427C8.12897 9.92482 8.55131 10.3683 8.53019 10.8856Z" fill="#5E6165"/>
<path d="M18.6478 10.8439C18.6583 11.3613 18.2254 11.8048 17.7081 11.8048C17.1907 11.8048 16.7578 11.3719 16.7578 10.8545C16.7578 10.3477 17.1801 9.92536 17.6764 9.9148C18.2043 9.89369 18.6478 10.3266 18.6478 10.8439Z" fill="#5E6165"/>
<path d="M28.773 10.8539C28.773 11.3713 28.3401 11.8042 27.8227 11.8042C27.3053 11.7936 26.8724 11.3607 26.883 10.8434C26.8936 10.3366 27.3159 9.92481 27.8227 9.91425C28.3401 9.90369 28.773 10.3366 28.773 10.8539Z" fill="#5E6165"/>
<path d="M2.54675 16.2268C3.06411 16.2373 3.48644 16.6808 3.47589 17.1981C3.46533 17.7155 3.01132 18.1378 2.49396 18.1167C1.98716 18.0956 1.58594 17.6627 1.58594 17.1664C1.58594 16.6491 2.02939 16.2162 2.54675 16.2268Z" fill="#5E6165"/>
<path d="M12.6186 18.126C12.1012 18.1049 11.6789 17.6509 11.7 17.1335C11.7211 16.6162 12.1751 16.2044 12.6925 16.2361C13.1993 16.2678 13.6005 16.7007 13.5899 17.1969C13.5794 17.7143 13.1359 18.1366 12.6186 18.126Z" fill="#5E6165"/>
<path d="M22.7641 16.2266C23.2815 16.2266 23.7144 16.6595 23.7144 17.1768C23.7144 17.6942 23.2709 18.1271 22.7536 18.1165C22.2467 18.106 21.835 17.6836 21.8244 17.1874C21.8139 16.67 22.2362 16.2371 22.7641 16.2266Z" fill="#5E6165"/>
<path d="M31.9431 17.1243C31.9748 16.6069 32.4394 16.1951 32.9567 16.2374C33.4635 16.269 33.8542 16.7125 33.8331 17.2193C33.8119 17.7366 33.3579 18.159 32.8406 18.1273C32.3232 18.0956 31.9114 17.6416 31.9431 17.1243Z" fill="#5E6165"/>
</svg>
