<svg width="37" height="36" viewBox="0 0 37 36" fill="none" xmlns="http://www.w3.org/2000/svg">
<path d="M35.9608 19.5938H23.0972C22.5445 19.5938 22.0169 19.7947 21.5898 20.1465L21.5646 20.1716C20.6853 20.9253 19.5547 21.3524 18.399 21.3524C17.2935 21.3524 16.2132 20.9756 15.3589 20.2721L15.1579 20.1214C14.756 19.7947 14.2283 19.5938 13.7007 19.5938H0.761719" stroke="#5E6165" stroke-width="1.3" stroke-miterlimit="10" stroke-linecap="round" stroke-linejoin="round"/>
<path d="M0.789062 16.5781H13.7281C14.8335 16.5781 15.9139 16.955 16.7681 17.6585L16.9691 17.8092C17.3711 18.1358 17.8987 18.3368 18.4263 18.3368C18.979 18.3368 19.5067 18.1358 19.9338 17.7841L19.9589 17.759C20.8382 17.0052 21.9688 16.5781 23.1245 16.5781H35.9882" stroke="#5E6165" stroke-width="1.3" stroke-miterlimit="10" stroke-linecap="round" stroke-linejoin="bevel"/>
<path d="M27.8167 34.4654C28.7186 34.4654 29.4497 33.7342 29.4497 32.8323C29.4497 31.9304 28.7186 31.1992 27.8167 31.1992C26.9147 31.1992 26.1836 31.9304 26.1836 32.8323C26.1836 33.7342 26.9147 34.4654 27.8167 34.4654Z" stroke="#5E6165" stroke-width="1.3" stroke-miterlimit="10" stroke-linecap="round"/>
<path d="M33.6995 30.2701C34.6014 30.2701 35.3325 29.5389 35.3325 28.637C35.3325 27.7351 34.6014 27.0039 33.6995 27.0039C32.7976 27.0039 32.0664 27.7351 32.0664 28.637C32.0664 29.5389 32.7976 30.2701 33.6995 30.2701Z" stroke="#5E6165" stroke-width="1.3" stroke-miterlimit="10" stroke-linecap="round"/>
<path d="M27.3167 26.9537C28.2186 26.9537 28.9497 26.2225 28.9497 25.3206C28.9497 24.4187 28.2186 23.6875 27.3167 23.6875C26.4147 23.6875 25.6836 24.4187 25.6836 25.3206C25.6836 26.2225 26.4147 26.9537 27.3167 26.9537Z" stroke="#5E6165" stroke-width="1.3" stroke-miterlimit="10" stroke-linecap="round"/>
<path d="M10.0042 26.8052C10.9061 26.8052 11.6373 26.0741 11.6373 25.1721C11.6373 24.2702 10.9061 23.5391 10.0042 23.5391C9.10225 23.5391 8.37109 24.2702 8.37109 25.1721C8.37109 26.0741 9.10225 26.8052 10.0042 26.8052Z" stroke="#5E6165" stroke-width="1.3" stroke-miterlimit="10" stroke-linecap="round"/>
<path d="M3.82448 30.5474C4.72641 30.5474 5.45756 29.8162 5.45756 28.9143C5.45756 28.0124 4.72641 27.2812 3.82448 27.2812C2.92256 27.2812 2.19141 28.0124 2.19141 28.9143C2.19141 29.8162 2.92256 30.5474 3.82448 30.5474Z" stroke="#5E6165" stroke-width="1.3" stroke-miterlimit="10" stroke-linecap="round"/>
<path d="M9.92995 34.3404C10.8319 34.3404 11.563 33.6092 11.563 32.7073C11.563 31.8054 10.8319 31.0742 9.92995 31.0742C9.02803 31.0742 8.29688 31.8054 8.29688 32.7073C8.29688 33.6092 9.02803 34.3404 9.92995 34.3404Z" stroke="#5E6165" stroke-width="1.3" stroke-miterlimit="10" stroke-linecap="round"/>
<path d="M18.457 1L18.4437 26.7285" stroke="#5E6165" stroke-width="1.3" stroke-miterlimit="10" stroke-linecap="round" stroke-linejoin="bevel"/>
</svg>
