<svg width="42" height="41" viewBox="0 0 42 41" fill="none" xmlns="http://www.w3.org/2000/svg">
<path d="M12.8702 32.8111C12.812 32.6788 12.7431 32.5464 12.7008 32.3982C12.5103 31.7949 12.7643 31.1703 13.3201 30.8686C13.8599 30.5722 14.548 30.6992 14.945 31.1703C15.342 31.6414 15.3525 32.3189 14.9715 32.827C14.6221 33.2927 13.9288 33.4462 13.3783 33.1922C13.3042 33.1604 13.2248 33.1234 13.1507 33.0916C13.0554 32.9963 12.9654 32.9064 12.8702 32.8111Z" fill="#BCBCBC"/>
<path d="M13.1424 8.28334C13.2271 8.241 13.3118 8.20924 13.3965 8.1669C13.9681 7.91284 14.6562 8.0928 14.9897 8.58504C15.3655 9.13021 15.3072 9.82357 14.8573 10.2735C14.4074 10.7234 13.7088 10.7763 13.1689 10.4058C12.682 10.067 12.4967 9.37368 12.7561 8.80734C12.7984 8.72265 12.8302 8.63797 12.8725 8.55328C12.9572 8.46859 13.0525 8.37332 13.1424 8.28334Z" fill="#BCBCBC"/>
<path d="M8.9099 12.5187C8.984 12.4869 9.06339 12.4498 9.1322 12.4128C9.70912 12.1429 10.4131 12.3175 10.7571 12.8204C11.1276 13.3602 11.0747 14.0589 10.6248 14.5088C10.1696 14.964 9.46036 15.0169 8.9099 14.6252C8.42824 14.2812 8.25887 13.5825 8.52352 13.0215C8.55527 12.9474 8.59232 12.868 8.62408 12.7939C8.72465 12.7039 8.81992 12.6086 8.9099 12.5187Z" fill="#BCBCBC"/>
<path d="M8.63 28.5722C8.59824 28.5087 8.57177 28.4398 8.53472 28.371C8.2542 27.8047 8.41828 27.0902 8.91052 26.7355C9.45569 26.3492 10.1702 26.3968 10.6254 26.852C11.0859 27.3125 11.1335 28.027 10.7419 28.5669C10.3872 29.0591 9.67269 29.2232 9.11165 28.9374C9.04813 28.9056 8.97933 28.8792 8.91052 28.8421C8.81525 28.7574 8.71997 28.6621 8.63 28.5722Z" fill="#BCBCBC"/>
<path d="M18.7091 18.7755C19.7465 19.8235 19.7465 21.549 18.6985 22.5864C17.6452 23.6291 15.9303 23.6291 14.8876 22.5864C13.8396 21.5384 13.8396 19.7918 14.8982 18.7544C15.9515 17.7222 17.677 17.7328 18.7091 18.7755Z" fill="#3C4045"/>
<path d="M22.9132 26.8637C21.8335 27.8906 20.1186 27.8694 19.097 26.8161C18.0596 25.7363 18.0861 23.995 19.15 22.984C20.2244 21.9625 21.9499 21.9943 22.9608 23.0476C23.993 24.122 23.9665 25.8528 22.9132 26.8637Z" fill="#3C4045"/>
<path d="M27.1737 22.6075C26.1204 23.6396 24.3949 23.6396 23.3628 22.5969C22.3201 21.5436 22.3254 19.7917 23.384 18.7649C24.4479 17.7328 26.1681 17.7486 27.1949 18.7966C28.2323 19.8552 28.2164 21.5754 27.1737 22.6075Z" fill="#3C4045"/>
<path d="M22.9673 14.5613C23.9995 15.6146 23.9783 17.3401 22.925 18.3722C21.8664 19.4096 20.1357 19.3937 19.1141 18.3404C18.0714 17.266 18.0873 15.5352 19.1565 14.5084C20.215 13.4815 21.9299 13.5027 22.9673 14.5613Z" fill="#3C4045"/>
<path d="M26.2608 13.7028C25.5727 14.3909 24.4559 14.3962 23.7731 13.7028C23.0851 13.0147 23.0904 11.8979 23.7784 11.2098C24.4612 10.5376 25.5568 10.5324 26.2502 11.2151C26.9436 11.8979 26.9489 13.0147 26.2608 13.7028Z" fill="#828282"/>
<path d="M28.0087 25.9137C27.3207 25.2257 27.3259 24.1089 28.0193 23.4261C28.718 22.738 29.8189 22.7486 30.5123 23.442C31.1845 24.1247 31.1845 25.2257 30.507 25.9137C29.8083 26.6018 28.6968 26.6018 28.0087 25.9137Z" fill="#828282"/>
<path d="M14.0511 25.9137C13.363 26.6018 12.2462 26.5965 11.5634 25.9031C10.8806 25.2098 10.8912 24.0983 11.5846 23.4155C12.2674 22.7433 13.3736 22.7486 14.0564 23.4314C14.7392 24.1142 14.7392 25.2257 14.0511 25.9137Z" fill="#828282"/>
<path d="M15.8044 13.7067C15.1163 13.0186 15.1163 11.9071 15.8044 11.219C16.4978 10.5363 17.6093 10.5363 18.2921 11.2296C18.9695 11.9177 18.9695 13.008 18.2868 13.7014C17.6093 14.3895 16.4925 14.3948 15.8044 13.7067Z" fill="#828282"/>
<path d="M14.0563 15.4587C14.7444 16.1467 14.7391 17.2636 14.0457 17.9463C13.3577 18.6238 12.2567 18.6238 11.5793 17.9463C10.8912 17.2583 10.8806 16.1467 11.574 15.4534C12.2567 14.7706 13.3683 14.7706 14.0563 15.4587Z" fill="#828282"/>
<path d="M28.0048 15.464C28.6929 14.7654 29.7991 14.7601 30.4924 15.4535C31.1858 16.1362 31.1858 17.2583 30.4977 17.9464C29.8097 18.6345 28.6929 18.6292 28.0101 17.9358C27.3273 17.253 27.3273 16.1521 28.0048 15.464Z" fill="#828282"/>
<path d="M26.2661 27.6724C26.9542 28.3605 26.9436 29.4826 26.245 30.16C25.541 30.8428 24.4401 30.8322 23.752 30.1336C23.0798 29.4508 23.0904 28.3393 23.7679 27.6618C24.4666 26.9737 25.5728 26.979 26.2661 27.6724Z" fill="#828282"/>
<path d="M15.8175 27.6512C16.5003 26.9791 17.6012 26.9791 18.2893 27.6565C18.9826 28.3393 18.9826 29.4614 18.2946 30.1495C17.6065 30.8376 16.4897 30.8323 15.8016 30.1442C15.1135 29.4455 15.1241 28.3446 15.8175 27.6512Z" fill="#828282"/>
<path d="M32.0207 19.4214C32.7299 18.7439 33.8414 18.7651 34.5083 19.4744C35.1752 20.1836 35.1593 21.2686 34.466 21.9408C33.762 22.6236 32.6558 22.6077 31.9783 21.9091C31.2955 21.2051 31.3167 20.0936 32.0207 19.4214Z" fill="#BCBCBC"/>
<path d="M22.2802 34.122C21.5974 34.8154 20.4859 34.826 19.7926 34.1326C19.0992 33.4498 19.0992 32.3383 19.7926 31.6449C20.4753 30.9622 21.5657 30.9516 22.2591 31.6344C22.963 32.3171 22.9683 33.4233 22.2802 34.122Z" fill="#BCBCBC"/>
<path d="M22.2803 9.7158C21.5922 10.4145 20.486 10.4198 19.7926 9.72638C19.0992 9.03301 19.0939 7.9268 19.7926 7.23872C20.4754 6.55594 21.5657 6.55594 22.2591 7.22814C22.9578 7.90563 22.9683 9.01714 22.2803 9.7158Z" fill="#BCBCBC"/>
<path d="M10.072 21.9241C9.38388 22.6228 8.27766 22.6175 7.5843 21.9241C6.89622 21.236 6.90151 20.1192 7.59488 19.4364C8.28296 18.759 9.368 18.7537 10.0614 19.4364C10.76 20.1245 10.7653 21.2307 10.072 21.9241Z" fill="#BCBCBC"/>
<path d="M31.4278 14.509C30.9303 14.0009 30.9356 13.1699 31.4384 12.6671C31.9412 12.1642 32.7775 12.1642 33.2803 12.6671C33.7885 13.1752 33.7832 14.0273 33.2698 14.5302C32.7616 15.0277 31.9307 15.0224 31.4278 14.509Z" fill="#BCBCBC"/>
<path d="M29.046 31.089C29.5488 31.5918 29.5488 32.4281 29.0513 32.9362C28.5432 33.4443 27.6857 33.4443 27.1882 32.9256C26.6907 32.4175 26.7013 31.5812 27.2094 31.0837C27.7122 30.5809 28.5432 30.5862 29.046 31.089Z" fill="#BCBCBC"/>
<path d="M29.046 10.2853C28.5431 10.7881 27.7069 10.7881 27.204 10.2853C26.7012 9.78247 26.6959 8.95148 27.1935 8.44336C27.6963 7.92995 28.5537 7.92995 29.0565 8.44336C29.5541 8.95148 29.5488 9.78247 29.046 10.2853Z" fill="#BCBCBC"/>
<path d="M31.457 26.8403C31.9651 26.3428 32.8066 26.3587 33.3042 26.8668C33.8017 27.3749 33.7911 28.2112 33.2883 28.714C32.7749 29.2168 31.928 29.2062 31.4252 28.6822C30.9224 28.1688 30.9383 27.3378 31.457 26.8403Z" fill="#BCBCBC"/>
</svg>
