<svg width="50" height="30" viewBox="0 0 50 30" fill="none" xmlns="http://www.w3.org/2000/svg">
<path d="M36.7687 27.5267L36.0903 28.3807L35.412 27.5267C32.8996 24.3638 32.8686 20.8216 35.3255 17.6471L36.0903 16.6589L36.8551 17.6471C39.3121 20.8216 39.2811 24.3638 36.7687 27.5267Z" stroke="#3C4043" stroke-width="1.3" stroke-linejoin="round"/>
<path d="M31.9542 12.0033L31.2759 12.8572L30.5976 12.0033C28.0851 8.84033 28.0541 5.29817 30.5111 2.12368L31.2759 1.1355L32.0407 2.12368C34.4976 5.29817 34.4666 8.84033 31.9542 12.0033Z" stroke="#3C4043" stroke-width="1.3" stroke-linejoin="round"/>
<path d="M25.9283 27.5267L25.25 28.3807L24.5717 27.5267C22.0592 24.3638 22.0282 20.8216 24.4852 17.6471L25.25 16.6589L26.0148 17.6471C28.4718 20.8216 28.4408 24.3638 25.9283 27.5267Z" stroke="#3C4043" stroke-width="1.3" stroke-linejoin="round"/>
<path d="M21.1095 12.0033L20.4312 12.8572L19.7528 12.0033C17.2404 8.84033 17.2094 5.29817 19.6663 2.12368L20.4312 1.1355L21.196 2.12368C23.6529 5.29817 23.6219 8.84033 21.1095 12.0033Z" stroke="#3C4043" stroke-width="1.3" stroke-linejoin="round"/>
<path d="M15.0836 27.5267L14.4053 28.3807L13.7269 27.5267C11.2145 24.3638 11.1835 20.8216 13.6405 17.6471L14.4053 16.6589L15.1701 17.6471C17.627 20.8216 17.596 24.3638 15.0836 27.5267Z" stroke="#3C4043" stroke-width="1.3" stroke-linejoin="round"/>
</svg>
