<svg width="32" height="32" viewBox="0 0 32 32" fill="none" xmlns="http://www.w3.org/2000/svg">
<circle cx="16" cy="16" r="14" stroke="#BCBCBC" stroke-width="2" stroke-linecap="round" stroke-linejoin="round" stroke-dasharray="6 6"/>
<path d="M9.99106 24.9878C9.94742 24.8887 9.89585 24.7895 9.86412 24.6784C9.7213 24.2262 9.91172 23.7581 10.3283 23.532C10.7329 23.3098 11.2486 23.405 11.5461 23.7581C11.8437 24.1111 11.8516 24.6189 11.566 24.9997C11.3041 25.3488 10.7845 25.4639 10.3719 25.2735C10.3164 25.2497 10.2568 25.2219 10.2013 25.1981C10.1299 25.1267 10.0625 25.0593 9.99106 24.9878Z" fill="#BCBCBC"/>
<path d="M10.1951 6.59785C10.2586 6.56612 10.3221 6.54231 10.3855 6.51058C10.814 6.32016 11.3297 6.45504 11.5796 6.82397C11.8613 7.23257 11.8176 7.75225 11.4804 8.08945C11.1432 8.42664 10.6196 8.46631 10.215 8.18862C9.84999 7.93473 9.71114 7.41506 9.90553 6.99059C9.93726 6.92711 9.96106 6.86364 9.9928 6.80017C10.0563 6.7367 10.1277 6.66529 10.1951 6.59785Z" fill="#BCBCBC"/>
<path d="M7.01973 9.77727C7.07527 9.75346 7.13477 9.7257 7.18634 9.69793C7.61875 9.49561 8.14636 9.62652 8.40422 10.0034C8.68191 10.408 8.64224 10.9317 8.30504 11.2689C7.96388 11.61 7.4323 11.6497 7.01973 11.3561C6.65873 11.0983 6.53179 10.5746 6.73014 10.1541C6.75394 10.0986 6.78171 10.0391 6.80551 9.98355C6.88089 9.91611 6.95229 9.8447 7.01973 9.77727Z" fill="#BCBCBC"/>
<path d="M6.808 21.8116C6.78419 21.764 6.76436 21.7124 6.73659 21.6608C6.52634 21.2364 6.64931 20.7008 7.01825 20.435C7.42685 20.1454 7.96239 20.1811 8.30356 20.5223C8.64869 20.8674 8.68439 21.403 8.39083 21.8076C8.12504 22.1765 7.5895 22.2995 7.16899 22.0853C7.12139 22.0615 7.06982 22.0417 7.01825 22.0139C6.94684 21.9504 6.87543 21.879 6.808 21.8116Z" fill="#BCBCBC"/>
<path d="M20.0221 10.6678C19.5064 11.1835 18.6694 11.1875 18.1576 10.6678C17.6419 10.1521 17.6459 9.31505 18.1616 8.79934C18.6733 8.29553 19.4945 8.29156 20.0142 8.80331C20.5339 9.31505 20.5378 10.1521 20.0221 10.6678Z" fill="#828282"/>
<path d="M21.3373 19.8162C20.8215 19.3005 20.8255 18.4635 21.3452 17.9517C21.8688 17.436 22.694 17.444 23.2136 17.9636C23.7175 18.4754 23.7175 19.3005 23.2097 19.8162C22.686 20.3319 21.853 20.3319 21.3373 19.8162Z" fill="#828282"/>
<path d="M10.8697 19.8162C10.354 20.3319 9.51697 20.328 9.00522 19.8083C8.49348 19.2886 8.50141 18.4556 9.02109 17.9438C9.53283 17.44 10.3619 17.444 10.8737 17.9557C11.3854 18.4675 11.3854 19.3005 10.8697 19.8162Z" fill="#828282"/>
<path d="M12.1889 10.6678C11.6732 10.1521 11.6732 9.31902 12.1889 8.80331C12.7086 8.29156 13.5416 8.29156 14.0534 8.81124C14.5611 9.32695 14.5611 10.1442 14.0494 10.6638C13.5416 11.1795 12.7046 11.1835 12.1889 10.6678Z" fill="#828282"/>
<path d="M10.8737 11.9791C11.3894 12.4948 11.3854 13.3319 10.8657 13.8436C10.35 14.3514 9.52487 14.3514 9.01709 13.8436C8.50138 13.3279 8.49345 12.4948 9.01313 11.9752C9.52487 11.4634 10.3579 11.4634 10.8737 11.9791Z" fill="#828282"/>
<path d="M21.3333 11.9831C21.849 11.4595 22.6781 11.4555 23.1978 11.9752C23.7175 12.487 23.7175 13.328 23.2018 13.8437C22.6861 14.3594 21.849 14.3554 21.3373 13.8357C20.8255 13.324 20.8255 12.4989 21.3333 11.9831Z" fill="#828282"/>
<path d="M20.0261 21.1316C20.5418 21.6473 20.5339 22.4883 20.0102 22.9961C19.4826 23.5078 18.6575 23.4999 18.1418 22.9762C17.638 22.4645 17.6459 21.6314 18.1537 21.1237C18.6773 20.6079 19.5064 20.6119 20.0261 21.1316Z" fill="#828282"/>
<path d="M12.2007 21.1157C12.7124 20.6119 13.5375 20.6119 14.0533 21.1197C14.5729 21.6315 14.5729 22.4725 14.0572 22.9882C13.5415 23.5039 12.7045 23.4999 12.1888 22.9842C11.673 22.4606 11.681 21.6354 12.2007 21.1157Z" fill="#828282"/>
<path d="M24.3413 14.9483C24.8729 14.4405 25.706 14.4564 26.2058 14.9879C26.7056 15.5195 26.6937 16.3328 26.1741 16.8366C25.6464 17.3483 24.8173 17.3364 24.3096 16.8128C23.7978 16.2851 23.8137 15.4521 24.3413 14.9483Z" fill="#BCBCBC"/>
<path d="M17.0416 25.9724C16.5298 26.4921 15.6968 26.5001 15.1771 25.9804C14.6574 25.4686 14.6574 24.6356 15.1771 24.1159C15.6888 23.6041 16.506 23.5962 17.0257 24.108C17.5533 24.6197 17.5573 25.4488 17.0416 25.9724Z" fill="#BCBCBC"/>
<path d="M17.0416 7.6756C16.5259 8.19925 15.6968 8.20321 15.1771 7.68354C14.6574 7.16386 14.6535 6.33476 15.1771 5.81904C15.6888 5.3073 16.5061 5.3073 17.0257 5.81111C17.5494 6.31889 17.5573 7.15196 17.0416 7.6756Z" fill="#BCBCBC"/>
<path d="M7.89318 16.824C7.37747 17.3477 6.54837 17.3437 6.02869 16.824C5.51298 16.3083 5.51695 15.4713 6.03663 14.9595C6.55234 14.4517 7.36557 14.4478 7.88525 14.9595C8.40889 15.4752 8.41286 16.3043 7.89318 16.824Z" fill="#BCBCBC"/>
<path d="M23.8995 11.27C23.5266 10.8892 23.5305 10.2663 23.9074 9.88948C24.2843 9.51261 24.911 9.51261 25.2879 9.88948C25.6687 10.2703 25.6648 10.909 25.28 11.2859C24.8991 11.6588 24.2763 11.6548 23.8995 11.27Z" fill="#BCBCBC"/>
<path d="M22.1083 23.6942C22.4851 24.0711 22.4851 24.6979 22.1122 25.0787C21.7314 25.4595 21.0887 25.4595 20.7158 25.0708C20.3429 24.6899 20.3509 24.0631 20.7317 23.6902C21.1086 23.3134 21.7314 23.3173 22.1083 23.6942Z" fill="#BCBCBC"/>
<path d="M22.1082 8.09831C21.7314 8.47518 21.1046 8.47518 20.7277 8.09831C20.3508 7.72145 20.3469 7.09863 20.7198 6.7178C21.0966 6.333 21.7393 6.333 22.1162 6.7178C22.4891 7.09863 22.4851 7.72145 22.1082 8.09831Z" fill="#BCBCBC"/>
<path d="M23.9194 20.5145C24.3002 20.1416 24.9309 20.1535 25.3038 20.5344C25.6767 20.9152 25.6688 21.542 25.2919 21.9189C24.9071 22.2957 24.2724 22.2878 23.8955 21.8951C23.5187 21.5103 23.5306 20.8874 23.9194 20.5145Z" fill="#BCBCBC"/>
<circle cx="16" cy="16" r="3" fill="#3C4043"/>
</svg>
