<svg width="66" height="66" viewBox="0 0 66 66" fill="none" xmlns="http://www.w3.org/2000/svg">
<circle cx="32.7035" cy="33.1058" r="29.5863" stroke="#54A3FF" stroke-width="6" stroke-linecap="round" stroke-linejoin="round" stroke-dasharray="13 13"/>
<circle cx="32.7017" cy="33.1079" r="6.13529" fill="white"/>
<path d="M42.2243 20.4714C40.999 21.6967 39.0103 21.7062 37.7944 20.4714C36.5691 19.2461 36.5785 17.2574 37.8038 16.0321C39.0197 14.8351 40.9707 14.8257 42.2055 16.0415C43.4402 17.2574 43.4496 19.2461 42.2243 20.4714Z" fill="#54A3FF"/>
<path d="M45.3499 42.2058C44.1246 40.9805 44.134 38.9918 45.3688 37.7759C46.6129 36.5506 48.5734 36.5695 49.8081 37.8042C51.0051 39.0201 51.0051 40.9805 49.7987 42.2058C48.5545 43.4311 46.5752 43.4311 45.3499 42.2058Z" fill="#54A3FF"/>
<path d="M20.4751 42.2058C19.2498 43.4311 17.2611 43.4217 16.0452 42.187C14.8294 40.9522 14.8482 38.9729 16.0829 37.7571C17.2988 36.56 19.2687 36.5695 20.4846 37.7853C21.7004 39.0012 21.7004 40.9805 20.4751 42.2058Z" fill="#54A3FF"/>
<path d="M23.6108 20.4714C22.3855 19.2461 22.3855 17.2668 23.6108 16.0415C24.8455 14.8257 26.8249 14.8257 28.0407 16.0604C29.2472 17.2857 29.2472 19.2273 28.0313 20.462C26.8249 21.6873 24.8361 21.6967 23.6108 20.4714Z" fill="#54A3FF"/>
<path d="M20.4845 23.586C21.7098 24.8113 21.7004 26.8001 20.4656 28.016C19.2403 29.2224 17.2799 29.2224 16.0734 28.016C14.8481 26.7907 14.8293 24.8113 16.064 23.5766C17.2799 22.3608 19.2592 22.3608 20.4845 23.586Z" fill="#54A3FF"/>
<path d="M45.342 23.5956C46.5673 22.3515 48.5372 22.342 49.7719 23.5768C51.0067 24.7926 51.0067 26.7908 49.7814 28.0161C48.5561 29.2414 46.5673 29.232 45.3515 27.9972C44.1356 26.7814 44.1356 24.8209 45.342 23.5956Z" fill="#54A3FF"/>
<path d="M42.2338 45.3315C43.4591 46.5568 43.4402 48.5549 42.1961 49.7614C40.9425 50.9772 38.9821 50.9584 37.7568 49.7142C36.5598 48.4984 36.5786 46.5191 37.785 45.3126C39.0292 44.0873 40.9991 44.0967 42.2338 45.3315Z" fill="#54A3FF"/>
<path d="M23.6398 45.2938C24.8556 44.0968 26.8161 44.0968 28.0414 45.3033C29.2761 46.5191 29.2761 48.5173 28.0508 49.7426C26.8255 50.9679 24.8368 50.9585 23.6115 49.7332C22.3862 48.489 22.405 46.5285 23.6398 45.2938Z" fill="#54A3FF"/>
<circle cx="33" cy="33" r="7" fill="#067AFF"/>
</svg>
