<svg width="24" height="24" viewBox="0 0 24 24" fill="none" xmlns="http://www.w3.org/2000/svg">
<path d="M3.16818 22.7316C2.74444 22.7316 2.3712 22.7316 1.99796 22.7316C0.814336 22.7214 0.00394543 21.9266 0.00315634 20.7442C-0.00105211 14.4993 -0.00105211 8.25442 0.00315634 2.00954C0.00315634 0.8035 0.804077 0.00315717 2.0098 0.00236788C8.66757 -0.000789293 15.3251 -0.000789293 21.9823 0.00236788C23.1817 0.00236788 23.9969 0.809814 23.9977 2.0048C24.0013 8.24969 24.0013 14.4946 23.9977 20.7395C23.9977 21.9392 23.2086 22.7206 22.0147 22.7316C21.6328 22.7316 21.2516 22.7316 20.8311 22.7316C20.8311 22.9613 20.8382 23.1555 20.8311 23.3496C20.8161 23.7317 20.5517 24.0008 20.2045 23.9992C19.8573 23.9977 19.589 23.7238 19.5733 23.3473C19.5669 23.1531 19.5733 22.9582 19.5733 22.7474H4.42519C4.42519 22.9463 4.43071 23.1421 4.42519 23.3323C4.41335 23.7182 4.16085 23.989 3.81207 23.9992C3.46329 24.0095 3.1808 23.7269 3.17133 23.3315C3.16265 23.1468 3.16818 22.9613 3.16818 22.7316ZM12.0004 1.27234H2.11712C1.46296 1.27234 1.27437 1.46256 1.27437 2.11767C1.27437 8.2831 1.27437 14.448 1.27437 20.6124C1.27437 21.2817 1.46691 21.4735 2.13763 21.4735H21.8695C22.5339 21.4735 22.7272 21.2793 22.7272 20.6053V2.14135C22.7272 1.44598 22.5521 1.27313 21.8506 1.27313L12.0004 1.27234Z" fill="#191818"/>
<path d="M12.0049 11.3658C9.756 11.3658 7.5071 11.3303 5.259 11.3776C3.70687 11.4108 2.4609 10.2095 2.52166 8.63091C2.56585 7.47775 2.52876 6.32223 2.53113 5.16828C2.53113 3.61258 3.61691 2.53204 5.17851 2.53125C9.72522 2.53125 14.2717 2.53125 18.8179 2.53125C20.4008 2.53125 21.466 3.60232 21.4684 5.19117C21.4684 6.35459 21.4684 7.51853 21.4684 8.683C21.4684 10.3042 20.4071 11.3666 18.78 11.3666C16.5216 11.3692 14.2633 11.369 12.0049 11.3658ZM11.3444 3.82174C11.3124 3.80784 11.2787 3.79803 11.2442 3.79254C9.17365 3.79254 7.10309 3.77912 5.03253 3.79728C4.31683 3.8028 3.8055 4.33005 3.79446 5.04752C3.77631 6.31907 3.77394 7.5922 3.79446 8.86375C3.80708 9.61121 4.34682 10.0982 5.09645 10.1069C5.33317 10.1069 5.5699 10.1069 5.80662 10.1069H7.77934C7.77934 10.0564 7.77934 10.0351 7.7746 10.0193C7.48212 9.42783 7.18884 8.83691 6.89477 8.24652C6.72433 7.90239 6.54047 7.56378 6.38581 7.21334C6.35024 7.13981 6.32957 7.05995 6.325 6.97839C6.32044 6.89683 6.33206 6.81517 6.3592 6.73812C6.38634 6.66108 6.42847 6.59017 6.48315 6.52949C6.53782 6.46881 6.60397 6.41956 6.67777 6.38458C6.97368 6.24014 7.30431 6.34275 7.49763 6.64347C7.54318 6.7201 7.58453 6.79915 7.62152 6.88026C8.12338 7.88424 8.62287 8.8898 9.13025 9.89141C9.17286 9.97586 9.2644 10.0966 9.33541 10.0982C10.0022 10.114 10.6698 10.1077 11.3468 10.1077L11.3444 3.82174ZM12.6488 10.1077C13.2801 10.1077 13.8932 10.099 14.5023 10.1124C14.6972 10.1171 14.7983 10.0587 14.885 9.88194C15.3735 8.8819 15.8753 7.88897 16.3733 6.89367C16.4088 6.82264 16.4419 6.7516 16.4806 6.68293C16.6739 6.34669 17.0172 6.22909 17.3328 6.38932C17.6484 6.54954 17.7699 6.90314 17.6019 7.24964C17.2381 8.00342 16.857 8.7493 16.4829 9.49755C16.3883 9.68856 16.2928 9.87957 16.1791 10.1077H18.791C19.6993 10.1077 20.2074 9.60647 20.2114 8.70431C20.2145 7.54089 20.2145 6.37721 20.2114 5.21327C20.2114 4.29848 19.6969 3.79254 18.7768 3.78859C16.8341 3.78859 14.8916 3.78859 12.9494 3.78859H12.6504L12.6488 10.1077Z" fill="#191818"/>
<path d="M18.3167 15.7344C18.3167 15.3879 18.3167 15.0161 18.3167 14.6436C18.3207 14.1842 18.5535 13.9024 18.9346 13.8985C19.3157 13.8945 19.5658 14.1866 19.5714 14.6586C19.5714 15.0224 19.5714 15.3863 19.5714 15.792C20.0093 15.792 20.4299 15.7833 20.8497 15.792C20.9942 15.7943 21.1334 15.8464 21.2439 15.9396C21.3543 16.0328 21.4292 16.1614 21.4557 16.3035C21.4806 16.4355 21.4613 16.572 21.4008 16.692C21.3403 16.812 21.242 16.9087 21.1211 16.9672C20.9942 17.0178 20.8585 17.043 20.7219 17.0414C20.3494 17.0517 19.9778 17.0454 19.5722 17.0454C19.5722 17.4882 19.5801 17.8994 19.5722 18.3083C19.5732 18.4487 19.5275 18.5854 19.4422 18.6969C19.3569 18.8084 19.2369 18.8883 19.1011 18.9239C18.9663 18.9604 18.8231 18.9496 18.6953 18.8933C18.5675 18.837 18.4629 18.7386 18.3988 18.6145C18.3467 18.4895 18.3199 18.3553 18.3199 18.2199C18.3096 17.8473 18.3199 17.474 18.3199 17.0509C17.8859 17.0509 17.4756 17.0588 17.066 17.0509C16.6865 17.0414 16.4403 16.7999 16.43 16.451C16.419 16.0817 16.6833 15.8125 17.0818 15.8007C17.4803 15.7888 17.8709 15.7888 18.2654 15.7825C18.2686 15.7762 18.2765 15.7652 18.3167 15.7344Z" fill="#191818"/>
<path d="M5.04293 17.0472C4.45191 17.0472 3.85931 17.0472 3.27144 17.0472C2.81377 17.0472 2.53443 16.8064 2.53128 16.4268C2.52812 16.0471 2.81456 15.7953 3.26118 15.7953C4.4527 15.7922 5.64369 15.7922 6.83416 15.7953C7.29419 15.7953 7.56801 16.0321 7.57037 16.4181C7.57274 16.8041 7.29893 17.0495 6.84363 17.0495C6.24313 17.0519 5.64343 17.0464 5.04293 17.0472Z" fill="#191818"/>
</svg>
