<svg width="68" height="68" viewBox="0 0 68 68" fill="none" xmlns="http://www.w3.org/2000/svg">
<circle cx="33.9981" cy="33.9981" r="8.94737" fill="#067AFF"/>
<circle cx="48.3176" cy="48.3176" r="5.36842" fill="#54A3FF"/>
<circle cx="41.1575" cy="57.263" r="5.36842" fill="#54A3FF"/>
<circle cx="41.1575" cy="10.7356" r="5.36842" fill="#54A3FF"/>
<circle cx="26.8411" cy="57.263" r="5.36842" fill="#54A3FF"/>
<circle cx="26.8411" cy="10.7356" r="5.36842" fill="#54A3FF"/>
<circle cx="19.6848" cy="48.3176" r="5.36842" fill="#54A3FF"/>
<circle cx="19.6848" cy="19.6848" r="5.36842" fill="#54A3FF"/>
<circle cx="48.3176" cy="19.6848" r="5.36842" fill="#54A3FF"/>
<circle cx="57.263" cy="26.8411" r="5.36842" fill="#54A3FF"/>
<circle cx="34.0008" cy="3.57895" r="3.57895" fill="#C6E0FF"/>
<circle cx="34.0008" cy="64.4227" r="3.57895" fill="#C6E0FF"/>
<circle cx="3.57895" cy="34.0008" r="3.57895" fill="#C6E0FF"/>
<circle cx="64.4227" cy="34.0008" r="3.57895" fill="#C6E0FF"/>
<circle cx="10.7356" cy="26.8411" r="5.36842" fill="#54A3FF"/>
<circle cx="57.263" cy="41.1575" r="5.36842" fill="#54A3FF"/>
<circle cx="10.7356" cy="41.1575" r="5.36842" fill="#54A3FF"/>
<circle cx="16.1067" cy="34.0012" r="5.36842" fill="#067AFF"/>
<circle cx="51.8958" cy="34.0012" r="5.36842" fill="#067AFF"/>
<circle cx="42.9465" cy="42.9465" r="5.36842" fill="#067AFF"/>
<circle cx="23.263" cy="23.263" r="5.36842" fill="#067AFF"/>
<circle cx="44.7356" cy="23.263" r="5.36842" fill="#067AFF"/>
<circle cx="23.263" cy="44.7356" r="5.36842" fill="#067AFF"/>
<circle cx="34.0012" cy="16.1067" r="5.36842" fill="#067AFF"/>
<circle cx="34.0012" cy="51.8958" r="5.36842" fill="#067AFF"/>
<circle cx="25.0528" cy="33.9981" r="8.94737" fill="#067AFF"/>
<circle cx="33.9981" cy="42.9474" r="8.94737" fill="#067AFF"/>
<circle cx="33.9981" cy="25.0528" r="8.94737" fill="#067AFF"/>
<circle cx="42.9474" cy="33.9981" r="8.94737" fill="#067AFF"/>
</svg>
