<svg width="33" height="8" viewBox="0 0 33 8" fill="none" xmlns="http://www.w3.org/2000/svg">
<path d="M9.80129 3.19783C9.80129 3.60253 9.76458 3.95845 9.69116 4.26558C9.56667 4.78229 9.30811 5.20325 8.91549 5.52846C8.4271 5.93677 7.72324 6.14092 6.80393 6.14092H2.67656V7.73984H0V0.260163H6.80393C7.72324 0.260163 8.4271 0.464318 8.91549 0.872629C9.30811 1.19783 9.56667 1.61879 9.69116 2.1355C9.76458 2.44264 9.80129 2.79675 9.80129 3.19783ZM2.67656 3.85366H6.18626C6.60123 3.85366 6.87415 3.77416 7.00503 3.61518C7.08164 3.51762 7.11994 3.3785 7.11994 3.19783C7.11994 3.02078 7.08164 2.88347 7.00503 2.78591C6.87415 2.62692 6.60123 2.54743 6.18626 2.54743H2.67656V3.85366Z" fill="#191818"/>
<path d="M20.8093 1.84282C20.8572 2.09575 20.8811 2.3252 20.8811 2.53117C20.8811 3.39476 20.522 4.01987 19.8038 4.4065C20.4263 4.68835 20.7471 5.15628 20.7662 5.8103C20.7854 6.46432 20.8364 6.92502 20.9194 7.19241C21.0056 7.45619 21.1158 7.63866 21.2498 7.73984H18.1758C18.0833 7.65312 18.0242 7.53026 17.9987 7.37127C17.9763 7.21229 17.9652 7.04065 17.9652 6.85637C17.9652 6.66847 17.9524 6.486 17.9269 6.30894C17.8886 6.05239 17.7752 5.8916 17.5869 5.82656C17.3986 5.76152 17.1272 5.729 16.7729 5.729H13.742V7.73984H11.0655V0.260163H18.1854C19.2803 0.260163 20.0368 0.538392 20.455 1.09485C20.6401 1.34417 20.7582 1.5935 20.8093 1.84282ZM18.0705 2.65041C17.9396 2.51671 17.6683 2.44986 17.2565 2.44986H13.742V3.53388H17.2565C17.5055 3.53388 17.697 3.50316 17.8311 3.44173C17.9684 3.37669 18.0609 3.30262 18.1088 3.21951C18.1599 3.13279 18.1854 3.05691 18.1854 2.99187C18.1854 2.84372 18.1471 2.7299 18.0705 2.65041Z" fill="#191818"/>
<path d="M28.638 0.0325203C29.7776 0.0867209 30.7065 0.339657 31.4247 0.791328C32.4749 1.48871 33 2.55827 33 4C33 5.44173 32.4749 6.51129 31.4247 7.20867C30.7065 7.66034 29.7776 7.91328 28.638 7.96748C28.1752 7.98916 27.7841 8 27.4649 8C27.1489 8 26.7579 7.98916 26.2918 7.96748C25.1523 7.91328 24.2234 7.66034 23.5051 7.20867C22.455 6.51129 21.9299 5.44173 21.9299 4C21.9299 2.55827 22.455 1.48871 23.5051 0.791328C24.2234 0.339657 25.1523 0.0867209 26.2918 0.0325203C26.7579 0.0108401 27.1489 0 27.4649 0C27.7841 0 28.1752 0.0108401 28.638 0.0325203ZM27.4649 2.2168C26.4115 2.2168 25.6869 2.36314 25.2911 2.65583C25.1539 2.76423 25.0485 2.89792 24.9751 3.05691C24.8474 3.33153 24.7836 3.64589 24.7836 4C24.7836 4.13369 24.7963 4.28546 24.8219 4.45528C24.8506 4.6215 24.9017 4.7841 24.9751 4.94309C25.0485 5.09846 25.1539 5.23216 25.2911 5.34417C25.4731 5.48148 25.7109 5.58085 26.0045 5.64228C26.3014 5.7037 26.5903 5.74164 26.8712 5.7561C27.1521 5.77055 27.35 5.77778 27.4649 5.77778C28.5215 5.77778 29.2477 5.63324 29.6435 5.34417C29.7776 5.23216 29.8813 5.09846 29.9548 4.94309C30.0824 4.66847 30.1463 4.35411 30.1463 4C30.1463 3.86631 30.1319 3.71635 30.1032 3.55014C30.0776 3.38031 30.0282 3.2159 29.9548 3.05691C29.8813 2.89792 29.7776 2.76423 29.6435 2.65583C29.4584 2.51852 29.2174 2.41915 28.9205 2.35772C28.6268 2.2963 28.3396 2.25836 28.0587 2.2439C27.7778 2.22584 27.5798 2.2168 27.4649 2.2168Z" fill="#191818"/>
</svg>
