<svg width="21" height="28" viewBox="0 0 21 28" fill="none" xmlns="http://www.w3.org/2000/svg">
<path d="M1.33715 27.939C1.30804 27.8662 1.23526 27.8662 1.18432 27.8444C0.318309 27.5096 -0.13289 26.7382 0.0344908 25.8431C0.180039 25.0572 0.915058 24.4677 1.78835 24.4604C2.07217 24.4531 2.34871 24.4531 2.63253 24.4531C2.71258 24.4531 2.79263 24.4604 2.87996 24.4604C7.42108 24.4604 11.9695 24.4604 16.5106 24.4604C16.9472 24.5477 17.3839 24.4677 17.8205 24.5041C17.8496 24.5623 17.9078 24.5623 17.9588 24.5768C19.1523 25.0135 19.487 26.5054 18.6065 27.415C18.359 27.6697 18.0461 27.7716 17.7623 27.9463C12.2897 27.939 6.81705 27.939 1.33715 27.939Z" fill="#B9807F"/>
<path d="M2.59609 3.48589C2.22494 3.47133 1.85379 3.515 1.48264 3.4495C0.638462 3.31123 0.10721 2.72176 0.0126036 1.83391C-0.067448 1.12072 0.412862 0.385704 1.13333 0.109161C1.2061 0.0800517 1.29343 0.0800517 1.34437 0C6.817 0 12.2896 0 17.7695 0C17.8277 0.0800517 17.9223 0.0873289 18.0024 0.123716C18.6865 0.414813 19.0649 0.946065 19.1086 1.67381C19.145 2.256 18.8975 2.75087 18.4318 3.11474C18.2644 3.24573 18.0606 3.33306 17.8714 3.44222C17.8277 3.44222 17.7841 3.4495 17.7331 3.4495C12.7918 3.4495 7.85039 3.4495 2.90902 3.4495C2.80714 3.4495 2.6907 3.41311 2.59609 3.48589Z" fill="#B88080"/>
<path d="M17.8714 3.44222C18.0606 3.33306 18.2644 3.25301 18.4318 3.11474C18.8903 2.75087 19.1377 2.24872 19.1086 1.67381C19.0649 0.946065 18.6865 0.414813 18.0024 0.123716C17.9224 0.0873289 17.8278 0.0800517 17.7695 0C18.3153 0 18.8611 0 19.407 0C19.6544 0.123716 19.9309 0.19649 20.1493 0.378426C20.7242 0.858736 20.9425 1.59376 20.7096 2.29239C20.4767 2.98374 19.829 3.46405 19.0795 3.48589C18.7738 3.49316 18.4609 3.49316 18.1552 3.49316C18.0534 3.48589 17.966 3.46405 17.8714 3.44222Z" fill="#AE6D6D"/>
<path d="M17.7617 27.9379C18.0455 27.7633 18.3585 27.6614 18.6059 27.4067C19.4865 26.497 19.1517 25.0051 17.9582 24.5685C17.9073 24.5539 17.849 24.5467 17.8199 24.4957C17.9364 24.4739 18.0528 24.4593 18.1693 24.4375C18.555 24.4739 18.9479 24.4084 19.3409 24.4812C20.1778 24.6485 20.7382 25.2671 20.8037 26.1186C20.8619 26.8609 20.3379 27.6032 19.5738 27.8579C19.5156 27.8797 19.4428 27.8579 19.4064 27.9307C18.8533 27.9379 18.3075 27.9379 17.7617 27.9379Z" fill="#AE6D6D"/>
<path d="M17.8734 3.43932C17.968 3.46115 18.0553 3.47571 18.1499 3.49754C18.1499 4.4145 18.1791 5.33145 18.1354 6.24841C18.0917 7.13625 17.9025 8.00226 17.4731 8.7955C16.9346 8.78823 16.3888 8.78823 15.8503 8.78095C16.2141 7.76939 16.5052 6.75055 16.4543 5.65893C16.4252 5.03308 16.0031 4.58188 15.37 4.58188C11.1272 4.58188 6.88449 4.58188 2.64175 4.58188C2.52531 4.218 2.6272 3.84686 2.59081 3.48298C2.68542 3.41021 2.80185 3.4466 2.90374 3.4466C7.84511 3.4466 12.7865 3.4466 17.7279 3.4466C17.7788 3.4466 17.8297 3.4466 17.8734 3.43932Z" fill="#D6CED4"/>
<path d="M15.8571 8.78125C16.3956 8.78853 16.9414 8.78853 17.4799 8.7958C17.3489 9.26156 17.0724 9.66182 16.8031 10.0548C15.8862 11.3866 14.6708 12.3326 13.1717 12.9221C13.0916 12.9512 12.997 12.973 12.9097 13.0022C12.866 12.9949 12.8224 12.9876 12.7933 13.0313C11.8326 13.0822 11.1849 13.9701 11.3451 15.0107C11.4397 15.6075 11.5488 16.2115 11.6361 16.8082C11.7599 17.6524 12.2329 18.1619 13.0698 18.3438C12.5094 18.4166 11.9564 18.4093 11.396 18.3365C10.7192 18.2492 10.1516 17.7689 10.0133 17.0993C9.87501 16.4298 9.78768 15.7457 9.65669 15.0762C9.47475 14.1447 9.96234 13.235 10.9375 13.0385C11.2941 12.9658 11.6361 12.8784 11.9636 12.7183C12.9243 12.2526 13.7757 11.6413 14.4889 10.8335C15.0274 10.2222 15.4714 9.55994 15.7916 8.81036C15.8207 8.80308 15.8352 8.7958 15.8571 8.78125Z" fill="#50AD64"/>
<path d="M18.1704 24.4394C18.054 24.4613 17.9375 24.4758 17.8211 24.4976C17.3845 24.4613 16.9405 24.5413 16.5112 24.454C16.5112 23.537 16.5767 22.6128 16.4457 21.7104C16.2274 20.153 15.063 18.8867 13.5638 18.501C13.4474 18.4719 13.3018 18.501 13.2363 18.3628C14.0077 18.3337 14.7791 18.3482 15.5287 18.5665C16.0745 18.7994 16.5767 19.076 17.006 19.4981C17.5518 20.0293 17.8793 20.6843 18.0904 21.4047C18.2359 22.4017 18.134 23.4206 18.1704 24.4394Z" fill="#50AD64"/>
<path d="M18.0894 21.393C17.871 20.6725 17.5436 20.0249 17.005 19.4863C16.5757 19.0642 16.0735 18.7877 15.5277 18.5548C15.2075 17.9217 14.7781 17.3613 14.2906 16.8592C13.7229 16.2697 13.0679 15.7894 12.3475 15.411C12.0273 15.2436 11.7143 15.0617 11.3505 15.0107C11.1904 13.97 11.8381 13.0749 12.7987 13.0312C12.755 13.1768 12.5949 13.2205 12.5076 13.3442C12.1073 13.9555 12.3184 14.7123 13.0025 14.9525C14.0868 15.3455 15.0474 15.9422 15.8552 16.7427C16.6484 17.5287 17.267 18.4457 17.6527 19.5009C17.8783 20.1122 18.0748 20.7308 18.0894 21.393Z" fill="#D7D0D4"/>
<path d="M12.791 13.0289C12.8201 12.978 12.8638 12.9925 12.9075 12.9998C12.8783 13.0362 12.8347 13.0435 12.791 13.0289Z" fill="#D7D0D4"/>
<path d="M13.2363 18.3594C13.3091 18.4977 13.4546 18.4686 13.5638 18.4977C15.0557 18.8834 16.22 20.1497 16.4456 21.707C16.5766 22.6167 16.5111 23.5337 16.5111 24.4506C11.97 24.4506 7.42164 24.4506 2.88052 24.4506C2.80047 24.4506 2.72042 24.4433 2.63309 24.4433C2.63309 23.3954 2.5676 22.3547 2.72042 21.314C2.74953 21.2413 2.78592 21.1685 2.81503 21.0884C3.29534 19.6985 4.25596 18.8324 5.66778 18.4613C6.22814 18.3157 6.80306 18.3812 7.37797 18.3667C8.36043 18.3449 8.99356 17.799 9.16094 16.8384C9.26283 16.2417 9.36471 15.6377 9.4666 15.0409C9.64853 13.9638 8.93534 13.0251 7.90195 12.9959C6.4683 12.5302 5.29663 11.6715 4.35056 10.5143C3.97942 10.0631 3.67376 9.57556 3.42633 9.05158C3.38994 8.97153 3.32445 8.89876 3.339 8.79688C3.44816 8.79688 3.55733 8.80415 3.66649 8.80415C7.5963 8.80415 11.5334 8.80415 15.4632 8.80415C15.5796 8.80415 15.6961 8.81143 15.8198 8.81143C15.4996 9.55373 15.0557 10.2233 14.5171 10.8346C13.8039 11.6423 12.9525 12.2537 11.9919 12.7194C11.6644 12.8795 11.3151 12.9668 10.9657 13.0396C9.99785 13.2361 9.51026 14.1458 9.68492 15.0773C9.81591 15.7468 9.89596 16.4309 10.0415 17.1004C10.1798 17.7772 10.7474 18.2502 11.4242 18.3376C11.9846 18.4104 12.5377 18.4249 13.098 18.3449C13.1271 18.3521 13.1781 18.3521 13.2363 18.3594Z" fill="#5FC77D"/>
<path d="M15.7993 8.81466C15.6829 8.81466 15.5665 8.80738 15.4427 8.80738C11.5129 8.80738 7.57585 8.80738 3.64604 8.80738C3.53688 8.80738 3.42772 8.8001 3.31856 8.8001C3.07113 8.43623 2.99108 8.00686 2.86736 7.59933C2.57626 6.61687 2.64904 5.59803 2.64176 4.59375C6.8845 4.59375 11.1272 4.59375 15.37 4.59375C16.0031 4.59375 16.4252 5.03767 16.4543 5.67081C16.5053 6.76242 16.2069 7.78126 15.8503 8.79282C15.8357 8.8001 15.8212 8.80738 15.7993 8.81466Z" fill="#EEECEE"/>
<path d="M7.88856 13.0078C8.92195 13.0369 9.64242 13.9757 9.4532 15.0528C9.35132 15.6495 9.24944 16.2535 9.14755 16.8503C8.98745 17.8182 8.34703 18.364 7.36458 18.3786C6.79694 18.3858 6.21475 18.3276 5.65439 18.4732C4.24257 18.8443 3.28195 19.7103 2.80164 21.1003C2.77253 21.1731 2.74342 21.2459 2.70703 21.3259C2.70703 20.7728 2.85986 20.2561 3.04179 19.7467C3.33289 18.9244 3.74043 18.1602 4.29351 17.4762C4.89754 16.7266 5.61072 16.0934 6.44035 15.5986C6.877 15.3366 7.33547 15.1328 7.81578 14.9582C8.20149 14.8199 8.42709 14.5288 8.47075 14.1358C8.52169 13.721 8.39798 13.3644 8.03411 13.1242C7.99044 13.0806 7.9395 13.0442 7.88856 13.0078Z" fill="#EEECED"/>
<path d="M13.2345 18.356C13.1835 18.356 13.1253 18.3487 13.0744 18.3487C12.2375 18.1668 11.7644 17.6646 11.6407 16.8131C11.5534 16.2091 11.4442 15.6124 11.3496 15.0156C11.7135 15.0666 12.0264 15.2485 12.3466 15.4159C13.0671 15.7943 13.722 16.2746 14.2897 16.8641C14.7773 17.3735 15.2066 17.9339 15.5269 18.5597C14.77 18.3414 14.0059 18.3269 13.2345 18.356Z" fill="#EEECED"/>
</svg>
