<svg width="30" height="30" viewBox="0 0 30 30" fill="none" xmlns="http://www.w3.org/2000/svg">
<circle cx="15" cy="15" r="14.25" stroke="#3C4043" stroke-width="1.5"/>
<path d="M22.5 3L21 7L17.5 8M7 3.5L9.5 8.5M9.5 8.5L16 10L17.5 13.5M9.5 8.5L8.75 10.25M8 14.5V12L8.75 10.25M8.75 10.25L6.5 10M2 20.5L7.5 19.5L9.5 22M17.5 29L14 23.5L15 20.25M16 17L15 20.25M15 20.25L12.5 19L11.5 14M25 24.5L23 19.5M23 19.5L26 16.5L25 10.25M23 19.5L20 16.5L21.5 14.5" stroke="#3C4043" stroke-width="1.5" stroke-linejoin="round"/>
</svg>
