<svg width="67" height="49" viewBox="0 0 67 49" fill="none" xmlns="http://www.w3.org/2000/svg">
<circle cx="49.1732" cy="8.91932" r="5.34119" fill="#FF351A"/>
<circle cx="61.2152" cy="19.1068" r="5.34119" fill="#FF351A"/>
<circle cx="5.87244" cy="19.1068" r="5.34119" fill="#FF351A"/>
<circle cx="17.3412" cy="8.91932" r="5.34119" fill="#FF351A"/>
<circle cx="33.7572" cy="5.34119" r="5.34119" fill="#FF351A"/>
<path d="M15.5859 36.0312C15.5859 35.0156 15.9505 34.1771 16.6797 33.5156C17.4141 32.849 18.3411 32.5156 19.4609 32.5156C20.5339 32.5156 21.4271 32.8177 22.1406 33.4219C22.8542 34.026 23.2109 34.776 23.2109 35.6719C23.2109 36.3021 23.0365 36.901 22.6875 37.4688C22.3385 38.0312 21.7292 38.7578 20.8594 39.6484L18.0391 42.4844V42.5234H23.3906V44H15.6797V42.8125L19.75 38.6641C20.4375 37.9453 20.8984 37.3932 21.1328 37.0078C21.3672 36.6172 21.4844 36.2005 21.4844 35.7578C21.4844 35.2578 21.2839 34.8333 20.8828 34.4844C20.4818 34.1354 19.9896 33.9609 19.4062 33.9609C18.7917 33.9609 18.276 34.1589 17.8594 34.5547C17.4479 34.9453 17.2422 35.4349 17.2422 36.0234V36.0469H15.5859V36.0312ZM28.9844 44.2109C27.8594 44.2109 26.9245 43.901 26.1797 43.2812C25.4349 42.6562 25.0365 41.8516 24.9844 40.8672H26.6562C26.7188 41.4245 26.9661 41.8776 27.3984 42.2266C27.8359 42.5755 28.3698 42.75 29 42.75C29.7083 42.75 30.2865 42.526 30.7344 42.0781C31.1823 41.6302 31.4062 41.0521 31.4062 40.3438C31.4062 39.6354 31.1823 39.0547 30.7344 38.6016C30.2917 38.1432 29.7188 37.9141 29.0156 37.9141C28.526 37.9141 28.0807 38.0208 27.6797 38.2344C27.2839 38.4427 26.9766 38.7318 26.7578 39.1016H25.1562L25.75 32.7266H32.4609V34.2031H27.1562L26.8438 37.6641H26.8828C27.1328 37.3047 27.4766 37.026 27.9141 36.8281C28.3568 36.625 28.8516 36.5234 29.3984 36.5234C30.4818 36.5234 31.3724 36.8802 32.0703 37.5938C32.7682 38.3021 33.1172 39.2031 33.1172 40.2969C33.1172 41.4531 32.7318 42.3958 31.9609 43.125C31.1953 43.849 30.2031 44.2109 28.9844 44.2109Z" fill="#191818"/>
<path d="M38.4141 46.4062H36.9141L40.9141 32.7266H42.4141L38.4141 46.4062ZM50.5781 44.2109C49.4531 44.2109 48.5182 43.901 47.7734 43.2812C47.0286 42.6562 46.6302 41.8516 46.5781 40.8672H48.25C48.3125 41.4245 48.5599 41.8776 48.9922 42.2266C49.4297 42.5755 49.9635 42.75 50.5938 42.75C51.3021 42.75 51.8802 42.526 52.3281 42.0781C52.776 41.6302 53 41.0521 53 40.3438C53 39.6354 52.776 39.0547 52.3281 38.6016C51.8854 38.1432 51.3125 37.9141 50.6094 37.9141C50.1198 37.9141 49.6745 38.0208 49.2734 38.2344C48.8776 38.4427 48.5703 38.7318 48.3516 39.1016H46.75L47.3438 32.7266H54.0547V34.2031H48.75L48.4375 37.6641H48.4766C48.7266 37.3047 49.0703 37.026 49.5078 36.8281C49.9505 36.625 50.4453 36.5234 50.9922 36.5234C52.0755 36.5234 52.9661 36.8802 53.6641 37.5938C54.362 38.3021 54.7109 39.2031 54.7109 40.2969C54.7109 41.4531 54.3255 42.3958 53.5547 43.125C52.7891 43.849 51.7969 44.2109 50.5781 44.2109Z" fill="#FF3519"/>
</svg>
