<svg width="40" height="20" viewBox="0 0 40 20" fill="none" xmlns="http://www.w3.org/2000/svg">
<path d="M3.66228 17.7528C3.48998 17.7906 3.31308 17.7662 3.14691 17.6672C2.81457 17.4692 2.70102 17.0336 2.89903 16.7012C2.91249 16.6802 3.2095 16.1817 3.85264 15.4087C4.10317 15.11 4.54525 15.0673 4.84396 15.3178C5.14266 15.5683 5.18541 16.0104 4.93488 16.3091C4.37139 16.9924 4.11473 17.4279 4.10612 17.4298C4.01572 17.5941 3.84319 17.7132 3.66228 17.7528Z" fill="#5E6165"/>
<path d="M6.68005 14.3443C6.43884 14.3972 6.1779 14.319 5.99957 14.1233C5.73828 13.8375 5.76634 13.3889 6.05216 13.1276C6.81462 12.4458 7.64494 11.7853 8.52293 11.1775C8.84404 10.9536 9.28671 11.0371 9.5001 11.3515C9.72399 11.6726 9.64045 12.1153 9.32607 12.3286C8.49599 12.9079 7.70981 13.5227 6.98476 14.1692C6.9051 14.2589 6.79205 14.3198 6.68005 14.3443ZM11.6912 10.844C11.3897 10.9101 11.0706 10.7724 10.9184 10.4898C10.7356 10.1506 10.8574 9.71763 11.2052 9.53304C12.1096 9.04583 13.058 8.59415 14.0349 8.19038C14.3902 8.04025 14.8068 8.21076 14.9588 8.5747C15.109 8.93004 14.9385 9.34664 14.5745 9.49866C13.6388 9.88437 12.7316 10.318 11.8751 10.7766C11.8186 10.8071 11.7602 10.8289 11.6912 10.844ZM17.3429 8.49446C16.9897 8.57189 16.6278 8.36232 16.5159 8.01666C16.3983 7.64516 16.609 7.24685 16.9824 7.1379C17.8201 6.88201 18.6894 6.64629 19.5662 6.44504C19.7127 6.41293 19.8505 6.38271 19.9951 6.34199L20.0037 6.3401C20.3828 6.257 20.7504 6.49242 20.8421 6.86959C20.9338 7.24676 20.6917 7.62489 20.3145 7.71661C20.1681 7.74871 20.0302 7.77893 19.8856 7.81965C19.0433 8.01335 18.2066 8.2329 17.4033 8.48124C17.386 8.48502 17.3602 8.49068 17.3429 8.49446ZM23.2888 6.99233C22.9183 7.07354 22.544 6.84862 22.4542 6.48007C22.3625 6.1029 22.5855 5.71993 22.9626 5.62822C23.9717 5.3709 24.9615 5.10874 25.9065 4.84742C26.2818 4.74709 26.6715 4.95961 26.7737 5.34351C26.874 5.71879 26.6615 6.10848 26.2776 6.2107C25.324 6.47392 24.3169 6.73985 23.2993 6.99906C23.2974 6.99044 23.2888 6.99233 23.2888 6.99233ZM29.1891 5.36475C28.8359 5.44219 28.4739 5.23261 28.3601 4.87834C28.2426 4.50683 28.4532 4.10853 28.8266 3.99958C29.8415 3.6868 30.82 3.37295 31.7173 3.05887C32.0869 2.9327 32.49 3.12421 32.6162 3.49383C32.7424 3.86344 32.5509 4.26659 32.1813 4.39276C31.2668 4.71062 30.2796 5.02635 29.2389 5.3448C29.2321 5.35531 29.2149 5.35909 29.1891 5.36475Z" fill="#5E6165"/>
<path d="M36.3438 4.23449C36.2749 4.2496 36.2127 4.25421 36.14 4.25209C35.7536 4.21941 35.4638 3.88568 35.4859 3.49258C35.4939 3.36441 35.5039 3.24486 35.507 3.13582C35.3835 3.18999 35.2427 3.24795 35.0933 3.30779C34.7293 3.45981 34.3214 3.28741 34.1693 2.92346C34.0173 2.55951 34.1897 2.15153 34.5537 1.99951C35.4482 1.63185 35.8611 1.41492 35.8697 1.41303L36.7779 0.943056L36.8918 1.95644C36.8974 1.98228 36.9607 2.60044 36.889 3.59129C36.869 3.9117 36.6453 4.16839 36.3438 4.23449Z" fill="#5E6165"/>
<path d="M34.43 10.2053C34.2663 10.2412 34.0808 10.2187 33.9251 10.1264C33.5928 9.92841 33.4706 9.49471 33.6686 9.16238C34.1819 8.29141 34.594 7.3704 34.8932 6.42899C35.011 6.06007 35.4086 5.85554 35.7775 5.9733C36.1464 6.09106 36.351 6.48864 36.2332 6.85756C35.9011 7.89645 35.4477 8.91682 34.8805 9.87182C34.7834 10.0466 34.6195 10.1638 34.43 10.2053Z" fill="#5E6165"/>
<path d="M31.5187 13.8113C31.2861 13.8622 31.027 13.7926 30.8506 13.6056C30.5807 13.3217 30.6001 12.875 30.8841 12.6051C31.2361 12.2751 31.5757 11.9298 31.8876 11.5815C32.1487 11.2895 32.5945 11.264 32.8865 11.525C33.1785 11.7861 33.204 12.2319 32.943 12.5239C32.6023 12.9056 32.2319 13.2757 31.8511 13.6391C31.7524 13.7239 31.6393 13.7848 31.5187 13.8113Z" fill="#5E6165"/>
</svg>
