<svg width="31" height="31" viewBox="0 0 31 31" fill="none" xmlns="http://www.w3.org/2000/svg">
<ellipse cx="8.41046" cy="27.5039" rx="2" ry="2" transform="rotate(-45 8.41046 27.5039)" fill="#828282"/>
<circle cx="14.8715" cy="21.2344" r="3" transform="rotate(-45 14.8715 21.2344)" fill="#3C4043"/>
<circle cx="21.2348" cy="14.8711" r="3" transform="rotate(-45 21.2348 14.8711)" fill="#3C4043"/>
<ellipse cx="27.5042" cy="8.41016" rx="2" ry="2" transform="rotate(-45 27.5042 8.41016)" fill="#828282"/>
<circle cx="7.09405" cy="19.1133" r="2" transform="rotate(-45 7.09405 19.1133)" fill="#828282"/>
<circle cx="13.4573" cy="12.75" r="2" transform="rotate(-45 13.4573 12.75)" fill="#828282"/>
<circle cx="19.8206" cy="6.38672" r="2" transform="rotate(-45 19.8206 6.38672)" fill="#828282"/>
<circle cx="6.16319" cy="11.5586" r="1.27273" transform="rotate(-45 6.16319 11.5586)" fill="#BCBCBC"/>
<circle cx="11.7999" cy="5.80078" r="1.27273" transform="rotate(-45 11.7999 5.80078)" fill="#BCBCBC"/>
<circle cx="1.79991" cy="25.8008" r="1.27273" transform="rotate(-45 1.79991 25.8008)" fill="#BCBCBC"/>
<circle cx="26.7999" cy="1.80078" r="1.27273" transform="rotate(-45 26.7999 1.80078)" fill="#BCBCBC"/>
</svg>
