<svg width="36" height="20" viewBox="0 0 36 20" fill="none" xmlns="http://www.w3.org/2000/svg">
<path d="M0.00882368 8.95691C0.308833 8.52454 0.600019 8.07452 0.9265 7.66863C1.16474 7.37744 1.50005 7.38627 1.72064 7.60686C1.95006 7.83628 1.92359 8.10982 1.6677 8.40983C1.46475 8.64807 1.25298 8.88632 1.10298 9.15103C0.785319 9.75105 0.458838 9.80399 0 9.30986C0.00882381 9.18633 0.00882368 9.07162 0.00882368 8.95691Z" fill="#5E6165"/>
<path d="M35.7605 9.72441C35.6017 9.92735 35.4252 10.1215 35.134 10.0509C34.8428 9.98912 34.7722 9.75088 34.6752 9.49499C34.5693 9.2038 34.4193 8.93026 34.2516 8.67437C34.0487 8.35671 34.0487 8.06553 34.3046 7.8714C34.5428 7.6861 34.8693 7.71258 35.0634 8.00376C35.3281 8.40966 35.5399 8.85967 35.7693 9.29204C35.7605 9.44204 35.7605 9.58322 35.7605 9.72441Z" fill="#5E6165"/>
<path d="M0.00882368 10.6247C0.467662 10.1394 0.794143 10.21 1.1118 10.81C1.25298 11.0747 1.45593 11.3041 1.65005 11.5247C1.89712 11.7983 1.95006 12.0541 1.74712 12.2924C1.54417 12.5395 1.20004 12.5748 0.952972 12.3012C0.608843 11.913 0.317657 11.463 0 11.0482C0.00882382 10.9071 0.00882368 10.7659 0.00882368 10.6247Z" fill="#5E6165"/>
<path d="M8.29327 9.65985C8.15209 9.2716 8.00208 8.90982 7.88738 8.5304C7.79031 8.19509 7.95797 7.92155 8.25798 7.85096C8.53151 7.78037 8.79623 7.9392 8.88447 8.25686C9.02565 8.75099 9.23742 9.19218 9.64332 9.51866C9.73155 9.58925 9.83744 9.67749 9.94332 9.68632C10.6404 9.70396 11.3287 9.69514 12.0081 9.69514C11.9287 9.2363 11.8493 8.82158 11.7699 8.40686C11.7522 8.30098 11.7522 8.19509 11.761 8.09803C11.7875 7.78037 12.0169 7.55095 12.2993 7.57742C12.6081 7.6039 12.7934 7.7892 12.8022 8.09803C12.8111 8.58334 12.864 9.05983 13.164 9.4569C13.2611 9.58043 13.4464 9.68632 13.6052 9.69514C13.9758 9.73044 14.3464 9.70397 14.717 9.71279C15.467 9.73926 16.12 10.0216 16.6759 10.5246C16.8612 10.6922 17.02 10.8687 17.1965 11.0364C17.6024 11.4246 18.0259 11.4246 18.423 11.0452C18.5465 10.9217 18.6701 10.7981 18.7936 10.6746C19.4377 10.0216 20.2231 9.69514 21.1407 9.70397C21.4055 9.70397 21.679 9.67749 21.9437 9.71279C22.2525 9.74808 22.4467 9.61573 22.5349 9.35101C22.6496 8.98041 22.7643 8.60099 22.8084 8.21274C22.8614 7.81567 23.029 7.5686 23.3467 7.5686C23.6644 7.5686 23.8938 7.81567 23.8585 8.22157C23.8144 8.69805 23.7173 9.17454 23.6379 9.70397C24.0791 9.70397 24.5556 9.70397 25.0409 9.70397C25.9409 9.70397 26.3821 9.38631 26.6645 8.51275C26.6997 8.41569 26.7174 8.3098 26.7527 8.21274C26.8586 7.93038 27.1321 7.7892 27.388 7.86861C27.6527 7.94803 27.838 8.21274 27.7586 8.4951C27.6439 8.89217 27.4762 9.2716 27.3351 9.68632C28.8616 9.68632 30.3969 9.68632 31.9499 9.68632C31.9323 9.63337 31.9234 9.59808 31.9058 9.58043C29.9557 7.67449 27.9704 5.81266 25.6585 4.33909C25.0762 3.96848 24.4232 3.69495 23.7879 3.41258C23.3643 3.22728 22.9055 3.2714 22.5084 3.50965C21.679 3.99496 20.8496 4.48909 20.0466 5.01852C19.5789 5.32735 19.1642 5.69795 18.723 6.05091C18.0612 6.58033 17.5583 6.56269 16.87 6.05091C15.8906 5.31853 14.9023 4.61262 13.9052 3.90672C12.9081 3.20081 11.9022 3.20081 10.8345 3.80966C9.33448 4.65674 7.98444 5.69795 6.69616 6.81858C5.70789 7.68331 4.76375 8.60099 3.79313 9.49219C3.74018 9.53631 3.69606 9.58926 3.58135 9.71279C4.01372 9.71279 4.36667 9.71279 4.7108 9.71279C4.84316 9.71279 4.96669 9.70397 5.09905 9.71279C5.40788 9.73044 5.61966 9.93339 5.62848 10.2069C5.6373 10.4981 5.43435 10.7275 5.10787 10.754C4.82551 10.7716 4.53433 10.754 4.24314 10.754C4.20784 10.7981 4.17255 10.8422 4.13725 10.8952C4.24314 10.9569 4.3755 11.0011 4.46373 11.0805C7.35795 13.8865 10.7904 15.6336 14.77 16.2601C19.0495 16.9395 23.1085 16.2248 26.9203 14.1776C27.0703 14.0982 27.2204 14.0012 27.3792 13.9217C27.6968 13.7541 27.9968 13.8247 28.1469 14.0806C28.3057 14.3541 28.2174 14.6806 27.891 14.8394C26.8056 15.36 25.7291 15.9248 24.6085 16.3571C22.2437 17.2571 19.7819 17.6366 17.2494 17.5483C11.911 17.3542 7.3403 15.3689 3.51959 11.6276C3.14899 11.2658 2.76074 10.9128 2.37249 10.5687C2.02836 10.251 2.01954 9.76573 2.39014 9.40396C3.24605 8.56569 4.10196 7.71861 4.98434 6.91564C6.58145 5.46853 8.21386 4.06555 10.1198 3.02434C10.6228 2.7508 11.1787 2.54785 11.7257 2.36255C12.3169 2.16843 12.8993 2.27431 13.464 2.51256C14.7523 3.05081 15.8465 3.89789 16.9494 4.74498C17.1524 4.90381 17.3642 5.05381 17.5406 5.23029C17.7348 5.41559 17.8759 5.3803 18.0789 5.23029C19.076 4.48909 20.0819 3.75671 21.0966 3.04198C22.482 2.07136 23.885 2.09784 25.3497 2.92727C27.0527 3.89789 28.5792 5.08911 30.0263 6.38621C31.094 7.33918 32.1087 8.3451 33.1411 9.34219C33.6706 9.84515 33.6088 10.2863 33.0264 10.7187C32.8147 10.8775 32.6382 11.0893 32.4441 11.2658C31.7117 11.9276 30.9881 12.5982 30.2469 13.2511C29.9204 13.5423 29.6028 13.5335 29.391 13.2776C29.1704 13.0041 29.241 12.7217 29.6028 12.4217C30.2028 11.9099 30.8028 11.3893 31.4823 10.7981C31.2793 10.7805 31.1911 10.7628 31.094 10.7628C27.7851 10.7628 24.485 10.7628 21.176 10.7628C20.5054 10.7628 19.9319 10.9658 19.4995 11.4687C18.4848 12.6688 17.17 12.7129 16.1112 11.4687C15.67 10.9481 15.0788 10.754 14.3994 10.7628C12.2375 10.7716 10.0669 10.7628 7.90502 10.7628C7.79914 10.7628 7.69325 10.7716 7.58737 10.7628C7.26088 10.7364 7.04029 10.5246 7.04029 10.2422C7.04029 9.94221 7.26089 9.73044 7.61384 9.72161C7.82561 9.71279 8.02856 9.71279 8.24033 9.70397C8.27562 9.67749 8.28445 9.66867 8.29327 9.65985Z" fill="#5E6165"/>
<path d="M26.1545 18.2738C25.978 18.0797 25.7574 17.9473 25.7221 17.7796C25.6868 17.6032 25.7839 17.3032 25.9251 17.2237C26.3751 16.959 26.8516 16.7473 27.3457 16.5796C27.5045 16.5267 27.8134 16.6414 27.9016 16.7737C27.9987 16.9061 27.9898 17.2943 27.8928 17.3561C27.3634 17.6826 26.781 17.9561 26.1545 18.2738Z" fill="#5E6165"/>
<path d="M20.4536 1.78363C20.4006 1.86304 20.3212 2.03952 20.18 2.13658C19.8271 2.4013 19.4565 2.63954 19.0859 2.87778C18.7947 3.06309 18.4859 3.01897 18.3182 2.76307C18.1506 2.51601 18.2035 2.22482 18.477 2.0307C18.8565 1.75716 19.2359 1.49244 19.633 1.2542C20.0036 1.0336 20.4448 1.27185 20.4536 1.78363Z" fill="#5E6165"/>
<path d="M7.35951 3.19501C7.2448 3.08912 7.03303 2.99206 6.98891 2.84206C6.93597 2.6744 6.97126 2.38322 7.08597 2.28616C7.50069 1.95085 7.95071 1.65967 8.40955 1.38613C8.64779 1.24495 8.89485 1.34201 9.04486 1.57143C9.20369 1.80967 9.17722 2.06556 8.96544 2.23321C8.55073 2.55087 8.10071 2.82441 7.65952 3.10677C7.60658 3.14207 7.51834 3.15089 7.35951 3.19501Z" fill="#5E6165"/>
<path d="M27.3264 1.53516C27.4588 1.56163 27.5294 1.56163 27.5735 1.59692C28.0412 1.91458 28.5265 2.21459 28.9677 2.56754C29.1618 2.72637 29.1441 2.99108 28.9853 3.20286C28.8265 3.4058 28.5971 3.51169 28.3676 3.36168C27.9176 3.07932 27.4676 2.77931 27.0617 2.44401C26.947 2.34695 26.9029 2.05576 26.9558 1.88811C26.9999 1.7381 27.2117 1.63222 27.3264 1.53516Z" fill="#5E6165"/>
<path d="M4.26198 14.146C4.14727 14.296 4.06786 14.4989 3.92668 14.5519C3.76785 14.6136 3.50313 14.6225 3.3796 14.5254C2.97371 14.2166 2.59428 13.8636 2.24133 13.5018C2.03838 13.2901 2.05603 13.0253 2.25898 12.8136C2.46193 12.6018 2.71782 12.5753 2.94723 12.7606C3.32666 13.0695 3.67961 13.4048 4.03256 13.7401C4.12962 13.8283 4.16492 13.9695 4.26198 14.146Z" fill="#5E6165"/>
<path d="M24.539 0.0703125C25.1567 0.352675 25.7214 0.57327 26.242 0.864456C26.3567 0.926223 26.3832 1.27035 26.3302 1.44683C26.2596 1.69389 26.0126 1.79978 25.7655 1.71154C25.2802 1.54389 24.8125 1.35859 24.3449 1.14682C24.1066 1.04093 23.9831 0.811513 24.089 0.57327C24.1772 0.38797 24.3713 0.255613 24.539 0.0703125Z" fill="#5E6165"/>
<path d="M17.6044 18.7851C17.8515 18.7851 18.0897 18.7763 18.3368 18.7851C18.6368 18.8028 18.8044 18.9881 18.8221 19.2793C18.8309 19.5793 18.6633 19.791 18.3809 19.8087C17.8603 19.8352 17.3397 19.8175 16.8191 19.791C16.5367 19.7734 16.3867 19.5616 16.3867 19.2881C16.3867 18.9969 16.5544 18.8028 16.8544 18.7763C17.1103 18.7498 17.3662 18.7675 17.6221 18.7675C17.6044 18.7675 17.6044 18.7763 17.6044 18.7851Z" fill="#5E6165"/>
<path d="M33.8673 12.7689C33.779 12.6895 33.5672 12.6013 33.5055 12.4513C33.4437 12.3013 33.4702 12.0366 33.5761 11.913C33.8937 11.5336 34.2379 11.1718 34.6173 10.863C34.7408 10.7571 35.0408 10.7395 35.182 10.8189C35.3232 10.8983 35.4555 11.1542 35.4467 11.3218C35.4379 11.7366 34.4849 12.6719 34.0702 12.7513C34.0349 12.7425 33.9996 12.7513 33.8673 12.7689Z" fill="#5E6165"/>
<path d="M33.3009 13.4469C33.1862 13.6322 33.1333 13.791 33.0186 13.8969C32.7009 14.1969 32.3568 14.4881 32.0215 14.7704C31.7479 14.991 31.4391 14.9734 31.245 14.744C31.0508 14.5145 31.0861 14.2145 31.342 13.9763C31.6685 13.6851 31.9862 13.3674 32.3479 13.1204C32.4891 13.0145 32.745 12.9792 32.9127 13.0321C33.0715 13.0674 33.1686 13.288 33.3009 13.4469Z" fill="#5E6165"/>
<path d="M17.3931 3.25698C17.0225 3.2658 15.6548 2.33048 15.6283 2.07459C15.6107 1.89811 15.6636 1.65987 15.7871 1.55398C15.9018 1.44809 16.193 1.38633 16.3166 1.46574C16.7842 1.73928 17.2342 2.05694 17.649 2.40989C17.7549 2.49813 17.7901 2.78932 17.7284 2.93932C17.6666 3.08933 17.4637 3.19521 17.3931 3.25698Z" fill="#5E6165"/>
<path d="M6.64364 3.68927C6.5201 3.87457 6.44951 4.0334 6.32598 4.13929C6.00832 4.43047 5.67302 4.69519 5.33771 4.96873C5.073 5.1805 4.74652 5.16285 4.56122 4.93343C4.37592 4.70401 4.39357 4.41282 4.64946 4.19223C4.99358 3.8834 5.34654 3.56574 5.72596 3.30985C5.86714 3.21279 6.13186 3.20396 6.29951 3.26573C6.43187 3.30985 6.51128 3.52162 6.64364 3.68927Z" fill="#5E6165"/>
<path d="M25.0686 18.3807C24.9892 18.4602 24.8656 18.6719 24.6892 18.7337C24.248 18.9014 23.7803 19.0249 23.3215 19.1396C23.0038 19.219 22.7479 19.0514 22.6773 18.7602C22.6067 18.4778 22.7567 18.2219 23.0744 18.1249C23.4979 17.9925 23.9215 17.869 24.345 17.7631C24.7421 17.6572 25.0686 17.8954 25.0686 18.3807Z" fill="#5E6165"/>
<path d="M14.9301 19.653C14.5859 19.5912 14.1006 19.5295 13.6241 19.4324C13.3329 19.3706 13.1741 19.0883 13.2359 18.8236C13.2976 18.55 13.5447 18.3647 13.8359 18.4088C14.2947 18.4706 14.7536 18.5412 15.2124 18.6294C15.5389 18.6912 15.6977 18.9383 15.6536 19.2294C15.6095 19.503 15.3889 19.6618 14.9301 19.653Z" fill="#5E6165"/>
<path d="M20.1816 19.7113C19.7933 19.7113 19.5815 19.5348 19.5551 19.2524C19.5198 18.9524 19.7051 18.7142 20.0227 18.6701C20.4727 18.5995 20.9228 18.5377 21.3728 18.4848C21.6816 18.4495 21.9375 18.6348 21.9816 18.926C22.0257 19.1907 21.8581 19.4377 21.5581 19.5172C21.461 19.5436 21.3551 19.5613 21.2492 19.5701C20.8698 19.6142 20.4904 19.6672 20.1816 19.7113Z" fill="#5E6165"/>
<path d="M2.54877 7.29621C2.43407 7.19914 2.22229 7.1109 2.16053 6.95208C2.09876 6.80207 2.11641 6.52854 2.22229 6.41383C2.57525 6.02558 2.96349 5.67263 3.36057 5.33732C3.57234 5.16085 3.82823 5.21379 4.02235 5.41674C4.19883 5.61086 4.24295 5.86675 4.06647 6.05205C3.68705 6.45795 3.2635 6.81972 2.84878 7.19032C2.79584 7.24326 2.69878 7.24326 2.54877 7.29621Z" fill="#5E6165"/>
<path d="M12.0294 0.634268C12.0294 0.863687 11.8706 1.02252 11.6147 1.11075C11.2088 1.24311 10.8029 1.37547 10.3882 1.50783C10.0706 1.61371 9.81467 1.50783 9.69113 1.23429C9.57642 0.960749 9.67348 0.669563 9.98232 0.546029C10.4235 0.369553 10.8735 0.219549 11.3324 0.096015C11.7294 -0.00987093 12.0206 0.219548 12.0294 0.634268Z" fill="#5E6165"/>
<path d="M29.9197 3.39844C30.0962 3.4955 30.2462 3.54844 30.3609 3.63668C30.6874 3.9014 31.005 4.16611 31.3227 4.44847C31.6139 4.70436 31.6403 4.99555 31.4286 5.24262C31.2256 5.47204 30.9256 5.48086 30.6521 5.26026C30.2991 4.96908 29.9373 4.69554 29.6285 4.36906C29.505 4.2367 29.4608 3.95434 29.505 3.77786C29.5403 3.62786 29.7697 3.52197 29.9197 3.39844Z" fill="#5E6165"/>
<path d="M23.356 0.520799C23.3384 0.803161 23.1796 0.96199 22.9148 1.03258C22.4913 1.14729 22.0678 1.25318 21.6354 1.36789C21.3442 1.4473 21.0795 1.31494 20.9913 1.05023C20.8942 0.767866 20.9824 0.503152 21.256 0.414914C21.7589 0.247261 22.2707 0.106081 22.8001 0.00901922C23.1266 -0.0527475 23.3649 0.211966 23.356 0.520799Z" fill="#5E6165"/>
<path d="M13.3339 0.0078125C13.8456 0.21076 14.3751 0.39606 14.8692 0.634303C15.1163 0.749012 15.1604 1.02255 15.0457 1.26962C14.931 1.52551 14.7015 1.63139 14.4368 1.54316C13.9603 1.39315 13.4927 1.23432 13.0338 1.0402C12.7868 0.934313 12.6721 0.713717 12.7515 0.440179C12.8397 0.175464 13.0338 0.0519316 13.3339 0.0078125Z" fill="#5E6165"/>
<path d="M33.9468 7.10259C33.8321 7.23495 33.7438 7.4379 33.6027 7.49084C33.4438 7.5526 33.1791 7.54378 33.0556 7.44672C32.6673 7.13789 32.3055 6.78493 31.9614 6.42316C31.7585 6.21139 31.7673 5.9555 31.9614 5.72608C32.1467 5.50548 32.4467 5.47019 32.6762 5.67314C33.0556 5.99962 33.4085 6.35257 33.7615 6.70552C33.8409 6.79376 33.8674 6.93494 33.9468 7.10259Z" fill="#5E6165"/>
<path d="M7.6667 16.2969C7.86082 16.3586 7.96671 16.3763 8.05494 16.4116C8.44319 16.5881 8.83144 16.7734 9.21969 16.9675C9.53734 17.1263 9.65205 17.4087 9.5197 17.6822C9.38734 17.9646 9.1138 18.0616 8.7785 17.9116C8.35495 17.7263 7.93141 17.5234 7.52551 17.3116C7.28727 17.1881 7.19021 16.9587 7.28727 16.7204C7.35786 16.5439 7.54316 16.4204 7.6667 16.2969Z" fill="#5E6165"/>
<path d="M12.5557 18.4058C12.5734 18.8294 12.2822 19.1117 11.9645 19.0323C11.4616 18.9088 10.9586 18.7588 10.4645 18.5735C10.2086 18.4764 10.1027 18.247 10.1821 17.9735C10.2704 17.6823 10.4821 17.5411 10.7645 17.6117C11.2675 17.7352 11.7704 17.8941 12.2557 18.0794C12.4057 18.1235 12.494 18.3264 12.5557 18.4058Z" fill="#5E6165"/>
<path d="M4.99409 14.6484C5.1441 14.6837 5.20586 14.6837 5.25881 14.7102C5.71765 15.0102 6.18531 15.2926 6.61768 15.6279C6.83827 15.7955 6.82945 16.0602 6.67062 16.2897C6.50296 16.5191 6.2559 16.5808 6.02648 16.4397C5.58529 16.175 5.15292 15.9014 4.76467 15.5749C4.64114 15.4691 4.57937 15.169 4.63232 14.9926C4.64996 14.8514 4.87938 14.7455 4.99409 14.6484Z" fill="#5E6165"/>
<path d="M30.7494 15.5555C30.7053 15.6261 30.6259 15.8025 30.4935 15.8996C30.1317 16.1643 29.7435 16.4026 29.3552 16.632C29.0552 16.8084 28.7464 16.729 28.5964 16.4731C28.4464 16.2173 28.517 15.9349 28.7993 15.7496C29.1788 15.5025 29.5582 15.2466 29.9464 15.0172C30.317 14.8054 30.7317 15.026 30.7494 15.5555Z" fill="#5E6165"/>
</svg>
