<svg width="35" height="35" viewBox="0 0 35 35" fill="none" xmlns="http://www.w3.org/2000/svg">
<path d="M3.30288 31.0705C3.23767 30.701 3.3536 30.3968 3.66513 30.1722C4.45485 29.5853 4.84608 28.7883 4.99823 27.8247C5.09242 27.1944 5.28079 26.5858 5.45467 25.9628C5.49814 25.8034 5.60682 25.6367 5.72274 25.5208C6.5849 24.6442 7.45431 23.7892 8.31648 22.9126C8.45413 22.7749 8.56281 22.5793 8.59904 22.3982C8.85986 21.1375 9.0917 19.8624 9.36701 18.6018C9.41049 18.3989 9.61335 18.2105 9.78723 18.0656C9.91764 17.9497 10.106 17.9062 10.2727 17.841C10.5407 17.7468 10.7508 17.6527 10.6784 17.2904C10.6566 17.1817 10.7798 17.0006 10.8812 16.8992C14.7718 12.9941 18.6625 9.10345 22.5676 5.21284C22.6545 5.1259 22.7777 5.06069 22.8863 5.02447C24.56 4.46659 26.2263 3.90148 27.8999 3.37259C28.1318 3.30014 28.4071 3.3581 28.7694 3.3581C28.9287 3.1987 29.1823 2.93064 29.4576 2.66981C29.7837 2.35827 30.1097 2.35103 30.4285 2.66981C30.9791 3.20595 31.5225 3.74933 32.0586 4.29996C32.3774 4.61874 32.3774 4.95202 32.0586 5.2708C31.805 5.53887 31.537 5.79245 31.2762 6.05327C31.3124 6.06051 31.3558 6.075 31.3993 6.075C31.3776 6.35756 31.3993 6.65461 31.3124 6.92992C30.798 8.56007 30.2473 10.183 29.7112 11.8059C29.6605 11.958 29.5663 12.1102 29.4576 12.2188C25.6033 16.0877 21.7489 19.9421 17.88 23.7965C17.7496 23.9269 17.5177 24.0718 17.3656 24.0501C17.0758 24.0066 17.0106 24.1587 16.9309 24.3544C16.4237 25.5425 16.5469 25.2745 15.4891 25.4918C14.4458 25.7092 13.4025 25.8976 12.3665 26.1222C12.1564 26.1729 11.939 26.2888 11.7869 26.4409C10.9175 27.2814 10.0698 28.158 9.20762 29.0057C9.07721 29.1361 8.89608 29.2303 8.72945 29.281C7.78758 29.5273 6.84572 29.7447 5.90386 29.991C5.68651 30.049 5.46916 30.1794 5.28803 30.3315C5.02721 30.5489 4.78088 30.7952 4.55628 31.0633C4.30995 31.3531 4.02739 31.4908 3.65064 31.4183C3.52023 31.2879 3.41155 31.1792 3.30288 31.0705ZM15.6268 20.8043C15.7354 20.6956 15.8296 20.6014 15.9311 20.5C16.8077 19.6233 17.6844 18.7467 18.561 17.87C18.8871 17.544 19.2348 17.515 19.5029 17.7686C19.7782 18.0294 19.7565 18.4134 19.4232 18.7467C18.619 19.5509 17.8148 20.3551 17.0106 21.1593C16.8439 21.3259 16.6701 21.4998 16.5034 21.6664C16.8077 21.9707 17.083 22.246 17.3511 22.5141C20.1042 19.761 22.8356 17.0296 25.5598 14.3054C23.821 12.5666 22.1039 10.8495 20.3795 9.12518C17.6337 11.8711 14.9023 14.6025 12.1709 17.3339C12.4607 17.6237 12.736 17.899 13.0258 18.1888C14.0111 17.2035 14.982 16.2326 15.9456 15.269C16.2788 14.9357 16.6556 14.9068 16.9164 15.1821C17.17 15.4501 17.1337 15.8052 16.815 16.1239C16.1339 16.805 15.4601 17.4788 14.7791 18.1598C14.482 18.4569 14.185 18.7539 13.8807 19.0582C14.0401 19.2176 14.1633 19.3408 14.3154 19.4929C14.4313 19.377 14.5255 19.2828 14.6269 19.1814C16.1919 17.6164 17.7568 16.0515 19.3145 14.4938C19.3942 14.4141 19.4739 14.3199 19.5681 14.2547C19.8434 14.0663 20.1332 14.0663 20.3723 14.3054C20.6114 14.5445 20.6186 14.8271 20.423 15.1096C20.3506 15.2111 20.2491 15.298 20.1622 15.3849C18.5973 16.9499 17.0323 18.5148 15.4746 20.0725C15.3804 20.1667 15.2862 20.2609 15.1848 20.3623C15.3515 20.5289 15.4746 20.6521 15.6268 20.8043ZM28.7694 10.5162C28.7983 10.4873 28.8273 10.4728 28.8346 10.451C29.233 9.2556 29.646 8.06016 30.03 6.85023C30.0662 6.74155 29.9865 6.56042 29.8996 6.47348C29.3635 5.90837 28.7983 5.37223 28.2477 4.80711C28.0883 4.64772 27.9651 4.6115 27.7478 4.68395C26.6465 5.06069 25.5453 5.42295 24.4368 5.79245C24.3499 5.82143 24.2629 5.8649 24.1615 5.90837C25.7119 7.45881 27.2406 8.98753 28.7694 10.5162ZM28.168 11.7262C26.4147 9.97286 24.6976 8.25577 22.9733 6.53144C22.3937 7.11105 21.8358 7.66892 21.2779 8.22679C23.0168 9.96561 24.7338 11.6827 26.4727 13.4215C27.045 12.8492 27.6029 12.2913 28.168 11.7262ZM10.3379 19.9059C10.1495 20.8622 9.96111 21.7461 9.80172 22.6445C9.77998 22.7387 9.86693 22.8836 9.94662 22.9633C10.5335 23.5646 11.1348 24.166 11.7362 24.7528C11.8303 24.847 12.0332 24.8905 12.1636 24.876C12.9316 24.7456 13.6923 24.579 14.4603 24.434C14.5545 24.4123 14.6414 24.3833 14.7574 24.3399C13.2866 22.8546 11.8376 21.4056 10.3379 19.9059ZM9.0917 23.8617C8.27301 24.6804 7.48329 25.4701 6.68633 26.2671C6.65735 26.296 6.62837 26.325 6.62113 26.3612C6.42551 27.1075 6.24438 27.8537 6.04152 28.6507C6.75154 28.4768 7.38911 28.3319 8.01218 28.158C8.22229 28.0928 8.4324 27.9841 8.59179 27.8392C9.26558 27.1944 9.91764 26.5279 10.5769 25.8686C10.6639 25.7816 10.7508 25.6947 10.8378 25.6078C10.2364 25.0064 9.6858 24.4558 9.0917 23.8617ZM16.1339 23.0792C14.7211 21.6664 13.3373 20.2826 11.9535 18.8988C11.555 18.5003 11.555 18.5003 11.0841 18.8553C12.6708 20.442 14.2574 22.0287 15.8731 23.6443C15.9673 23.4342 16.047 23.2676 16.1339 23.0792ZM30.7762 4.77089C30.4792 4.47384 30.2111 4.20577 29.9358 3.93046C29.7909 4.07536 29.6677 4.19853 29.5301 4.33618C29.8199 4.62599 30.0952 4.9013 30.3705 5.17661C30.5154 5.03171 30.6386 4.90854 30.7762 4.77089Z" fill="#191818"/>
<path d="M24.2776 10.4023C23.8719 9.99661 23.4662 9.59089 23.0532 9.17792C22.7417 8.86638 22.7272 8.48963 22.988 8.22881C23.2488 7.98248 23.6038 8.00421 23.9081 8.30851C24.7341 9.13445 25.5528 9.95314 26.3787 10.7791C26.6975 11.0979 26.7047 11.4674 26.4439 11.7282C26.1831 11.9745 25.8281 11.9528 25.5238 11.6485C25.1108 11.2355 24.6906 10.8153 24.2776 10.4023Z" fill="#191818"/>
<path d="M8.03174 25.7911C8.24184 25.581 8.43746 25.3709 8.65481 25.168C8.93013 24.9217 9.27789 24.9217 9.51697 25.1463C9.77055 25.3854 9.7778 25.7549 9.50973 26.0374C9.08952 26.4721 8.6693 26.8924 8.2346 27.3126C7.96653 27.5662 7.61152 27.5589 7.37244 27.3343C7.11886 27.0952 7.11886 26.733 7.37968 26.4432C7.58979 26.2186 7.81439 26.0085 8.03174 25.7911Z" fill="#191818"/>
</svg>
