<svg width="14" height="10" viewBox="0 0 14 10" fill="none" xmlns="http://www.w3.org/2000/svg">
<path d="M6.24023 9.26367C5.3457 9.24414 4.53711 9.13086 3.81445 8.92383C3.4082 8.80273 3.0293 8.63867 2.67773 8.43164C1.47852 7.67383 0.878906 6.51562 0.878906 4.95703C0.878906 3.94531 1.13672 3.0957 1.65234 2.4082C1.91797 2.05664 2.25977 1.75 2.67773 1.48828C3.53711 0.96875 4.72461 0.689453 6.24023 0.650391C6.61523 0.638672 6.9375 0.632812 7.20703 0.632812C7.48047 0.632812 7.80664 0.638672 8.18555 0.650391C8.56445 0.658203 8.96484 0.689453 9.38672 0.744141C9.80859 0.794922 10.2266 0.878906 10.6406 0.996094C11.0547 1.11328 11.4355 1.27734 11.7832 1.48828C12.127 1.70312 12.4004 1.92969 12.6035 2.16797C12.8066 2.40625 12.957 2.63867 13.0547 2.86523C13.1562 3.08789 13.2188 3.28906 13.2422 3.46875H9.33398C9.26758 3.27344 9.10547 3.12695 8.84766 3.0293C8.58984 2.92773 8.30469 2.86328 7.99219 2.83594C7.67969 2.80469 7.41797 2.78906 7.20703 2.78906C6.29688 2.78906 5.63086 2.93945 5.20898 3.24023C4.87695 3.4707 4.68164 3.81641 4.62305 4.27734C4.99805 4.10547 5.4043 3.98242 5.8418 3.9082C6.2793 3.83398 6.83008 3.79688 7.49414 3.79688H7.63477C7.97852 3.79688 8.36523 3.80273 8.79492 3.81445C9.99805 3.85352 10.9922 4.02734 11.7773 4.33594C12.7734 4.73047 13.3027 5.38867 13.3652 6.31055V6.43359C13.3652 7.40625 12.8809 8.11914 11.9121 8.57227C11.0996 8.95117 10.0391 9.17383 8.73047 9.24023C8.17188 9.26758 7.66406 9.28125 7.20703 9.28125C6.9375 9.28125 6.61523 9.27539 6.24023 9.26367ZM6.31055 7.0957C6.66211 7.11914 6.99023 7.13086 7.29492 7.13086C7.7832 7.13086 8.19141 7.11133 8.51953 7.07227C8.86719 7.03711 9.12695 6.96875 9.29883 6.86719C9.47461 6.76172 9.5625 6.60742 9.5625 6.4043C9.5625 6.20508 9.47461 6.05469 9.29883 5.95312C9.12695 5.84766 8.86719 5.77734 8.51953 5.74219C8.17188 5.70312 7.73438 5.68359 7.20703 5.68359C6.68359 5.68359 6.24805 5.70508 5.90039 5.74805C5.55273 5.78711 5.29102 5.85938 5.11523 5.96484C4.94336 6.06641 4.85742 6.21289 4.85742 6.4043C4.85742 6.6543 5.00781 6.83203 5.30859 6.9375C5.625 7.02344 5.95898 7.07617 6.31055 7.0957Z" fill="#191818"/>
</svg>
