<svg width="32" height="32" viewBox="0 0 32 32" fill="none" xmlns="http://www.w3.org/2000/svg">
<path d="M19.776 19.568C18.7064 20.4303 17.3739 20.9006 16 20.9006C14.6261 20.9006 13.2936 20.4303 12.224 19.568C11.8973 19.2964 11.476 19.1658 11.0529 19.2048C10.6298 19.2438 10.2396 19.4492 9.96801 19.776C9.69642 20.1027 9.56576 20.524 9.60477 20.9471C9.64378 21.3702 9.84926 21.7604 10.176 22.032C11.8101 23.3962 13.8713 24.1434 16 24.1434C18.1287 24.1434 20.1899 23.3962 21.824 22.032C22.1508 21.7604 22.3562 21.3702 22.3952 20.9471C22.4342 20.524 22.3036 20.1027 22.032 19.776C21.8975 19.6142 21.7325 19.4805 21.5464 19.3825C21.3602 19.2845 21.1566 19.2241 20.9471 19.2048C20.524 19.1658 20.1027 19.2964 19.776 19.568ZM11.2 14.4C11.5165 14.4 11.8258 14.3062 12.0889 14.1303C12.352 13.9545 12.5571 13.7047 12.6782 13.4123C12.7993 13.1199 12.831 12.7982 12.7693 12.4879C12.7075 12.1775 12.5551 11.8924 12.3314 11.6686C12.1076 11.4449 11.8225 11.2925 11.5121 11.2307C11.2018 11.169 10.8801 11.2007 10.5877 11.3218C10.2953 11.4429 10.0455 11.648 9.86965 11.9111C9.69384 12.1742 9.60001 12.4835 9.60001 12.8C9.60001 13.2243 9.76858 13.6313 10.0686 13.9314C10.3687 14.2314 10.7757 14.4 11.2 14.4ZM20.8 11.2C20.4836 11.2 20.1742 11.2938 19.9111 11.4696C19.648 11.6455 19.4429 11.8953 19.3218 12.1877C19.2007 12.4801 19.169 12.8018 19.2307 13.1121C19.2925 13.4225 19.4449 13.7076 19.6686 13.9314C19.8924 14.1551 20.1775 14.3075 20.4879 14.3693C20.7982 14.431 21.1199 14.3993 21.4123 14.2782C21.7047 14.1571 21.9545 13.952 22.1304 13.6889C22.3062 13.4258 22.4 13.1164 22.4 12.8C22.4 12.3757 22.2314 11.9687 21.9314 11.6686C21.6313 11.3686 21.2243 11.2 20.8 11.2ZM16 0C12.8355 0 9.74207 0.938383 7.11088 2.69649C4.4797 4.45459 2.42894 6.95344 1.21793 9.87706C0.00693254 12.8007 -0.309921 16.0177 0.307443 19.1214C0.924806 22.2251 2.44866 25.0761 4.6863 27.3137C6.92394 29.5513 9.77487 31.0752 12.8786 31.6926C15.9823 32.3099 19.1993 31.9931 22.1229 30.7821C25.0466 29.5711 27.5454 27.5203 29.3035 24.8891C31.0616 22.2579 32 19.1645 32 16C32 13.8988 31.5861 11.8183 30.7821 9.87706C29.978 7.93585 28.7994 6.17203 27.3137 4.68629C25.828 3.20055 24.0641 2.022 22.1229 1.21793C20.1817 0.413852 18.1012 0 16 0ZM16 28.8C13.4684 28.8 10.9937 28.0493 8.88871 26.6428C6.78376 25.2363 5.14315 23.2372 4.17435 20.8983C3.20555 18.5594 2.95206 15.9858 3.44596 13.5028C3.93985 11.0199 5.15893 8.73914 6.94904 6.94903C8.73915 5.15892 11.0199 3.93984 13.5028 3.44595C15.9858 2.95206 18.5595 3.20554 20.8984 4.17434C23.2372 5.14314 25.2363 6.78375 26.6428 8.8887C28.0493 10.9936 28.8 13.4684 28.8 16C28.8 19.3948 27.4514 22.6505 25.051 25.051C22.6505 27.4514 19.3948 28.8 16 28.8Z" fill="#4BC8A2"/>
</svg>
