<svg width="41" height="41" viewBox="0 0 41 41" fill="none" xmlns="http://www.w3.org/2000/svg">
<path d="M12.1329 32.4048C12.0746 32.2725 12.0058 32.1402 11.9635 31.992C11.773 31.3886 12.027 30.764 12.5828 30.4623C13.1226 30.1659 13.8107 30.293 14.2077 30.764C14.6046 31.2351 14.6152 31.9126 14.2341 32.4207C13.8848 32.8865 13.1914 33.04 12.641 32.7859C12.5669 32.7542 12.4875 32.7171 12.4134 32.6854C12.3181 32.5901 12.2281 32.5001 12.1329 32.4048Z" fill="#FFD5CF"/>
<path d="M12.4051 7.881C12.4898 7.83866 12.5745 7.8069 12.6592 7.76455C13.2308 7.5105 13.9189 7.69045 14.2524 8.18269C14.6281 8.72786 14.5699 9.42123 14.12 9.87113C13.6701 10.321 12.9715 10.374 12.4316 10.0034C11.9447 9.6647 11.7594 8.97133 12.0188 8.40499C12.0611 8.32031 12.0929 8.23562 12.1352 8.15094C12.2199 8.06625 12.3152 7.97098 12.4051 7.881Z" fill="#FFD5CF"/>
<path d="M8.16966 12.1202C8.24376 12.0885 8.32316 12.0514 8.39196 12.0144C8.96889 11.7444 9.67284 11.9191 10.0169 12.4219C10.3874 12.9618 10.3345 13.6605 9.88456 14.1103C9.42937 14.5655 8.72012 14.6185 8.16966 14.2268C7.68801 13.8828 7.51864 13.1841 7.78328 12.623C7.81504 12.5489 7.85209 12.4696 7.88385 12.3954C7.98441 12.3055 8.07968 12.2102 8.16966 12.1202Z" fill="#FFD5CF"/>
<path d="M7.89171 28.1698C7.85996 28.1063 7.83349 28.0375 7.79644 27.9687C7.51592 27.4024 7.68 26.6878 8.17224 26.3332C8.7174 25.9468 9.43195 25.9944 9.88713 26.4496C10.3476 26.9101 10.3953 27.6247 10.0036 28.1645C9.64895 28.6568 8.93441 28.8208 8.37337 28.535C8.30985 28.5033 8.24105 28.4768 8.17224 28.4398C8.07697 28.3551 7.98169 28.2598 7.89171 28.1698Z" fill="#FFD5CF"/>
<path d="M17.9727 18.3771C19.0101 19.4251 19.0101 21.1506 17.9622 22.188C16.9089 23.2307 15.194 23.2307 14.1513 22.188C13.1033 21.14 13.1033 19.3933 14.1619 18.3559C15.2151 17.3238 16.9406 17.3344 17.9727 18.3771Z" fill="#FF351A"/>
<path d="M22.1769 26.4575C21.0971 27.4843 19.3822 27.4631 18.3607 26.4098C17.3233 25.3301 17.3498 23.5887 18.4136 22.5778C19.4881 21.5563 21.2136 21.588 22.2245 22.6413C23.2566 23.7158 23.2302 25.4465 22.1769 26.4575Z" fill="#FF351A"/>
<path d="M26.4344 22.2013C25.3812 23.2334 23.6557 23.2334 22.6236 22.1907C21.5809 21.1374 21.5862 19.3854 22.6447 18.3586C23.7086 17.3265 25.4288 17.3424 26.4556 18.3904C27.493 19.449 27.4771 21.1691 26.4344 22.2013Z" fill="#FF351A"/>
<path d="M22.2291 14.1589C23.2612 15.2122 23.24 16.9377 22.1867 17.9698C21.1281 19.0072 19.3974 18.9914 18.3758 17.9381C17.3331 16.8636 17.349 15.1328 18.4182 14.106C19.4768 13.0792 21.1917 13.1004 22.2291 14.1589Z" fill="#FF351A"/>
<path d="M25.5225 13.3044C24.8344 13.9924 23.7176 13.9977 23.0349 13.3044C22.3468 12.6163 22.3521 11.4995 23.0402 10.8114C23.7229 10.1392 24.8186 10.1339 25.5119 10.8167C26.2053 11.4995 26.2106 12.6163 25.5225 13.3044Z" fill="#FF9486"/>
<path d="M27.2714 25.5153C26.5833 24.8272 26.5886 23.7104 27.282 23.0276C27.9807 22.3396 29.0816 22.3501 29.775 23.0435C30.4472 23.7263 30.4472 24.8272 29.7697 25.5153C29.071 26.2034 27.9595 26.2034 27.2714 25.5153Z" fill="#FF9486"/>
<path d="M13.3108 25.5153C12.6228 26.2034 11.506 26.1981 10.8232 25.5047C10.1404 24.8113 10.151 23.6998 10.8444 23.0171C11.5271 22.3449 12.6334 22.3501 13.3161 23.0329C13.9989 23.7157 13.9989 24.8272 13.3108 25.5153Z" fill="#FF9486"/>
<path d="M15.0681 13.3044C14.38 12.6163 14.38 11.5048 15.0681 10.8167C15.7614 10.1339 16.8729 10.1339 17.5557 10.8273C18.2332 11.5154 18.2332 12.6057 17.5504 13.2991C16.8729 13.9871 15.7561 13.9924 15.0681 13.3044Z" fill="#FF9486"/>
<path d="M13.3161 15.0563C14.0042 15.7444 13.9989 16.8612 13.3055 17.544C12.6174 18.2215 11.5165 18.2215 10.839 17.544C10.1509 16.8559 10.1404 15.7444 10.8337 15.051C11.5165 14.3683 12.628 14.3683 13.3161 15.0563Z" fill="#FF9486"/>
<path d="M27.2655 15.0617C27.9536 14.363 29.0598 14.3577 29.7532 15.0511C30.4466 15.7339 30.4466 16.856 29.7585 17.5441C29.0704 18.2321 27.9536 18.2268 27.2708 17.5335C26.588 16.8507 26.588 15.7498 27.2655 15.0617Z" fill="#FF9486"/>
<path d="M25.5288 27.27C26.2169 27.9581 26.2063 29.0802 25.5077 29.7577C24.8037 30.4405 23.7028 30.4299 23.0147 29.7312C22.3425 29.0485 22.3531 27.9369 23.0306 27.2595C23.7292 26.5714 24.8355 26.5767 25.5288 27.27Z" fill="#FF9486"/>
<path d="M15.0792 27.2489C15.762 26.5767 16.8629 26.5767 17.551 27.2542C18.2444 27.937 18.2444 29.0591 17.5563 29.7472C16.8682 30.4352 15.7514 30.4299 15.0633 29.7419C14.3753 29.0432 14.3859 27.9423 15.0792 27.2489Z" fill="#FF9486"/>
<path d="M31.2804 19.023C31.9897 18.3455 33.1012 18.3667 33.7681 19.0759C34.435 19.7852 34.4191 20.8702 33.7257 21.5424C33.0218 22.2252 31.9156 22.2093 31.2381 21.5106C30.5553 20.8067 30.5765 19.6952 31.2804 19.023Z" fill="#FFD5CF"/>
<path d="M21.5419 33.7236C20.8592 34.4169 19.7477 34.4275 19.0543 33.7342C18.3609 33.0514 18.3609 31.9399 19.0543 31.2465C19.7371 30.5637 20.8274 30.5531 21.5208 31.2359C22.2247 31.9187 22.23 33.0249 21.5419 33.7236Z" fill="#FFD5CF"/>
<path d="M21.542 9.30955C20.8539 10.0082 19.7477 10.0135 19.0543 9.32013C18.361 8.62676 18.3557 7.52055 19.0543 6.83247C19.7371 6.14969 20.8274 6.14969 21.5208 6.82189C22.2195 7.49938 22.2301 8.61089 21.542 9.30955Z" fill="#FFD5CF"/>
<path d="M9.33172 21.5257C8.64364 22.2243 7.53743 22.219 6.84406 21.5257C6.15599 20.8376 6.16128 19.7208 6.85465 19.038C7.54272 18.3605 8.62777 18.3552 9.32113 19.038C10.0198 19.7261 10.0251 20.8323 9.33172 21.5257Z" fill="#FFD5CF"/>
<path d="M30.6915 14.1066C30.194 13.5985 30.1993 12.7675 30.7021 12.2647C31.2049 11.7619 32.0412 11.7619 32.544 12.2647C33.0521 12.7728 33.0468 13.625 32.5334 14.1278C32.0253 14.6253 31.1943 14.62 30.6915 14.1066Z" fill="#FFD5CF"/>
<path d="M28.3097 30.6866C28.8125 31.1895 28.8125 32.0257 28.315 32.5339C27.8069 33.042 26.9494 33.042 26.4519 32.5233C25.9543 32.0152 25.9649 31.1789 26.4731 30.6813C26.9759 30.1785 27.8069 30.1838 28.3097 30.6866Z" fill="#FFD5CF"/>
<path d="M28.3096 9.88295C27.8068 10.3858 26.9705 10.3858 26.4677 9.88295C25.9649 9.38012 25.9596 8.54914 26.4571 8.04102C26.9599 7.52761 27.8174 7.52761 28.3202 8.04102C28.8178 8.54914 28.8125 9.38012 28.3096 9.88295Z" fill="#FFD5CF"/>
<path d="M30.7187 26.4341C31.2268 25.9365 32.0684 25.9524 32.5659 26.4605C33.0634 26.9686 33.0528 27.8049 32.55 28.3077C32.0366 28.8106 31.1897 28.8 30.6869 28.276C30.1841 27.7626 30.2 26.9316 30.7187 26.4341Z" fill="#FFD5CF"/>
</svg>
