<svg width="50" height="50" viewBox="0 0 50 50" fill="none" xmlns="http://www.w3.org/2000/svg">
<rect width="50" height="50" rx="10" fill="white"/>
<rect width="50" height="50" rx="10" fill="#F8F9FA"/>
<circle cx="25" cy="25" r="5" fill="#191818"/>
<circle cx="20" cy="25" r="5" fill="#191818"/>
<circle cx="25" cy="30" r="5" fill="#191818"/>
<circle cx="33" cy="33" r="3" fill="#191818"/>
<circle cx="29" cy="38" r="3" fill="#191818"/>
<circle cx="29" cy="12" r="3" fill="#191818"/>
<circle cx="21" cy="38" r="3" fill="#191818"/>
<circle cx="21" cy="12" r="3" fill="#191818"/>
<circle cx="17" cy="33" r="3" fill="#191818"/>
<circle cx="17" cy="17" r="3" fill="#191818"/>
<circle cx="33" cy="17" r="3" fill="#191818"/>
<circle cx="38" cy="21" r="3" fill="#191818"/>
<circle cx="25" cy="8" r="2" fill="#191818"/>
<circle cx="25" cy="42" r="2" fill="#191818"/>
<circle cx="8" cy="25" r="2" fill="#191818"/>
<circle cx="42" cy="25" r="2" fill="#191818"/>
<circle cx="12" cy="21" r="3" fill="#191818"/>
<circle cx="38" cy="29" r="3" fill="#191818"/>
<circle cx="12" cy="29" r="3" fill="#191818"/>
<circle cx="15" cy="25" r="3" fill="#191818"/>
<circle cx="35" cy="25" r="3" fill="#191818"/>
<circle cx="30" cy="30" r="3" fill="#191818"/>
<circle cx="19" cy="19" r="3" fill="#191818"/>
<circle cx="31" cy="19" r="3" fill="#191818"/>
<circle cx="19" cy="31" r="3" fill="#191818"/>
<circle cx="25" cy="15" r="3" fill="#191818"/>
<circle cx="25" cy="35" r="3" fill="#191818"/>
<circle cx="25" cy="20" r="5" fill="#191818"/>
<circle cx="30" cy="25" r="5" fill="#191818"/>
</svg>
