<svg width="14" height="13" viewBox="0 0 14 13" fill="none" xmlns="http://www.w3.org/2000/svg">
<path d="M7.50124 13.0054C11.0926 13.0054 14.004 10.0941 14.004 6.50271C14.004 2.91136 11.0926 0 7.50124 0C3.9099 0 0.998535 2.91136 0.998535 6.50271C0.998535 10.0941 3.9099 13.0054 7.50124 13.0054Z" fill="#3C4043"/>
<path fill-rule="evenodd" clip-rule="evenodd" d="M3.93854 6.43327C5.83358 5.61028 7.09514 5.06343 7.72862 4.79812C9.53162 4.04552 9.91063 3.91557 10.1543 3.91016C10.2084 3.91016 10.3275 3.92099 10.4088 3.98596C10.4737 4.0401 10.49 4.11049 10.5008 4.16463C10.5116 4.21878 10.5225 4.33248 10.5116 4.41911C10.4142 5.44785 9.99185 7.94389 9.77527 9.09174C9.68323 9.57904 9.50455 9.74147 9.33129 9.75772C8.95228 9.7902 8.66532 9.50865 8.30255 9.27042C7.72862 8.89683 7.40917 8.66401 6.85149 8.29583C6.20718 7.8735 6.62408 7.64068 6.99226 7.26168C7.08972 7.16422 8.75195 5.64818 8.78443 5.51282C8.78985 5.49658 8.78985 5.4316 8.75195 5.39912C8.71405 5.36663 8.6599 5.37746 8.61659 5.38829C8.55703 5.39912 7.64741 6.00553 5.8769 7.20212C5.617 7.38079 5.38419 7.46742 5.17302 7.46201C4.9402 7.45659 4.49622 7.33206 4.16053 7.22377C3.75445 7.09383 3.42958 7.02344 3.45666 6.79604C3.4729 6.67692 3.63533 6.5578 3.93854 6.43327Z" fill="white"/>
</svg>
