<svg width="14" height="10" viewBox="0 0 14 10" fill="none" xmlns="http://www.w3.org/2000/svg">
<path d="M9.24609 3.43359C9.24609 3.25781 9.17969 3.12305 9.04688 3.0293C8.91406 2.93555 8.70117 2.87109 8.4082 2.83594C8.11914 2.80078 7.73828 2.7832 7.26562 2.7832C6.83594 2.7832 6.48242 2.79883 6.20508 2.83008C5.92773 2.85742 5.71484 2.9082 5.56641 2.98242C5.41797 3.05273 5.32617 3.1543 5.29102 3.28711H1.20703C1.20703 3.09961 1.24219 2.91016 1.3125 2.71875C1.45703 2.33594 1.69336 1.99414 2.02148 1.69336C2.40039 1.33789 2.99219 1.07617 3.79688 0.908203C4.6875 0.724609 5.84375 0.632812 7.26562 0.632812C7.87891 0.632812 8.47461 0.652344 9.05273 0.691406C10.2988 0.773438 11.2676 0.980469 11.959 1.3125C12.7207 1.68359 13.1016 2.23047 13.1016 2.95312L13.0957 3.01758C13.0723 3.48242 12.8828 3.86914 12.5273 4.17773C12.2891 4.38477 12.043 4.54102 11.7891 4.64648L11.8535 4.66406C12.2168 4.73438 12.5449 4.86719 12.8379 5.0625C13.2871 5.35938 13.5195 5.82031 13.5352 6.44531V6.45703C13.5352 7.61328 12.8809 8.40234 11.5723 8.82422C10.8418 9.05859 9.91992 9.19922 8.80664 9.24609C8.29492 9.26953 7.78125 9.28125 7.26562 9.28125C6.03906 9.28125 5.03711 9.22656 4.25977 9.11719C3.25195 8.97266 2.47461 8.70898 1.92773 8.32617C1.47852 8.00977 1.16211 7.54883 0.978516 6.94336C0.919922 6.74414 0.886719 6.53516 0.878906 6.31641H4.97461C4.9707 6.33984 4.96875 6.36523 4.96875 6.39258C4.96875 6.58789 5.05664 6.73828 5.23242 6.84375C5.41211 6.94922 5.67188 7.02344 6.01172 7.06641C6.35156 7.10938 6.76953 7.13086 7.26562 7.13086C7.75781 7.13086 8.17383 7.10938 8.51367 7.06641C8.85742 7.02344 9.11719 6.94922 9.29297 6.84375C9.46875 6.73828 9.55664 6.58789 9.55664 6.39258C9.55664 6.25977 9.52344 6.1543 9.45703 6.07617C9.39062 5.99414 9.27148 5.93359 9.09961 5.89453C8.93164 5.85156 8.69922 5.82422 8.40234 5.8125C8.10547 5.80078 7.72656 5.79492 7.26562 5.79492H5.22656V3.96094H7.26562C7.63281 3.96094 7.94336 3.95703 8.19727 3.94922C8.45117 3.9375 8.6543 3.91602 8.80664 3.88477C8.96289 3.84961 9.07422 3.79688 9.14062 3.72656C9.21094 3.65234 9.24609 3.55469 9.24609 3.43359Z" fill="#191818"/>
</svg>
