<svg width="68" height="41" viewBox="0 0 68 41" fill="none" xmlns="http://www.w3.org/2000/svg">
<circle cx="25.7606" cy="22.8856" r="4.2684" fill="#54A3FF"/>
<circle cx="42.3934" cy="22.8856" r="4.2684" fill="#54A3FF"/>
<circle cx="59.0262" cy="22.8856" r="4.2684" fill="#54A3FF"/>
<circle cx="9.12777" cy="22.8856" r="4.2684" fill="#54A3FF"/>
<ellipse cx="5.07403" cy="35.3943" rx="3.2381" ry="3.2381" fill="#067AFF"/>
<circle cx="19.6501" cy="35.6189" r="4.85714" fill="#067AFF"/>
<circle cx="34.2204" cy="35.6189" r="4.85714" fill="#067AFF"/>
<circle cx="48.5759" cy="35.6189" r="4.85714" fill="#067AFF"/>
<circle cx="63.1384" cy="35.6189" r="4.85714" fill="#067AFF"/>
<circle cx="4.85714" cy="35.6189" r="4.85714" fill="#067AFF"/>
<ellipse cx="48.7928" cy="35.3943" rx="3.2381" ry="3.2381" fill="#067AFF"/>
<ellipse cx="63.3631" cy="35.3943" rx="3.2381" ry="3.2381" fill="#067AFF"/>
<circle cx="12.8517" cy="11.6603" r="3.1369" fill="#94C6FF"/>
<circle cx="23.8322" cy="11.6603" r="3.1369" fill="#94C6FF"/>
<circle cx="34.8088" cy="11.6603" r="3.1369" fill="#94C6FF"/>
<circle cx="45.7892" cy="11.6603" r="3.1369" fill="#94C6FF"/>
<circle cx="56.7697" cy="11.6603" r="3.1369" fill="#94C6FF"/>
<circle cx="16.6387" cy="2.06061" r="2.06061" fill="#C6E0FF"/>
<circle cx="25.9122" cy="2.06061" r="2.06061" fill="#C6E0FF"/>
<circle cx="35.1856" cy="2.06061" r="2.06061" fill="#C6E0FF"/>
<circle cx="44.1583" cy="2.06061" r="2.06061" fill="#C6E0FF"/>
<circle cx="53.4278" cy="2.06061" r="2.06061" fill="#C6E0FF"/>
</svg>
