<svg width="29" height="26" viewBox="0 0 29 26" fill="none" xmlns="http://www.w3.org/2000/svg">
<path d="M13.05 0C15.7419 3.99594e-08 18.3236 1.06527 20.2271 2.96148C22.1306 4.85768 23.2 7.42948 23.2 10.1111C23.2 12.7927 22.1306 15.3645 20.2271 17.2607C18.3236 19.1569 15.7419 20.2222 13.05 20.2222C11.1272 20.2222 9.28311 19.4613 7.92348 18.1069C6.56384 16.7525 5.8 14.9155 5.8 13C5.8 11.0845 6.56384 9.24755 7.92348 7.89312C9.28311 6.53869 11.1272 5.77778 13.05 5.77778C14.2037 5.77778 15.3101 6.23432 16.1259 7.04698C16.9417 7.85964 17.4 8.96184 17.4 10.1111C17.4 11.2604 16.9417 12.3626 16.1259 13.1752C15.3101 13.9879 14.2037 14.4444 13.05 14.4444C12.6654 14.4444 12.2966 14.2923 12.0247 14.0214C11.7528 13.7505 11.6 13.3831 11.6 13C11.6 12.6169 11.7528 12.2495 12.0247 11.9786C12.2966 11.7077 12.6654 11.5556 13.05 11.5556C13.4346 11.5556 13.8034 11.4034 14.0753 11.1325C14.3472 10.8616 14.5 10.4942 14.5 10.1111C14.5 9.72802 14.3472 9.36062 14.0753 9.08974C13.8034 8.81885 13.4346 8.66667 13.05 8.66667C11.8963 8.66667 10.7899 9.12321 9.97408 9.93587C9.1583 10.7485 8.7 11.8507 8.7 13C8.7 14.1493 9.1583 15.2515 9.97408 16.0641C10.7899 16.8768 11.8963 17.3333 13.05 17.3333C14.9728 17.3333 16.8169 16.5724 18.1765 15.218C19.5362 13.8636 20.3 12.0266 20.3 10.1111C20.3 8.19566 19.5362 6.35866 18.1765 5.00423C16.8169 3.6498 14.9728 2.88889 13.05 2.88889C10.3581 2.88889 7.77636 3.95416 5.87287 5.85036C3.96937 7.74657 2.9 10.3184 2.9 13C2.9 15.6816 3.96937 18.2534 5.87287 20.1496C7.77636 22.0458 10.3581 23.1111 13.05 23.1111C16.5111 23.1111 19.8304 21.7415 22.2777 19.3035C24.7251 16.8655 26.1 13.5589 26.1 10.1111C26.1 9.72802 26.2528 9.36062 26.5247 9.08974C26.7966 8.81885 27.1654 8.66667 27.55 8.66667C27.9346 8.66667 28.3034 8.81885 28.5753 9.08974C28.8472 9.36062 29 9.72802 29 10.1111C29 14.3251 27.3196 18.3665 24.3284 21.3463C21.3371 24.326 17.2802 26 13.05 26C9.58892 26 6.26961 24.6304 3.82226 22.1924C1.37491 19.7544 0 16.4478 0 13C0 9.55219 1.37491 6.24558 3.82226 3.80761C6.26961 1.36964 9.58892 5.13764e-08 13.05 0Z" fill="#067AFF"/>
</svg>
