<svg width="32" height="31" viewBox="0 0 32 31" fill="none" xmlns="http://www.w3.org/2000/svg">
<path d="M20.2544 10.3279L16.6468 2.41863C16.3922 1.86046 15.6078 1.86046 15.3532 2.41863L11.7456 10.3279C11.6418 10.5554 11.4286 10.7121 11.1826 10.7416L2.62933 11.7671C2.0257 11.8395 1.78328 12.5939 2.22956 13.0113L8.55321 18.9251C8.7351 19.0951 8.81653 19.3486 8.76825 19.5943L7.08963 28.1374C6.97117 28.7403 7.60583 29.2066 8.13624 28.9064L15.6521 24.652C15.8682 24.5296 16.1318 24.5296 16.3479 24.652L23.8638 28.9064C24.3942 29.2066 25.0288 28.7403 24.9104 28.1374L23.2318 19.5943C23.1835 19.3486 23.2649 19.0951 23.4468 18.9251L29.7704 13.0113C30.2167 12.5939 29.9743 11.8395 29.3707 11.7671L20.8174 10.7416C20.5714 10.7121 20.3582 10.5554 20.2544 10.3279Z" stroke="#067AFF" stroke-width="3.5" stroke-linecap="round" stroke-linejoin="round"/>
</svg>
