<svg width="14" height="9" viewBox="0 0 14 9" fill="none" xmlns="http://www.w3.org/2000/svg">
<path d="M9.25781 3.55664C9.33203 3.48633 9.36914 3.41016 9.36914 3.32812C9.36914 3.29297 9.36328 3.25977 9.35156 3.22852C9.28125 2.93555 8.66211 2.78906 7.49414 2.78906C6.91602 2.78906 6.46875 2.82422 6.15234 2.89453C5.83594 2.96094 5.60742 3.06641 5.4668 3.21094C5.33008 3.35547 5.24805 3.53516 5.2207 3.75H1.36523C1.36523 3.42969 1.45508 3.0957 1.63477 2.74805C1.81836 2.40039 2.08984 2.07812 2.44922 1.78125C3.38281 1.01562 5.06445 0.632812 7.49414 0.632812C8.13086 0.632812 8.76953 0.664062 9.41016 0.726562C10.5078 0.835938 11.4277 1.08594 12.1699 1.47656C12.4707 1.63672 12.7246 1.83984 12.9316 2.08594C13.1973 2.40625 13.3301 2.82227 13.3301 3.33398C13.3301 3.73242 13.2188 4.0918 12.9961 4.41211C12.7773 4.72852 12.3867 4.98242 11.8242 5.17383C11.3594 5.33789 10.7715 5.48047 10.0605 5.60156C9.35352 5.72266 8.40039 5.85352 7.20117 5.99414C5.97852 6.13477 5.22461 6.33203 4.93945 6.58594L4.89844 6.63281H13.1777V9H0.878906C1.01953 8.21875 1.13477 7.65625 1.22461 7.3125C1.33398 6.90625 1.49609 6.53125 1.71094 6.1875C1.92578 5.84375 2.23438 5.5332 2.63672 5.25586C3.47266 4.68555 4.84961 4.29492 6.76758 4.08398C7.55664 3.99805 8.14062 3.91406 8.51953 3.83203C8.90234 3.74609 9.14844 3.6543 9.25781 3.55664Z" fill="#191818"/>
</svg>
