<svg width="14" height="14" viewBox="0 0 14 14" fill="none" xmlns="http://www.w3.org/2000/svg">
<g clip-path="url(#clip0_3149_18349)">
<path fill-rule="evenodd" clip-rule="evenodd" d="M1.9107 1.04889C0.998535 1.96105 0.998535 3.42962 0.998535 6.36589V6.90755C0.998535 9.84339 0.998535 11.3124 1.9107 12.2246C2.82287 13.1367 4.29144 13.1367 7.2277 13.1367H7.76937C10.7052 13.1367 12.1742 13.1367 13.0864 12.2246C13.9985 11.3124 13.9985 9.84382 13.9985 6.90755V6.36589C13.9985 3.43005 13.9985 1.96105 13.0864 1.04889C12.1742 0.136719 10.7056 0.136719 7.76937 0.136719H7.2277C4.29187 0.136719 2.82287 0.136719 1.9107 1.04889ZM3.57166 4.19922H4.51936C4.7616 4.19922 4.8526 4.30539 4.9436 4.56799C5.40726 5.91825 6.189 7.09865 6.5101 7.09865C6.631 7.09865 6.68603 7.04319 6.68603 6.73682V5.34105C6.66433 4.94372 6.52551 4.77184 6.42269 4.64454C6.35922 4.56595 6.30946 4.50435 6.30946 4.41719C6.30946 4.31102 6.40003 4.19922 6.5504 4.19922H8.0402C8.24126 4.19922 8.31103 4.30669 8.31103 4.54762V6.42568C8.31103 6.62632 8.39813 6.69695 8.45836 6.69695C8.57883 6.69695 8.67936 6.62632 8.90036 6.40532C9.5833 5.64222 10.0652 4.46745 10.0652 4.46745C10.1254 4.32662 10.2368 4.19922 10.4777 4.19922H11.4254C11.7123 4.19922 11.7729 4.34699 11.7123 4.54762C11.5918 5.10012 10.437 6.72685 10.437 6.72685C10.3364 6.88762 10.2961 6.96779 10.437 7.14849C10.4867 7.21811 10.5927 7.32204 10.7139 7.44086C10.8379 7.56239 10.9778 7.69951 11.0896 7.83142C11.4969 8.28945 11.8037 8.67598 11.8891 8.94205C11.9675 9.20942 11.8319 9.34505 11.561 9.34505H10.6129C10.3591 9.34505 10.2314 9.2029 9.95516 8.89547C9.83812 8.76519 9.69441 8.60522 9.50313 8.41382C8.94023 7.87172 8.69973 7.80152 8.5589 7.80152C8.36823 7.80152 8.31103 7.85569 8.31103 8.12652V8.97672C8.31103 9.20942 8.2365 9.34505 7.63373 9.34505C6.6297 9.34505 5.526 8.73535 4.74296 7.61042C3.56776 5.96375 3.24666 4.71835 3.24666 4.46745C3.24666 4.32662 3.30083 4.19922 3.57166 4.19922Z" fill="#3C4043"/>
</g>
<defs>
<clipPath id="clip0_3149_18349">
<rect width="13" height="13" fill="white" transform="translate(0.998535 0.136719)"/>
</clipPath>
</defs>
</svg>
