<svg width="17" height="16" viewBox="0 0 17 16" fill="none" xmlns="http://www.w3.org/2000/svg">
<path d="M8.5 1.1792L6.59642 5.2526C6.42195 5.62592 6.06648 5.8778 5.66232 5.92509L1.17033 6.45078L4.48435 9.47572C4.78763 9.75254 4.92623 10.1685 4.84454 10.5743L3.96227 14.9569L7.92606 12.7669C8.28303 12.5697 8.71697 12.5697 9.07394 12.7669L13.0377 14.9569L12.1555 10.5743L12.8907 10.4263L12.1555 10.5743C12.0738 10.1685 12.2124 9.75255 12.5156 9.47572L13.0213 10.0297L12.5156 9.47572L15.8297 6.45078L11.3377 5.92509C10.9335 5.8778 10.578 5.62592 10.4036 5.2526L8.5 1.1792ZM3.82538 15.6369C3.82542 15.6367 3.82546 15.6365 3.82549 15.6363L3.82538 15.6369Z" stroke="white" stroke-width="1.5" stroke-linecap="round" stroke-linejoin="round"/>
</svg>
