<svg width="16" height="11" viewBox="0 0 16 11" fill="none" xmlns="http://www.w3.org/2000/svg">
<path d="M15.8491 2.63574C15.8491 2.63574 15.7026 1.60156 15.2515 1.14746C14.6802 0.549805 14.0415 0.546875 13.7485 0.511719C11.6509 0.359375 8.50147 0.359375 8.50147 0.359375H8.4956C8.4956 0.359375 5.34619 0.359375 3.24854 0.511719C2.95557 0.546875 2.31689 0.549805 1.74561 1.14746C1.29443 1.60156 1.15088 2.63574 1.15088 2.63574C1.15088 2.63574 0.998535 3.85156 0.998535 5.06445V6.20117C0.998535 7.41406 1.14795 8.62988 1.14795 8.62988C1.14795 8.62988 1.29443 9.66406 1.74268 10.1182C2.31396 10.7158 3.06397 10.6953 3.39795 10.7598C4.59912 10.874 8.49854 10.9092 8.49854 10.9092C8.49854 10.9092 11.6509 10.9033 13.7485 10.7539C14.0415 10.7188 14.6802 10.7158 15.2515 10.1182C15.7026 9.66406 15.8491 8.62988 15.8491 8.62988C15.8491 8.62988 15.9985 7.41699 15.9985 6.20117V5.06445C15.9985 3.85156 15.8491 2.63574 15.8491 2.63574ZM6.94873 7.58105V3.36523L11.0005 5.48047L6.94873 7.58105Z" fill="#3C4043"/>
</svg>
