<?xml version="1.0" standalone="no"?>
<!DOCTYPE svg PUBLIC "-//W3C//DTD SVG 20010904//EN"
 "http://www.w3.org/TR/2001/REC-SVG-20010904/DTD/svg10.dtd">
<svg version="1.0" xmlns="http://www.w3.org/2000/svg"
 width="120.000000pt" height="120.000000pt" viewBox="0 0 120.000000 120.000000"
 preserveAspectRatio="xMidYMid meet">
<metadata>
Created by potrace 1.11, written by Peter Selinger 2001-2013
</metadata>
<g transform="translate(0.000000,120.000000) scale(0.100000,-0.100000)"
fill="#000000" stroke="none">
<path d="M72 1180 c-18 -11 -41 -34 -52 -52 -19 -32 -20 -52 -20 -529 l0 -496
23 -34 c47 -70 36 -69 577 -69 541 0 530 -1 577 69 l23 34 0 496 c0 477 -1
497 -20 529 -11 18 -34 41 -52 52 -32 19 -52 20 -528 20 -476 0 -496 -1 -528
-20z m638 -400 c17 -17 20 -33 20 -107 0 -91 -13 -123 -51 -123 -33 0 -31 -20
9 -68 62 -75 63 -72 -26 -72 l-79 0 -46 60 -47 60 -80 0 -80 0 0 -60 0 -60
-65 0 -65 0 0 195 0 195 245 0 c232 0 246 -1 265 -20z m249 -6 c41 -52 23
-224 -22 -224 -7 0 -18 -4 -26 -9 -12 -7 -6 -19 26 -58 62 -75 62 -73 -9 -73
l-63 1 -42 58 c-47 64 -50 71 -29 71 8 0 24 12 35 26 17 22 21 41 21 106 0 56
-5 86 -16 103 l-16 25 60 0 c53 0 63 -3 81 -26z"/>
<path d="M330 665 l0 -45 136 0 135 0 -3 43 -3 42 -132 3 -133 3 0 -46z"/>
</g>
</svg>
