<svg width="6" height="11" viewBox="0 0 6 11" fill="none" xmlns="http://www.w3.org/2000/svg">
<path d="M4.6047 0.771447C4.79996 0.576184 5.11654 0.576184 5.31181 0.771447C5.50707 0.966709 5.50707 1.28329 5.31181 1.47855L4.6047 0.771447ZM0.583252 5.5L0.229699 5.85355C0.0344362 5.65829 0.0344362 5.34171 0.229699 5.14645L0.583252 5.5ZM5.31181 9.52145C5.50707 9.71671 5.50707 10.0333 5.31181 10.2286C5.11654 10.4238 4.79996 10.4238 4.6047 10.2286L5.31181 9.52145ZM5.31181 1.47855L0.936805 5.85355L0.229699 5.14645L4.6047 0.771447L5.31181 1.47855ZM0.936805 5.14645L5.31181 9.52145L4.6047 10.2286L0.229699 5.85355L0.936805 5.14645Z" fill="#191818"/>
</svg>
